<svg id="Layer_1" data-name="Layer 1" xmlns="http://www.w3.org/2000/svg" viewBox="0 0 70 70"><defs><style>.cls-1{fill:#bd8c61;}</style></defs><title>Icons</title><path class="cls-1" d="M24.84,10.21A3.52,3.52,0,0,1,23,8a3.53,3.53,0,0,1,4.78,2.23A3.52,3.52,0,0,1,24.84,10.21Z"/><path class="cls-1" d="M25.13,6.13A3.52,3.52,0,0,1,22.95,8a3.53,3.53,0,0,1,2.23-4.78A3.52,3.52,0,0,1,25.13,6.13Z"/><path class="cls-1" d="M21.08,12.13a3.52,3.52,0,0,1-2.24-1.83,3.53,3.53,0,0,1,5.1,1.37A3.52,3.52,0,0,1,21.08,12.13Z"/><path class="cls-1" d="M20.65,8a3.52,3.52,0,0,1-1.83,2.24,3.53,3.53,0,0,1,1.37-5.1A3.52,3.52,0,0,1,20.65,8Z"/><path class="cls-1" d="M17.7,14.67a3.52,3.52,0,0,1-2.52-1.41,3.53,3.53,0,0,1,5.26.46A3.52,3.52,0,0,1,17.7,14.67Z"/><path class="cls-1" d="M16.57,10.73a3.52,3.52,0,0,1-1.41,2.52A3.53,3.53,0,0,1,15.63,8,3.52,3.52,0,0,1,16.57,10.73Z"/><path class="cls-1" d="M14.81,17.76a3.52,3.52,0,0,1-2.73-.95,3.53,3.53,0,0,1,5.26-.46A3.52,3.52,0,0,1,14.81,17.76Z"/><path class="cls-1" d="M13,14.08a3.52,3.52,0,0,1-.95,2.73,3.53,3.53,0,0,1-.46-5.26A3.52,3.52,0,0,1,13,14.08Z"/><path class="cls-1" d="M12.5,21.32a3.52,3.52,0,0,1-2.85-.46,3.53,3.53,0,0,1,5.1-1.37A3.52,3.52,0,0,1,12.5,21.32Z"/><path class="cls-1" d="M10.09,18a3.52,3.52,0,0,1-.46,2.85,3.53,3.53,0,0,1-1.37-5.1A3.52,3.52,0,0,1,10.09,18Z"/><path class="cls-1" d="M10.83,25.22a3.52,3.52,0,0,1-2.89,0A3.53,3.53,0,0,1,12.72,23,3.52,3.52,0,0,1,10.83,25.22Z"/><path class="cls-1" d="M7.89,22.37a3.52,3.52,0,0,1,0,2.89A3.53,3.53,0,0,1,5.7,20.48,3.52,3.52,0,0,1,7.89,22.37Z"/><path class="cls-1" d="M9.87,29.36A3.52,3.52,0,0,1,7,29.9a3.53,3.53,0,0,1,4.32-3A3.52,3.52,0,0,1,9.87,29.36Z"/><path class="cls-1" d="M6.47,27.06A3.52,3.52,0,0,1,7,29.9a3.53,3.53,0,0,1-3-4.32A3.52,3.52,0,0,1,6.47,27.06Z"/><path class="cls-1" d="M9.63,33.6a3.52,3.52,0,0,1-2.7,1,3.53,3.53,0,0,1,3.73-3.73A3.52,3.52,0,0,1,9.63,33.6Z"/><path class="cls-1" d="M5.89,31.93a3.52,3.52,0,0,1,1,2.7A3.53,3.53,0,0,1,3.19,30.9,3.52,3.52,0,0,1,5.89,31.93Z"/><path class="cls-1" d="M10.13,37.79a3.52,3.52,0,0,1-2.48,1.48,3.53,3.53,0,0,1,3-4.32A3.52,3.52,0,0,1,10.13,37.79Z"/><path class="cls-1" d="M6.15,36.79a3.52,3.52,0,0,1,1.48,2.48,3.53,3.53,0,0,1-4.32-3A3.53,3.53,0,0,1,6.15,36.79Z"/><path class="cls-1" d="M11.35,41.83a3.52,3.52,0,0,1-2.19,1.89,3.53,3.53,0,0,1,2.23-4.78A3.52,3.52,0,0,1,11.35,41.83Z"/><path class="cls-1" d="M7.27,41.53a3.52,3.52,0,0,1,1.89,2.19,3.53,3.53,0,0,1-4.78-2.23A3.52,3.52,0,0,1,7.27,41.53Z"/><path class="cls-1" d="M13.27,45.59a3.52,3.52,0,0,1-1.83,2.24,3.53,3.53,0,0,1,1.37-5.1A3.52,3.52,0,0,1,13.27,45.59Z"/><path class="cls-1" d="M9.19,46a3.52,3.52,0,0,1,2.24,1.83,3.53,3.53,0,0,1-5.1-1.37A3.52,3.52,0,0,1,9.19,46Z"/><path class="cls-1" d="M15.81,49a3.52,3.52,0,0,1-1.41,2.52,3.53,3.53,0,0,1,.46-5.26A3.52,3.52,0,0,1,15.81,49Z"/><path class="cls-1" d="M11.87,50.09a3.52,3.52,0,0,1,2.52,1.41A3.53,3.53,0,0,1,9.14,51,3.52,3.52,0,0,1,11.87,50.09Z"/><path class="cls-1" d="M18.9,51.86A3.52,3.52,0,0,1,18,54.59a3.53,3.53,0,0,1-.46-5.26A3.52,3.52,0,0,1,18.9,51.86Z"/><path class="cls-1" d="M15.22,53.65a3.52,3.52,0,0,1,2.73.95,3.53,3.53,0,0,1-5.26.46A3.52,3.52,0,0,1,15.22,53.65Z"/><path class="cls-1" d="M22.46,54.17A3.52,3.52,0,0,1,22,57a3.53,3.53,0,0,1-1.37-5.1A3.52,3.52,0,0,1,22.46,54.17Z"/><path class="cls-1" d="M19.14,56.57A3.52,3.52,0,0,1,22,57a3.53,3.53,0,0,1-5.1,1.37A3.52,3.52,0,0,1,19.14,56.57Z"/><path class="cls-1" d="M26.36,55.83a3.52,3.52,0,0,1,0,2.89,3.53,3.53,0,0,1-2.23-4.78A3.52,3.52,0,0,1,26.36,55.83Z"/><path class="cls-1" d="M23.51,58.78a3.52,3.52,0,0,1,2.89,0A3.53,3.53,0,0,1,21.62,61,3.52,3.52,0,0,1,23.51,58.78Z"/><path class="cls-1" d="M29.81,6.74a3.52,3.52,0,0,1-2.88-.21,3.53,3.53,0,0,1,5-1.8A3.52,3.52,0,0,1,29.81,6.74Z"/><path class="cls-1" d="M38.94,66.76A31.26,31.26,0,0,0,26.32,59l-.89-.3A27.74,27.74,0,0,1,6.6,32.74c0-13,9.57-24.39,22.76-27l.08.42C16.46,8.74,7,19.92,7,32.74A27.31,27.31,0,0,0,25.58,58.29l.88.3c3.35,1.14,9.31,3,14.2,7.87Z"/><path class="cls-1" d="M45.16,10.21A3.52,3.52,0,0,0,47,8a3.53,3.53,0,0,0-4.78,2.23A3.52,3.52,0,0,0,45.16,10.21Z"/><path class="cls-1" d="M44.87,6.13A3.52,3.52,0,0,0,47.05,8a3.53,3.53,0,0,0-2.23-4.78A3.52,3.52,0,0,0,44.87,6.13Z"/><path class="cls-1" d="M48.92,12.13a3.52,3.52,0,0,0,2.24-1.83,3.53,3.53,0,0,0-5.1,1.37A3.53,3.53,0,0,0,48.92,12.13Z"/><path class="cls-1" d="M49.35,8a3.52,3.52,0,0,0,1.83,2.24,3.53,3.53,0,0,0-1.37-5.1A3.52,3.52,0,0,0,49.35,8Z"/><path class="cls-1" d="M52.3,14.67a3.52,3.52,0,0,0,2.52-1.41,3.53,3.53,0,0,0-5.26.46A3.52,3.52,0,0,0,52.3,14.67Z"/><path class="cls-1" d="M53.43,10.73a3.52,3.52,0,0,0,1.41,2.52A3.53,3.53,0,0,0,54.37,8,3.52,3.52,0,0,0,53.43,10.73Z"/><path class="cls-1" d="M55.19,17.76a3.52,3.52,0,0,0,2.73-.95,3.53,3.53,0,0,0-5.26-.46A3.52,3.52,0,0,0,55.19,17.76Z"/><path class="cls-1" d="M57,14.08a3.52,3.52,0,0,0,.95,2.73,3.53,3.53,0,0,0,.46-5.26A3.52,3.52,0,0,0,57,14.08Z"/><path class="cls-1" d="M57.5,21.32a3.52,3.52,0,0,0,2.85-.46,3.53,3.53,0,0,0-5.1-1.37A3.52,3.52,0,0,0,57.5,21.32Z"/><path class="cls-1" d="M59.91,18a3.52,3.52,0,0,0,.46,2.85,3.53,3.53,0,0,0,1.37-5.1A3.52,3.52,0,0,0,59.91,18Z"/><path class="cls-1" d="M59.17,25.22a3.52,3.52,0,0,0,2.89,0A3.53,3.53,0,0,0,57.28,23,3.52,3.52,0,0,0,59.17,25.22Z"/><path class="cls-1" d="M62.11,22.37a3.52,3.52,0,0,0,0,2.89,3.53,3.53,0,0,0,2.23-4.78A3.52,3.52,0,0,0,62.11,22.37Z"/><path class="cls-1" d="M60.13,29.36A3.52,3.52,0,0,0,63,29.9a3.53,3.53,0,0,0-4.32-3A3.52,3.52,0,0,0,60.13,29.36Z"/><path class="cls-1" d="M63.53,27.06A3.52,3.52,0,0,0,63,29.9a3.53,3.53,0,0,0,3-4.32A3.52,3.52,0,0,0,63.53,27.06Z"/><path class="cls-1" d="M60.37,33.6a3.52,3.52,0,0,0,2.7,1,3.53,3.53,0,0,0-3.73-3.73A3.52,3.52,0,0,0,60.37,33.6Z"/><path class="cls-1" d="M64.11,31.93a3.52,3.52,0,0,0-1,2.7,3.53,3.53,0,0,0,3.73-3.73A3.52,3.52,0,0,0,64.11,31.93Z"/><path class="cls-1" d="M59.87,37.79a3.53,3.53,0,0,0,2.48,1.48,3.53,3.53,0,0,0-3-4.32A3.52,3.52,0,0,0,59.87,37.79Z"/><path class="cls-1" d="M63.85,36.79a3.52,3.52,0,0,0-1.48,2.48,3.53,3.53,0,0,0,4.32-3A3.53,3.53,0,0,0,63.85,36.79Z"/><path class="cls-1" d="M58.65,41.83a3.52,3.52,0,0,0,2.19,1.89,3.53,3.53,0,0,0-2.23-4.78A3.52,3.52,0,0,0,58.65,41.83Z"/><path class="cls-1" d="M62.73,41.53a3.52,3.52,0,0,0-1.89,2.19,3.53,3.53,0,0,0,4.78-2.23A3.52,3.52,0,0,0,62.73,41.53Z"/><path class="cls-1" d="M56.73,45.59a3.52,3.52,0,0,0,1.83,2.24,3.53,3.53,0,0,0-1.37-5.1A3.52,3.52,0,0,0,56.73,45.59Z"/><path class="cls-1" d="M60.81,46a3.52,3.52,0,0,0-2.24,1.83,3.53,3.53,0,0,0,5.1-1.37A3.52,3.52,0,0,0,60.81,46Z"/><path class="cls-1" d="M54.19,49a3.52,3.52,0,0,0,1.41,2.52,3.53,3.53,0,0,0-.46-5.26A3.52,3.52,0,0,0,54.19,49Z"/><path class="cls-1" d="M58.13,50.09a3.52,3.52,0,0,0-2.52,1.41A3.53,3.53,0,0,0,60.86,51,3.52,3.52,0,0,0,58.13,50.09Z"/><path class="cls-1" d="M51.1,51.86A3.52,3.52,0,0,0,52,54.59a3.53,3.53,0,0,0,.46-5.26A3.52,3.52,0,0,0,51.1,51.86Z"/><path class="cls-1" d="M54.78,53.65a3.52,3.52,0,0,0-2.73.95,3.53,3.53,0,0,0,5.26.46A3.52,3.52,0,0,0,54.78,53.65Z"/><path class="cls-1" d="M47.54,54.17A3.52,3.52,0,0,0,48,57a3.53,3.53,0,0,0,1.37-5.1A3.52,3.52,0,0,0,47.54,54.17Z"/><path class="cls-1" d="M50.86,56.57A3.52,3.52,0,0,0,48,57a3.53,3.53,0,0,0,5.1,1.37A3.52,3.52,0,0,0,50.86,56.57Z"/><path class="cls-1" d="M43.64,55.83a3.52,3.52,0,0,0,0,2.89,3.53,3.53,0,0,0,2.23-4.78A3.52,3.52,0,0,0,43.64,55.83Z"/><path class="cls-1" d="M46.49,58.78a3.52,3.52,0,0,0-2.89,0A3.53,3.53,0,0,0,48.38,61,3.52,3.52,0,0,0,46.49,58.78Z"/><path class="cls-1" d="M40.19,6.74a3.52,3.52,0,0,0,2.88-.21,3.53,3.53,0,0,0-5-1.8A3.52,3.52,0,0,0,40.19,6.74Z"/><path class="cls-1" d="M31.06,66.76l-1.72-.3c4.89-4.84,10.85-6.74,14.2-7.87l.88-.3A27.31,27.31,0,0,0,63,32.74c0-12.82-9.43-24-22.42-26.6l.08-.42c13.19,2.63,22.76,14,22.76,27A27.74,27.74,0,0,1,44.56,58.69l-.89.3A31.25,31.25,0,0,0,31.06,66.76Z"/><path class="cls-1" d="M32,35.57a3.51,3.51,0,0,0,.91,2.27,3.11,3.11,0,0,0,2.3.88,3,3,0,0,0,2.3-1,2.65,2.65,0,0,0,.68-1.86,2.58,2.58,0,0,0-.88-2,3.54,3.54,0,0,0-2.17-.64,3,3,0,0,0-1,.13v-4a2.87,2.87,0,0,0,2.4-.58,2.12,2.12,0,0,0,.74-1.59,2.5,2.5,0,0,0-.61-1.62A2.42,2.42,0,0,0,35,25a2.3,2.3,0,0,0-1.62.58,2.84,2.84,0,0,0-.78,2H27.19a8,8,0,0,1,2.2-5.18,7.82,7.82,0,0,1,6-2.2,7.84,7.84,0,0,1,5.62,2,6.13,6.13,0,0,1,1.83,4.36,5.44,5.44,0,0,1-.68,2.77,3.87,3.87,0,0,1-1.73,1.73,5.52,5.52,0,0,1,2.67,2.06A5.7,5.7,0,0,1,44,36.45a6.79,6.79,0,0,1-2,4.94,9.25,9.25,0,0,1-6.73,2.4,9.12,9.12,0,0,1-6.46-2.33A9,9,0,0,1,26,35.57Z"/></svg>