<svg width="150px" height="150px" viewBox="0 0 150 150" version="1.1" xmlns="http://www.w3.org/2000/svg" xmlns:xlink="http://www.w3.org/1999/xlink">
    <!-- Generator: Sketch 42 (36781) - http://www.bohemiancoding.com/sketch -->
    <desc>Created with Sketch.</desc>
    <defs></defs>
    <g id="account-help" stroke="none" stroke-width="1" fill="none" fill-rule="evenodd">
        <circle id="Oval" fill="#0EB4E3" fill-rule="nonzero" cx="75" cy="75" r="75"></circle>
        <path d="M75,60.3 C68,60.3 62.3,66 62.3,73 C62.3,80 68,85.7 75,85.7 C82,85.7 87.7,80 87.7,73 C87.7,66 82,60.3 75,60.3 Z M82.6,69.7 L74.2,79.7 C73.9,80 73.5,80.2 73.1,80.2 L73.1,80.2 C72.7,80.2 72.3,80 72,79.7 L67.5,74.5 C67,73.9 67,73 67.6,72.5 C68.2,72 69.1,72 69.6,72.6 L73,76.5 L80.3,67.8 C80.8,67.2 81.7,67.1 82.3,67.6 C83.1,68.3 83.1,69.1 82.6,69.7 Z" id="Shape" fill="#0EB4E3" fill-rule="nonzero"></path>
        <g id="Group" transform="translate(36.000000, 24.000000)" fill-rule="nonzero">
            <path d="M60.4,80.1 C51.5,77.5 48.2,72.2 48.2,66.9 L48.2,58 L29.7,58 L29.7,66.9 C29.7,72.3 26.5,77.5 17.5,80.1 C10.8,82.1 4.8,84.3 0.5,87.4 C11.2,95.5 24.5,100.4 38.9,100.4 C53.3,100.4 66.7,95.6 77.3,87.4 C73.1,84.4 67.1,82.1 60.4,80.1 Z" id="Shape" fill="#8B91A0"></path>
            <path d="M25.1,36.7 C25.1,36.7 16.4,32.5 14.9,23.8 C13.4,15.1 20.2,7.7 26.9,9 C26.9,9 37.2,-8.3 55.3,6.7 C73.5,21.8 56,33.9 52.8,36.7 L25.1,36.7 Z" id="Shape" fill="#474747"></path>
            <ellipse id="Oval" fill="#8B91A0" transform="translate(22.197459, 39.499921) rotate(-5.447207) translate(-22.197459, -39.499921) " cx="22.1974588" cy="39.4999205" rx="2.90004635" ry="4.80007672"></ellipse>
            <path d="M52.9,39.3 C52.6,42 53.7,44.2 55.3,44.4 C56.9,44.6 58.4,42.5 58.7,39.9 C59,37.2 57.9,35 56.3,34.8 C54.7,34.6 53.2,36.6 52.9,39.3 Z" id="Shape" fill="#8B91A0"></path>
            <path d="M22.7,15.6 L22.7,48.3 C22.7,57.3 30,64.6 39,64.6 C48,64.6 55.3,57.3 55.3,48.3 L55.3,15.6 L22.7,15.6 Z" id="Shape" fill="#A1A8BD"></path>
            <path d="M28.4,13.7 C28.4,13.7 28.4,25.1 44,26.4 C52.1,27.1 54.1,30 55.3,32.1 C55.3,32.1 62.4,18.4 57.1,13.7 C51.8,9 36.5,6.9 28.4,13.7 Z" id="Shape" fill="#474747"></path>
            <path d="M34.7,19.4 C34.7,19.4 26.8,21 22.7,29.7 C22.7,29.7 16,22.1 19.3,18.1 C22.5,14.1 30.4,13.2 34.7,19.4 Z" id="Shape" fill="#474747"></path>
            <path d="M60.4,80.1 C57.7,79.3 55.5,78.3 53.7,77 C51.8,82.1 45.9,85.8 39,85.8 C32.1,85.8 26.2,82.1 24.3,77 C22.6,78.2 20.4,79.3 17.6,80.1 C10.9,82.1 4.9,84.3 0.6,87.4 C11.3,95.5 24.6,100.4 39,100.4 C53.4,100.4 66.8,95.6 77.4,87.4 C73.1,84.4 67.1,82.1 60.4,80.1 Z" id="Shape" fill="#333333"></path>
        </g>
        <path d="M87.4,73.3 C88.4,72.5 89.5,71.7 90.7,71 C91.9,70.3 93.1,69.6 94.5,69.1 C95.9,68.6 97.3,68.1 98.8,67.8 C100.4,67.5 102,67.3 103.8,67.3 C106.3,67.3 108.6,67.6 110.7,68.3 C112.7,69 114.5,69.9 115.9,71.2 C117.3,72.5 118.4,74 119.2,75.7 C120,77.5 120.4,79.4 120.4,81.6 C120.4,83.6 120.1,85.4 119.6,86.9 C119,88.4 118.3,89.7 117.5,90.8 C116.6,91.9 115.7,92.9 114.6,93.7 C113.5,94.5 112.6,95.3 111.6,95.9 C110.7,96.6 109.9,97.3 109.2,97.9 C108.5,98.6 108.1,99.3 107.9,100.2 L106.8,105.9 L98.2,105.9 L97.3,99.4 C97.1,98.1 97.2,96.9 97.7,95.9 C98.2,94.9 98.9,94 99.7,93.2 C100.5,92.4 101.5,91.6 102.6,90.9 C103.7,90.2 104.6,89.4 105.6,88.6 C106.6,87.8 107.3,86.9 107.9,85.8 C108.5,84.8 108.9,83.6 108.9,82.2 C108.9,80.6 108.4,79.3 107.3,78.3 C106.2,77.3 104.8,76.9 102.9,76.9 C101.5,76.9 100.3,77 99.3,77.3 C98.3,77.6 97.5,77.9 96.8,78.3 C96.1,78.7 95.5,79 95,79.3 C94.5,79.6 94,79.7 93.5,79.7 C92.3,79.7 91.5,79.2 90.9,78.2 L87.4,73.3 Z M94.8,120.5 C94.8,119.5 95,118.6 95.3,117.8 C95.7,117 96.2,116.2 96.8,115.6 C97.4,115 98.2,114.5 99,114.1 C99.9,113.7 100.8,113.6 101.8,113.6 C102.8,113.6 103.7,113.8 104.6,114.1 C105.5,114.5 106.2,115 106.9,115.6 C107.5,116.2 108.1,117 108.4,117.8 C108.8,118.6 108.9,119.5 108.9,120.5 C108.9,121.5 108.7,122.4 108.4,123.2 C108.1,124 107.5,124.8 106.9,125.4 C106.2,126 105.5,126.5 104.6,126.9 C103.7,127.3 102.8,127.4 101.8,127.4 C100.8,127.4 99.8,127.2 99,126.9 C98.1,126.6 97.4,126.1 96.8,125.4 C96.2,124.8 95.7,124 95.3,123.2 C95,122.4 94.8,121.5 94.8,120.5 Z" id="Shape" fill="#FFFFFF" fill-rule="nonzero"></path>
    </g>
</svg>
