<?xml version="1.0" encoding="UTF-8"?>
<svg width="43px" height="43px" viewBox="0 0 43 43" version="1.1" xmlns="http://www.w3.org/2000/svg" xmlns:xlink="http://www.w3.org/1999/xlink">
    <!-- Generator: Sketch 50.2 (55047) - http://www.bohemiancoding.com/sketch -->
    <title>Anxiety</title>
    <desc>Created with Sketch.</desc>
    <defs></defs>
    <g id="Page-1" stroke="none" stroke-width="1" fill="none" fill-rule="evenodd">
        <g id="Recommender-treat-unselected" transform="translate(-436.000000, -254.000000)" fill="#3F97BE">
            <g id="Body" transform="translate(115.000000, 140.000000)">
                <g id="anxiety" transform="translate(242.000000, 76.000000)">
                    <g id="Anxiety" transform="translate(79.000000, 38.000000)">
                        <path d="M21.5,2.98611111 C11.2916806,2.98611111 2.98611111,11.2910833 2.98611111,21.5 C2.98611111,31.7089167 11.2916806,40.0138889 21.5,40.0138889 C31.7083194,40.0138889 40.0138889,31.7089167 40.0138889,21.5 C40.0138889,11.2910833 31.7083194,2.98611111 21.5,2.98611111 M21.5,43 C9.64454167,43 0,33.3554583 0,21.5 C0,9.64454167 9.64454167,0 21.5,0 C33.3554583,0 43,9.64454167 43,21.5 C43,33.3554583 33.3554583,43 21.5,43" id="Fill-41"></path>
                        <path d="M11.1495891,21.5 C10.5992887,21.5 10.0636375,21.2413351 9.76937964,20.7782787 C9.32926671,20.0883132 9.59040463,19.2049264 10.3521631,18.8065362 L14.3341979,16.7227826 L10.3521631,14.6384516 C9.59040463,14.2400614 9.32926671,13.3566746 9.76937964,12.6667091 C10.2082187,11.9767436 11.1820721,11.7388642 11.9444675,12.1384091 L18.3149589,15.4727614 C18.8072994,15.7302715 19.1111111,16.2066075 19.1111111,16.7227826 C19.1111111,17.2383803 18.8072994,17.7147163 18.3149589,17.9728038 L11.9444675,21.3065787 C11.6935203,21.4382207 11.4196439,21.5 11.1495891,21.5" id="Fill-43"></path>
                        <path d="M31.8504109,21.5 C31.5803561,21.5 31.3064797,21.4382207 31.0555325,21.3065787 L24.6850411,17.9728038 C24.1927006,17.7147163 23.8888889,17.2383803 23.8888889,16.7227826 C23.8888889,16.2066075 24.1927006,15.7302715 24.6850411,15.4727614 L31.0555325,12.1384091 C31.817291,11.7388642 32.7911443,11.9767436 33.2306204,12.6667091 C33.6707333,13.3566746 33.4095954,14.2400614 32.6478369,14.6384516 L28.6658021,16.7227826 L32.6478369,18.8065362 C33.4095954,19.2049264 33.6707333,20.0883132 33.2306204,20.7782787 C32.9363625,21.2413351 32.4007113,21.5 31.8504109,21.5" id="Fill-45"></path>
                        <path d="M30.7276246,33.4439151 C30.2157154,33.4439151 29.7159945,33.1818143 29.4283503,32.706563 C27.7152827,29.8724044 24.7516942,28.1814515 21.499852,28.1814515 C18.2480098,28.1814515 15.2844213,29.8724044 13.5719631,32.706563 C13.1307462,33.4346207 12.1934648,33.6632619 11.4761825,33.2146544 C10.7589002,32.7666665 10.5352447,31.8124461 10.9758522,31.083149 C13.2471446,27.3263709 17.1815323,25.0833333 21.499852,25.0833333 C25.8181717,25.0833333 29.7525594,27.3263709 32.0238518,31.083149 C32.4650687,31.8124461 32.2408038,32.7666665 31.5241309,33.2146544 C31.2748799,33.3701799 30.999424,33.4439151 30.7276246,33.4439151" id="Fill-47"></path>
                    </g>
                </g>
            </g>
        </g>
    </g>
</svg>