<?xml version="1.0" encoding="UTF-8"?>
<svg width="60px" height="38px" viewBox="0 0 60 38" version="1.1" xmlns="http://www.w3.org/2000/svg" xmlns:xlink="http://www.w3.org/1999/xlink">
    <!-- Generator: Sketch 50.2 (55047) - http://www.bohemiancoding.com/sketch -->
    <title>Appetite</title>
    <desc>Created with Sketch.</desc>
    <defs></defs>
    <g id="Page-1" stroke="none" stroke-width="1" fill="none" fill-rule="evenodd">
        <g id="Recommender-treat-unselected" transform="translate(-1153.000000, -255.000000)" fill="#3F97BE">
            <g id="Body" transform="translate(115.000000, 140.000000)">
                <g id="appetite" transform="translate(968.000000, 76.000000)">
                    <g id="Copy" transform="translate(16.000000, 39.000000)">
                        <g id="Appetite" transform="translate(54.000000, 0.000000)">
                            <path d="M29.7,7.62434375 C22.9176,7.62434375 17.4,13.0844687 17.4,19.7962187 C17.4,26.5079687 22.9176,31.9680937 29.7,31.9680937 C36.4824,31.9680937 42,26.5079687 42,19.7962187 C42,13.0844687 36.4824,7.62434375 29.7,7.62434375 M29.7,34.9368437 C21.2634,34.9368437 14.4,28.1449375 14.4,19.7962187 C14.4,11.4475 21.2634,4.65559375 29.7,4.65559375 C38.1366,4.65559375 45,11.4475 45,19.7962187 C45,28.1449375 38.1366,34.9368437 29.7,34.9368437" id="Fill-9"></path>
                            <path d="M29.7,13.8587187 C26.3916,13.8587187 23.7,16.5222812 23.7,19.7962187 C23.7,23.0701562 26.3916,25.7337187 29.7,25.7337187 C33.0084,25.7337187 35.7,23.0701562 35.7,19.7962187 C35.7,16.5222812 33.0084,13.8587187 29.7,13.8587187 M29.7,28.7024687 C24.7374,28.7024687 20.7,24.707125 20.7,19.7962187 C20.7,14.8853125 24.7374,10.8899687 29.7,10.8899687 C34.6626,10.8899687 38.7,14.8853125 38.7,19.7962187 C38.7,24.707125 34.6626,28.7024687 29.7,28.7024687" id="Fill-11"></path>
                            <path d="M6.3,34.3430937 C6.3,34.6649062 6.0252,34.9368437 5.7,34.9368437 C5.3748,34.9368437 5.1,34.6649062 5.1,34.3430937 L5.1,21.2805937 C5.1,20.9587812 5.3748,20.6868437 5.7,20.6868437 C6.0252,20.6868437 6.3,20.9587812 6.3,21.2805937 L6.3,34.3430937 Z M5.7,3.45859375 C7.1634,3.45859375 8.4,5.3639375 8.4,7.61959375 C8.4,9.87525 7.1634,11.7805937 5.7,11.7805937 C4.2366,11.7805937 3,9.87525 3,7.61959375 C3,5.3639375 4.2366,3.45859375 5.7,3.45859375 Z M11.4,7.61959375 C11.4,3.621875 8.8962,0.48984375 5.7,0.48984375 C2.5038,0.48984375 0,3.621875 0,7.61959375 C0,10.9647812 1.7556,13.6960312 4.2,14.5011562 L4.2,18.0464375 C2.9628,18.6105 2.1,19.8460937 2.1,21.2805937 L2.1,34.3430937 C2.1,36.3078125 3.7146,37.9055937 5.7,37.9055937 C7.6854,37.9055937 9.3,36.3078125 9.3,34.3430937 L9.3,21.2805937 C9.3,19.8460937 8.4378,18.6105 7.2,18.0464375 L7.2,14.5011562 C9.6444,13.6960312 11.4,10.9647812 11.4,7.61959375 Z" id="Fill-13"></path>
                            <path d="M54.35334,34.3430938 C54.35334,34.6649063 54.07854,34.9368438 53.75334,34.9368438 C53.42814,34.9368438 53.15334,34.6649063 53.15334,34.3430938 L53.15334,21.2805938 C53.15334,20.9587813 53.42814,20.6868438 53.75334,20.6868438 C54.07854,20.6868438 54.35334,20.9587813 54.35334,21.2805938 L54.35334,34.3430938 Z M58.00134,1.06103125 C57.17274,1.06103125 56.50134,1.7254375 56.50134,2.54540625 L56.50134,9.32425 C56.50134,10.4422813 56.00034,11.45225 55.25334,12.0525313 L55.25334,2.43259375 C55.25334,1.612625 54.58194,0.94821875 53.75334,0.94821875 C52.92474,0.94821875 52.25334,1.612625 52.25334,2.43259375 L52.25334,12.1297188 C51.44874,11.5425 50.89854,10.4945313 50.89854,9.32425 L50.89854,2.54540625 C50.89854,1.7254375 50.22714,1.06103125 49.39854,1.06103125 C48.56994,1.06103125 47.89854,1.7254375 47.89854,2.54540625 L47.89854,9.32425 C47.89854,12.24075 49.75374,14.6905625 52.25334,15.3882188 L52.25334,18.0464375 C51.01614,18.6105 50.15334,19.8460938 50.15334,21.2805938 L50.15334,34.3430938 C50.15334,36.3078125 51.76794,37.9055938 53.75334,37.9055938 C55.73874,37.9055938 57.35334,36.3078125 57.35334,34.3430938 L57.35334,21.2805938 C57.35334,19.8460938 56.49114,18.6105 55.25334,18.0464375 L55.25334,15.3585313 C57.69894,14.6216875 59.50134,12.1991875 59.50134,9.32425 L59.50134,2.54540625 C59.50134,1.7254375 58.82994,1.06103125 58.00134,1.06103125 Z" id="Fill-15"></path>
                        </g>
                    </g>
                </g>
            </g>
        </g>
    </g>
</svg>