<?xml version="1.0" encoding="utf-8"?>
<!-- Generator: Adobe Illustrator 21.0.2, SVG Export Plug-In . SVG Version: 6.00 Build 0)  -->
<svg version="1.1" id="Layer_1" xmlns="http://www.w3.org/2000/svg" xmlns:xlink="http://www.w3.org/1999/xlink" x="0px" y="0px"
	 viewBox="0 0 100 125" style="enable-background:new 0 0 100 125;" xml:space="preserve">
<path d="M92.8,67.8c0.2-0.2,0.3-0.3,0.4-0.5c0.1-0.1,0.1-0.2,0.2-0.3l0.1-0.1c0.9-1.2,1.5-2.8,1.5-4.5c0-1.7-0.6-3.2-1.5-4.5
	c0-0.1-0.1-0.1-0.1-0.2c-0.1-0.1-0.1-0.1-0.2-0.2c-0.1-0.2-0.3-0.3-0.4-0.5L59.5,23.9c-2.9-2.9-7.7-2.9-10.6,0
	c-2.9,2.9-2.9,7.7,0,10.6L69.4,55H12.5C8.4,55,5,58.4,5,62.5S8.4,70,12.5,70h56.9L48.9,90.5c-2.9,2.9-2.9,7.7,0,10.6s7.7,2.9,10.6,0
	L92.8,67.8L92.8,67.8z"/>
</svg>
