<?xml version="1.0" encoding="utf-8"?>
<!-- Generator: Adobe Illustrator 21.0.2, SVG Export Plug-In . SVG Version: 6.00 Build 0)  -->
<svg version="1.1" id="Layer_1" xmlns="http://www.w3.org/2000/svg" xmlns:xlink="http://www.w3.org/1999/xlink" x="0px" y="0px"
	 viewBox="0 0 300 300" style="enable-background:new 0 0 300 300;" xml:space="preserve">
<style type="text/css">
	.st0{fill:#4596BA;}
</style>
<g>
	<path class="st0" d="M238.6,289.6c-0.2,0-0.4,0-0.5,0c-34.2-2.1-55.3-15.2-67-26c-12.2-11.2-17.1-22.3-17.8-24
		c-1.5-3.1-2.6-4.2-3.1-4.5c-0.6,0.4-1.9,1.7-3.3,4.6c-0.8,1.9-5.8,12.9-17.8,24c-11.7,10.7-32.8,23.9-67,26
		c-3.5,0.2-6.7-1.5-8.4-4.5s-1.6-6.7,0.3-9.6c6.9-10.4,14.7-19.7,22.8-27.3c-24.5,1-47.9-4.2-71.1-15.8c-3.5-1.7-5.6-5.2-5.6-9.1
		c0-3.9,2.2-7.4,5.6-9.1c24.9-12.4,48.8-18.6,71.3-18.4c-26.9-20.9-47-51-59.9-89.8c-1.2-3.5-0.5-7.3,1.6-10.2
		c2.2-2.9,5.7-4.6,9.3-4.6c1.1,0,2.3,0.2,3.3,0.6c40.8,13.6,67.1,33.7,83.7,52.2c-5.5-40.1,2.9-83.7,24.5-127
		c2.1-4.1,6.3-6.7,11-6.7c0.1,0,0.3,0,0.4,0c4.4,0.2,8.4,2.7,10.3,6.7c26,52,28.7,95.6,24.7,126.4c16.8-18.5,42.8-38.3,82.8-51.6
		c1.1-0.4,2.3-0.6,3.5-0.6h0.1c3.6,0,7,1.7,9.1,4.6s2.7,6.7,1.6,10.2c-15.5,46.4-39.7,74-60.4,90.2c23.3-0.3,47.5,5.7,71.8,17.9
		c3.5,1.7,5.6,5.2,5.6,9.1s-2.2,7.4-5.6,9.1c-27.1,13.6-50.9,17.8-69.8,17.8c7.9,7,15.2,15.4,21.6,25.2c1.9,2.9,2,6.6,0.3,9.6
		C244.8,287.9,241.8,289.6,238.6,289.6z M99.9,232.8c2.6,0,5,1.6,5.9,4.2c1,2.9-0.3,6.2-3,7.6c-11.3,5.8-23.9,17.5-34.4,31.9
		c26.3-3,42.8-13.5,52.2-22.1c10.7-9.8,14.7-19.5,14.7-19.6c0.1-0.1,0.1-0.3,0.2-0.4c5-10.4,11.4-12,14.8-11.9c4,0,9.8,2.1,14.4,12
		c0,0.1,0.1,0.2,0.1,0.3s4,9.8,14.7,19.6c9.4,8.6,25.8,19,52.1,22.1c-9.6-13-20.8-22.8-33.3-29.2c-2.8-1.4-4.1-4.7-3-7.6
		c1-2.9,4.1-4.7,7.1-4.1c18,3.6,46.6,4.3,82.2-12.3c-22.9-10.7-45.3-15.6-66.8-14.3c-5.9,0.3-11.7,1.1-17.3,2.4
		c-1.2,0.3-2.3,0.6-3.4,0.9l-1.1,0.3c-3.1,0.8-6.4-0.8-7.5-3.8s0.2-6.4,3.1-7.8c4.9-2.4,9-4.6,12.9-7.1
		c20.5-13.1,48.4-39.1,65.7-89.1c-50,17.3-76.1,45.2-89.1,65.7c-0.8,1.3-1.6,2.5-2.2,3.6c-1.6,2.7-5,3.8-7.9,2.5s-4.4-4.6-3.4-7.6
		c1.4-4.5,2.6-8.7,3.5-13c6.4-28.6,7.9-74.8-20.7-132.5c-22.9,46.1-29.9,90.5-20.7,131.9c0.6,2.8,0.9,5,1.2,6.9
		c0.3,2.5,0.6,4.5,1.4,6.9c1,3.1-0.4,6.4-3.4,7.7s-6.4,0.1-8-2.7c-0.8-1.5-1.2-2.5-1.4-3.1c-0.2-0.4-0.2-0.6-0.7-1.3
		C105.9,149.6,80,122,29.6,104.6c13.8,40.1,35.7,69.9,65.2,88.6c3.9,2.5,8,4.8,12.9,7.1c2.9,1.4,4.3,4.8,3.1,7.8
		c-1.1,3-4.4,4.7-7.5,3.8l-1-0.3c-1.2-0.3-2.3-0.6-3.5-0.9c-5.6-1.2-11.4-2-17.3-2.4c-20.6-1.2-42.9,3.8-66.3,14.9
		c26.8,12.4,54.1,15.6,83.2,9.7C99.1,232.8,99.5,232.8,99.9,232.8z"/>
</g>
</svg>
