<?xml version="1.0" encoding="UTF-8"?>
<svg width="26px" height="35px" viewBox="0 0 26 35" version="1.1" xmlns="http://www.w3.org/2000/svg" xmlns:xlink="http://www.w3.org/1999/xlink">
    <!-- Generator: Sketch 50 (54983) - http://www.bohemiancoding.com/sketch -->
    <title>Stroke-Icon-Bong</title>
    <desc>Created with Sketch.</desc>
    <defs></defs>
    <g id="Page-1" stroke="none" stroke-width="1" fill="none" fill-rule="evenodd">
        <g id="Review-Consumption" transform="translate(-954.000000, -731.000000)" fill="#4596BA" fill-rule="nonzero">
            <g id="Form" transform="translate(758.000000, 133.000000)">
                <g id="Method" transform="translate(1.000000, 474.000000)">
                    <g id="Bong" transform="translate(177.000000, 113.000000)">
                        <g id="Stroke-Icon-Bong" transform="translate(18.000000, 11.000000)">
                            <path d="M25.0545455,14.9212237 L22.568,12.4951963 C22.0650085,12.0099449 21.3453781,11.8329094 20.6790795,12.030505 C20.0127809,12.2281006 19.5005478,12.7704541 19.3345455,13.4541004 L18.6349091,16.3308127 L17.7745455,17.2609497 C17.2066927,16.7450347 16.6083718,16.2646926 15.9829091,15.8225935 L15.9829091,7.54245656 C15.9829091,7.18286752 15.9829091,6.82327848 15.9829091,6.45889492 C15.9829091,5.6150593 16.0112727,4.74725108 15.9545455,3.86985382 C15.9416432,2.75804514 15.4701598,1.70254828 14.6545455,0.959579848 C14.0577067,0.498312979 13.3486242,0.209982353 12.6029091,0.125333273 C11.6759703,-0.00752497196 10.7372921,-0.0348637113 9.80436364,0.0438264234 C8.8427873,0.0570450808 7.90981198,0.377494097 7.13818182,0.959579848 C6.40765565,1.59423614 5.93449211,2.48058937 5.80981818,3.44793601 C5.72543712,4.10110746 5.70327421,4.7610029 5.74363636,5.41848396 C5.74363636,5.64382642 5.74363636,5.86916889 5.74363636,6.08971683 L5.74363636,15.1321826 C5.74363636,15.1753333 5.74363636,15.2904018 5.74363636,15.4534155 L5.74363636,15.8034155 C3.87163636,17.1506757 0,20.4253333 0,24.9561552 C0,30.7671141 4.21672727,34.5212237 10.7403636,34.5212237 C17.264,34.5212237 21.7454545,30.6856072 21.7454545,24.9561552 C21.72094,23.2898261 21.2290265,21.6650386 20.3272727,20.2719086 L21.4523636,19.0636894 L24.2887273,18.2342374 C24.9507472,18.0307222 25.4556351,17.4847745 25.6135326,16.8016926 C25.77143,16.1186108 25.5583981,15.4019576 25.0545455,14.9212237 Z M10.7403636,31.6445114 C8.88727273,31.6445114 2.83636364,31.1650593 2.83636364,24.9561552 C2.83636364,22.0794429 5.46945455,19.3849223 7.92763636,17.8267031 C8.74072727,17.3136894 8.684,16.4506757 8.60836364,15.2616346 L8.60836364,6.07533327 C8.60836364,5.82122368 8.60836364,5.56231957 8.60836364,5.29862094 C8.57269217,4.81934516 8.58218975,4.33771071 8.63672727,3.86026478 C8.66106612,3.59587024 8.77266235,3.34754173 8.95345455,3.15547026 C9.29003796,2.98055375 9.66253491,2.88856867 10.0407273,2.88697711 C10.3196364,2.87738807 10.6127273,2.87738807 10.8963636,2.87738807 C11.3250567,2.87466633 11.7533298,2.90512 12.1774545,2.96848396 C12.4169105,2.98711269 12.6493549,3.05914774 12.8581818,3.17944286 C13.050718,3.42915233 13.1495613,3.74009542 13.1370909,4.05684012 C13.1843636,4.81437437 13.1749091,5.5910867 13.1607273,6.41094971 C13.1607273,6.78971683 13.1607273,7.16848396 13.1607273,7.54245656 L13.1607273,16.6041004 C13.1607626,17.1020026 13.4146839,17.5644747 13.832,17.8267031 C16.276,19.3849223 18.9090909,22.0554703 18.9090909,24.9561552 C18.9090909,29.8849223 14.6876364,31.6445114 10.7403636,31.6445114 Z" id="Shape"></path>
                        </g>
                    </g>
                </g>
            </g>
        </g>
    </g>
</svg>