<?xml version="1.0" encoding="utf-8"?>
<!-- Generator: Adobe Illustrator 21.0.2, SVG Export Plug-In . SVG Version: 6.00 Build 0)  -->
<svg version="1.1" id="Layer_1" xmlns="http://www.w3.org/2000/svg" xmlns:xlink="http://www.w3.org/1999/xlink" x="0px" y="0px"
	 viewBox="0 0 150 150" style="enable-background:new 0 0 150 150;" xml:space="preserve">
<style type="text/css">
	.st0{fill:#4495B9;}
	.st1{fill:#333333;}
	.st2{fill:#E3E8EF;}
	.st3{fill:#003750;}
	.st4{fill:#FFFFFF;}
	.st5{fill:#A1A8BD;}
</style>
<ellipse class="st0" cx="75" cy="75" rx="75" ry="75"/>
<g>
	<g>
		<path class="st1" d="M99.6,92.5c0-10.3-6.6-19.1-15.8-22.3V29H68v41.1c-9.2,3.3-15.8,12-15.8,22.3c0,9.7,5.9,18.1,14.3,21.8v2.6
			c-4.3,0.7-6.7,2.2-6.7,3.5c0,2.1,6.9,3.9,16.1,3.9s16.2-1.8,16.2-4c0-1.3-2.4-2.8-6.8-3.5v-2.6C93.7,110.6,99.6,102.2,99.6,92.5z"
			/>
		<ellipse class="st2" cx="75.9" cy="29" rx="9.7" ry="3.3"/>
		<ellipse class="st1" cx="75.9" cy="29" rx="6.8" ry="1.6"/>
		<path class="st2" d="M79.7,101.7l-3.4,2.9L50.9,74.3l-4.3-0.7c0,0,1.9-0.4,4.5-2.6c2.5-2.3,3.5-4.6,3.5-4.6l-0.3,5L79.7,101.7z"/>
		<g>
			<path class="st3" d="M54.6,66.4"/>
			<path class="st3" d="M46.6,73.6"/>
			<path class="st4" d="M46.6,73.6c0.3-0.1,2.1-0.5,4.5-2.6c2.5-2.2,3.5-4.5,3.5-4.5s0,0,0-0.1c-0.7-0.8-3.1,0.2-5.3,2.1
				C47,70.5,45.9,72.8,46.6,73.6L46.6,73.6z"/>
		</g>
		<path class="st5" d="M55.7,80.1l20.5,24.5l3.4-2.9L58.5,76.4C57.4,77.5,56.5,78.8,55.7,80.1z"/>
		<path class="st5" d="M68,31.7c1.8,0.9,4.7,1.6,7.9,1.6c3.3,0,6.2-0.7,7.9-1.6V31c-1.8,0.8-4.7,1.4-7.9,1.4c-3.3,0-6.2-0.6-7.9-1.4
			V31.7z"/>
	</g>
</g>
</svg>
