<?xml version="1.0" encoding="utf-8"?>
<!-- Generator: Adobe Illustrator 21.0.2, SVG Export Plug-In . SVG Version: 6.00 Build 0)  -->
<svg version="1.1" id="Layer_1" xmlns="http://www.w3.org/2000/svg" xmlns:xlink="http://www.w3.org/1999/xlink" x="0px" y="0px"
	 viewBox="0 0 150 150" style="enable-background:new 0 0 150 150;" xml:space="preserve">
<style type="text/css">
	.st0{fill:#333333;}
	.st1{fill:#FFFFFF;}
	.st2{fill:#F2CE14;}
</style>
<g>
	<path class="st0" d="M96.2,102.4H54.1c-6.6,0-11.8-5.3-11.8-11.8V48.5c0-6.6,5.3-11.8,11.8-11.8h41.7c6.6,0,11.8,5.3,11.8,11.8
		v41.7C108,97.2,102.8,102.4,96.2,102.4z"/>
	<path class="st1" d="M92.6,49.9h-4.9v-0.7c0-0.3-0.3-0.7-0.7-0.7H63.3c-0.3,0-0.7,0.3-0.7,0.7v0.7h-4.9c-0.3,0-0.7,0.3-0.7,1l0,0
		v39.8h15.4v-4.9c0-0.3,0.3-0.7,0.7-0.7h4.3c0.3,0,0.7,0.3,0.7,0.7v4.9h15.4V50.8C93.2,50.2,92.9,50.2,92.6,49.9L92.6,49.9z
		 M68.3,80.1c0,0.3-0.3,0.7-0.7,0.7l0,0h-4.3c-0.3,0-0.7-0.3-0.7-0.7v-4.3c0-0.3,0.3-0.7,0.7-0.7h4.3c0.3,0,0.7,0.3,0.7,0.7V80.1z
		 M68.3,70.2c0,0.3-0.3,0.7-0.7,0.7h-4.3c-0.3,0-0.7-0.3-0.7-0.7V66c0-0.3,0.3-0.7,0.7-0.7h4.3c0.3,0,0.7,0.3,0.7,0.7V70.2z
		 M68.3,60.4c0,0.3-0.3,0.7-0.7,0.7h-4.3c-0.3,0-0.7-0.3-0.7-0.7v-3.9c0-0.3,0.3-0.7,0.7-0.7h4.3c0.3,0,0.7,0.3,0.7,0.7V60.4z
		 M77.8,80.1c0,0.3-0.3,0.7-0.7,0.7h-3.9c-0.3,0-0.7-0.3-0.7-0.7v-4.3c0-0.3,0.3-0.7,0.7-0.7h4.3c0.3,0,0.7,0.3,0.7,0.7v4.3H77.8z
		 M77.8,70.2c0,0.3-0.3,0.7-0.7,0.7h-3.9c-0.3,0-0.7-0.3-0.7-0.7V66c0-0.3,0.3-0.7,0.7-0.7h4.3c0.3,0,0.7,0.3,0.7,0.7v4.3H77.8z
		 M77.8,60.4c0,0.3-0.3,0.7-0.7,0.7h-3.9c-0.3,0-0.7-0.3-0.7-0.7v-3.9c0-0.3,0.3-0.7,0.7-0.7h4.3c0.3,0,0.7,0.3,0.7,0.7v3.9H77.8z
		 M87.6,80.1c0,0.3-0.3,0.7-0.7,0.7h-4.3c-0.3,0-0.7-0.3-0.7-0.7v-4.3c0-0.3,0.3-0.7,0.7-0.7H87c0.3,0,0.7,0.3,0.7,0.7V80.1z
		 M87.6,70.2c0,0.3-0.3,0.7-0.7,0.7h-4.3c-0.3,0-0.7-0.3-0.7-0.7V66c0-0.3,0.3-0.7,0.7-0.7H87c0.3,0,0.7,0.3,0.7,0.7V70.2z
		 M87.6,60.4c0,0.3-0.3,0.7-0.7,0.7h-4.3c-0.3,0-0.7-0.3-0.7-0.7v-3.9c0-0.3,0.3-0.7,0.7-0.7H87c0.3,0,0.7,0.3,0.7,0.7V60.4z"/>
</g>
<g>
	<g>
		<g>
			<path class="st2" d="M37.4,88.6c0.4-0.7,0.9-0.7,1.3,0l3.6,7.2c0.4,0.7,1.3,1.4,2.1,1.5l8,1.2c0.8,0.1,1,0.7,0.4,1.2l-5.8,5.6
				c-0.6,0.6-0.9,1.7-0.8,2.5l1.4,7.9c0.1,0.8-0.3,1.1-1.1,0.8l-7.1-3.8c-0.7-0.4-1.9-0.4-2.6,0l-7.1,3.8c-0.7,0.4-1.2,0-1.1-0.8
				l1.4-7.9c0.1-0.8-0.2-1.9-0.8-2.5l-5.8-5.6c-0.6-0.6-0.4-1.1,0.4-1.2l8-1.2c0.8-0.1,1.7-0.8,2.1-1.5L37.4,88.6z"/>
		</g>
		<g>
			<path class="st2" d="M74.4,88.6c0.4-0.7,0.9-0.7,1.3,0l3.6,7.2c0.4,0.7,1.3,1.4,2.1,1.5l8,1.2c0.8,0.1,1,0.7,0.4,1.2l-5.8,5.6
				c-0.6,0.6-0.9,1.7-0.8,2.5l1.4,7.9c0.1,0.8-0.3,1.1-1.1,0.8l-7.1-3.8c-0.7-0.4-1.9-0.4-2.6,0l-7.1,3.8c-0.7,0.4-1.2,0-1.1-0.8
				l1.4-7.9c0.1-0.8-0.2-1.9-0.8-2.5l-5.8-5.6c-0.6-0.6-0.4-1.1,0.4-1.2l8-1.2c0.8-0.1,1.7-0.8,2.1-1.5L74.4,88.6z"/>
		</g>
		<g>
			<path class="st2" d="M111.3,88.6c0.4-0.7,0.9-0.7,1.3,0l3.6,7.2c0.4,0.7,1.3,1.4,2.1,1.5l8,1.2c0.8,0.1,1,0.7,0.4,1.2l-5.8,5.6
				c-0.6,0.6-0.9,1.7-0.8,2.5l1.4,7.9c0.1,0.8-0.3,1.1-1.1,0.8l-7.1-3.8c-0.7-0.4-1.9-0.4-2.6,0l-7.1,3.8c-0.7,0.4-1.2,0-1.1-0.8
				l1.4-7.9c0.1-0.8-0.2-1.9-0.8-2.5l-5.8-5.6c-0.6-0.6-0.4-1.1,0.4-1.2l8-1.2c0.8-0.1,1.7-0.8,2.1-1.5L111.3,88.6z"/>
		</g>
	</g>
</g>
</svg>
