<svg xmlns="http://www.w3.org/2000/svg" width="118" height="118" viewBox="0 0 118 118">
    <g fill="none" fill-rule="nonzero" transform="translate(1 1)">
        <circle cx="58" cy="58" r="58" stroke="#FFF" stroke-width="2" opacity=".75"/>
        <path fill="#FFF" d="M70 58.8h8V74a2.403 2.403 0 0 1-2.4 2.4H40.4A2.403 2.403 0 0 1 38 74V58.8h8v1.6a1.6 1.6 0 0 0 1.6 1.6h1.6a1.6 1.6 0 0 0 1.6-1.6v-1.6h14.4v1.6a1.6 1.6 0 0 0 1.6 1.6h1.6a1.6 1.6 0 0 0 1.6-1.6v-1.6zm8-10.4v8.8h-8v-1.6a1.6 1.6 0 0 0-1.6-1.6h-1.6a1.6 1.6 0 0 0-1.6 1.6v1.6H50.8v-1.6a1.6 1.6 0 0 0-1.6-1.6h-1.6a1.6 1.6 0 0 0-1.6 1.6v1.6h-8v-8.8a2.403 2.403 0 0 1 2.4-2.4h8v-2.4a4.005 4.005 0 0 1 4-4h11.2a4.005 4.005 0 0 1 4 4V46h8a2.403 2.403 0 0 1 2.4 2.4zm-12-4.8a2.403 2.403 0 0 0-2.4-2.4H52.4a2.403 2.403 0 0 0-2.4 2.4V46h16v-2.4z"/>
    </g>
</svg>
