<?xml version="1.0" encoding="utf-8"?>
<!-- Generator: Adobe Illustrator 21.0.2, SVG Export Plug-In . SVG Version: 6.00 Build 0)  -->
<svg version="1.1" id="Layer_1" xmlns="http://www.w3.org/2000/svg" xmlns:xlink="http://www.w3.org/1999/xlink" x="0px" y="0px"
	 viewBox="0 0 12.9 12.5" style="enable-background:new 0 0 12.9 12.5;" xml:space="preserve">
<style type="text/css">
	.st0{fill:none;}
	.st1{fill:#11b4e4;}
</style>
<rect x="-1.5" y="1.9" class="st0" width="28.7" height="3"/>
<g>
	<path class="st1" d="M12.2,0.5c0.3,0.3,0.4,0.6,0.4,0.9v9.6c0,0.4-0.1,0.7-0.4,0.9c-0.3,0.3-0.6,0.4-0.9,0.4H1.6
		c-0.4,0-0.7-0.1-0.9-0.4c-0.3-0.3-0.4-0.6-0.4-0.9V1.5c0-0.4,0.1-0.7,0.4-0.9C1,0.3,1.3,0.1,1.6,0.1h9.6
		C11.6,0.1,11.9,0.3,12.2,0.5z M8,6.3l1.8-1.8c0.1-0.1,0.1-0.2,0.1-0.2s0-0.2-0.1-0.2L8.7,2.9C8.6,2.9,8.6,2.8,8.5,2.8
		c-0.1,0-0.2,0-0.2,0.1L6.4,4.7L4.7,2.9C4.6,2.9,4.5,2.8,4.4,2.8s-0.2,0-0.2,0.1L3.1,4C3,4.1,3,4.1,3,4.2c0,0.1,0,0.2,0.1,0.2
		l1.8,1.8L3.1,8C3,8.1,3,8.2,3,8.3s0,0.2,0.1,0.2l1.1,1.1c0.1,0.1,0.1,0.1,0.2,0.1c0.1,0,0.2,0,0.2-0.1l1.8-1.8l1.8,1.8
		c0.1,0.1,0.2,0.1,0.2,0.1s0.2,0,0.2-0.1l1.1-1.1c0.1-0.1,0.1-0.1,0.1-0.2c0-0.1,0-0.2-0.1-0.2L8,6.3z"/>
</g>
</svg>
