<svg id="Layer_1" data-name="Layer 1" xmlns="http://www.w3.org/2000/svg" viewBox="0 0 70 70"><defs><style>.cls-1{fill:#fff;}.cls-2{fill:#333;}.cls-3{fill:#5855a3;}</style></defs><title>Icons</title><circle class="cls-1" cx="35" cy="35" r="31.42"/><circle class="cls-2" cx="35" cy="35" r="4.12"/><circle class="cls-2" cx="35" cy="10.64" r="1.38"/><circle class="cls-2" cx="35" cy="59.36" r="1.38"/><circle class="cls-2" cx="59.36" cy="35" r="1.38"/><circle class="cls-2" cx="10.64" cy="35" r="1.38"/><circle class="cls-2" cx="52.23" cy="17.77" r="1.38" transform="translate(2.73 42.14) rotate(-45)"/><circle class="cls-2" cx="17.77" cy="52.23" r="1.38" transform="translate(-31.72 27.86) rotate(-45)"/><circle class="cls-2" cx="52.23" cy="52.23" r="1.38" transform="translate(-21.63 52.23) rotate(-45)"/><circle class="cls-2" cx="17.77" cy="17.77" r="1.38" transform="translate(-7.36 17.77) rotate(-45)"/><path class="cls-2" d="M35,68.25A33.25,33.25,0,1,1,68.25,35,33.29,33.29,0,0,1,35,68.25ZM35,5.41A29.59,29.59,0,1,0,64.59,35,29.63,29.63,0,0,0,35,5.41Z"/><rect class="cls-2" x="33.62" y="18.73" width="2.76" height="16.27" rx="1.38" ry="1.38"/><rect class="cls-2" x="38.46" y="33.94" width="2.76" height="18.61" rx="1.38" ry="1.38" transform="translate(-16.28 25.71) rotate(-30)"/><rect class="cls-3" x="28.75" y="19.83" width="0.69" height="18.12" rx="0.34" ry="0.34" transform="translate(-11.91 29.03) rotate(-45)"/></svg>