<svg id="Layer_1" data-name="Layer 1" xmlns="http://www.w3.org/2000/svg" viewBox="0 0 70 70"><defs><style>.cls-1{fill:#a1a8bd;}</style></defs><title>Icons</title><path class="cls-1" d="M55.95,22.86A23.67,23.67,0,0,1,59.19,35a23.67,23.67,0,0,1-3.24,12.14,24.07,24.07,0,0,1-8.8,8.8A23.67,23.67,0,0,1,35,59.19a23.66,23.66,0,0,1-12.14-3.24,24.07,24.07,0,0,1-8.81-8.8A23.67,23.67,0,0,1,10.81,35a23.67,23.67,0,0,1,3.24-12.14,24.09,24.09,0,0,1,8.81-8.8A23.66,23.66,0,0,1,35,10.81a23.67,23.67,0,0,1,12.14,3.24A24.09,24.09,0,0,1,55.95,22.86ZM49.84,43.6a17.22,17.22,0,0,0,0-17.2,17.11,17.11,0,0,0-6.24-6.24,17.24,17.24,0,0,0-17.2,0,17.1,17.1,0,0,0-6.24,6.24,17.24,17.24,0,0,0,0,17.2,17.1,17.1,0,0,0,6.24,6.24,17.24,17.24,0,0,0,17.2,0A17.11,17.11,0,0,0,49.84,43.6ZM39,23.91V38a1,1,0,0,1-1,1H27.94a1,1,0,0,1-1-1V36a1,1,0,0,1,1-1H35V23.91a1,1,0,0,1,1-1h2a1,1,0,0,1,1,1Z"/></svg>