<svg xmlns="http://www.w3.org/2000/svg" width="118" height="118" viewBox="0 0 118 118">
    <g fill="none" fill-rule="nonzero" transform="translate(1 1)">
        <circle cx="58" cy="58" r="58" stroke="#FFF" stroke-width="2" opacity=".75"/>
        <path fill="#FFF" d="M75.6 41.2H40.4a2.403 2.403 0 0 0-2.4 2.4v5.598h40V43.6a2.403 2.403 0 0 0-2.4-2.4zM42.8 46h-1.6v-1.6h1.6V46zm3.2 0h-1.6v-1.6H46V46zm3.2 0h-1.6v-1.6h1.6V46zm27.2 1.6h-24v-4.8h23.2a.8.8 0 0 1 .8.8v4zM38 72.4a2.403 2.403 0 0 0 2.4 2.4h35.2a2.403 2.403 0 0 0 2.4-2.4V50.798H38V72.4zm12.985-10.91a.801.801 0 0 1 1.128-.103l4.238 3.533 7.483-7.484a.8.8 0 0 1 1.132 1.131l-8 8a.8.8 0 0 1-1.078.05l-4.8-4a.801.801 0 0 1-.103-1.128z"/>
    </g>
</svg>
