<?xml version="1.0" encoding="utf-8"?>
<!-- Generator: Adobe Illustrator 21.0.2, SVG Export Plug-In . SVG Version: 6.00 Build 0)  -->
<svg version="1.1" id="Layer_1" xmlns="http://www.w3.org/2000/svg" xmlns:xlink="http://www.w3.org/1999/xlink" x="0px" y="0px"
	 viewBox="0 0 300 300" style="enable-background:new 0 0 300 300;" xml:space="preserve">
<style type="text/css">
	.st0{fill:#4596BA;}
</style>
<g>
	<path class="st0" d="M204.3,102.2c0-20.3-12.8-37.4-29.8-41.6c6.4-6.3,10.3-15.1,10.3-24.8C184.8,16.6,169.2,1,150,1
		s-34.8,15.6-34.8,34.8c0,9.7,4,18.4,10.3,24.8c-17,4.2-29.8,21.2-29.8,41.6v18.2h108.7L204.3,102.2L204.3,102.2z M150,16
		c10.9,0,19.8,8.9,19.8,19.8s-8.9,19.8-19.8,19.8s-19.8-8.9-19.8-19.8S139.1,16,150,16z M189.3,105.4h-78.7v-3.2
		c0-15.2,10.3-27.6,23-27.6h32.6c12.7,0,23,12.4,23,27.6L189.3,105.4L189.3,105.4z"/>
	<path class="st0" d="M78.8,240.2c6.4-6.3,10.3-15.1,10.3-24.8c0-19.2-15.6-34.8-34.8-34.8s-34.8,15.6-34.8,34.8
		c0,9.7,4,18.4,10.3,24.8C12.8,244.4,0,261.4,0,281.8V300h108.7v-18.2C108.7,261.4,95.9,244.4,78.8,240.2z M54.3,195.6
		c10.9,0,19.8,8.9,19.8,19.8s-8.9,19.8-19.8,19.8s-19.8-8.9-19.8-19.8S43.4,195.6,54.3,195.6z M93.7,285H15v-3.2
		c0-15.2,10.3-27.6,23-27.6h32.6c12.7,0,23,12.4,23,27.6L93.7,285L93.7,285z"/>
	<path class="st0" d="M270.2,240.2c6.4-6.3,10.3-15.1,10.3-24.8c0-19.2-15.6-34.8-34.8-34.8s-34.8,15.6-34.8,34.8
		c0,9.7,4,18.4,10.3,24.8c-17,4.2-29.8,21.2-29.8,41.6V300H300v-18.2C300,261.4,287.2,244.4,270.2,240.2z M245.7,195.6
		c10.9,0,19.8,8.9,19.8,19.8s-8.9,19.8-19.8,19.8s-19.8-8.9-19.8-19.8S234.7,195.6,245.7,195.6z M285,285h-78.7v-3.2
		c0-15.2,10.3-27.6,23-27.6H262c12.7,0,23,12.4,23,27.6V285z"/>
	<path class="st0" d="M258.8,126.2c0,0.1,0.1,0.3,0.1,0.4s0,0.3,0.1,0.4c0.2,0.8,0.3,1.6,0.5,2.5c2.5,13.2,2.6,26.5,0.3,39.6
		c0,0.1,0,0.3-0.1,0.4c0,0.1-0.1,0.3-0.1,0.4c-0.1,0.3-0.1,0.6-0.2,0.9c-0.8,4.1,1.9,8,6,8.8c3,0.6,6-0.7,7.6-3.1
		c0.6-0.8,1-1.8,1.2-2.8c0-0.2,0.1-0.4,0.1-0.5l0,0v-0.1l0,0V173l0,0v-0.1l0,0v-0.1l0,0l0,0l0,0c0-0.2,0.1-0.3,0.1-0.5
		s0.1-0.3,0.1-0.5c1-5.5,1.6-11.1,1.8-16.7l0,0c0-0.2,0-0.5,0-0.7l0,0v-0.1l0,0c0-0.2,0-0.4,0-0.6l0,0v-0.1l0,0v-0.1l0,0v-0.1l0,0
		v-0.1l0,0c0-0.2,0-0.3,0-0.5l0,0v-0.1l0,0v-0.1l0,0v-0.1l0,0c0-0.1,0-0.3,0-0.4l0,0V152l0,0v-0.1l0,0v-0.1l0,0v-0.1l0,0v-0.1l0,0
		c0-0.1,0-0.3,0-0.4l0,0v-0.1l0,0V151l0,0v-0.1l0,0v-0.1l0,0c0-0.1,0-0.3,0-0.4l0,0v-0.1l0,0v-0.1l0,0v-0.1l0,0V150l0,0
		c0-0.1,0-0.3,0-0.4l0,0v-0.1l0,0v-0.1l0,0v-0.1l0,0v-0.1l0,0v-0.1l0,0c0-0.1,0-0.2,0-0.3l0,0v-0.1l0,0v-0.1l0,0v-0.1l0,0v-0.1l0,0
		v-0.1l0,0c0-0.1,0-0.2,0-0.3l0,0v-0.1l0,0c0,0,0,0,0-0.1l0,0c0,0,0,0,0-0.1l0,0c0,0,0,0,0-0.1l0,0c0,0,0,0,0-0.1l0,0
		c0-0.1,0-0.2,0-0.3l0,0v-0.1l0,0c0,0,0,0,0-0.1l0,0c0,0,0,0,0-0.1l0,0c0,0,0,0,0-0.1l0,0c0,0,0,0,0-0.1l0,0v-0.1l0,0
		c0-0.1,0-0.1,0-0.2l0,0v-0.1l0,0c0,0,0,0,0-0.1l0,0c0,0,0,0,0-0.1l0,0c0,0,0,0,0-0.1l0,0c0,0,0,0,0-0.1l0,0v-0.1l0,0v-0.1l0,0v-0.1
		l0,0v-0.1l0,0c0,0,0,0,0-0.1l0,0c0,0,0,0,0-0.1l0,0c0,0,0,0,0-0.1l0,0c0,0,0,0,0-0.1l0,0V145l0,0c0-0.1,0-0.2,0-0.3l0,0
		c0,0,0,0,0-0.1l0,0c0,0,0,0,0-0.1l0,0c0,0,0,0,0-0.1l0,0c0,0,0,0,0-0.1l0,0c0,0,0,0,0-0.1l0,0v-0.1l0,0c0-0.1,0-0.1,0-0.2l0,0v-0.1
		l0,0c0,0,0,0,0-0.1l0,0c0,0,0,0,0-0.1l0,0c0,0,0,0,0-0.1l0,0c0,0,0,0,0-0.1l0,0v-0.1l0,0c0-0.1,0-0.1,0-0.2l0,0V143l0,0
		c0,0,0,0,0-0.1l0,0c0,0,0,0,0-0.1l0,0c0,0,0,0,0-0.1l0,0c0,0,0,0,0-0.1l0,0c0,0,0,0,0-0.1l0,0c0-0.1,0-0.1,0-0.2l0,0v-0.1l0,0
		c0,0,0,0,0-0.1l0,0c0,0,0,0,0-0.1l0,0c0,0,0,0,0-0.1l0,0c0,0,0,0,0-0.1l0,0c0,0,0,0,0-0.1l0,0v-0.1l0,0v-0.1l0,0v-0.1l0,0
		c0,0,0,0,0-0.1l0,0c0,0,0,0,0-0.1l0,0c0,0,0,0,0-0.1l0,0c0,0,0,0,0-0.1l0,0c0,0,0,0,0-0.1l0,0v-0.1l0,0c0-0.1,0-0.1,0-0.2l0,0
		c0,0,0,0,0-0.1l0,0c0,0,0,0,0-0.1l0,0c0,0,0,0,0-0.1l0,0c0,0,0,0,0-0.1l0,0c0,0,0,0,0-0.1l0,0c0,0,0,0,0-0.1l0,0v-0.1l0,0v-0.1l0,0
		c0,0,0,0,0-0.1l0,0c0,0,0,0,0-0.1l0,0c0,0,0,0,0-0.1l0,0c0,0,0,0,0-0.1l0,0c0,0,0,0,0-0.1l0,0c0,0,0,0,0-0.1l0,0v-0.1l0,0V139l0,0
		v-0.1l0,0c0,0,0,0,0-0.1l0,0c0,0,0,0,0-0.1l0,0c0,0,0,0,0-0.1l0,0c0,0,0,0,0-0.1l0,0c0,0,0,0,0-0.1l0,0v-0.1l0,0v-0.1l0,0v-0.1l0,0
		c0,0,0,0,0-0.1l0,0c0,0,0,0,0-0.1l0,0c0,0,0,0,0-0.1l0,0c0,0,0,0,0-0.1l0,0c0,0,0,0,0-0.1l0,0c0,0,0,0,0-0.1l0,0c0-0.1,0-0.1,0-0.2
		l0,0c0,0,0,0,0-0.1l0,0c0,0,0,0,0-0.1l0,0c0,0,0,0,0-0.1l0,0c0,0,0,0,0-0.1l0,0c0,0,0,0,0-0.1l0,0c0,0,0,0,0-0.1l0,0
		c0-0.1,0-0.1,0-0.2l0,0c0,0,0,0,0-0.1l0,0c0,0,0,0,0-0.1l0,0c0,0,0,0,0-0.1l0,0c0,0,0,0,0-0.1l0,0c0,0,0,0,0-0.1l0,0c0,0,0,0,0-0.1
		l0,0v-0.1l0,0v-0.1l0,0c0,0,0,0,0-0.1l0,0c0,0,0,0,0-0.1l0,0c0,0,0,0,0-0.1l0,0c0,0,0,0,0-0.1l0,0c0,0,0,0,0-0.1l0,0c0,0,0,0,0-0.1
		l0,0c0,0,0,0,0-0.1l0,0v-0.1l0,0v-0.1l0,0c0,0,0,0,0-0.1l0,0c0,0,0,0,0-0.1l0,0c0,0,0,0,0-0.1l0,0c0,0,0,0,0-0.1l0,0c0,0,0,0,0-0.1
		l0,0c0,0,0,0,0-0.1l0,0v-0.1l0,0V134l0,0c0,0,0,0,0-0.1l0,0c0,0,0,0,0-0.1l0,0c0,0,0,0,0-0.1l0,0c0,0,0,0,0-0.1l0,0c0,0,0,0,0-0.1
		l0,0c0,0,0,0,0-0.1l0,0v-0.1l0,0v-0.1l0,0c0,0,0,0,0-0.1l0,0c0,0,0,0,0-0.1l0,0c0,0,0,0,0-0.1l0,0c0,0,0,0,0-0.1l0,0c0,0,0,0,0-0.1
		l0,0c0,0,0,0,0-0.1l0,0v-0.1l0,0v-0.1l0,0v-0.1l0,0c0,0,0,0,0-0.1l0,0c0,0,0,0,0-0.1l0,0c0,0,0,0,0-0.1l0,0c0,0,0,0,0-0.1l0,0
		c0,0,0,0,0-0.1l0,0v-0.1l0,0v-0.1l0,0v-0.1l0,0c0,0,0,0,0-0.1l0,0c0,0,0,0,0-0.1l0,0c0,0,0,0,0-0.1l0,0c0,0,0,0,0-0.1l0,0
		c0,0,0,0,0-0.1l0,0c0,0,0,0,0-0.1l0,0v-0.1l0,0v-0.1l0,0c0,0,0,0,0-0.1l0,0c0,0,0,0,0-0.1l0,0c0,0,0,0,0-0.1l0,0c0,0,0,0,0-0.1l0,0
		c0,0,0,0,0-0.1l0,0c0,0,0,0,0-0.1l0,0V130l0,0v-0.1l0,0c0,0,0,0,0-0.1l0,0c0,0,0,0,0-0.1l0,0c0,0,0,0,0-0.1l0,0c0,0,0,0,0-0.1l0,0
		c0,0,0,0,0-0.1l0,0c0,0,0,0,0-0.1l0,0v-0.1l0,0v-0.1l0,0c0,0,0,0,0-0.1l0,0c0,0,0,0,0-0.1l0,0c0,0,0,0,0-0.1l0,0c0,0,0,0,0-0.1l0,0
		c0,0,0,0,0-0.1l0,0c0,0,0,0,0-0.1l0,0c0,0,0,0,0-0.1l0,0v-0.1l0,0c0,0,0,0,0-0.1l0,0c0,0,0,0,0-0.1l0,0c0,0,0,0,0-0.1l0,0
		c0,0,0,0,0-0.1l0,0c0,0,0,0,0-0.1l0,0c0,0,0,0,0-0.1l0,0c0,0,0,0,0-0.1l0,0v-0.1l0,0v-0.1l0,0c0,0,0,0,0-0.1l0,0c0,0,0,0,0-0.1l0,0
		c0,0,0,0,0-0.1l0,0c0,0,0,0,0-0.1l0,0c0,0,0,0,0-0.1l0,0c0,0,0,0,0-0.1l0,0v-0.1v-0.1l0,0c0,0,0,0,0-0.1l0,0c0,0,0,0,0-0.1l0,0
		c0,0,0,0,0-0.1l0,0l0,0l0,0l0,0c0-0.1,0-0.1,0-0.2l0,0c0,0,0,0,0-0.1l0,0c0,0,0,0,0-0.1l0,0c0,0,0,0,0-0.1l0,0
		c-0.1-0.6-0.2-1.1-0.3-1.7l0,0c0-0.2-0.1-0.3-0.1-0.5s-0.1-0.3-0.1-0.5V123l0,0l0,0c0-0.1-0.1-0.3-0.1-0.4l0,0v-0.1l0,0l0,0v-0.1
		l0,0c0,0,0,0,0-0.1l0,0v-0.1l0,0c-0.9-4-4.9-6.6-9-5.7c-1.9,0.4-3.5,1.6-4.5,3.1c-1.1,1.7-1.6,3.8-1.1,5.9
		C258.6,125.6,258.7,125.9,258.8,126.2z"/>
	<path class="st0" d="M208.7,55.4c0.2,0.2,0.5,0.3,0.7,0.5c0.1,0.1,0.3,0.2,0.4,0.2c0.1,0.1,0.2,0.2,0.4,0.2
		c12,7.7,22.2,17.5,30.5,29c0.1,0.1,0.2,0.2,0.3,0.4c0.1,0.1,0.2,0.2,0.2,0.4c0.2,0.2,0.3,0.5,0.5,0.7c2.4,3.4,7,4.3,10.4,1.9
		c0.8-0.5,1.4-1.2,1.9-1.9c1.7-2.5,1.8-5.9,0-8.5c0,0,0-0.1-0.1-0.1l0,0l0,0c0,0,0,0,0-0.1l0,0l0,0c-0.1-0.2-0.3-0.4-0.4-0.5
		c-0.1-0.1-0.2-0.3-0.3-0.4s-0.2-0.3-0.3-0.4c-0.4-0.5-0.8-1.1-1.2-1.6l0,0c0,0,0,0-0.1-0.1l0,0c0,0,0,0-0.1-0.1l0,0
		c0,0,0,0-0.1-0.1l0,0c0,0,0,0-0.1-0.1l0,0c0,0,0,0-0.1-0.1l0,0c0,0,0,0,0-0.1l0,0c0,0,0,0,0-0.1l0,0c0,0,0,0-0.1-0.1l0,0
		c0,0,0,0,0-0.1l0,0c0,0,0,0,0-0.1l0,0c0,0,0,0,0-0.1l0,0c0,0,0,0,0-0.1l0,0c0,0,0,0,0-0.1l0,0c0,0,0,0,0-0.1l0,0c0,0,0,0,0-0.1l0,0
		c0,0,0,0,0-0.1l0,0c0,0,0,0,0-0.1l0,0c0,0,0,0,0-0.1l0,0c0,0,0,0,0-0.1l0,0c0,0,0,0,0-0.1l0,0c0,0,0,0,0-0.1l0,0c0,0,0,0,0-0.1l0,0
		c0,0,0,0,0-0.1l0,0c0,0,0,0,0-0.1l0,0c0,0,0,0,0-0.1l0,0c0,0,0,0,0-0.1l0,0c0,0,0,0,0-0.1l0,0c0,0,0,0,0-0.1l0,0c0,0,0,0,0-0.1l0,0
		c0,0,0,0,0-0.1l0,0c0,0,0,0,0-0.1l0,0c0,0,0,0,0-0.1l0,0c0,0,0,0,0-0.1l0,0c0,0,0,0,0-0.1l0,0c0,0,0,0,0-0.1l0,0c0,0,0,0,0-0.1l0,0
		c0,0,0,0,0-0.1l0,0c0,0,0,0,0-0.1l0,0c0,0,0,0,0-0.1l0,0c0,0,0,0,0-0.1l0,0c0,0,0,0,0-0.1l0,0c0,0,0,0,0-0.1l0,0c0,0,0,0-0.1-0.1
		l0,0c0,0,0,0-0.1-0.1l0,0c0,0,0,0-0.1-0.1l0,0c0,0,0,0-0.1-0.1l0,0c0,0,0,0-0.1-0.1l0,0c0,0,0,0-0.1-0.1l0,0c0,0,0,0-0.1-0.1l0,0
		c-0.2-0.3-0.5-0.6-0.7-0.9l0,0c0,0,0,0-0.1-0.1l0,0c0,0,0,0,0-0.1l0,0c0,0,0,0,0-0.1l0,0c0,0,0,0,0-0.1l0,0c0,0,0,0,0-0.1l0,0
		c0,0,0,0,0-0.1l0,0c0,0,0,0,0-0.1l0,0c0,0,0,0,0-0.1l0,0c0,0,0,0,0-0.1l0,0l0,0l0,0l0,0l0,0c0,0,0,0,0-0.1l0,0c0,0,0,0,0-0.1l0,0
		l0,0l0,0l0,0l0,0l0,0l0,0l0,0l0,0l0,0l0,0l0,0l0,0l0,0l0,0l0,0l0,0l0,0l0,0l0,0l0,0l0,0l0,0l0,0l0,0l0,0l0,0l0,0l0,0l0,0l0,0l0,0
		l0,0l0,0l0,0l0,0l0,0l0,0l0,0l0,0l0,0l0,0l0,0l0,0l0,0l0,0l0,0l0,0l0,0l0,0l0,0l0,0l0,0l0,0l0,0l0,0l0,0l0,0l0,0l0,0l0,0l0,0l0,0
		l0,0l0,0l0,0l0,0l0,0l0,0l0,0l0,0l0,0l0,0l0,0l0,0l0,0l0,0l0,0l0,0l0,0l0,0l0,0l0,0l0,0l0,0l0,0l0,0l0,0l0,0l0,0l0,0l0,0l0,0l0,0
		l0,0l0,0l0,0l0,0l0,0l0,0l0,0l0,0l0,0l0,0l0,0l0,0c0,0,0,0,0-0.1l0,0l-0.1-0.1l-0.1-0.1l0,0l0,0l0,0l0,0l0,0l0,0l0,0l0,0l0,0l0,0
		l0,0l0,0l0,0l0,0l0,0l0,0l0,0l0,0l0,0l0,0l0,0l0,0l0,0l0,0l0,0l0,0l0,0l0,0l0,0l0,0l0,0l0,0l0,0l0,0l0,0l0,0l0,0l0,0l0,0l0,0l0,0
		l0,0l0,0l0,0l0,0l0,0l0,0l0,0l0,0l0,0l0,0l0,0l0,0l0,0l0,0l0,0l0,0l0,0l0,0l0,0l0,0l0,0l0,0l0,0l0,0l0,0l0,0l0,0l0,0l0,0l0,0l0,0
		l0,0l0,0l0,0l0,0l0,0l0,0l0,0l0,0l0,0l0,0l0,0l0,0l0,0l0,0l0,0l0,0l0,0l0,0l0,0l0,0l0,0l0,0l0,0l0,0l0,0l0,0l0,0l0,0l0,0l0,0l0,0
		l0,0l0,0l0,0l0,0l0,0l0,0l0,0l0,0l0,0l0,0l0,0l0,0l0,0l0,0l0,0l0,0l0,0l0,0l0,0l0,0l0,0l0,0l0,0l0,0l0,0l0,0l0,0l0,0l0,0l0,0l0,0
		l0,0l0,0c-0.1-0.1-0.1-0.1-0.2-0.2l0,0c0,0,0,0-0.1-0.1l0,0l0,0l0,0l0,0l0,0l0,0l0,0l0,0l0,0l0,0l0,0l0,0l0,0l0,0l0,0l0,0l0,0l0,0
		l0,0l0,0l0,0l0,0l0,0l0,0l0,0l0,0l0,0l0,0l0,0l0,0l0,0l0,0l0,0l0,0l0,0l0,0l0,0l0,0l0,0l0,0l0,0l0,0l0,0l0,0l0,0l0,0l0,0l0,0l0,0
		l0,0l0,0l0,0l0,0l0,0l0,0l0,0l0,0l0,0l0,0l0,0l0,0l0,0l0,0l0,0l0,0l0,0l0,0l0,0l0,0l0,0l0,0l0,0l0,0l0,0l0,0l0,0l0,0l0,0l0,0l0,0
		l0,0l0,0l0,0l0,0l0,0l0,0l0,0l0,0l0,0l0,0l0,0l0,0l0,0l0,0l0,0l0,0l0,0l0,0l0,0l0,0l0,0l0,0l0,0l0,0l0,0l0,0l0,0l0,0l0,0l0,0l0,0
		l0,0l0,0l0,0l0,0l0,0l0,0l0,0l0,0l0,0l0,0l0,0l0,0l0,0l0,0l0,0l0,0l0,0l0,0l0,0l0,0l0,0c0,0,0,0-0.1,0l0,0c0,0,0,0-0.1,0l0,0
		c0,0,0,0-0.1-0.1l0,0c0,0,0,0-0.1,0l0,0c-0.1-0.1-0.1-0.1-0.2-0.2l0,0c0,0,0,0-0.1-0.1l0,0c0,0,0,0-0.1,0l0,0c0,0,0,0-0.1,0l0,0
		l0,0l0,0l0,0l0,0l0,0l0,0l0,0l0,0l0,0l0,0l0,0l0,0l0,0l0,0l0,0l0,0l0,0l0,0l0,0l0,0l0,0l0,0l0,0l0,0l0,0l0,0l0,0l0,0l0,0l0,0l0,0
		l0,0l0,0l0,0l0,0l0,0l0,0l0,0l0,0l0,0l0,0l0,0l0,0l0,0l0,0l0,0l0,0l0,0l0,0l0,0l0,0l0,0l0,0l0,0l0,0l0,0l0,0l0,0l0,0l0,0l0,0l0,0
		l0,0l0,0l0,0l0,0l0,0l0,0l0,0l0,0l0,0l0,0l0,0l0,0l0,0l0,0l0,0l0,0l0,0l0,0l0,0l0,0l0,0l0,0l0,0l0,0l0,0l0,0l0,0l0,0l0,0l0,0l0,0
		l0,0l0,0l0,0l0,0l0,0l0,0l0,0c0,0,0,0-0.1,0l0,0c0,0,0,0-0.1,0l0,0c0,0,0,0-0.1,0l0,0c0,0,0,0-0.1,0l0,0c0,0,0,0-0.1,0l0,0
		c0,0,0,0-0.1,0l0,0c0,0,0,0-0.1,0l0,0c0,0,0,0-0.1-0.1l0,0c0,0,0,0-0.1-0.1l0,0c0,0,0,0-0.1-0.1l0,0c-0.3-0.2-0.6-0.5-0.9-0.7l0,0
		c0,0,0,0-0.1-0.1l0,0c0,0,0,0-0.1-0.1l0,0c0,0,0,0-0.1-0.1l0,0c0,0,0,0-0.1-0.1l0,0c0,0,0,0-0.1-0.1l0,0c0,0,0,0-0.1-0.1l0,0
		c0,0,0,0-0.1-0.1l0,0c0,0,0,0-0.1-0.1l0,0c0,0,0,0-0.1-0.1l0,0c0,0,0,0-0.1-0.1l0,0c0,0,0,0-0.1,0l0,0c0,0,0,0-0.1,0l0,0
		c0,0,0,0-0.1,0l0,0c0,0,0,0-0.1,0l0,0c0,0,0,0-0.1,0l0,0c0,0,0,0-0.1,0l0,0c0,0,0,0-0.1,0l0,0c0,0,0,0-0.1,0l0,0c0,0,0,0-0.1,0l0,0
		c0,0,0,0-0.1,0l0,0c0,0,0,0-0.1,0l0,0c0,0,0,0-0.1,0l0,0c0,0,0,0-0.1,0l0,0c0,0,0,0-0.1,0l0,0c0,0,0,0-0.1,0l0,0c0,0,0,0-0.1,0l0,0
		c0,0,0,0-0.1,0l0,0c0,0,0,0-0.1,0l0,0c0,0,0,0-0.1,0l0,0c0,0,0,0-0.1,0l0,0c0,0,0,0-0.1,0l0,0c0,0,0,0-0.1,0l0,0c0,0,0,0-0.1,0l0,0
		c0,0,0,0-0.1,0l0,0c0,0,0,0-0.1,0l0,0c0,0,0,0-0.1,0l0,0c0,0,0,0-0.1,0l0,0c0,0,0,0-0.1,0l0,0c0,0,0,0-0.1,0l0,0c0,0,0,0-0.1,0l0,0
		c0,0,0,0-0.1,0l0,0c0,0,0,0-0.1,0l0,0c0,0,0,0-0.1,0l0,0c0,0,0,0-0.1,0l0,0c0,0,0,0-0.1,0l0,0c0,0,0,0-0.1-0.1l0,0c0,0,0,0-0.1-0.1
		l0,0c0,0,0,0-0.1-0.1l0,0c0,0,0,0-0.1-0.1l0,0c0,0,0,0-0.1-0.1l0,0c-0.9-0.7-1.8-1.3-2.8-2l0,0c0,0,0,0-0.1-0.1l0,0
		c0,0,0,0-0.1-0.1l0,0c0,0,0,0-0.1-0.1l0,0c0,0,0,0-0.1-0.1l0,0c0,0,0,0-0.1-0.1l0,0c0,0,0,0-0.1-0.1l0,0c0,0,0,0-0.1-0.1l0,0
		c0,0,0,0-0.1-0.1l0,0c0,0,0,0-0.1,0l0,0c0,0,0,0-0.1,0l0,0c0,0,0,0-0.1,0l0,0c0,0,0,0-0.1,0l0,0c0,0,0,0-0.1,0l0,0c0,0,0,0-0.1,0
		l0,0c0,0,0,0-0.1,0l0,0c0,0,0,0-0.1-0.1l0,0c0,0,0,0-0.1-0.1l0,0c0,0-0.1,0-0.1-0.1l0,0c0,0-0.1,0-0.1-0.1l0,0c0,0-0.1,0-0.1-0.1
		l0,0c0,0-0.1,0-0.1-0.1l0,0c-0.8-0.5-1.5-1-2.3-1.5c-0.1-0.1-0.3-0.2-0.4-0.2c-0.1-0.1-0.3-0.2-0.4-0.3c-0.3-0.2-0.6-0.4-0.9-0.5
		l0,0l0,0c-3.4-2.1-7.9-1.2-10.1,2.1c-0.1,0.1-0.1,0.2-0.2,0.3C204.1,48.6,205.2,53.2,208.7,55.4z"/>
	<path class="st0" d="M23.6,150.3C23.6,150.4,23.6,150.4,23.6,150.3c0,0.1,0,0.1,0,0.1s0,0,0,0.1l0,0c0,0,0,0,0,0.1l0,0
		c0,0,0,0,0,0.1l0,0c0,0,0,0,0,0.1l0,0c0,0,0,0,0,0.1l0,0c0,0,0,0,0,0.1l0,0c0,0,0,0,0,0.1l0,0c0,0,0,0,0,0.1l0,0c0,0,0,0,0,0.1l0,0
		v0.1l0,0v0.1l0,0v0.1l0,0c0,0.2,0,0.3,0,0.5l0,0v0.1l0,0v0.1l0,0v0.1l0,0v0.1l0,0v0.1l0,0v0.1l0,0v0.1l0,0v0.1l0,0v0.1l0,0v0.1l0,0
		v0.1l0,0v0.1l0,0v0.1l0,0c0,0.2,0,0.5,0,0.7l0,0v0.1l0,0v0.1l0,0v0.1l0,0v0.1l0,0v0.1l0,0v0.1l0,0v0.1l0,0v0.1l0,0v0.1l0,0v0.1l0,0
		c0,0.3,0,0.7,0,1l0,0v0.1l0,0v0.1l0,0v0.1l0,0v0.1l0,0v0.1l0,0v0.1l0,0v0.1l0,0v0.1l0,0c0,0.4,0,0.8,0.1,1.2l0,0v0.1l0,0v0.1l0,0
		v0.1l0,0v0.1l0,0v0.1l0,0c0,0.5,0.1,1,0.1,1.5l0,0v0.1l0,0v0.1l0,0v0.1l0,0v0.1l0,0c0.4,4.2,0.9,8.4,1.7,12.6
		c0,0.2,0.1,0.3,0.1,0.5s0,0.3,0.1,0.5c0,0.1,0,0.1,0,0.2l0,0c0,0,0,0,0,0.1v0.1l0,0c0,0.2,0.1,0.3,0.1,0.5l0,0l0,0v0.1
		c0.8,4.1,4.8,6.7,8.8,5.9c2-0.4,3.6-1.6,4.7-3.1c1.1-1.6,1.6-3.7,1.2-5.7c-0.1-0.3-0.1-0.6-0.2-0.9c0-0.1-0.1-0.3-0.1-0.4
		c0-0.1,0-0.3-0.1-0.4c-2.6-14-2.5-28.2,0.2-42c0-0.1,0.1-0.3,0.1-0.4c0-0.1,0.1-0.3,0.1-0.4c0.1-0.3,0.1-0.6,0.2-0.9
		c0.9-4-1.7-8-5.7-8.9c-3.1-0.7-6.1,0.7-7.8,3.1c-0.5,0.8-0.9,1.7-1.1,2.7c0,0.1-0.1,0.3-0.1,0.4l0,0v0.1l0,0l0,0l0,0v0.1l0,0
		c0,0.1,0,0.2-0.1,0.2c0,0.2-0.1,0.3-0.1,0.5s-0.1,0.3-0.1,0.5c-0.2,1.1-0.4,2.2-0.6,3.4l0,0v0.1l0,0v0.1l0,0v0.1l0,0v0.1l0,0v0.1
		l0,0v0.1l0,0v0.1l0,0c-0.1,0.3-0.1,0.6-0.2,1l0,0v0.1l0,0v0.1l0,0v0.1l0,0v0.1l0,0v0.1l0,0v0.1l0,0v0.1l0,0v0.1l0,0v0.1l0,0v0.1
		l0,0v0.1l0,0c0,0.2-0.1,0.4-0.1,0.7l0,0v0.1l0,0v0.1l0,0c0,0,0,0,0,0.1l0,0c0,0,0,0,0,0.1l0,0c0,0,0,0,0,0.1l0,0v0.1l0,0
		c0,0,0,0,0,0.1l0,0c0,0,0,0,0,0.1l0,0c0,0,0,0,0,0.1l0,0c0,0,0,0,0,0.1l0,0c0,0,0,0,0,0.1l0,0v0.1l0,0v0.1l0,0c0,0.2,0,0.3-0.1,0.5
		l0,0v0.1l0,0v0.1l0,0v0.1l0,0c0,0,0,0,0,0.1l0,0c0,0,0,0,0,0.1l0,0c0,0,0,0,0,0.1l0,0c0,0,0,0,0,0.1l0,0c0,0,0,0,0,0.1l0,0
		c0,0,0,0,0,0.1l0,0c0,0,0,0,0,0.1l0,0c0,0,0,0,0,0.1l0,0c0,0,0,0,0,0.1l0,0c0,0,0,0,0,0.1l0,0v0.1l0,0v0.1l0,0c0,0.1,0,0.2,0,0.3
		l0,0v0.1l0,0v0.1l0,0c0,0,0,0,0,0.1l0,0c0,0,0,0,0,0.1l0,0c0,0,0,0,0,0.1l0,0c0,0,0,0,0,0.1l0,0c0,0,0,0,0,0.1l0,0c0,0,0,0,0,0.1
		l0,0c0,0,0,0,0,0.1l0,0c0,0,0,0,0,0.1l0,0c0,0,0,0,0,0.1l0,0c0,0,0,0,0,0.1l0,0c0,0,0,0,0,0.1l0,0c0,0,0,0,0,0.1l0,0v0.1l0,0v0.1
		l0,0c0,0.1,0,0.1,0,0.2l0,0v0.1l0,0v0.1l0,0c0,0,0,0,0,0.1l0,0c0,0,0,0,0,0.1l0,0c0,0,0,0,0,0.1l0,0c0,0,0,0,0,0.1l0,0
		c0,0,0,0,0,0.1l0,0c0,0,0,0,0,0.1l0,0c0,0,0,0,0,0.1l0,0c0,0,0,0,0,0.1l0,0c0,0,0,0,0,0.1l0,0c0,0,0,0,0,0.1l0,0c0,0,0,0,0,0.1l0,0
		c0,0,0,0,0,0.1l0,0c0,0,0,0,0,0.1l0,0c0,0,0,0,0,0.1l0,0v0.1l0,0c0,0.1,0,0.1,0,0.2l0,0v0.1l0,0c0,0,0,0,0,0.1l0,0c0,0,0,0,0,0.1
		l0,0c0,0,0,0,0,0.1l0,0c0,0,0,0,0,0.1l0,0c0,0,0,0,0,0.1l0,0c0,0,0,0,0,0.1l0,0c0,0,0,0,0,0.1l0,0c0,0,0,0,0,0.1l0,0c0,0,0,0,0,0.1
		l0,0c0,0,0,0,0,0.1l0,0c0,0,0,0,0,0.1l0,0c0,0,0,0,0,0.1l0,0c0,0,0,0,0,0.1l0,0c0,0,0,0,0,0.1l0,0c0,0,0,0,0,0.1l0,0v0.1l0,0
		c0,0.1,0,0.1,0,0.2l0,0v0.1l0,0c0,0,0,0,0,0.1l0,0c0,0,0,0,0,0.1l0,0c0,0,0,0,0,0.1l0,0c0,0,0,0,0,0.1l0,0c0,0,0,0,0,0.1l0,0
		c0,0,0,0,0,0.1l0,0c0,0,0,0,0,0.1l0,0c0,0,0,0,0,0.1l0,0c0,0,0,0,0,0.1l0,0c0,0,0,0,0,0.1l0,0c0,0,0,0,0,0.1l0,0c0,0,0,0,0,0.1l0,0
		c0,0,0,0,0,0.1l0,0c0,0,0,0,0,0.1l0,0c0,0,0,0,0,0.1l0,0v0.1l0,0c0,0.1,0,0.1,0,0.2l0,0v0.1l0,0c0,0,0,0,0,0.1l0,0c0,0,0,0,0,0.1
		l0,0c0,0,0,0,0,0.1l0,0c0,0,0,0,0,0.1l0,0c0,0,0,0,0,0.1l0,0c0,0,0,0,0,0.1l0,0c0,0,0,0,0,0.1l0,0c0,0,0,0,0,0.1l0,0c0,0,0,0,0,0.1
		l0,0c0,0,0,0,0,0.1l0,0c0,0,0,0,0,0.1l0,0c0,0,0,0,0,0.1l0,0c0,0,0,0,0,0.1l0,0c0,0,0,0,0,0.1l0,0v0.1l0,0c0,0.1,0,0.1,0,0.2l0,0
		v0.1l0,0c0,0,0,0,0,0.1l0,0c0,0,0,0,0,0.1l0,0c0,0,0,0,0,0.1l0,0c0,0,0,0,0,0.1l0,0c0,0,0,0,0,0.1l0,0c0,0,0,0,0,0.1l0,0
		c0,0,0,0,0,0.1l0,0c0,0,0,0,0,0.1l0,0c0,0,0,0,0,0.1l0,0c0,0,0,0,0,0.1l0,0c0,0,0,0,0,0.1l0,0c0,0,0,0,0,0.1l0,0c0,0,0,0,0,0.1l0,0
		c0,0,0,0,0,0.1l0,0c0,0,0,0,0,0.1l0,0v0.1l0,0c0,0.1,0,0.1,0,0.2l0,0v0.1l0,0v0.1l0,0c0,0,0,0,0,0.1l0,0c0,0,0,0,0,0.1l0,0
		c0,0,0,0,0,0.1l0,0c0,0,0,0,0,0.1l0,0c0,0,0,0,0,0.1l0,0c0,0,0,0,0,0.1l0,0c0,0,0,0,0,0.1l0,0c0,0,0,0,0,0.1l0,0c0,0,0,0,0,0.1l0,0
		c0,0,0,0,0,0.1l0,0c0,0,0,0,0,0.1l0,0c0,0,0,0,0,0.1l0,0c0,0,0,0,0,0.1l0,0v0.1l0,0c0,0.1,0,0.3,0,0.4l0,0v0.1l0,0c0,0,0,0,0,0.1
		l0,0c0,0,0,0,0,0.1l0,0c0,0,0,0,0,0.1l0,0c0,0,0,0,0,0.1l0,0c0,0,0,0,0,0.1l0,0c0,0,0,0,0,0.1l0,0c0,0,0,0,0,0.1l0,0c0,0,0,0,0,0.1
		l0,0c0,0,0,0,0,0.1l0,0c0,0,0,0,0,0.1l0,0c0,0,0,0,0,0.1l0,0v0.1l0,0v0.1l0,0C23.6,149.9,23.6,150.1,23.6,150.3L23.6,150.3z"/>
	<path class="st0" d="M47.2,89.9c3.4,2.3,8.1,1.4,10.4-2l0,0c0.2-0.2,0.3-0.5,0.5-0.7c7.2-10.5,16-19.6,26.2-27
		c0.1-0.1,0.2-0.2,0.3-0.3c0.1-0.1,0.2-0.2,0.4-0.2c0.2-0.2,0.5-0.3,0.7-0.5c0.7-0.5,1.4-1.2,1.9-1.9c1.7-2.5,1.8-5.9-0.1-8.6
		c-2.4-3.4-7.1-4.2-10.4-1.8L77,47l0,0c0,0,0,0-0.1,0l0,0l0,0c-0.2,0.1-0.4,0.3-0.6,0.4c-0.1,0.1-0.3,0.2-0.4,0.3s-0.3,0.2-0.4,0.3
		c-5.4,4-10.5,8.4-15.2,13.1l0,0c-0.2,0.2-0.4,0.4-0.5,0.5l0,0c-0.2,0.2-0.3,0.3-0.5,0.5l0,0c0,0,0,0-0.1,0.1l0,0
		c-0.1,0.1-0.3,0.3-0.4,0.4l0,0c0,0,0,0-0.1,0.1l0,0c-0.1,0.1-0.3,0.3-0.4,0.4l0,0c0,0,0,0-0.1,0.1l0,0c0,0,0,0-0.1,0.1l0,0
		c-0.1,0.1-0.2,0.2-0.3,0.3l0,0c0,0,0,0-0.1,0.1l0,0c0,0,0,0-0.1,0.1l0,0c-0.1,0.1-0.2,0.2-0.3,0.3l0,0c0,0,0,0-0.1,0.1l0,0
		c0,0,0,0-0.1,0.1l0,0c0,0,0,0-0.1,0.1l0,0c-0.1,0.1-0.2,0.2-0.3,0.3l0,0c0,0,0,0-0.1,0.1l0,0c0,0,0,0-0.1,0.1l0,0c0,0,0,0-0.1,0.1
		l0,0c0,0,0,0-0.1,0.1l0,0c-0.1,0.1-0.2,0.2-0.3,0.3l0,0c0,0,0,0-0.1,0.1l0,0c0,0,0,0-0.1,0.1l0,0c0,0,0,0-0.1,0.1l0,0
		c-0.1,0.1-0.2,0.2-0.3,0.3l0,0c0,0,0,0-0.1,0.1l0,0c0,0,0,0-0.1,0.1l0,0c0,0,0,0-0.1,0.1l0,0c-0.1,0.1-0.2,0.2-0.2,0.3l0,0
		c0,0,0,0-0.1,0.1l0,0c0,0,0,0-0.1,0.1l0,0c0,0,0,0-0.1,0.1l0,0c0,0,0,0-0.1,0.1l0,0c-0.1,0.1-0.1,0.1-0.2,0.2l0,0c0,0,0,0-0.1,0.1
		l0,0c0,0,0,0,0,0.1l0,0c0,0,0,0,0,0.1l0,0c0,0,0,0-0.1,0.1l0,0c0,0,0,0-0.1,0.1l0,0l-0.1,0.1l0,0c0,0,0,0-0.1,0.1l0,0
		c0,0,0,0-0.1,0.1l0,0c0,0,0,0,0,0.1l0,0c0,0,0,0,0,0.1l0,0c0,0,0,0-0.1,0.1l0,0c-0.1,0.1-0.1,0.1-0.2,0.2l0,0c0,0,0,0-0.1,0.1l0,0
		c0,0,0,0,0,0.1l0,0c0,0,0,0,0,0.1l0,0c0,0,0,0,0,0.1l0,0c-0.1,0.1-0.1,0.1-0.2,0.2l0,0c0,0,0,0-0.1,0.1l0,0c0,0,0,0,0,0.1l0,0
		c0,0,0,0,0,0.1l0,0c0,0,0,0,0,0.1l0,0c0,0,0,0-0.1,0.1l0,0l-0.1,0.1l0,0c0,0,0,0-0.1,0.1l0,0c0,0,0,0,0,0.1l0,0l0,0l0,0l0,0l0,0
		c0,0,0,0,0,0.1l0,0c0,0,0,0-0.1,0.1l0,0l-0.1,0.1l0,0c0,0,0,0,0,0.1l0,0c0,0,0,0,0,0.1l0,0l0,0l0,0c0,0,0,0,0,0.1l0,0
		c0,0,0,0-0.1,0.1l0,0l-0.1,0.1l0,0c0,0,0,0,0,0.1l0,0c0,0,0,0,0,0.1l0,0c0,0,0,0,0,0.1l0,0c0,0,0,0,0,0.1l0,0c0,0,0,0,0,0.1l0,0
		l-0.1,0.1l0,0c0,0,0,0-0.1,0.1l0,0c0,0,0,0,0,0.1l0,0l0,0l0,0l0,0l0,0c0,0,0,0,0,0.1l0,0c0,0,0,0,0,0.1l0,0L52,71.8l0,0
		c0,0,0,0,0,0.1l0,0l0,0l0,0l0,0l0,0l0,0l0,0c0,0,0,0,0,0.1l0,0l-0.1,0.1l0,0c0,0,0,0,0,0.1l0,0l0,0l0,0l0,0l0,0l0,0l0,0
		c0,0,0,0,0,0.1l0,0c0,0,0,0-0.1,0.1l0,0c0,0,0,0-0.1,0.1l0,0c0,0,0,0-0.1,0.1l0,0c0,0,0,0,0,0.1l0,0c0,0,0,0,0,0.1l0,0
		c0,0,0,0,0,0.1l0,0c0,0,0,0,0,0.1l0,0c0,0,0,0,0,0.1l0,0l-0.1,0.1l0,0c0,0,0,0,0,0.1l0,0c0,0,0,0,0,0.1l0,0l0,0l0,0c0,0,0,0,0,0.1
		l0,0c0,0,0,0,0,0.1l0,0l-0.1,0.1l0,0c0,0,0,0,0,0.1l0,0l0,0l0,0l0,0l0,0l0,0l0,0l0,0l0,0c0,0,0,0,0,0.1l0,0c0,0,0,0-0.1,0.1l0,0
		c0,0,0,0,0,0.1l0,0l0,0l0,0l0,0l0,0l0,0l0,0l0,0l0,0c0,0,0,0,0,0.1l0,0l-0.1,0.1l0,0c0,0,0,0,0,0.1l0,0l0,0l0,0l0,0l0,0l0,0l0,0
		c0,0,0,0,0,0.1l0,0c0,0,0,0-0.1,0.1l0,0c0,0,0,0-0.1,0.1l0,0c0,0,0,0,0,0.1l0,0c0,0,0,0,0,0.1l0,0l0,0l0,0l0,0l0,0l0,0l0,0
		c0,0,0,0,0,0.1l0,0c0,0,0,0-0.1,0.1l0,0c0,0,0,0,0,0.1l0,0c0,0,0,0,0,0.1l0,0l0,0l0,0l0,0l0,0l0,0l0,0c0,0,0,0,0,0.1l0,0l-0.1,0.1
		l0,0c0,0,0,0,0,0.1l0,0l0,0l0,0l0,0l0,0l0,0l0,0l0,0l0,0c0,0,0,0,0,0.1l0,0c0,0,0,0-0.1,0.1l0,0c0,0,0,0,0,0.1l0,0c0,0,0,0,0,0.1
		l0,0l0,0l0,0l0,0l0,0l0,0l0,0c0,0,0,0,0,0.1l0,0c0,0,0,0-0.1,0.1l0,0c0,0,0,0-0.1,0.1l0,0c0,0,0,0,0,0.1l0,0l0,0l0,0l0,0l0,0l0,0
		l0,0l0,0l0,0c0,0,0,0,0,0.1l0,0c0,0,0,0-0.1,0.1l0,0c0,0,0,0,0,0.1l0,0l0,0l0,0l0,0l0,0l0,0l0,0l0,0l0,0c0,0,0,0,0,0.1l0,0
		c0,0,0,0-0.1,0.1l0,0c0,0,0,0,0,0.1l0,0l0,0l0,0l0,0l0,0l0,0l0,0l0,0l0,0c0,0,0,0,0,0.1l0,0c0,0,0,0-0.1,0.1c0,0,0,0,0,0.1l0,0
		c-0.2,0.3-0.3,0.5-0.5,0.8C42.9,82.9,43.8,87.6,47.2,89.9z"/>
	<path class="st0" d="M173.4,258.9c-0.3,0.1-0.6,0.1-0.9,0.2c-0.1,0-0.3,0.1-0.4,0.1c-0.1,0-0.3,0-0.4,0.1c-0.4,0.1-0.8,0.1-1.1,0.2
		c-13.6,2.6-27.4,2.6-40.9,0.1c-0.1,0-0.3,0-0.4-0.1c-0.1,0-0.3-0.1-0.4-0.1c-0.3-0.1-0.6-0.1-0.9-0.2c-3-0.6-6,0.7-7.7,3.1
		c-0.5,0.8-1,1.7-1.2,2.7c-0.8,4.1,1.8,8,5.8,8.8c0.2,0,0.4,0.1,0.6,0.1l0,0h0.1l0,0l0,0c0.1,0,0.2,0,0.2,0c0.2,0,0.3,0.1,0.5,0.1
		s0.3,0.1,0.5,0.1c6.8,1.3,13.7,2,20.8,2.1l0,0h0.1l0,0h0.1l0,0h0.1l0,0c0.2,0,0.5,0,0.7,0l0,0h0.1l0,0h0.1l0,0h0.1l0,0h0.1l0,0h0.1
		l0,0c0.3,0,0.5,0,0.8,0l0,0h0.1l0,0h0.1l0,0h0.1l0,0h0.1l0,0c0.2,0,0.5,0,0.7,0l0,0h0.1l0,0h0.1l0,0h0.1l0,0h0.1l0,0h0.1l0,0h0.1
		l0,0c0.2,0,0.3,0,0.5,0l0,0h0.1l0,0h0.1l0,0h0.1l0,0h0.1l0,0h0.1l0,0h0.1l0,0h0.1l0,0c0.2,0,0.3,0,0.5,0l0,0h0.1l0,0h0.1l0,0h0.1
		l0,0c0,0,0,0,0.1,0l0,0c0,0,0,0,0.1,0l0,0h0.1l0,0h0.1l0,0c0.1,0,0.3,0,0.4,0l0,0h0.1l0,0h0.1l0,0h0.1l0,0c0,0,0,0,0.1,0l0,0
		c0,0,0,0,0.1,0l0,0c0,0,0,0,0.1,0l0,0c0,0,0,0,0.1,0l0,0h0.1l0,0h0.1l0,0c0.1,0,0.2,0,0.3,0l0,0h0.1l0,0h0.1l0,0c0,0,0,0,0.1,0l0,0
		c0,0,0,0,0.1,0l0,0c0,0,0,0,0.1,0l0,0c0,0,0,0,0.1,0l0,0c0,0,0,0,0.1,0l0,0h0.1l0,0h0.1l0,0c0.1,0,0.2,0,0.3,0l0,0h0.1l0,0
		c0,0,0,0,0.1,0l0,0c0,0,0,0,0.1,0l0,0c0,0,0,0,0.1,0l0,0c0,0,0,0,0.1,0l0,0c0,0,0,0,0.1,0l0,0c0,0,0,0,0.1,0l0,0c0,0,0,0,0.1,0l0,0
		h0.1l0,0c0.1,0,0.2,0,0.3,0l0,0h0.1l0,0c0,0,0,0,0.1,0l0,0c0,0,0,0,0.1,0l0,0c0,0,0,0,0.1,0l0,0c0,0,0,0,0.1,0l0,0c0,0,0,0,0.1,0
		l0,0c0,0,0,0,0.1,0l0,0c0,0,0,0,0.1,0l0,0h0.1l0,0c0.1,0,0.2,0,0.3,0l0,0c0,0,0,0,0.1,0l0,0c0,0,0,0,0.1,0l0,0c0,0,0,0,0.1,0l0,0
		c0,0,0,0,0.1,0l0,0c0,0,0,0,0.1,0l0,0c0,0,0,0,0.1,0l0,0c0,0,0,0,0.1,0l0,0c0,0,0,0,0.1,0l0,0h0.1l0,0c0.1,0,0.1,0,0.2,0l0,0h0.1
		l0,0h0.1l0,0c0,0,0,0,0.1,0l0,0c0,0,0,0,0.1,0l0,0c0,0,0,0,0.1,0l0,0c0,0,0,0,0.1,0l0,0c0,0,0,0,0.1,0l0,0c0,0,0,0,0.1,0l0,0
		c0,0,0,0,0.1,0l0,0h0.1l0,0c0.1,0,0.2,0,0.3,0l0,0h0.1l0,0c0,0,0,0,0.1,0l0,0c0,0,0,0,0.1,0l0,0c0,0,0,0,0.1,0l0,0c0,0,0,0,0.1,0
		l0,0c0,0,0,0,0.1,0l0,0c0,0,0,0,0.1,0l0,0c0,0,0,0,0.1,0l0,0h0.1l0,0h0.1l0,0h0.1l0,0h0.1l0,0c0,0,0,0,0.1,0l0,0c0,0,0,0,0.1,0l0,0
		c0,0,0,0,0.1,0l0,0c0,0,0,0,0.1,0l0,0c0,0,0,0,0.1,0l0,0c0,0,0,0,0.1,0l0,0c0,0,0,0,0.1,0l0,0c0,0,0,0,0.1,0l0,0c0,0,0,0,0.1,0l0,0
		h0.1l0,0h0.1l0,0c0,0,0,0,0.1,0l0,0c0,0,0,0,0.1,0l0,0c0,0,0,0,0.1,0l0,0c0,0,0,0,0.1,0l0,0c0,0,0,0,0.1,0l0,0c0,0,0,0,0.1,0l0,0
		c0,0,0,0,0.1,0l0,0c0,0,0,0,0.1,0l0,0c0,0,0,0,0.1,0l0,0h0.1l0,0h0.1l0,0h0.1l0,0h0.1l0,0c0,0,0,0,0.1,0l0,0c0,0,0,0,0.1,0l0,0
		c0,0,0,0,0.1,0l0,0c0,0,0,0,0.1,0l0,0c0,0,0,0,0.1,0l0,0c0,0,0,0,0.1,0l0,0c0,0,0,0,0.1,0l0,0c0,0,0,0,0.1,0l0,0h0.1l0,0h0.1l0,0
		h0.1l0,0c0,0,0,0,0.1,0l0,0c0,0,0,0,0.1,0l0,0c0,0,0,0,0.1,0l0,0c0,0,0,0,0.1,0l0,0c0,0,0,0,0.1,0l0,0c0,0,0,0,0.1,0l0,0
		c0,0,0,0,0.1,0l0,0c0,0,0,0,0.1,0l0,0c0,0,0,0,0.1,0l0,0c0,0,0,0,0.1,0l0,0h0.1l0,0h0.1l0,0h0.1l0,0c0,0,0,0,0.1,0l0,0
		c0,0,0,0,0.1,0l0,0c0,0,0,0,0.1,0l0,0c0,0,0,0,0.1,0l0,0c0,0,0,0,0.1,0l0,0c0,0,0,0,0.1,0l0,0c0,0,0,0,0.1,0l0,0c0,0,0,0,0.1,0l0,0
		c0,0,0,0,0.1,0l0,0h0.1l0,0h0.1l0,0c0,0,0,0,0.1,0l0,0c0,0,0,0,0.1,0l0,0c0,0,0,0,0.1,0l0,0c0,0,0,0,0.1,0l0,0c0,0,0,0,0.1,0l0,0
		c0,0,0,0,0.1,0l0,0c0,0,0,0,0.1,0l0,0c0,0,0,0,0.1,0l0,0c0,0,0,0,0.1,0l0,0c0,0,0,0,0.1,0l0,0h0.1l0,0h0.1l0,0c0,0,0,0,0.1,0l0,0
		c0,0,0,0,0.1,0l0,0c0,0,0,0,0.1,0l0,0c0,0,0,0,0.1,0l0,0c0,0,0,0,0.1,0l0,0c0,0,0,0,0.1,0l0,0c0,0,0,0,0.1,0l0,0c0,0,0,0,0.1,0l0,0
		c0,0,0,0,0.1,0l0,0h0.1l0,0c0.1,0,0.1,0,0.2,0l0,0c0,0,0,0,0.1,0l0,0c0,0,0,0,0.1,0l0,0c0,0,0,0,0.1,0l0,0c0,0,0,0,0.1,0l0,0
		c0,0,0,0,0.1,0l0,0c0,0,0,0,0.1,0l0,0c0,0,0,0,0.1,0l0,0c0,0,0,0,0.1,0l0,0c0,0,0,0,0.1,0l0,0c0,0,0,0,0.1,0l0,0h0.1l0,0h0.1l0,0
		c0,0,0,0,0.1,0l0,0c0,0,0,0,0.1,0l0,0c0,0,0,0,0.1,0l0,0c0,0,0,0,0.1,0l0,0c0,0,0,0,0.1,0l0,0c0,0,0,0,0.1,0l0,0c0,0,0,0,0.1,0l0,0
		c0,0,0,0,0.1,0l0,0c0,0,0,0,0.1,0l0,0c0,0,0,0,0.1,0l0,0h0.1h0.1l0,0c0,0,0,0,0.1,0l0,0c0,0,0,0,0.1,0l0,0l0,0h0.1l0,0
		c0,0,0,0,0.1,0l0,0c0,0,0,0,0.1,0l0,0c0.1,0,0.2,0,0.3-0.1l0,0c0,0,0,0,0.1,0l0,0c0,0,0,0,0.1,0s0.1,0,0.2,0c0.2,0,0.3-0.1,0.5-0.1
		s0.3-0.1,0.5-0.1c0,0,0,0,0.1,0c0,0,0,0,0.1,0l0,0c0.3-0.1,0.6-0.1,0.9-0.2c1.9-0.4,3.6-1.6,4.6-3.1c1.1-1.6,1.6-3.7,1.1-5.8
		C181.4,260.6,177.4,258,173.4,258.9z"/>
</g>
</svg>
