<?xml version="1.0" encoding="UTF-8"?>
<svg width="53px" height="42px" viewBox="0 0 53 42" version="1.1" xmlns="http://www.w3.org/2000/svg" xmlns:xlink="http://www.w3.org/1999/xlink">
    <!-- Generator: Sketch 50.2 (55047) - http://www.bohemiancoding.com/sketch -->
    <title>Connoisseur</title>
    <desc>Created with Sketch.</desc>
    <defs></defs>
    <g id="Page-1" stroke="none" stroke-width="1" fill="none" fill-rule="evenodd">
        <g id="Recommender-familiarity" transform="translate(-1030.000000, -252.000000)" fill="#4296BC" fill-rule="nonzero">
            <g id="Group-9" transform="translate(186.000000, 140.000000)">
                <g id="Group-3">
                    <g id="Connoisseur" transform="translate(714.000000, 76.000000)">
                        <g id="Copy" transform="translate(24.200000, 36.200000)">
                            <g id="Connoisseur" transform="translate(106.000000, 0.000000)">
                                <path d="M52.1272258,11.492 C37.9201063,-2.96376524 14.8884098,-2.96376524 0.681290323,11.492 L-7.10542736e-15,12.1853333 L8.19251613,20.5226667 L8.87380645,19.8293333 C17.0050117,11.5575381 29.6566524,10.057993 39.4381935,16.2066667 L40.656,14.5166667 L44.4541935,7.8 C46.4672393,9.06277162 48.347779,10.5322305 50.0663226,12.1853333 L44.5989677,17.7666667 C44.3009032,17.4893333 44.0028387,17.212 43.6962581,16.952 L42.5806452,18.538 C43.0490323,18.954 43.5174194,19.4046667 43.9602581,19.8293333 L44.6415484,20.5226667 L52.8,12.194 L52.1272258,11.492 Z M38.9187097,13.6413333 C28.8600543,8.22445065 16.5345382,9.87974709 8.20103226,17.7666667 L2.73367742,12.2026667 C4.4515235,10.5436639 6.33207752,9.06838555 8.34580645,7.8 L9.94683871,10.634 L11.6500645,9.65466667 L10.0405161,6.82066667 C12.1171934,5.669995 14.3063807,4.74340393 16.5723871,4.056 L17.424,7.21933333 L19.2890323,6.708 L18.4374194,3.54466667 C20.7302867,2.98817696 23.0730414,2.67164322 25.4291613,2.6 L25.4291613,5.89333333 L27.3623226,5.89333333 L27.3623226,2.6 C29.7261011,2.66164827 32.0774628,2.96947616 34.3796129,3.51866667 L33.528,6.682 L35.3930323,7.19333333 L36.2446452,4.03 C38.5105681,4.71764261 40.6997314,5.64422352 42.7765161,6.79466667 L38.9187097,13.6413333 Z M44.88,13.6413333 L43.3215484,12.48 L27.4304516,34.5713333 C27.2095307,34.4945421 26.9811114,34.4422393 26.7491613,34.4153333 L26.3914839,34.4153333 C24.6760034,34.4098603 23.2576952,35.7744065 23.1668157,37.5177682 C23.0759361,39.2611299 24.3444181,40.7707309 26.0508387,40.95 L26.4,40.95 C27.603877,40.9371353 28.6995002,40.2399174 29.2379201,39.1440427 C29.7763399,38.0481679 29.6670519,36.7378449 28.9548387,35.75 L44.88,13.6413333 Z M27.6774194,37.8126667 C27.6159629,38.4843496 27.0628693,38.998438 26.4,39 L26.2552258,39 C25.6030153,38.8949714 25.1349743,38.3042985 25.1723329,37.6333769 C25.2096914,36.9624553 25.7403056,36.4293732 26.4,36.4 L26.5447742,36.4 C27.2499107,36.4772604 27.7604621,37.1209145 27.6859355,37.8386667 L27.6774194,37.8126667 Z" id="Shape"></path>
                            </g>
                        </g>
                    </g>
                </g>
            </g>
        </g>
    </g>
</svg>