<?xml version="1.0" encoding="utf-8"?>
<!-- Generator: Adobe Illustrator 21.0.2, SVG Export Plug-In . SVG Version: 6.00 Build 0)  -->
<svg version="1.1" id="Layer_1" xmlns="http://www.w3.org/2000/svg" xmlns:xlink="http://www.w3.org/1999/xlink" x="0px" y="0px"
	 viewBox="0 0 150 150" style="enable-background:new 0 0 150 150;" xml:space="preserve">
<style type="text/css">
	.st0{fill:#4495B9;}
	.st1{fill:#F1F2F7;}
	.st2{fill:#FFFFFF;}
	.st3{fill:#E3E8EF;}
</style>
<ellipse class="st0" cx="75" cy="75" rx="75" ry="75"/>
<g id="XMLID_1_">
	<circle id="XMLID_259_" class="st1" cx="75.6" cy="74.4" r="34.6"/>
	<g id="XMLID_111_">
		<g id="XMLID_113_">
			<path id="XMLID_121_" class="st2" d="M110.2,78.4l8.8-8.3l-10.3-6.4l4.7-11.2l-12-1.6l-0.3-12.1l-11.6,3.4l-5.2-11l-9.2,7.9
				l-9.2-7.9l-5.2,10.9l-11.6-3.5l-0.3,12.1l-12,1.5l4.6,11.2L31,69.7l8.8,8.4l-6.9,10l11.4,4.1L42,104.1l12.1-0.9l2.8,11.8
				l10.7-5.8l7.3,9.7l7.4-9.6l10.6,5.8l2.9-11.8l12.1,1l-2.2-11.9l11.5-4L110.2,78.4z M75,108.3c-18.5,0-33.5-15-33.5-33.5
				s15-33.5,33.5-33.5s33.5,15,33.5,33.5S93.5,108.3,75,108.3z"/>
			<g id="XMLID_117_">
				<path id="XMLID_118_" class="st2" d="M75,110.2c-19.5,0-35.4-15.9-35.4-35.4S55.5,39.4,75,39.4s35.4,15.9,35.4,35.4
					S94.5,110.2,75,110.2z M75,43.1c-17.5,0-31.7,14.2-31.7,31.7s14.2,31.7,31.7,31.7s31.7-14.2,31.7-31.7S92.4,43.1,75,43.1z"/>
			</g>
			<g id="XMLID_115_">
				
					<ellipse id="XMLID_116_" transform="matrix(3.546824e-03 -1 1 3.546824e-03 -7.004958e-02 149.4997)" class="st3" cx="75" cy="74.8" rx="22.8" ry="22.8"/>
			</g>
		</g>
	</g>
</g>
</svg>
