<?xml version="1.0" encoding="UTF-8"?>
<svg width="34px" height="34px" viewBox="0 0 34 34" version="1.1" xmlns="http://www.w3.org/2000/svg" xmlns:xlink="http://www.w3.org/1999/xlink">
    <!-- Generator: Sketch 50 (54983) - http://www.bohemiancoding.com/sketch -->
    <title>Stroke-Icon-Day</title>
    <desc>Created with Sketch.</desc>
    <defs></defs>
    <g id="Page-1" stroke="none" stroke-width="1" fill="none" fill-rule="evenodd">
        <g id="Review-Consumption" transform="translate(-949.000000, -858.000000)" fill="#FFFFFF" fill-rule="nonzero">
            <g id="Form" transform="translate(758.000000, 133.000000)">
                <g id="Time" transform="translate(1.000000, 683.000000)">
                    <g id="Edibles" transform="translate(177.000000, 31.000000)">
                        <g id="Stroke-Icon-Day" transform="translate(13.000000, 11.000000)">
                            <path d="M17,22.4305556 C14.000787,22.4305556 11.5694444,19.999213 11.5694444,17 C11.5694444,14.000787 14.000787,11.5694444 17,11.5694444 C19.999213,11.5694444 22.4305556,14.000787 22.4305556,17 C22.4279519,19.9981339 19.9981339,22.4279519 17,22.4305556 Z M17,14.4027778 C15.5655938,14.4027778 14.4027778,15.5655938 14.4027778,17 C14.4027778,18.4344062 15.5655938,19.5972222 17,19.5972222 C18.4344062,19.5972222 19.5972222,18.4344062 19.5972222,17 C19.5946233,15.5666717 18.4333283,14.4053767 17,14.4027778 Z" id="Shape"></path>
                            <path d="M17,7.08333333 C16.2175966,7.08333333 15.5833333,6.44907006 15.5833333,5.66666667 L15.5833333,1.41666667 C15.5833333,0.634263271 16.2175966,1.43725172e-16 17,0 C17.7824034,-1.43725172e-16 18.4166667,0.634263271 18.4166667,1.41666667 L18.4166667,5.66666667 C18.4166667,6.44907006 17.7824034,7.08333333 17,7.08333333 Z" id="Shape"></path>
                            <path d="M5.66666667,18.4166667 L1.41666667,18.4166667 C0.634263271,18.4166667 9.58167814e-17,17.7824034 0,17 C-9.58167814e-17,16.2175966 0.634263271,15.5833333 1.41666667,15.5833333 L5.66666667,15.5833333 C6.44907006,15.5833333 7.08333333,16.2175966 7.08333333,17 C7.08333333,17.7824034 6.44907006,18.4166667 5.66666667,18.4166667 Z" id="Shape"></path>
                            <path d="M17,34 C16.2175966,34 15.5833333,33.3657367 15.5833333,32.5833333 L15.5833333,28.3333333 C15.5833333,27.5509299 16.2175966,26.9166667 17,26.9166667 C17.7824034,26.9166667 18.4166667,27.5509299 18.4166667,28.3333333 L18.4166667,32.5833333 C18.4166667,33.3657367 17.7824034,34 17,34 Z" id="Shape"></path>
                            <path d="M32.5833333,18.4166667 L28.3333333,18.4166667 C27.5509299,18.4166667 26.9166667,17.7824034 26.9166667,17 C26.9166667,16.2175966 27.5509299,15.5833333 28.3333333,15.5833333 L32.5833333,15.5833333 C33.3657367,15.5833333 34,16.2175966 34,17 C34,17.7824034 33.3657367,18.4166667 32.5833333,18.4166667 Z" id="Shape"></path>
                            <path d="M25.6794444,9.73722222 C25.104763,9.73864058 24.5861629,9.39274155 24.3666756,8.86162373 C24.1471883,8.33050591 24.2703065,7.71941335 24.6783333,7.31472222 L27.0394444,4.95361111 C27.3979505,4.59510502 27.9204846,4.45509245 28.410213,4.58631479 C28.8999414,4.71753712 29.2824629,5.10005857 29.4136852,5.58978701 C29.5449076,6.07951544 29.404895,6.60204946 29.0463889,6.96055556 L26.6852778,9.29805556 C26.4226288,9.57364775 26.0601117,9.73192988 25.6794444,9.73722222 Z" id="Shape"></path>
                            <path d="M8.32055556,9.73722222 C7.94332265,9.73814659 7.58129981,9.58857847 7.31472222,9.32166667 L4.95361111,6.98416667 C4.59510502,6.62566057 4.45509245,6.10312655 4.58631479,5.61339812 C4.71753712,5.12366969 5.10005857,4.74114824 5.58978701,4.6099259 C6.07951544,4.47870356 6.60204946,4.61871613 6.96055556,4.97722222 L9.29805556,7.33833333 C9.7060824,7.74302446 9.8292006,8.35411702 9.60971331,8.88523484 C9.39022603,9.41635266 8.87162592,9.76225169 8.29694444,9.76083333 L8.32055556,9.73722222 Z" id="Shape"></path>
                            <path d="M5.98305556,29.4336111 C5.40959505,29.4350198 4.89184988,29.0905669 4.67158123,28.5610948 C4.45131259,28.0316228 4.57197385,27.4215829 4.97722222,27.0158333 L7.33833333,24.6547222 C7.89253574,24.1005198 8.79107537,24.1005198 9.34527778,24.6547222 C9.89948018,25.2089246 9.89948018,26.1074643 9.34527778,26.6616667 L7.00777778,29.0227778 C6.73581367,29.2926584 6.3661317,29.440872 5.98305556,29.4336111 Z" id="Shape"></path>
                            <path d="M28.0169444,29.4336111 C27.6420242,29.4345341 27.2820264,29.2867992 27.0158333,29.0227778 L24.6547222,26.6616667 C24.1005199,26.1074643 24.1005199,25.2089247 24.6547223,24.6547223 C25.2089247,24.1005199 26.1074643,24.1005199 26.6616667,24.6547222 L29.0227778,27.0158333 C29.4280262,27.4215829 29.5486874,28.0316228 29.3284188,28.5610948 C29.1081501,29.0905669 28.5904049,29.4350198 28.0169444,29.4336111 Z" id="Shape"></path>
                        </g>
                    </g>
                </g>
            </g>
        </g>
    </g>
</svg>