<?xml version="1.0" encoding="UTF-8"?>
<svg width="43px" height="43px" viewBox="0 0 43 43" version="1.1" xmlns="http://www.w3.org/2000/svg" xmlns:xlink="http://www.w3.org/1999/xlink">
    <!-- Generator: Sketch 50.2 (55047) - http://www.bohemiancoding.com/sketch -->
    <title>Depression</title>
    <desc>Created with Sketch.</desc>
    <defs></defs>
    <g id="Page-1" stroke="none" stroke-width="1" fill="none" fill-rule="evenodd">
        <g id="Recommender-treat-unselected" transform="translate(-920.000000, -255.000000)" fill="#3F97BE">
            <g id="Body" transform="translate(115.000000, 140.000000)">
                <g id="depression" transform="translate(726.000000, 76.000000)">
                    <g id="Copy" transform="translate(22.000000, 39.000000)">
                        <g id="Depression" transform="translate(57.000000, 0.000000)">
                            <path d="M35.7977389,19.0633535 L30.3068778,19.0633535 C30.3218083,19.042762 30.3355444,19.0203535 30.350475,18.9991563 C30.39885,18.9313254 30.4430444,18.8616775 30.4896278,18.7932408 C30.5624889,18.6842268 30.6347528,18.5752127 30.7034333,18.4631704 C30.7476278,18.3886775 30.7894333,18.3123676 30.8324333,18.2366634 C30.8945444,18.1246211 30.9554611,18.0119732 31.0116,17.8962972 C31.0516139,17.8169592 31.0886417,17.7376211 31.1256694,17.6564662 C31.178225,17.5395789 31.2283917,17.4220859 31.274975,17.3027761 C31.3078222,17.2198042 31.3400722,17.1368324 31.3699333,17.0532549 C31.4135306,16.9309169 31.45235,16.8073676 31.489975,16.682607 C31.5150583,16.5984239 31.5413361,16.5142408 31.5640306,16.4282408 C31.5980722,16.2992408 31.6267389,16.1672127 31.6542111,16.0351845 C31.6715306,15.951607 31.6906417,15.8704521 31.704975,15.786269 C31.7306556,15.6403113 31.7491694,15.491931 31.7658917,15.3429451 C31.7742528,15.2714803 31.7861972,15.2006211 31.7927667,15.1279451 C31.8118778,14.9062831 31.823225,14.6828042 31.823225,14.4569028 C31.823225,14.0747479 31.7873917,13.6998606 31.7336417,13.3310296 C31.7199056,13.2335225 31.7115444,13.1341986 31.6936278,13.0379028 C31.6685444,12.9028465 31.6327111,12.7714239 31.6016556,12.6393958 C31.5789611,12.5455225 31.5616417,12.4498324 31.5359611,12.3577761 C30.9178361,10.1447901 29.3459472,8.31819859 27.2771694,7.39945211 C27.25985,7.39157887 27.2431278,7.3812831 27.2252111,7.37340986 C27.103975,7.32071972 26.9779611,7.27832535 26.8543361,7.23229718 C26.7629611,7.19838169 26.6745722,7.15901549 26.5814056,7.1287338 C26.512725,7.10632535 26.4410583,7.09057887 26.3711833,7.06998732 C26.2188917,7.02517042 26.0671972,6.97853662 25.9113222,6.94280423 C25.8963917,6.93917042 25.8808639,6.93795915 25.8659333,6.93493099 C25.652725,6.88769155 25.4365306,6.84771972 25.2167528,6.81925493 L25.0447528,6.79745211 L24.9838361,6.63271972 C24.9026139,6.41408592 24.8118361,6.20029718 24.7150861,5.98832535 C24.6667111,5.88294507 24.6123639,5.78180423 24.5610028,5.67884648 C24.5102389,5.57831127 24.4618639,5.47656479 24.4075167,5.37784648 C24.3376417,5.24945211 24.2617944,5.12590282 24.1859472,5.00174789 C24.1435444,4.93270563 24.1035306,4.86305775 24.0593361,4.79462113 C23.9745306,4.66319859 23.8855444,4.53601549 23.7947667,4.40943803 C23.7666972,4.3694662 23.7416139,4.3282831 23.7129472,4.2889169 C24.0354472,4.10177606 24.3716833,3.9449169 24.7198639,3.8195507 C25.4251833,3.56518451 26.1490167,3.43618451 26.8716556,3.43618451 C29.5513917,3.43618451 31.9904472,5.15012817 32.9394333,7.70045211 L33.6346,9.5724662 L35.5905028,9.82380423 C37.8689056,10.1175366 39.5871139,12.1100718 39.5871139,14.4569028 C39.5871139,16.7195507 37.9650583,18.6811986 35.7977389,19.0633535 M3.40619722,15.6821 C3.40619722,13.8761 4.80369722,12.3886634 6.5876,12.2960014 L9.37662778,12.1512549 L9.51279444,10.8679169 C9.61730833,9.88981831 9.65791944,9.50463521 9.67464167,9.33505775 L9.67643333,9.33505775 C9.93801667,6.87315634 11.6532389,4.66259296 13.9477667,3.82742394 C13.9555306,3.82500141 13.9626972,3.82197324 13.9698639,3.8195507 C14.6751833,3.56518451 15.3990167,3.43618451 16.1216556,3.43618451 C17.7413222,3.43618451 19.2702111,4.06543803 20.4377806,5.12348028 L20.5010861,5.18222676 C20.6868222,5.35543803 20.8630028,5.5395507 21.0278361,5.73214225 C21.0308222,5.73577606 21.0332111,5.73940986 21.0367944,5.74304366 C21.352725,6.11490282 21.6256556,6.52249437 21.8508083,6.95249437 C21.8711139,6.99004366 21.890225,7.02759296 21.9087389,7.06514225 C22.0114611,7.26924085 22.105225,7.47757887 22.1852528,7.69076197 C22.1864472,7.69439577 22.1882389,7.69742394 22.1894333,7.70105775 L22.4211556,8.32486056 L22.8846,9.5724662 L24.8399056,9.82380423 C25.3146972,9.88497324 25.7632111,10.0230577 26.1788778,10.2198887 C27.7579333,10.9672408 28.8371139,12.5988183 28.8371139,14.4569028 C28.8371139,14.5992268 28.8305444,14.7403394 28.8174056,14.8802408 C28.8138222,14.9280859 28.8042667,14.9747197 28.7982944,15.0225648 C28.7881417,15.1140155 28.7779889,15.2054662 28.7618639,15.2951 C28.7511139,15.3514239 28.7361833,15.405931 28.7242389,15.4616493 C28.7069194,15.5409873 28.6913917,15.6203254 28.6698917,15.6978465 C28.6537667,15.7584099 28.6322667,15.8171563 28.6137528,15.8759028 C28.5916556,15.946762 28.5701556,16.019438 28.544475,16.0884803 C28.5217806,16.1508606 28.4943083,16.2108183 28.469225,16.272593 C28.44235,16.3361845 28.4178639,16.4009873 28.3880028,16.4633676 C28.3593361,16.5257479 28.3252944,16.5844944 28.2942389,16.6450577 C28.2631833,16.7038042 28.2339194,16.7649732 28.1998778,16.8225085 C28.1664333,16.8812549 28.1276139,16.9375789 28.0917806,16.9951141 C28.0559472,17.0508324 28.0213083,17.107762 27.9836833,17.1628746 C27.9442667,17.2191986 27.9012667,17.2724944 27.8594611,17.3270014 C27.8200444,17.3790859 27.781225,17.4323817 27.7400167,17.4826493 C27.6958222,17.5359451 27.6480444,17.585607 27.6014611,17.6364803 C27.5578639,17.684931 27.5160583,17.7333817 27.4706694,17.7794099 C27.4222944,17.8284662 27.3703361,17.8738887 27.3195722,17.9211282 C27.2723917,17.9653394 27.2252111,18.010762 27.1762389,18.0525507 C27.1248778,18.096762 27.0699333,18.1379451 27.0155861,18.1797338 C26.964225,18.2191 26.9134611,18.2608887 26.8597111,18.2990437 C26.8047667,18.3384099 26.7480306,18.3735366 26.6912944,18.4098746 C26.6351556,18.4462127 26.5796139,18.483762 26.5222806,18.5176775 C26.4655444,18.5509873 26.4058222,18.5806634 26.3478917,18.6115507 C26.286975,18.6442549 26.22785,18.6769592 26.1651417,18.7060296 C26.1060167,18.7338887 26.0451,18.7581141 25.9847806,18.7835507 C25.9208778,18.8101986 25.8563778,18.8380577 25.7906833,18.8622831 C25.7303639,18.8840859 25.6676556,18.9022549 25.6061417,18.9222408 C25.5374611,18.9440437 25.4693778,18.9658465 25.3995028,18.9840155 C25.3379889,19.0003676 25.2752806,19.0130859 25.2125722,19.0258042 C25.1516556,19.0397338 25.0901417,19.0524521 25.0280306,19.0633535 L6.19761389,19.0633535 C4.60064167,18.8180718 3.40619722,17.3796915 3.40619722,15.6821 M35.9667528,6.81925493 L35.7947528,6.79745211 L35.7338361,6.63271972 C34.3476833,2.9092831 30.7864472,0.408015493 26.8716556,0.408015493 C25.8068083,0.408015493 24.7461417,0.596367606 23.7195167,0.965804225 C22.9353639,1.24802958 22.2007806,1.64593099 21.513975,2.13407183 C19.9588083,1.03726901 18.084725,0.408015493 16.1216556,0.408015493 C15.0651694,0.408015493 14.0128639,0.593339437 12.9934056,0.957325352 C12.9856417,0.960353521 12.9772806,0.96338169 12.9695167,0.965804225 C9.5546,2.19524085 7.09583611,5.35301549 6.70704444,9.01286056 L6.68076667,9.25935352 L6.43471111,9.2714662 C3.06219722,9.44649437 0.420086111,12.2626915 0.420086111,15.6821 C0.420086111,18.9325366 2.78030833,21.6833254 5.91094722,22.0794099 L25.1671833,22.0915225 L36.0288639,22.0915225 L36.1387528,22.0751704 C39.8068917,21.5167761 42.573225,18.2415085 42.573225,14.4569028 C42.573225,10.5887197 39.7328361,7.30557887 35.9667528,6.81925493" id="Fill-17"></path>
                            <path d="M5.43854444,31.946093 C4.61378056,31.946093 3.94548889,31.2683887 3.94548889,30.4320085 L3.94548889,26.4935718 C3.94548889,25.6571915 4.61378056,24.9794873 5.43854444,24.9794873 C6.26330833,24.9794873 6.9316,25.6571915 6.9316,26.4935718 L6.9316,30.4320085 C6.9316,31.2683887 6.26330833,31.946093 5.43854444,31.946093" id="Fill-19"></path>
                            <path d="M16.1885444,31.946093 C15.3637806,31.946093 14.6954889,31.2683887 14.6954889,30.4320085 L14.6954889,26.4935718 C14.6954889,25.6571915 15.3637806,24.9794873 16.1885444,24.9794873 C17.0133083,24.9794873 17.6816,25.6571915 17.6816,26.4935718 L17.6816,30.4320085 C17.6816,31.2683887 17.0133083,31.946093 16.1885444,31.946093" id="Fill-21"></path>
                            <path d="M26.9385444,31.946093 C26.1137806,31.946093 25.4454889,31.2683887 25.4454889,30.4320085 L25.4454889,26.4935718 C25.4454889,25.6571915 26.1137806,24.9794873 26.9385444,24.9794873 C27.7633083,24.9794873 28.4316,25.6571915 28.4316,26.4935718 L28.4316,30.4320085 C28.4316,31.2683887 27.7633083,31.946093 26.9385444,31.946093" id="Fill-23"></path>
                            <path d="M37.6885444,31.946093 C36.8637806,31.946093 36.1954889,31.2683887 36.1954889,30.4320085 L36.1954889,26.4935718 C36.1954889,25.6571915 36.8637806,24.9794873 37.6885444,24.9794873 C38.5133083,24.9794873 39.1816,25.6571915 39.1816,26.4935718 L39.1816,30.4320085 C39.1816,31.2683887 38.5133083,31.946093 37.6885444,31.946093" id="Fill-25"></path>
                            <path d="M32.3135444,42.8475014 C31.4887806,42.8475014 30.8204889,42.1697972 30.8204889,41.3334169 L30.8204889,37.3949803 C30.8204889,36.5586 31.4887806,35.8808958 32.3135444,35.8808958 C33.1383083,35.8808958 33.8066,36.5586 33.8066,37.3949803 L33.8066,41.3334169 C33.8066,42.1697972 33.1383083,42.8475014 32.3135444,42.8475014" id="Fill-27"></path>
                            <path d="M21.5635444,42.8475014 C20.7387806,42.8475014 20.0704889,42.1697972 20.0704889,41.3334169 L20.0704889,37.3949803 C20.0704889,36.5586 20.7387806,35.8808958 21.5635444,35.8808958 C22.3883083,35.8808958 23.0566,36.5586 23.0566,37.3949803 L23.0566,41.3334169 C23.0566,42.1697972 22.3883083,42.8475014 21.5635444,42.8475014" id="Fill-29"></path>
                            <path d="M10.8135444,42.8475014 C9.98878056,42.8475014 9.32048889,42.1697972 9.32048889,41.3334169 L9.32048889,37.3949803 C9.32048889,36.5586 9.98878056,35.8808958 10.8135444,35.8808958 C11.6383083,35.8808958 12.3066,36.5586 12.3066,37.3949803 L12.3066,41.3334169 C12.3066,42.1697972 11.6383083,42.8475014 10.8135444,42.8475014" id="Fill-31"></path>
                        </g>
                    </g>
                </g>
            </g>
        </g>
    </g>
</svg>