<svg width="20px" height="14px" viewBox="0 0 20 14" version="1.1" xmlns="http://www.w3.org/2000/svg" xmlns:xlink="http://www.w3.org/1999/xlink">
    <!-- Generator: Sketch 50 (54983) - http://www.bohemiancoding.com/sketch -->
    <desc>Created with Sketch.</desc>
    <defs>
        <polygon id="path-1" points="0 0 20 0 20 14 0 14"></polygon>
    </defs>
    <g id="Content-Pages" stroke="none" stroke-width="1" fill="none" fill-rule="evenodd">
        <g id="Content-Page" transform="translate(-244.000000, -708.000000)">
            <g id="Download" transform="translate(135.000000, 706.000000)">
                <g id="Page-1" transform="translate(109.000000, 2.000000)">
                    <mask id="mask-2" fill="white">
                        <use xlink:href="#path-1"></use>
                    </mask>
                    <g id="Clip-2"></g>
                    <path d="M19.1412742,7.82912621 C18.6703601,7.82912621 18.2825485,8.20970874 18.2825485,8.6721165 L18.2825485,12.3145631 L1.71745152,12.3145631 L1.71745152,8.6721165 C1.71745152,8.20970874 1.32963989,7.82912621 0.858725762,7.82912621 C0.387811634,7.82912621 0,8.20970874 0,8.6721165 L0,13.1575534 C0,13.6196893 0.387811634,14 0.858725762,14 L19.1412742,14 C19.6121884,14 20,13.6196893 20,13.1575534 L20,8.6721165 C20,8.20970874 19.6121884,7.82912621 19.1412742,7.82912621 M10.8587258,0.842718447 L10.8587258,7.39417476 L13.4072022,4.89320388 C13.7396122,4.56699029 14.2936288,4.56699029 14.6260388,4.89320388 C14.9584488,5.21941748 14.9584488,5.7631068 14.6260388,6.08959223 L10.6094183,10.0038835 C10.4432133,10.1672621 10.2216066,10.2485437 10,10.2485437 C9.77839335,10.2485437 9.5567867,10.1672621 9.39058172,10.0038835 L5.37396122,6.06213592 C5.04155125,5.73592233 5.04155125,5.19223301 5.37396122,4.86629126 C5.70637119,4.53980583 6.26038781,4.53980583 6.59279778,4.86629126 L9.14127424,7.36726214 L9.14127424,0.842718447 C9.14127424,0.380854369 9.52908587,0 10,0 C10.4709141,0 10.8587258,0.353398058 10.8587258,0.842718447" id="Fill-1" fill="currentColor" mask="url(#mask-2)"></path>
                </g>
            </g>
        </g>
    </g>
</svg>
