<svg width="150px" height="150px" viewBox="0 0 150 150" version="1.1" xmlns="http://www.w3.org/2000/svg" xmlns:xlink="http://www.w3.org/1999/xlink">
    <!-- Generator: Sketch 42 (36781) - http://www.bohemiancoding.com/sketch -->
    <desc>Created with Sketch.</desc>
    <defs></defs>
    <g id="download" stroke="none" stroke-width="1" fill="none" fill-rule="evenodd">
        <circle id="Oval" fill="#0EB4E3" fill-rule="nonzero" cx="75" cy="75" r="75"></circle>
        <g id="Group" transform="translate(37.000000, 30.000000)" fill-rule="nonzero">
            <rect id="Rectangle-path" fill="#F1F2F7" x="0.7" y="0.3" width="69.5" height="88.6"></rect>
            <rect id="Rectangle-path" fill="#FFFFFF" x="5.8" y="0.3" width="69.5" height="88.6"></rect>
            <rect id="Rectangle-path" fill="#FFFFFF" x="58.7" y="43.9" width="13.3" height="1.5"></rect>
            <rect id="Rectangle-path" fill="#FFFFFF" x="58.7" y="46.9" width="8.3" height="1.5"></rect>
            <rect id="Rectangle-path" fill="#FFFFFF" x="9.7" y="42.6" width="13" height="1.5"></rect>
            <rect id="Rectangle-path" fill="#FFFFFF" x="9.7" y="44.7" width="13" height="1.5"></rect>
            <rect id="Rectangle-path" fill="#FFFFFF" x="58.9" y="68.1" width="13" height="1.5"></rect>
            <rect id="Rectangle-path" fill="#FFFFFF" x="58.9" y="70.2" width="13" height="1.5"></rect>
            <rect id="Rectangle-path" fill="#FFFFFF" x="58.9" y="72.3" width="13" height="1.5"></rect>
        </g>
        <path d="M75,47.8 C90.1,47.8 102.3,60.1 102.2,75.2 C102.1,90 89.9,102.2 75,102.2 C60,102.2 47.8,89.9 47.8,74.9 C47.9,60 60.1,47.8 75,47.8 Z M71.1,55.7 C63,56.8 54.6,64.8 55.2,76.2 C55.7,86.8 65.2,95.3 75.8,94.7 C87.3,94.1 95.3,84.7 94.8,74 C94.3,63.2 85.5,56.3 78.7,55.8 L78.7,77.3 C80.8,74.8 82.7,72.5 84.7,70.3 C85.3,69.6 86.2,69.1 87.1,68.9 C88.8,68.5 90,69.5 90.8,70.8 C91.7,72.2 91.4,73.6 90.3,74.8 C86.3,79.6 82.2,84.4 78.2,89.2 C76.1,91.7 74,91.7 71.9,89.2 C67.9,84.6 64,79.9 60.1,75.2 C58.4,73.1 58.4,71.1 60.2,69.7 C61.9,68.3 63.8,68.6 65.5,70.5 C67.3,72.6 69.1,74.7 71.2,77.1 C71.1,69.7 71.1,62.7 71.1,55.7 Z" id="Shape" fill="#474747" fill-rule="nonzero"></path>
    </g>
</svg>
