<?xml version="1.0" encoding="utf-8"?>
<!-- Generator: Adobe Illustrator 21.0.2, SVG Export Plug-In . SVG Version: 6.00 Build 0)  -->
<svg version="1.1" id="Layer_1" xmlns="http://www.w3.org/2000/svg" xmlns:xlink="http://www.w3.org/1999/xlink" x="0px" y="0px"
	 viewBox="0 0 150 150" style="enable-background:new 0 0 150 150;" xml:space="preserve">
<style type="text/css">
	.st0{fill:#4495B9;}
	.st1{fill:#F0F2F7;}
	.st2{fill:#FFFFFF;}
	.st3{fill:#464646;}
	.st4{fill:#333333;}
</style>
<ellipse class="st0" cx="75" cy="75" rx="75" ry="75"/>
<g>
	<circle class="st1" cx="93.8" cy="68" r="28.9"/>
	<g>
		<path class="st2" d="M42.6,64.9c0.4,0.8,0.6,1.7,0.6,2.7c0,3.8-3.1,6.8-6.8,6.8c-0.6,0-1.2-0.1-1.8-0.3c-1.2,0.9-2.6,1.5-4.2,1.5
			c-0.8,0-1.5-0.2-2.2-0.4c-0.5,2.2-0.8,4.4-0.8,6.8c0,16,12.9,28.9,28.9,28.9s28.8-13,28.8-28.9c0-16-12.9-28.9-28.9-28.9
			c-5,0-9.6,1.2-13.7,3.4c0.9,1.2,1.5,2.6,1.5,4.2C44,62.3,43.5,63.7,42.6,64.9z"/>
	</g>
	<circle class="st3" cx="45.6" cy="96.8" r="4.2"/>
	<circle class="st3" cx="70.8" cy="94.2" r="1.6"/>
	<circle class="st3" cx="64.9" cy="83.6" r="3.6"/>
	<circle class="st3" cx="75" cy="76.4" r="2.2"/>
	<circle class="st3" cx="51" cy="82" r="1.9"/>
	<circle class="st3" cx="39.2" cy="83.9" r="0.9"/>
	<circle class="st3" cx="61.3" cy="64.1" r="4.4"/>
	<circle class="st4" cx="102" cy="82" r="4.1"/>
	<circle class="st4" cx="112.8" cy="65.6" r="2.3"/>
	<circle class="st4" cx="99.5" cy="53.2" r="2.4"/>
	<circle class="st4" cx="94.4" cy="69.5" r="1.6"/>
	<circle class="st4" cx="86.8" cy="66" r="1.1"/>
	<circle class="st4" cx="83.5" cy="54.2" r="4.3"/>
</g>
<circle class="st2" cx="24.8" cy="58.4" r="0.6"/>
<circle class="st2" cx="29.4" cy="63.3" r="0.8"/>
<circle class="st2" cx="31.8" cy="57.9" r="0.8"/>
<circle class="st2" cx="28.2" cy="69.5" r="0.4"/>
<circle class="st2" cx="36.2" cy="64.9" r="0.7"/>
</svg>
