<?xml version="1.0" encoding="UTF-8"?>
<svg width="34px" height="34px" viewBox="0 0 34 34" version="1.1" xmlns="http://www.w3.org/2000/svg" xmlns:xlink="http://www.w3.org/1999/xlink">
    <!-- Generator: Sketch 50 (54983) - http://www.bohemiancoding.com/sketch -->
    <title>Stroke-Icon-Edibles</title>
    <desc>Created with Sketch.</desc>
    <defs></defs>
    <g id="Page-1" stroke="none" stroke-width="1" fill="none" fill-rule="evenodd">
        <g id="Review-Consumption" transform="translate(-950.000000, -649.000000)" fill="#FFFFFF" fill-rule="nonzero">
            <g id="Form" transform="translate(758.000000, 133.000000)">
                <g id="Method" transform="translate(1.000000, 474.000000)">
                    <g id="Edibles" transform="translate(177.000000, 31.000000)">
                        <g id="Stroke-Icon-Edibles" transform="translate(14.000000, 11.000000)">
                            <path d="M17,34 C7.61115925,34 1.14980138e-15,26.3888407 0,17 C0.000239328133,15.8405353 0.117312176,14.6840454 0.349444444,13.5480556 C0.436578366,13.1281774 0.70921008,12.7703645 1.09090924,12.5749272 C1.47260841,12.3794899 1.92228995,12.3674645 2.31388889,12.5422222 C3.17488759,12.9294223 4.18581255,12.7411681 4.84972222,12.07 C4.92699723,11.9905817 4.99804066,11.9053295 5.06222222,11.815 C5.44318204,11.3053363 6.11721541,11.1122035 6.71027778,11.3427778 C8.0628041,11.8616846 9.59394566,11.5384742 10.6213503,10.517185 C11.6487549,9.49589593 11.9811006,7.96671125 11.4702778,6.61111111 C11.2421085,6.01938417 11.4350043,5.34810672 11.9425,4.96777778 C12.0317096,4.90046281 12.1168584,4.82792867 12.1975,4.75055556 C12.8487511,4.10038543 13.0444228,3.12202713 12.6933333,2.27138889 C12.5222553,1.87605613 12.5403417,1.42436122 12.7424806,1.04397253 C12.9446196,0.663583853 13.308849,0.395829697 13.7322222,0.316388889 C14.8090196,0.107785929 15.9031844,0.00184800363 17,-7.10542736e-15 C26.3888407,-6.49330336e-15 34,7.61115925 34,17 C34,26.3888407 26.3888407,34 17,34 Z M2.90416667,15.555 C2.85694444,16.0366667 2.83333333,16.5183333 2.83333333,17 C2.83333333,24.824034 9.17596604,31.1666667 17,31.1666667 C24.824034,31.1666667 31.1666667,24.824034 31.1666667,17 C31.1666667,9.17596604 24.824034,2.83333333 17,2.83333333 C16.5655556,2.83333333 16.1311111,2.83333333 15.6966667,2.89472222 C15.7530309,4.22666162 15.2870698,5.52796394 14.3980556,6.52138889 C14.8779822,8.69009015 14.2177234,10.9537374 12.6471193,12.5243415 C11.0765152,14.0949457 8.81286793,14.7552044 6.64416667,14.2752778 C5.61832127,15.1840138 4.27168142,15.6447958 2.90416667,15.555 Z" id="Shape"></path>
                            <circle id="Oval" cx="12.5138889" cy="21.0138889" r="2.125"></circle>
                            <circle id="Oval" cx="21.4861111" cy="21.0138889" r="2.125"></circle>
                            <circle id="Oval" cx="21.4861111" cy="12.5138889" r="2.125"></circle>
                        </g>
                    </g>
                </g>
            </g>
        </g>
    </g>
</svg>