<?xml version="1.0" encoding="UTF-8"?>
<svg width="34px" height="34px" viewBox="0 0 34 34" version="1.1" xmlns="http://www.w3.org/2000/svg" xmlns:xlink="http://www.w3.org/1999/xlink">
    <!-- Generator: Sketch 50 (54983) - http://www.bohemiancoding.com/sketch -->
    <title>Stroke-Icon-Evening</title>
    <desc>Created with Sketch.</desc>
    <defs></defs>
    <g id="Page-1" stroke="none" stroke-width="1" fill="none" fill-rule="evenodd">
        <g id="Review-Consumption" transform="translate(-772.000000, -940.000000)" fill="#4596BA" fill-rule="nonzero">
            <g id="Form" transform="translate(758.000000, 133.000000)">
                <g id="Time" transform="translate(1.000000, 683.000000)">
                    <g id="Bong" transform="translate(0.000000, 113.000000)">
                        <g id="Stroke-Icon-Evening" transform="translate(13.000000, 11.000000)">
                            <path d="M17,34 C7.61115925,34 1.14980138e-15,26.3888407 0,17 C-1.14980138e-15,7.61115925 7.61115925,1.72470207e-15 17,0 C17.6152066,0.000609435107 18.2299517,0.0337110951 18.8416667,0.0991666667 C19.4431715,0.162823507 19.9379113,0.601356697 20.0732978,1.19087414 C20.2086843,1.78039159 19.9548498,2.39083967 19.4413889,2.71055556 C16.3381733,4.6090478 14.6884778,8.19346016 15.2647629,11.7854116 C15.8410481,15.377363 18.5292363,18.2658144 22.0705985,19.0982645 C25.6119608,19.9307147 29.3054722,18.5423772 31.4216667,15.5833333 C31.7733821,15.07922 32.4100565,14.8594357 32.9978585,15.0392212 C33.5856605,15.2190068 33.9904576,15.7573365 34,16.3719444 L34,16.4191667 C34,16.6112037 34,16.8048148 34,17 C34,26.3888407 26.3888407,34 17,34 Z M14.9269444,2.98444444 C7.84360184,4.03336994 2.65668074,10.2030301 2.84014675,17.361265 C3.02361277,24.5195 8.51977371,30.415352 15.6475491,31.1000457 C22.7753245,31.7847393 29.2933348,27.0429678 30.8361111,20.0505556 C26.0199628,23.3189871 19.5403117,22.5894854 15.5714565,18.3320075 C11.6026012,14.0745297 11.3290141,7.55968506 14.9269444,2.98444444 Z" id="Shape"></path>
                        </g>
                    </g>
                </g>
            </g>
        </g>
    </g>
</svg>