<?xml version="1.0" encoding="utf-8"?>
<!-- Generator: Adobe Illustrator 21.0.2, SVG Export Plug-In . SVG Version: 6.00 Build 0)  -->
<svg version="1.1" id="Layer_1" xmlns="http://www.w3.org/2000/svg" xmlns:xlink="http://www.w3.org/1999/xlink" x="0px" y="0px"
	 viewBox="0 0 150 150" style="enable-background:new 0 0 150 150;" xml:space="preserve">
<style type="text/css">
	.st0{fill:#4495B9;}
	.st1{fill:#333333;}
	.st2{fill:#FFFFFF;}
</style>
<ellipse class="st0" cx="75" cy="75" rx="75" ry="75"/>
<g id="XMLID_264_">
	<g id="XMLID_196_">
		<path id="XMLID_198_" class="st1" d="M91.6,71.5c-9.9-9.9-12.4-24.2-7.8-36.4c-4.4,1.7-8.5,4.2-12,7.8
			c-13.4,13.4-13.4,35.1,0,48.4c13.4,13.4,35.1,13.4,48.4,0c3.5-3.5,6.1-7.6,7.8-12C115.8,83.9,101.5,81.3,91.6,71.5z"/>
		<path id="XMLID_197_" class="st1" d="M128.1,79.2c-12.2,4.7-26.6,2.1-36.4-7.8c-0.3-0.3-0.7-0.7-1-1.1L70.9,90.2
			c0.3,0.4,0.6,0.7,1,1.1c13.4,13.4,35.1,13.4,48.4,0C123.8,87.7,126.4,83.6,128.1,79.2z"/>
	</g>
	<path id="XMLID_195_" class="st2" d="M64.6,58.2c-0.9,0-1.8,0.1-2.7,0.4c-3-4.7-8.2-7.9-14.2-7.9c-5.9,0-11.1,3.1-14.1,7.7l0,0l0,0
		c-0.6-0.1-1.3-0.2-1.9-0.2c-5.4,0-9.8,4.4-9.8,9.8H31h10.4h13.4h9.6h9.9C74.3,62.6,70,58.2,64.6,58.2z"/>
	<g id="XMLID_84_">
		<g id="XMLID_86_">
			<path id="XMLID_90_" class="st2" d="M97.2,97.1c-7.9,0-14.2,6.4-14.2,14.2h28.5C111.4,103.5,105,97.1,97.2,97.1z"/>
			<path id="XMLID_89_" class="st2" d="M97.8,111.4c0-0.3,0-0.5,0-0.8c0-13.5-10.9-24.4-24.4-24.4C60,86.2,49,97.1,49,110.6
				c0,0.3,0,0.5,0,0.8H97.8z"/>
			<path id="XMLID_88_" class="st2" d="M50.1,97.1c-7.9,0-14.2,6.4-14.2,14.2h28.5C64.3,103.5,58,97.1,50.1,97.1z"/>
			<path id="XMLID_87_" class="st2" d="M53,97.4c-2.6,4-4,8.8-3.9,14h15.3C64.3,104.5,59.5,98.7,53,97.4z"/>
		</g>
		<rect id="XMLID_85_" x="35.9" y="111.2" class="st2" width="75.7" height="2.6"/>
	</g>
</g>
</svg>
