<?xml version="1.0" encoding="utf-8"?>
<!-- Generator: Adobe Illustrator 21.0.2, SVG Export Plug-In . SVG Version: 6.00 Build 0)  -->
<svg version="1.1" id="Layer_1" xmlns="http://www.w3.org/2000/svg" xmlns:xlink="http://www.w3.org/1999/xlink" x="0px" y="0px"
	 viewBox="0 0 300 300" style="enable-background:new 0 0 300 300;" xml:space="preserve">
<style type="text/css">
	.st0{fill:#4596BA;}
</style>
<g transform="translate(0,-1028.3622)">
	<path class="st0" d="M8.3,1086.7c-4.6,0-8.3,3.7-8.3,8.3v50c0,4.6,3.7,8.3,8.3,8.3c11.4,0.2,17.2,2.1,20.1,5s4.9,8.5,4.9,20.1
		c0,11.5-2,17.2-4.9,20c-2.9,2.9-8.7,4.9-20.1,4.9c-4.6,0-8.3,3.8-8.3,8.3v50c0,4.6,3.7,8.3,8.3,8.3H200h16.7h75
		c4.6,0,8.3-3.7,8.3-8.3v-50c0-4.6-3.7-8.3-8.3-8.3c-10.3,0-16.2-2-19.5-5.1s-5.6-8.6-5.6-19.9s2.3-16.8,5.5-19.9
		c3.3-3.1,9.2-5,19.5-5.1c4.6,0,8.3-3.8,8.3-8.3v-50c0-4.6-3.7-8.3-8.3-8.3H8.3z M16.7,1103.4H200v33.3h16.7v-33.3h66.7v35.9
		c-8.3,1.1-16.9,1.7-22.6,7.1c-7.7,7.3-10.8,18.4-10.8,32c0,13.7,3,24.8,10.8,32.1c5.7,5.3,14.2,6,22.6,7v35.9h-66.7v-16.7H200v16.7
		H16.7v-35.9c8.8-1,17.8-1.7,23.4-7.2c7.6-7.5,9.9-18.4,9.9-31.9s-2.3-24.4-9.9-31.9c-5.6-5.5-14.6-6.2-23.4-7.2
		C16.7,1139.3,16.7,1103.4,16.7,1103.4z M200,1170v33.3h16.7V1170H200z"/>
</g>
</svg>
