<?xml version="1.0" encoding="utf-8"?>
<!-- Generator: Adobe Illustrator 21.0.2, SVG Export Plug-In . SVG Version: 6.00 Build 0)  -->
<svg version="1.1" id="Layer_1" xmlns="http://www.w3.org/2000/svg" xmlns:xlink="http://www.w3.org/1999/xlink" x="0px" y="0px"
	 viewBox="0 0 150 150" style="enable-background:new 0 0 150 150;" xml:space="preserve">
<style type="text/css">
	.st0{fill:#4596BA;}
	.st1{fill:#FFFFFF;}
	.st2{fill:#F1F2F7;}
	.st3{fill:#333333;}
	.st4{fill:#EDEAE5;}
	.st5{fill:#A1A8BD;}
</style>
<ellipse class="st0" cx="75" cy="75" rx="75" ry="75"/>
<g>
	<g>
		<g>
			<path class="st1" d="M73.6,51.5c-0.7,0.6-1.8,0.6-2.5-0.1L32.7,89.8c-1.3,1.3-1.3,3.5,0,4.9l8,8c1.7-1.8,4.6-1.8,6.3,0
				c1.8,1.7,1.8,4.6,0,6.3l8,8c1.3,1.3,3.5,1.3,4.9,0l38.3-38.3c-0.7-0.7-0.7-1.8-0.1-2.5L73.6,51.5z"/>
			<path class="st2" d="M96.1,78.5c-0.1-0.5-0.1-1,0-1.6l0-0.1L73.4,54.3l-0.1,0c-0.5,0.1-1,0.1-1.6,0l-0.1,0L34.4,91.5
				c-0.5,0.5-0.5,1.4,0,2l6.8,6.8l0.1,0c2.5-1.2,5.5-0.7,7.5,1.2c2,2,2.5,5,1.3,7.5l0,0.1l6.8,6.8c0.5,0.5,1.4,0.5,1.9,0L96.1,78.5
				L96.1,78.5z"/>
			<ellipse transform="matrix(0.707 -0.7072 0.7072 0.707 -15.9473 69.9208)" class="st3" cx="76.4" cy="54.2" rx="1.9" ry="1.9"/>
			<path class="st3" d="M113.2,56.8c-0.7-0.7-0.7-1.9,0-2.6l-1.3-1.3c-0.7,0.7-1.9,0.7-2.6,0c-0.7-0.7-0.7-1.9,0-2.6l-1.3-1.3
				c-0.7,0.7-1.9,0.7-2.6,0c-0.7-0.7-0.7-1.9,0-2.6l-1.3-1.3c-0.7,0.7-1.9,0.7-2.6,0c-0.7-0.7-0.7-1.9,0-2.6l-1.3-1.3
				c-0.7,0.7-1.9,0.7-2.6,0c-0.7-0.7-0.7-1.9,0-2.6l-1.3-1.3c-0.7,0.7-1.9,0.7-2.6,0c-0.7-0.7-0.7-1.9,0-2.6L91.1,32L74,49.1
				c0.7,0.7,0.7,1.9,0,2.6l24.6,24.6c0.7-0.7,1.9-0.7,2.6,0l17.1-17.1l-2.5-2.5C115.1,57.5,114,57.5,113.2,56.8z"/>
			<path class="st4" d="M77.7,52.9c0.7,0.7,0.7,1.9,0,2.6l-2.6-2.6C75.8,52.2,77,52.2,77.7,52.9z"/>
			<g>
				
					<ellipse transform="matrix(0.7071 -0.7071 0.7071 0.7071 -17.5814 73.8438)" class="st3" cx="80.3" cy="58.1" rx="1.9" ry="1.9"/>
				<path class="st4" d="M81.7,56.8c0.7,0.7,0.7,1.9,0,2.6L79,56.8C79.8,56.1,80.9,56.1,81.7,56.8z"/>
			</g>
			<g>
				
					<ellipse transform="matrix(0.7071 -0.7071 0.7071 0.7071 -19.2125 77.782)" class="st3" cx="84.3" cy="62.1" rx="1.9" ry="1.9"/>
				<path class="st4" d="M85.6,60.8c0.7,0.7,0.7,1.9,0,2.6L83,60.8C83.7,60,84.9,60,85.6,60.8z"/>
			</g>
			<g>
				<ellipse transform="matrix(0.7071 -0.7071 0.7071 0.7071 -20.8444 81.7156)" class="st3" cx="88.2" cy="66" rx="1.9" ry="1.9"/>
				<path class="st4" d="M89.5,64.7c0.7,0.7,0.7,1.9,0,2.6l-2.6-2.6C87.6,64,88.8,64,89.5,64.7z"/>
			</g>
			<g>
				<ellipse transform="matrix(0.7072 -0.707 0.707 0.7072 -22.4771 85.6446)" class="st3" cx="92.2" cy="70" rx="1.9" ry="1.9"/>
				<path class="st4" d="M93.5,68.6c0.7,0.7,0.7,1.9,0,2.6l-2.6-2.6C91.6,67.9,92.7,67.9,93.5,68.6z"/>
			</g>
			<g>
				
					<ellipse transform="matrix(0.7071 -0.7071 0.7071 0.7071 -24.1067 89.5964)" class="st3" cx="96.1" cy="73.9" rx="1.9" ry="1.9"/>
				<path class="st4" d="M97.4,72.6c0.7,0.7,0.7,1.9,0,2.6l-2.6-2.6C95.5,71.9,96.7,71.9,97.4,72.6z"/>
			</g>
			
				<rect x="45" y="78.6" transform="matrix(0.7071 -0.7071 0.7071 0.7071 -38.7532 66.911)" class="st5" width="32.8" height="3.3"/>
			
				<rect x="49.4" y="83" transform="matrix(0.7071 -0.7071 0.7071 0.7071 -40.5923 71.3518)" class="st5" width="32.8" height="3.3"/>
			
				<rect x="53.9" y="87.5" transform="matrix(0.7071 -0.7071 0.7071 0.7071 -42.4322 75.7954)" class="st5" width="32.8" height="3.3"/>
			
				<rect x="79.9" y="45" transform="matrix(0.7071 -0.7071 0.7071 0.7071 -6.8962 74.5272)" class="st2" width="13.3" height="1.2"/>
			<polygon class="st2" points="92.8,42.5 83.4,51.9 83,51.5 92.4,42 			"/>
			
				<rect x="82.6" y="48" transform="matrix(0.7071 -0.7071 0.7071 0.7071 -8.0342 77.2778)" class="st2" width="13.3" height="0.6"/>
			<rect x="84" y="49.4" transform="matrix(0.7071 -0.7071 0.7071 0.7071 -8.603 78.653)" class="st2" width="13.3" height="0.6"/>
			
				<rect x="85.4" y="50.8" transform="matrix(0.7071 -0.7071 0.7071 0.7071 -9.1723 80.0269)" class="st2" width="13.3" height="0.6"/>
			
				<rect x="92.2" y="57.7" transform="matrix(0.7071 -0.7071 0.7071 0.7071 -12.0179 86.8983)" class="st2" width="13.3" height="0.6"/>
			
				<rect x="86.6" y="52" transform="matrix(0.7071 -0.7071 0.7071 0.7071 -9.8771 81.3448)" class="st2" width="13.3" height="1.2"/>
			
				<rect x="88" y="53.7" transform="matrix(0.7071 -0.7071 0.7071 0.7071 -10.4466 82.7188)" class="st2" width="13.3" height="0.6"/>
			<polygon class="st2" points="100.9,50.8 91.5,60.3 91.1,59.8 100.5,50.4 			"/>
			
				<rect x="90.7" y="56.4" transform="matrix(0.7071 -0.7071 0.7071 0.7071 -11.5862 85.4639)" class="st2" width="13.3" height="0.6"/>
			
				<rect x="93.3" y="59" transform="matrix(0.7071 -0.7071 0.7071 0.7071 -12.8578 88.1636)" class="st2" width="13.3" height="1.2"/>
			<polygon class="st2" points="106.3,56.5 96.9,65.9 96.4,65.5 105.9,56.1 			"/>
			
				<rect x="96.1" y="62.1" transform="matrix(0.7071 -0.7071 0.7071 0.7071 -13.9965 90.9107)" class="st2" width="13.3" height="0.6"/>
			
				<rect x="97.5" y="63.4" transform="matrix(0.7071 -0.7071 0.7071 0.7071 -14.5656 92.2868)" class="st2" width="13.3" height="0.6"/>
		</g>
	</g>
</g>
</svg>
