<svg xmlns="http://www.w3.org/2000/svg" width="30" height="30" viewBox="0 0 30 30">
    <path fill="#FFF" fill-rule="evenodd" d="M15 30C6.716 30 0 23.284 0 15 0 6.716 6.716 0 15 0c8.284 0 15 6.716 15 15 0 8.284-6.716 15-15 15zm1.343-7.189v-6.976h2.36l.363-2.794h-.531l-.872.001-1.34-.001s.007-1.379.024-1.976c.023-.82.508-1.07 1.165-1.093.188-.007.376-.008.564-.008a48.134 48.134 0 0 1 .765.003h.305V7.478c-.255-.025-.523-.062-.791-.076-.403-.017-.806-.037-1.209-.037-.089 0-.177.001-.265.003-.75.015-1.459.197-2.079.643-.711.51-1.102 1.229-1.25 2.078a7.055 7.055 0 0 0-.087 1.067c-.014.56-.003 1.118-.002 1.677v.21h-2.382v2.779h2.368v6.989h2.894z"/>
</svg>
