<?xml version="1.0" encoding="UTF-8"?>
<svg width="53px" height="42px" viewBox="0 0 53 42" version="1.1" xmlns="http://www.w3.org/2000/svg" xmlns:xlink="http://www.w3.org/1999/xlink">
    <!-- Generator: Sketch 50.2 (55047) - http://www.bohemiancoding.com/sketch -->
    <title>Familiar</title>
    <desc>Created with Sketch.</desc>
    <defs></defs>
    <g id="Page-1" stroke="none" stroke-width="1" fill="none" fill-rule="evenodd">
        <g id="Recommender-familiarity" transform="translate(-673.000000, -252.000000)" fill="#4296BC" fill-rule="nonzero">
            <g id="Group-9" transform="translate(186.000000, 140.000000)">
                <g id="Group-3">
                    <g id="Familiar" transform="translate(357.000000, 76.000000)">
                        <g id="Copy" transform="translate(36.200000, 36.200000)">
                            <g id="Familiar" transform="translate(94.000000, 0.000000)">
                                <path d="M52.1272258,11.492 C37.9201063,-2.96376524 14.8884098,-2.96376524 0.681290323,11.492 L-7.10542736e-15,12.1853333 L8.19251613,20.5226667 L8.87380645,19.8293333 C13.0405478,15.5671498 18.5756194,12.9737329 24.4668387,12.5233333 L24.4668387,10.556 C18.3928,10.9832821 12.6487223,13.5265835 8.20103226,17.758 L2.73367742,12.2026667 C4.4515235,10.5436639 6.33207752,9.06838555 8.34580645,7.8 L9.94683871,10.634 L11.6500645,9.65466667 L10.0405161,6.82066667 C12.1171934,5.669995 14.3063807,4.74340393 16.5723871,4.056 L17.424,7.21933333 L19.2890323,6.708 L18.4374194,3.54466667 C20.7330653,2.98759162 23.0787029,2.67105391 25.4376774,2.6 L25.4376774,5.89333333 L27.3708387,5.89333333 L27.3708387,2.6 C29.7346172,2.66164827 32.085979,2.96947616 34.388129,3.51866667 L33.5365161,6.682 L35.4015484,7.19333333 L36.2531613,4.03 C38.5190842,4.71764261 40.7082476,5.64422352 42.7850323,6.79466667 L38.9187097,13.6413333 C35.641075,11.8707522 32.0348851,10.8196684 28.3331613,10.556 L28.3331613,12.532 C34.2271856,12.9811287 39.7653553,15.5745808 43.9347097,19.838 L44.616,20.5313333 L52.8,12.1853333 L52.1272258,11.492 Z M44.6074839,17.758 C43.3730468,16.5866449 42.0329342,15.5362276 40.6049032,14.6206667 L44.4541935,7.8 C46.4672393,9.06277162 48.347779,10.5322305 50.0663226,12.1853333 L44.6074839,17.758 Z M29.1847742,36.036 C28.7820142,35.3263646 28.131308,34.7972167 27.3623226,34.554 L27.3623226,7.202 L25.4291613,7.202 L25.4291613,34.554 C24.1262714,34.9729766 23.2252445,36.1833626 23.181633,37.5731963 C23.1380214,38.9630299 23.9613285,40.2294536 25.2352965,40.7321733 C26.5092645,41.234893 27.9562841,40.8643614 28.8447534,39.8079166 C29.7332226,38.7514717 29.8695358,37.2393225 29.1847742,36.036 Z M27.0387097,38.8093333 C26.8464415,38.9299861 26.6258453,38.9958381 26.4,39 C25.8158165,39.0035624 25.3026785,38.605936 25.1506601,38.0318968 C24.9986417,37.4578576 25.2459464,36.8516665 25.7527742,36.556 C25.9510482,36.4463583 26.1744658,36.3925083 26.4,36.4 C26.9841835,36.3964376 27.4973215,36.794064 27.6493399,37.3681032 C27.8013583,37.9421424 27.5540536,38.5483335 27.0472258,38.844 L27.0387097,38.8093333 Z" id="Shape"></path>
                            </g>
                        </g>
                    </g>
                </g>
            </g>
        </g>
    </g>
</svg>