<?xml version="1.0" encoding="UTF-8"?>
<svg width="26px" height="42px" viewBox="0 0 26 42" version="1.1" xmlns="http://www.w3.org/2000/svg" xmlns:xlink="http://www.w3.org/1999/xlink">
    <!-- Generator: Sketch 50.2 (55047) - http://www.bohemiancoding.com/sketch -->
    <title>Shape</title>
    <desc>Created with Sketch.</desc>
    <defs></defs>
    <g id="Page-1" stroke="none" stroke-width="1" fill="none" fill-rule="evenodd">
        <g id="Recommender-gender" transform="translate(-688.000000, -251.000000)" fill="#4296BC" fill-rule="nonzero">
            <g id="Group" transform="translate(185.000000, 140.000000)">
                <g id="Female" transform="translate(358.000000, 76.000000)">
                    <g id="Copy" transform="translate(36.000000, 34.000000)">
                        <g id="Female" transform="translate(108.800000, 0.800000)">
                            <path d="M25.715625,13.2461538 C25.721061,6.51050714 20.4124122,0.953798286 13.6454037,0.611920852 C6.87839521,0.270043418 1.03039534,5.26310492 0.348865274,11.9645945 C-0.332664787,18.6660842 4.39170838,24.7216514 11.090625,25.7330769 C11.090625,25.7330769 11.090625,25.7330769 11.090625,25.7330769 L11.090625,30.6923077 L6.101875,30.6923077 C5.04286899,30.6923077 4.184375,31.5457218 4.184375,32.5984615 C4.184375,33.6512012 5.04286899,34.5046154 6.101875,34.5046154 L11.0825,34.5046154 L11.0825,39.4557692 C11.0825,40.1367724 11.4479734,40.7660453 12.04125,41.106547 C12.6345266,41.4470486 13.3654734,41.4470486 13.95875,41.106547 C14.5520266,40.7660453 14.9175,40.1367724 14.9175,39.4557692 L14.9175,34.5369231 L19.898125,34.5369231 C20.957131,34.5369231 21.815625,33.6835089 21.815625,32.6307692 C21.815625,31.5780295 20.957131,30.7246154 19.898125,30.7246154 L14.9175,30.7246154 L14.9175,25.7653846 C14.9175,25.7653846 14.9175,25.7653846 14.9175,25.7653846 C21.1331152,24.8159136 25.7203581,19.4975131 25.715625,13.2461538 M13,22.0823077 C8.09087893,22.0823077 4.11125,18.1262269 4.11125,13.2461538 C4.11125,8.36608083 8.09087893,4.41 13,4.41 C17.9091211,4.41 21.88875,8.36608083 21.88875,13.2461538 C21.8842705,18.1243812 17.9072644,22.0778547 13,22.0823077" id="Shape"></path>
                        </g>
                    </g>
                </g>
            </g>
        </g>
    </g>
</svg>