<?xml version="1.0" encoding="utf-8"?>
<!-- Generator: Adobe Illustrator 21.0.2, SVG Export Plug-In . SVG Version: 6.00 Build 0)  -->
<svg version="1.1" id="Layer_1" xmlns="http://www.w3.org/2000/svg" xmlns:xlink="http://www.w3.org/1999/xlink" x="0px" y="0px"
	 viewBox="0 0 100 125" style="enable-background:new 0 0 100 125;" xml:space="preserve">
<title>Levers 7.4</title>
<desc>Created with Sketch.</desc>
<g>
	<g>
		<path d="M94.5,66.9h-0.6c-2,7.7-8.9,13.3-17.2,13.3s-15.2-5.7-17.2-13.3h-54c-2.5,0-4.4-2-4.4-4.4c0-2.5,2-4.4,4.4-4.4h53.9
			c2-7.7,8.9-13.3,17.2-13.3s15.2,5.7,17.2,13.3h0.6c2.5,0,4.4,2,4.4,4.4C98.9,65,96.9,66.9,94.5,66.9z M76.7,53.6
			c-4.9,0-8.9,4-8.9,8.9s4,8.9,8.9,8.9s8.9-4,8.9-8.9S81.6,53.6,76.7,53.6z M40.5,24.7L40.5,24.7c-2,7.7-8.9,13.3-17.2,13.3
			S8.1,32.4,6.1,24.7H5.5c-2.5,0-4.4-2-4.4-4.4c0-2.5,2-4.4,4.4-4.4h0.6C8.1,8.1,15,2.5,23.3,2.5s15.2,5.7,17.2,13.3h53.9
			c2.5,0,4.4,2,4.4,4.4c0,2.5-2,4.4-4.4,4.4H40.5V24.7z M23.3,11.4c-4.9,0-8.9,4-8.9,8.9s4,8.9,8.9,8.9s8.9-4,8.9-8.9
			C32.2,15.4,28.2,11.4,23.3,11.4z M60.6,109.2L60.6,109.2c-2,7.7-8.9,13.3-17.2,13.3s-15.2-5.7-17.2-13.3H5.5c-2.5,0-4.4-2-4.4-4.4
			c0-2.5,2-4.4,4.4-4.4h20.6c2-7.7,8.9-13.3,17.2-13.3s15.2,5.7,17.2,13.3h33.9c2.5,0,4.4,2,4.4,4.4c0,2.5-2,4.4-4.4,4.4H60.6z
			 M43.3,95.8c-4.9,0-8.9,4-8.9,8.9s4,8.9,8.9,8.9s8.9-4,8.9-8.9C52.2,99.8,48.2,95.8,43.3,95.8z"/>
	</g>
</g>
</svg>
