<svg width="30px" height="30px" viewBox="0 0 30 30" version="1.1" xmlns="http://www.w3.org/2000/svg" xmlns:xlink="http://www.w3.org/1999/xlink">
    <!-- Generator: Sketch 42 (36781) - http://www.bohemiancoding.com/sketch -->
    <desc>Created with Sketch.</desc>
    <defs></defs>
    <g id="flag" stroke="none" stroke-width="1" fill="none" fill-rule="evenodd">
        <circle id="Circle_Button" fill="#DF4B38" fill-rule="nonzero" cx="15" cy="15" r="15"></circle>
        <g id="_" transform="translate(9.000000, 9.000000)" fill-rule="nonzero" fill="#FFFFFF">
            <path d="M2.1,1 C2.1,1.3 1.9,1.6 1.6,1.8 L1.6,11 C1.6,11.1 1.6,11.1 1.5,11.2 C1.4,11.3 1.4,11.3 1.3,11.3 L0.9,11.3 C0.8,11.3 0.8,11.3 0.7,11.2 C0.6,11.1 0.7,11 0.7,11 L0.7,1.8 C0.4,1.6 0.2,1.3 0.2,1 C0.2,0.7 0.3,0.5 0.5,0.3 C0.7,0.1 0.9,0 1.2,0 C1.5,0 1.7,0.1 1.9,0.3 C2,0.5 2.1,0.7 2.1,1 Z M12.8,1.5 L12.8,7 C12.8,7.1 12.8,7.2 12.7,7.3 C12.6,7.4 12.5,7.4 12.4,7.5 C11.4,8.1 10.5,8.3 9.7,8.3 C9.4,8.3 9.1,8.2 8.8,8.1 C8.5,8 8.2,7.9 8,7.8 C7.8,7.7 7.5,7.6 7.2,7.5 C6.9,7.4 6.5,7.3 6.2,7.3 C5.3,7.3 4.1,7.7 2.8,8.4 C2.7,8.4 2.6,8.5 2.6,8.5 C2.5,8.5 2.4,8.5 2.3,8.4 C2.2,8.3 2.2,8.2 2.2,8.1 L2.2,2.7 C2.2,2.5 2.3,2.4 2.4,2.3 C2.5,2.2 2.7,2.1 3,2 C4,1.3 5.1,1 6,1 C6.5,1 7,1.1 7.5,1.2 C8,1.3 8.5,1.6 9.1,1.8 C9.3,1.9 9.5,1.9 9.7,1.9 C10,1.9 10.2,1.8 10.6,1.7 C10.9,1.6 11.2,1.5 11.4,1.4 L12,1.1 C12.2,1 12.3,0.9 12.4,0.9 C12.5,0.9 12.6,0.9 12.7,1 C12.7,1.2 12.8,1.3 12.8,1.5 Z" id="Shape"></path>
        </g>
    </g>
</svg>
