<svg xmlns="http://www.w3.org/2000/svg" width="118" height="118" viewBox="0 0 118 118">
    <g fill="none" fill-rule="nonzero" transform="translate(1 1)">
        <circle cx="58" cy="58" r="58" stroke="#FFF" stroke-width="2" opacity=".75"/>
        <path fill="#FFF" d="M54 44.4a4.8 4.8 0 1 1 9.6 0 4.8 4.8 0 0 1-9.6 0zm16 3.2a4.8 4.8 0 1 0 0-9.6 4.8 4.8 0 0 0 0 9.6zm-22.4 0a4.8 4.8 0 1 0 0-9.6 4.8 4.8 0 0 0 0 9.6zm1.6 16.8v-5.6a9.58 9.58 0 0 1 3.696-7.554A7.966 7.966 0 0 0 39.6 57.2v4a2.4 2.4 0 0 0 2.4 2.4h.8v7.2a2.4 2.4 0 0 0 2.4 2.4H50a2.4 2.4 0 0 0 2.4-2.4v-2.48a4.008 4.008 0 0 1-3.2-3.92zM70 49.2a7.936 7.936 0 0 0-5.296 2.046A9.58 9.58 0 0 1 68.4 58.8v5.6a4.008 4.008 0 0 1-3.2 3.92v2.48a2.4 2.4 0 0 0 2.4 2.4h4.8a2.4 2.4 0 0 0 2.4-2.4v-7.2h.8a2.4 2.4 0 0 0 2.4-2.4v-4a8 8 0 0 0-8-8zm-3.2 15.2v-5.6a8 8 0 0 0-16 0v5.6a2.4 2.4 0 0 0 2.4 2.4h.8v8.8a2.4 2.4 0 0 0 2.4 2.4h4.8a2.4 2.4 0 0 0 2.4-2.4v-8.8h.8a2.4 2.4 0 0 0 2.4-2.4z"/>
    </g>
</svg>
