<svg xmlns="http://www.w3.org/2000/svg" width="30" height="30" viewBox="0 0 30 30">
    <path fill="#FFF" fill-rule="evenodd" d="M15 30C6.716 30 0 23.284 0 15 0 6.716 6.716 0 15 0c8.284 0 15 6.716 15 15 0 8.284-6.716 15-15 15zm-3.148-8.309c.546 0 1.089-.067 1.622-.206 1.214-.317 2.222-.951 2.98-1.959 1.097-1.46 1.362-3.331 1.039-5.108h-5.698l-.006.098.002 2.336h3.243c0 .241-.285 1.208-1.19 1.824-.531.359-1.128.525-1.761.565a3.61 3.61 0 0 1-.254.008 3.45 3.45 0 0 1-1.059-.161 3.643 3.643 0 0 1-2.425-4.247c.365-1.601 1.775-2.826 3.464-2.826.171 0 .344.013.52.039.848.125 1.336.477 1.78.858l1.762-1.764c-.144-.105-.479-.444-1.073-.789a5.784 5.784 0 0 0-2.873-.781h-.045c-.179 0-.357.01-.535.017a4.737 4.737 0 0 0-.998.156 5.976 5.976 0 0 0-3.25 2.073c-.82 1.009-1.259 2.167-1.34 3.461a5.737 5.737 0 0 0 .128 1.631c.341 1.501 1.128 2.711 2.37 3.619a5.912 5.912 0 0 0 3.233 1.147 7.4 7.4 0 0 0 .364.009zm10.914-3.426v-2.114h2.113v-1.652h-2.113v-2.114h-1.655v2.114h-2.112v1.652h2.112v2.114h1.655z"/>
</svg>
