<?xml version="1.0" encoding="UTF-8"?>
<svg width="130px" height="130px" viewBox="0 0 130 130" version="1.1" xmlns="http://www.w3.org/2000/svg" xmlns:xlink="http://www.w3.org/1999/xlink">
    <!-- Generator: Sketch 51.3 (57544) - http://www.bohemiancoding.com/sketch -->
    <title>graphics-design</title>
    <desc>Created with Sketch.</desc>
    <defs></defs>
    <g id="Homepage" stroke="none" stroke-width="1" fill="none" fill-rule="evenodd">
        <g id="Acheev---Homepage-HD" transform="translate(-445.000000, -1091.000000)" fill-rule="nonzero">
            <g id="Group" transform="translate(405.000000, 1091.000000)">
                <g id="graphics-design" transform="translate(41.000000, 1.000000)">
                    <circle id="Oval-2" stroke="#FFFFFF" stroke-width="2" opacity="0.75" cx="64" cy="64" r="64"></circle>
                    <g id="icon" transform="translate(39.000000, 39.000000)" fill="#FFFFFF">
                        <path d="M48,8 C49.1045695,8 50,7.1045695 50,6 L50,2 C50,0.8954305 49.1045695,6.76353751e-17 48,0 L44,0 C42.8954305,-6.76353751e-17 42,0.8954305 42,2 L42,4 L8,4 L8,2 C8,0.8954305 7.1045695,6.76353751e-17 6,0 L2,0 C0.8954305,-6.76353751e-17 1.3527075e-16,0.8954305 0,2 L0,6 C1.3527075e-16,7.1045695 0.8954305,8 2,8 L4,8 L4,42 L2,42 C0.8954305,42 1.3527075e-16,42.8954305 0,44 L0,48 C1.3527075e-16,49.1045695 0.8954305,50 2,50 L6,50 C7.1045695,50 8,49.1045695 8,48 L8,46 L42,46 L42,48 C42,49.1045695 42.8954305,50 44,50 L48,50 C49.1045695,50 50,49.1045695 50,48 L50,44 C50,42.8954305 49.1045695,42 48,42 L46,42 L46,8 L48,8 Z M44,42 C42.8954305,42 42,42.8954305 42,44 L8,44 C8,42.8954305 7.1045695,42 6,42 L6,8 C7.1045695,8 8,7.1045695 8,6 L42,6 C42,7.1045695 42.8954305,8 44,8 L44,42 Z M30,28 L30,14 C30,12.8954305 29.1045695,12 28,12 L14,12 C12.8954305,12 12,12.8954305 12,14 L12,28 C12,29.1045695 12.8954305,30 14,30 L28,30 C29.1045695,30 30,29.1045695 30,28 Z M36,20 L32,20 L32,29 C32,30.6568542 30.6568542,32 29,32 L20,32 L20,36 C20,37.1045695 20.8954305,38 22,38 L36,38 C37.1045695,38 38,37.1045695 38,36 L38,22 C38,20.8954305 37.1045695,20 36,20 Z" id="Shape"></path>
                    </g>
                </g>
            </g>
        </g>
    </g>
</svg>