<?xml version="1.0" encoding="utf-8"?>
<!-- Generator: Adobe Illustrator 21.0.2, SVG Export Plug-In . SVG Version: 6.00 Build 0)  -->
<svg version="1.1" id="Layer_1" xmlns="http://www.w3.org/2000/svg" xmlns:xlink="http://www.w3.org/1999/xlink" x="0px" y="0px"
	 viewBox="0 0 150 149" style="enable-background:new 0 0 150 149;" xml:space="preserve">
<style type="text/css">
	.st0{fill:#4596BA;}
	.st1{fill:#FEFEFE;}
	.st2{fill:#424242;}
</style>
<g id="Layer_x0020_1">
	<path class="st0" d="M150,74c0,41.4-33.6,75-75,75c-41.4,0-75-33.6-75-75c0-41.3,33.5-74.9,74.7-75h0.5
		C116.5-0.8,149.9,32.7,150,74L150,74z"/>
	<path class="st1" d="M101.2,50.9c-2.4-2.4-5.8-3.6-9.9-3.6c-9.1,0-20.7,6-30.4,15.6c-6.9,6.9-12,14.8-14.3,22.3
		c-2.4,7.7-1.6,14.1,2.3,17.9c2.4,2.4,5.8,3.6,9.9,3.6c9.1,0,20.7-6,30.4-15.6C103.6,76.8,109,58.6,101.2,50.9L101.2,50.9
		L101.2,50.9z"/>
	<path class="st2" d="M86.9,63.4c-1.9,1.9-4.1,3-5.9,3c-0.9,0-1.7-0.3-2.3-0.9c-1.7-1.7-0.9-5.3,2.1-8.2c1.9-1.9,4.1-3,5.9-3
		c0.9,0,1.7,0.3,2.3,0.9C90.7,56.9,89.9,60.4,86.9,63.4L86.9,63.4z M64.7,68.2c-7.3,7.3-11.2,14.2-12.2,21.1c-0.1,0.5-0.5,0.9-1,0.9
		c-0.1,0-0.1,0-0.1,0c-0.6-0.1-0.9-0.6-0.9-1.2c1-7.3,5.1-14.6,12.7-22.3c0.4-0.4,1-0.4,1.4,0C65,67.1,65,67.8,64.7,68.2L64.7,68.2z
		 M54.8,100.2c-0.2,0.2-0.4,0.3-0.7,0.3c-0.3,0-0.5-0.1-0.7-0.3c-1.4-1.4-2.3-3.1-2.7-5.1c-0.1-0.5,0.2-1.1,0.8-1.2
		c0.5-0.1,1.1,0.2,1.2,0.8c0.4,1.7,1.1,3.1,2.2,4.1C55.2,99.2,55.2,99.8,54.8,100.2L54.8,100.2z M101.2,50.9
		c-2.4-2.4-5.8-3.6-9.9-3.6c-9.1,0-20.7,6-30.4,15.6c-6.9,6.9-12,14.8-14.3,22.3c-2.4,7.7-1.6,14.1,2.3,17.9
		c2.4,2.4,5.8,3.6,9.9,3.6c9.1,0,20.7-6,30.4-15.6C103.6,76.8,109,58.6,101.2,50.9L101.2,50.9L101.2,50.9z"/>
</g>
</svg>
