<?xml version="1.0" encoding="utf-8"?>
<!-- Generator: Adobe Illustrator 21.0.2, SVG Export Plug-In . SVG Version: 6.00 Build 0)  -->
<svg version="1.1" id="Layer_1" xmlns="http://www.w3.org/2000/svg" xmlns:xlink="http://www.w3.org/1999/xlink" x="0px" y="0px"
	 viewBox="0 0 20 20" style="enable-background:new 0 0 20 20;" xml:space="preserve">
<style type="text/css">
	.st0{fill:#19AA9C;}
	.st1{fill:#333333;}
</style>
<g>
	<path class="st0" d="M10,0C4.5,0,0,4.5,0,10s4.5,10,10,10s10-4.5,10-10S15.5,0,10,0z"/>
</g>
<g>
	<path class="st1" d="M14.4,5.8c0.1,0,0.1,0,0.2,0.1l0.7,0.7c0.1,0,0.1,0.1,0.1,0.2s0,0.2-0.1,0.2l-7.1,7.1c0,0-0.1,0.1-0.2,0.1
		c-0.1,0-0.1,0-0.2-0.1l-3.1-3.2c-0.1,0-0.1-0.1-0.1-0.2c0-0.1,0-0.1,0.1-0.2l0.7-0.7c0.1-0.1,0.1-0.1,0.2-0.1s0.1,0,0.2,0.1L8,12.2
		L14.2,6C14.3,5.9,14.4,5.8,14.4,5.8z"/>
</g>
</svg>
