<?xml version="1.0" encoding="utf-8"?>
<!-- Generator: Adobe Illustrator 21.0.2, SVG Export Plug-In . SVG Version: 6.00 Build 0)  -->
<svg version="1.1" id="Layer_1" xmlns="http://www.w3.org/2000/svg" xmlns:xlink="http://www.w3.org/1999/xlink" x="0px" y="0px"
	 viewBox="0 0 20 20" style="enable-background:new 0 0 20 20;" xml:space="preserve">
<style type="text/css">
	.st0{fill:#333333;}
	.st1{fill:#FFFFFF;}
</style>
<path class="st0" d="M16.4,20H3.6c-2,0-3.6-1.6-3.6-3.6V3.6C0,1.6,1.6,0,3.6,0h12.7c2,0,3.6,1.6,3.6,3.6v12.7
	C20,18.4,18.4,20,16.4,20z"/>
<g>
	<path class="st1" d="M14.9,15.9l-1.2-0.1c-0.1,0-1.3-0.1-2.4-0.8c-0.5-0.4-1-0.8-1.2-1.2c-0.3,0.4-0.7,0.9-1.2,1.2
		c-1.1,0.7-2.3,0.8-2.4,0.8l-1.2,0.1l0.5-1.1c0,0,0.4-0.8,1.1-1.3c-1.6-0.5-2.7-1.3-2.7-1.3l-0.9-0.8l1.2-0.5c0,0,0.5-0.2,1.3-0.3
		C5,9.5,4.7,8.4,4.7,8.4L4.3,7.2l1.2,0.3c0.1,0,1.5,0.3,2.7,1.5c0-0.2,0-0.4,0-0.5c0-2.4,1.1-4.2,1.2-4.2L10,3.2l0.5,1.1
		c0,0.1,1.2,2,1.2,4.2c0,0.2,0,0.4,0,0.5c1.2-1.2,2.6-1.5,2.6-1.5l1.2-0.3l-0.3,1.2c0,0-0.3,1.2-1.2,2.3c0.8,0.1,1.3,0.2,1.3,0.3
		l1.2,0.4l-0.8,0.8c0,0-1.1,1-2.5,1.3c0.7,0.7,1.1,1.3,1.1,1.3L14.9,15.9z"/>
</g>
</svg>
