<?xml version="1.0" encoding="utf-8"?>
<!-- Generator: Adobe Illustrator 21.0.2, SVG Export Plug-In . SVG Version: 6.00 Build 0)  -->
<svg version="1.1" id="Layer_1" xmlns="http://www.w3.org/2000/svg" xmlns:xlink="http://www.w3.org/1999/xlink" x="0px" y="0px"
	 viewBox="0 0 150 150" style="enable-background:new 0 0 150 150;" xml:space="preserve">
<style type="text/css">
	.st0{fill:#4495B9;}
	.st1{fill:#0EB4E3;}
	.st2{fill:#333333;}
	.st3{fill:#FFFFFF;}
	.st4{fill:#E3E8EF;}
</style>
<ellipse class="st0" cx="75" cy="75" rx="75" ry="75"/>
<g>
	<rect x="61" y="39.5" class="st1" width="4.3" height="4.3"/>
	<path class="st2" d="M75.1,59.1l-2.6-8.9h-7.9v-3.7H68v-9.8h-9.8v9.8h3.5v3.7h-7.9l-2.6,8.9c-2.9,0.5-5.2,3.1-5.2,6.2V115
		c0,3.5,2.8,6.3,6.3,6.3H74c3.5,0,6.3-2.8,6.3-6.3V65.3C80.3,62.2,78,59.6,75.1,59.1z M61,43.8v-4.3h4.3v4.3H61z M77.5,115
		c0,1.9-1.6,3.5-3.5,3.5H52.3c-1.9,0-3.5-1.6-3.5-3.5V65.3c0-1.3,0.7-2.4,1.7-3h25.4c1,0.6,1.7,1.7,1.7,3L77.5,115L77.5,115z"/>
	<circle class="st3" cx="73.4" cy="45" r="1.4"/>
	<circle class="st3" cx="80.6" cy="46.8" r="1.4"/>
	<circle class="st3" cx="87.8" cy="48.6" r="1.4"/>
	<circle class="st3" cx="95" cy="50.4" r="1.4"/>
	<circle class="st3" cx="102.3" cy="52.2" r="1.4"/>
	<circle class="st3" cx="73.4" cy="38.4" r="1.4"/>
	<circle class="st3" cx="80.6" cy="36.6" r="1.4"/>
	<circle class="st3" cx="87.8" cy="34.8" r="1.4"/>
	<circle class="st3" cx="95" cy="33" r="1.4"/>
	<circle class="st3" cx="102.3" cy="31.2" r="1.4"/>
	<circle class="st3" cx="81" cy="41.7" r="1.4"/>
	<circle class="st3" cx="87.2" cy="41.7" r="1.4"/>
	<circle class="st3" cx="93.4" cy="41.7" r="1.4"/>
	<circle class="st3" cx="99.7" cy="41.7" r="1.4"/>
	<path class="st3" d="M109.9,34.7L109.9,34.7c0-2.9-2-5.3-4.6-5.9v1.8c1.7,0.6,2.9,2.1,2.9,4c0,0.3,0,0.5-0.1,0.8l-0.2,1h1.1
		c2.9,0,5.3,2.4,5.3,5.3c0,2.9-2.4,5.3-5.3,5.3h-1.1l0.2,1c0,0.3,0.1,0.5,0.1,0.8c0,1.8-1.2,3.4-2.9,4v1.8c2.7-0.6,4.6-3,4.6-5.8
		v-0.1c3.4-0.5,6.1-3.4,6.1-7C116,38.1,113.3,35.2,109.9,34.7z"/>
	<path class="st3" d="M78.3,59H49.5c-1.7,0-3.2,1.2-3.4,2.8c0,0.2,0,0.3,0,0.5v55.1c0,2.1,1.9,3.9,4.2,3.9h25.9
		c2.3,0,4.2-1.7,4.2-3.9V62.3C80.3,60.9,79.5,59.7,78.3,59L78.3,59z"/>
</g>
<rect x="46.1" y="75" class="st4" width="34" height="30.5"/>
</svg>
