<?xml version="1.0" encoding="utf-8"?>
<!-- Generator: Adobe Illustrator 21.0.2, SVG Export Plug-In . SVG Version: 6.00 Build 0)  -->
<svg version="1.1" id="Layer_1" xmlns="http://www.w3.org/2000/svg" xmlns:xlink="http://www.w3.org/1999/xlink" x="0px" y="0px"
	 viewBox="0 0 20 20" style="enable-background:new 0 0 20 20;" xml:space="preserve">
<path class="st0" fill="#930D6E" d="M10,0v20c5.5,0,10-4.5,10-10S15.5,0,10,0z"/>
<path class="st1" fill="#ED6910" d="M0,10c0,5.5,4.5,10,10,10V0C4.5,0,0,4.5,0,10z"/>
<g>
	<path class="st2" fill="#FFFFFF" d="M14.5,15.4l-1.1-0.1c-0.1,0-1.2-0.1-2.2-0.7c-0.5-0.4-0.9-0.7-1.1-1.1c-0.3,0.4-0.6,0.8-1.1,1.1
		c-1,0.6-2.1,0.7-2.2,0.7l-1.1,0.1l0.5-1c0,0,0.4-0.7,1-1.2C5.7,12.7,4.7,12,4.7,12l-0.8-0.7L5,10.8c0,0,0.5-0.2,1.2-0.3
		c-0.8-1-1.1-2-1.1-2L4.8,7.4l1.1,0.3C6,7.7,7.3,8,8.4,9.1c0-0.2,0-0.4,0-0.5c0-2.2,1-3.9,1.1-3.9l0.5-1l0.5,1
		c0,0.1,1.1,1.8,1.1,3.9c0,0.2,0,0.4,0,0.5C12.7,8,14,7.7,14,7.7l1.1-0.3l-0.3,1.1c0,0-0.3,1.1-1.1,2.1c0.7,0.1,1.2,0.2,1.2,0.3
		l1.1,0.4L15.3,12c0,0-1,0.9-2.3,1.2c0.6,0.6,1,1.2,1,1.2L14.5,15.4z"/>
</g>
</svg>
