<?xml version="1.0" encoding="utf-8"?>
<!-- Generator: Adobe Illustrator 21.0.2, SVG Export Plug-In . SVG Version: 6.00 Build 0)  -->
<svg version="1.1" id="Layer_1" xmlns="http://www.w3.org/2000/svg" xmlns:xlink="http://www.w3.org/1999/xlink" x="0px" y="0px"
	 viewBox="0 0 20 20" style="enable-background:new 0 0 20 20;" xml:space="preserve">
<style type="text/css">
	.st0{fill:#F2CE08;}
	.st1{fill:#333333;}
</style>
<g>
	<g>
		<path class="st0" d="M10,0C4.5,0,0,4.5,0,10s4.5,10,10,10s10-4.5,10-10S15.5,0,10,0z"/>
	</g>
	<g>
		<path class="st1" d="M12.9,4.9c0.9,0.5,1.6,1.2,2.1,2.1c0.5,0.9,0.8,1.9,0.8,2.9c0,1.1-0.3,2-0.8,2.9c-0.5,0.9-1.2,1.6-2.1,2.1
			c-0.9,0.5-1.9,0.8-2.9,0.8c-1.1,0-2-0.3-2.9-0.8c-0.9-0.5-1.6-1.2-2.1-2.1C4.4,12,4.1,11.1,4.1,10c0-1.1,0.3-2,0.8-2.9
			c0.5-0.9,1.2-1.6,2.1-2.1C8,4.4,8.9,4.1,10,4.1C11.1,4.1,12,4.4,12.9,4.9z M12.4,14.1c0.7-0.4,1.3-1,1.7-1.7
			c0.4-0.7,0.6-1.5,0.6-2.4s-0.2-1.6-0.6-2.4c-0.4-0.7-1-1.3-1.7-1.7c-0.7-0.4-1.5-0.6-2.4-0.6S8.4,5.5,7.6,5.9
			c-0.7,0.4-1.3,1-1.7,1.7C5.5,8.4,5.3,9.1,5.3,10s0.2,1.6,0.6,2.4c0.4,0.7,1,1.3,1.7,1.7c0.7,0.4,1.5,0.6,2.4,0.6
			S11.6,14.5,12.4,14.1z M11.7,12.3c0.1,0,0.1-0.1,0.2-0.1l0.4-0.6c0-0.1,0.1-0.1,0.1-0.2c0-0.1,0-0.1-0.1-0.2L10.7,10V6.7
			c0-0.1,0-0.1-0.1-0.2c-0.1-0.1-0.1-0.1-0.2-0.1H9.6c-0.1,0-0.1,0-0.2,0.1C9.4,6.5,9.3,6.6,9.3,6.7v3.9c0,0.1,0,0.2,0.1,0.2l2,1.5
			C11.5,12.3,11.6,12.3,11.7,12.3z"/>
	</g>
</g>
</svg>
