<?xml version="1.0" encoding="utf-8"?>
<!-- Generator: Adobe Illustrator 21.0.2, SVG Export Plug-In . SVG Version: 6.00 Build 0)  -->
<svg version="1.1" id="Layer_1" xmlns="http://www.w3.org/2000/svg" xmlns:xlink="http://www.w3.org/1999/xlink" x="0px" y="0px"
	 viewBox="0 0 98.1 152.9" style="enable-background:new 0 0 98.1 152.9;" xml:space="preserve">
<style type="text/css">
	.st0{fill:#19AA9C;}
</style>
<g>
	<path class="st0" d="M49,0C21.9,0,0,21.9,0,49.2C0,56.4,1.5,62.9,4,69l42.3,82.1c1.2,2.3,4.2,2.3,5.4,0L94,69c2.7-6,4-12.7,4-19.8
		C98.1,21.9,76.2,0,49,0z M49,88.7c-21.9,0-39.8-17.9-39.8-39.8S27.1,9,49,9s39.8,17.9,39.8,39.8S71,88.7,49,88.7z"/>
	<path class="st0" d="M65.9,42.3H55.6V32c0-3.6-2.9-6.6-6.6-6.6s-6.6,2.9-6.6,6.6v10.3H32.1c-3.6,0-6.6,2.9-6.6,6.6s2.9,6.6,6.6,6.6
		h10.3v10.3c0,3.6,2.9,6.6,6.6,6.6s6.6-2.9,6.6-6.6V55.4h10.3c3.6,0,6.6-2.9,6.6-6.6S69.6,42.3,65.9,42.3z"/>
</g>
</svg>
