<?xml version="1.0" encoding="utf-8"?>
<!-- Generator: Adobe Illustrator 21.0.2, SVG Export Plug-In . SVG Version: 6.00 Build 0)  -->
<svg version="1.1" id="Layer_1" xmlns="http://www.w3.org/2000/svg" xmlns:xlink="http://www.w3.org/1999/xlink" x="0px" y="0px"
	 viewBox="0 0 20 20" style="enable-background:new 0 0 20 20;" xml:space="preserve">
<g>
	<circle class="st0" fill="#333333" cx="10" cy="10" r="10"/>
</g>
<g>
	<path class="st1" fill="#FFFFFF" d="M8.8,10c-0.2,0.5-0.2,0.9-0.1,1.4c0.1,0.5,0.4,1,0.4,1.5c0,0.5-0.2,1-0.5,1.3c-0.3,0.2-0.7,0.2-1.1,0
		c-0.4-0.2-0.7-0.5-0.9-1c-0.2-0.4-0.2-0.9-0.1-1.4c0.1-0.5,0.4-1.1,0.7-1.6c0.3-0.5,0.6-0.9,0.9-1.2c0.3-0.3,0.5-0.7,0.8-0.8
		C9.1,8,9.3,8,9.3,8.1c0.1,0.1,0.1,0.3,0,0.7C9.2,9.1,8.9,9.5,8.8,10z M10.3,4.3c-0.2-0.4-0.2-0.7-0.3-1.1C9.9,3.6,9.8,3.9,9.7,4.3
		C9.5,4.7,9.3,5.2,8.9,5.7C8.6,6.3,8.2,6.9,7.8,7.5L6.6,9c-0.3,0.4-0.5,0.7-0.7,1.1c-0.2,0.3-0.4,0.7-0.5,1.1
		c-0.1,0.4-0.2,0.8-0.2,1.2c0,0.4,0.1,0.8,0.2,1.3c0.1,0.4,0.3,0.8,0.6,1.2c0.3,0.4,0.6,0.7,1,1c0.4,0.3,0.8,0.5,1.1,0.6
		c0.4,0.1,0.8,0.2,1.1,0.3c0.3,0,0.5,0,0.8,0c0.2,0,0.5,0,0.8,0c0.3,0,0.7-0.1,1.1-0.3c0.4-0.1,0.8-0.3,1.1-0.6c0.4-0.3,0.7-0.6,1-1
		c0.3-0.4,0.5-0.8,0.6-1.2c0.1-0.4,0.2-0.8,0.2-1.3c0-0.4,0-0.8-0.2-1.2s-0.3-0.8-0.5-1.1c-0.2-0.3-0.4-0.6-0.7-1.1l-1.1-1.5
		c-0.4-0.6-0.8-1.2-1.2-1.7C10.7,5.2,10.5,4.7,10.3,4.3z"/>
</g>
</svg>
