<?xml version="1.0" encoding="utf-8"?>
<!-- Generator: Adobe Illustrator 21.0.2, SVG Export Plug-In . SVG Version: 6.00 Build 0)  -->
<svg version="1.1" id="Layer_1" xmlns="http://www.w3.org/2000/svg" xmlns:xlink="http://www.w3.org/1999/xlink" x="0px" y="0px"
	 viewBox="0 0 98.1 152.9" style="enable-background:new 0 0 98.1 152.9;" xml:space="preserve">
<style type="text/css">
	.st0{fill:#19AA9C;}
</style>
<path class="st0" d="M49,0C21.9,0,0,21.9,0,49.2C0,56.4,1.5,62.9,4,69l42.3,82.1c1.2,2.3,4.2,2.3,5.4,0L94,69c2.7-6,4-12.7,4-19.8
	C98.1,21.9,76.2,0,49,0z M49,88.7c-21.9,0-39.8-17.9-39.8-39.8S27.1,9,49,9s39.8,17.9,39.8,39.8S71,88.7,49,88.7z"/>
<g>
	<path class="st0" d="M34.6,58.7h11.6v5.8H27.3V33.1h7.3V58.7z"/>
	<path class="st0" d="M58.6,54.1v10.5h-7.3V33.1h11.1c2.2,0,4.1,0.3,5.7,0.8s2.9,1.2,3.9,2.2c1,0.9,1.8,2,2.3,3.3S75,42,75,43.5
		c0,1.6-0.3,3-0.8,4.3s-1.3,2.4-2.3,3.4c-1,0.9-2.3,1.7-3.9,2.2s-3.5,0.8-5.6,0.8L58.6,54.1L58.6,54.1z M58.6,48.6h3.8
		c1.9,0,3.3-0.5,4.1-1.4s1.3-2.2,1.3-3.8c0-0.7-0.1-1.4-0.3-2s-0.5-1.1-1-1.5c-0.4-0.4-1-0.8-1.7-1s-1.5-0.3-2.4-0.3h-3.8
		C58.6,38.6,58.6,48.6,58.6,48.6z"/>
</g>
</svg>
