<?xml version="1.0" encoding="utf-8"?>
<!-- Generator: Adobe Illustrator 21.0.2, SVG Export Plug-In . SVG Version: 6.00 Build 0)  -->
<svg version="1.1" id="Layer_1" xmlns="http://www.w3.org/2000/svg" xmlns:xlink="http://www.w3.org/1999/xlink" x="0px" y="0px"
	 viewBox="0 0 150 150" style="enable-background:new 0 0 150 150;" xml:space="preserve">
<style type="text/css">
	.st0{fill:#4495B9;}
	.st1{fill:#FFFFFF;}
	.st2{fill:#333333;}
</style>
<ellipse class="st0" cx="75" cy="75" rx="75" ry="75"/>
<g>
	<path class="st1" d="M69.6,63.8v50.4c0,0-0.1,2.4,1.5,4.7c1.6,2.4,2,4.4,2.1,6.1c0,1.8,0,6.8,0,6.8s1.5,0.8,3.9,0v-7.1
		c0,0-0.1-2.7,1.5-4.6c1.6-2,1.9-6,1.9-6V63.7"/>
	<path class="st2" d="M67.9,51.9c0,0-3.4,1.2-3.4,3.2s0,5,0,5s1.4,4.4,10.4,4.3s10.6-4,10.6-4V55c0,0-0.7-2.5-3.6-3.1"/>
	<path class="st2" d="M82,55.4v-32c0,0,0-5.7-7.1-5.7S68,23.6,68,23.6v31.8c0,0-0.1,2.6,7,2.6C82,58.1,82,55.4,82,55.4z"/>
</g>
</svg>
