<svg xmlns="http://www.w3.org/2000/svg" viewBox="0 0 72 72"><defs><style>.cls-1{fill:#ec6b27;}.cls-2{fill:#92116d;}.cls-3{fill:#fff;}</style></defs><title>Hybrid</title><g id="Layer_2" data-name="Layer 2"><g id="Categories"><path class="cls-1" d="M36,72A36,36,0,0,1,36,0Z"/><path class="cls-2" d="M36,72A36,36,0,0,0,36,0Z"/><path class="cls-3" d="M36,55.37a2.92,2.92,0,0,1-3-3V51.22c-3.45,1.29-6.31,1.05-9.75.19a1.63,1.63,0,0,1-1.12-1A1.65,1.65,0,0,1,22.22,49l.09-.15a20.73,20.73,0,0,1,1.37-2.08,20.24,20.24,0,0,1-7.11-5.85,1.65,1.65,0,0,1,.73-2.6,23.9,23.9,0,0,1,4.07-1.18,22.13,22.13,0,0,1-3.29-11.2,1.65,1.65,0,0,1,2.18-1.66A24.83,24.83,0,0,1,30,29.82a24.57,24.57,0,0,1,4.71-12.49,1.66,1.66,0,0,1,1.35-.7h0a1.66,1.66,0,0,1,1.35.73,26,26,0,0,1,4.62,12.45,24.29,24.29,0,0,1,9.68-5.57,1.65,1.65,0,0,1,2.18,1.66,23.28,23.28,0,0,1-3.21,11.19,20.63,20.63,0,0,1,4,1.2,1.65,1.65,0,0,1,1,1.11,1.67,1.67,0,0,1-.31,1.48,19.72,19.72,0,0,1-7.08,5.86c.39.49.73,1,1.09,1.51l.42.62a1.65,1.65,0,0,1-1,2.55c-3.55.85-6.37,1.07-9.88-.22v1.21A2.92,2.92,0,0,1,36,55.37ZM37.37,47a1.71,1.71,0,0,1,.76.19,11.52,11.52,0,0,0,7.55,1.5,8.43,8.43,0,0,0-1.24-1.21,1.63,1.63,0,0,1-.6-1.53,1.66,1.66,0,0,1,1-1.29,16.54,16.54,0,0,0,6.41-4.07,12.42,12.42,0,0,0-3.49-.41,1.65,1.65,0,0,1-1.34-2.62,19.33,19.33,0,0,0,3.92-9.28A19.19,19.19,0,0,0,41.88,35a1.65,1.65,0,0,1-3-1A23.31,23.31,0,0,0,36,21.38,21.59,21.59,0,0,0,33.24,34a1.67,1.67,0,0,1-1.08,1.63,1.65,1.65,0,0,1-1.88-.54,20,20,0,0,0-8.65-6.77,18.58,18.58,0,0,0,4,9.24,1.65,1.65,0,0,1-1.31,2.65,12.31,12.31,0,0,0-3.6.44,17.5,17.5,0,0,0,6.39,4.05,1.65,1.65,0,0,1,.41,2.81,7.73,7.73,0,0,0-1.22,1.2,11.21,11.21,0,0,0,7.51-1.48,1.64,1.64,0,0,1,1.62,0,1.59,1.59,0,0,1,.53.5,1.53,1.53,0,0,1,.52-.49A1.65,1.65,0,0,1,37.37,47Z"/></g></g></svg>