<?xml version="1.0" encoding="utf-8"?>
<!-- Generator: Adobe Illustrator 21.0.2, SVG Export Plug-In . SVG Version: 6.00 Build 0)  -->
<svg version="1.1" id="Layer_1" xmlns="http://www.w3.org/2000/svg" xmlns:xlink="http://www.w3.org/1999/xlink" x="0px" y="0px"
	 viewBox="0 0 150 150" style="enable-background:new 0 0 150 150;" xml:space="preserve">
<style type="text/css">
	.st0{fill:#4495B9;}
	.st1{fill:#DCE0E0;}
	.st2{fill:#333333;}
	.st3{fill:#FFFFFF;}
</style>
<ellipse class="st0" cx="75" cy="75" rx="75" ry="75"/>
<g>
	<path class="st1" d="M65.6,126.5H69c0.7-2.7,3.1-4.7,6-4.7s5.3,2,6,4.7h3.5c4,0,7.2-2.8,7.8-6.6H57.6
		C58.4,123.7,61.6,126.5,65.6,126.5z"/>
	<path class="st2" d="M75,121.8c-3.1,0-5.9,1.9-7.3,4.7h14.6C81.1,123.7,78.1,121.8,75,121.8z"/>
	<path class="st0" d="M75,75.2c7,0,12.8-5.8,12.8-12.8S82,49.6,75,49.6s-12.8,5.8-12.8,12.8S68,75.2,75,75.2z M70.7,61h3v-3.1
		c0-0.8,0.7-1.4,1.4-1.4s1.4,0.7,1.4,1.4V61h3c0.8,0,1.4,0.7,1.4,1.4c0,0.8-0.7,1.4-1.4,1.4h-3v3c0,0.8-0.7,1.4-1.4,1.4
		s-1.4-0.7-1.4-1.4v-3h-3c-0.8,0-1.4-0.7-1.4-1.4C69.2,61.7,69.9,61,70.7,61z"/>
	<rect x="57.5" y="113.3" class="st2" width="35" height="6.6"/>
	<path class="st2" d="M101.5,23.5h-6.1v1.4c0,0.8-0.7,1.4-1.4,1.4c-0.8,0-1.4-0.7-1.4-1.4v-1.4H86v1.4c0,0.8-0.7,1.4-1.4,1.4
		S83,25.7,83,24.9v-1.4h-6.6v1.4c0,0.8-0.7,1.4-1.4,1.4s-1.4-0.7-1.4-1.4v-1.4H67v1.4c0,0.8-0.7,1.4-1.4,1.4s-1.4-0.7-1.4-1.4v-1.4
		h-6.6v1.4c0,0.8-0.7,1.4-1.4,1.4s-1.4-0.7-1.4-1.4v-1.4h-6.1c-0.3,0-0.5,0.2-0.5,0.5v6.1h53.9V24C101.9,23.7,101.7,23.5,101.5,23.5
		z"/>
	<path class="st3" d="M57,110.3c0.2,1.7,1.6,2.9,3.3,2.9h29.3c1.7,0,3.1-1.2,3.3-2.9l8.9-80.2H48.3L57,110.3z M84.4,97.2H65.6
		c-0.8,0-1.4-0.7-1.4-1.4c0-0.8,0.7-1.4,1.4-1.4h18.9c0.8,0,1.4,0.7,1.4,1.4S85.2,97.2,84.4,97.2z M84.4,92.5H65.6
		c-0.8,0-1.4-0.7-1.4-1.4c0-0.8,0.7-1.4,1.4-1.4h18.9c0.8,0,1.4,0.7,1.4,1.4S85.2,92.5,84.4,92.5z M75,46.8c8.6,0,15.6,7,15.6,15.6
		S83.6,78,75,78s-15.6-7-15.6-15.6S66.4,46.8,75,46.8z"/>
	<path class="st0" d="M84.4,94.4H65.6c-0.8,0-1.4,0.7-1.4,1.4c0,0.8,0.7,1.4,1.4,1.4h18.9c0.8,0,1.4-0.7,1.4-1.4
		C85.9,95,85.2,94.4,84.4,94.4z"/>
	<path class="st0" d="M75,46.9c8.5,0,15.6,7,15.6,15.6C90.6,71,83.5,78,75,78s-15.6-7-15.6-15.6C59.4,53.9,66.5,46.9,75,46.9z"/>
	<path class="st3" d="M70.7,63.8h3v3c0,0.8,0.7,1.4,1.4,1.4s1.4-0.7,1.4-1.4v-3h3c0.8,0,1.4-0.7,1.4-1.4c0-0.8-0.7-1.4-1.4-1.4h-3
		v-3.1c0-0.8-0.7-1.4-1.4-1.4s-1.4,0.7-1.4,1.4V61h-3c-0.8,0-1.4,0.7-1.4,1.4C69.2,63.2,69.9,63.8,70.7,63.8z"/>
	<path class="st0" d="M84.4,89.6H65.6c-0.8,0-1.4,0.7-1.4,1.4c0,0.8,0.7,1.4,1.4,1.4h18.9c0.8,0,1.4-0.7,1.4-1.4
		C85.9,90.3,85.2,89.6,84.4,89.6z"/>
</g>
</svg>
