<svg xmlns="http://www.w3.org/2000/svg" viewBox="0 0 72 72"><defs><style>.cls-1{fill:#ec6b27;}.cls-2{fill:#fff;}</style></defs><title>Sativa</title><g id="Layer_2" data-name="Layer 2"><g id="Categories"><circle class="cls-1" cx="36" cy="36" r="36"/><path class="cls-2" d="M36,55.73a2.91,2.91,0,0,1-3-2.95V51.59c-3.42,1.29-6.26,1-9.66.19a1.65,1.65,0,0,1-1-2.45l.09-.16a20.65,20.65,0,0,1,1.36-2.08,20,20,0,0,1-7-5.85,1.63,1.63,0,0,1-.31-1.49,1.66,1.66,0,0,1,1-1.11,23.45,23.45,0,0,1,4-1.17,22.45,22.45,0,0,1-3.26-11.21,1.67,1.67,0,0,1,.65-1.4,1.6,1.6,0,0,1,1.52-.25,24.77,24.77,0,0,1,9.67,5.57A24.53,24.53,0,0,1,34.73,17.7a1.64,1.64,0,0,1,1.34-.7h0a1.64,1.64,0,0,1,1.34.73A26.1,26.1,0,0,1,42,30.17a23.92,23.92,0,0,1,9.6-5.56,1.6,1.6,0,0,1,1.52.25,1.67,1.67,0,0,1,.65,1.4,23.41,23.41,0,0,1-3.19,11.2,20.12,20.12,0,0,1,4,1.19,1.65,1.65,0,0,1,.69,2.59,19.59,19.59,0,0,1-7,5.87c.39.49.72,1,1.08,1.51.14.19.27.4.42.61a1.67,1.67,0,0,1,.19,1.53,1.64,1.64,0,0,1-1.15,1c-3.52.86-6.31,1.08-9.79-.22v1.22A2.91,2.91,0,0,1,36,55.73ZM37.37,47a1.71,1.71,0,0,1,.76.19,11.52,11.52,0,0,0,7.55,1.5,8.43,8.43,0,0,0-1.24-1.21,1.63,1.63,0,0,1-.6-1.53,1.66,1.66,0,0,1,1-1.29,16.54,16.54,0,0,0,6.41-4.07,12.42,12.42,0,0,0-3.49-.41,1.65,1.65,0,0,1-1.34-2.62,19.33,19.33,0,0,0,3.92-9.28A19.19,19.19,0,0,0,41.88,35a1.65,1.65,0,0,1-3-1A23.31,23.31,0,0,0,36,21.38,21.59,21.59,0,0,0,33.24,34a1.67,1.67,0,0,1-1.08,1.63,1.65,1.65,0,0,1-1.88-.54,20,20,0,0,0-8.65-6.77,18.58,18.58,0,0,0,4,9.24,1.65,1.65,0,0,1-1.31,2.65,12.31,12.31,0,0,0-3.6.44,17.5,17.5,0,0,0,6.39,4.05,1.65,1.65,0,0,1,.41,2.81,7.73,7.73,0,0,0-1.22,1.2,11.21,11.21,0,0,0,7.51-1.48,1.64,1.64,0,0,1,1.62,0,1.59,1.59,0,0,1,.53.5,1.53,1.53,0,0,1,.52-.49A1.65,1.65,0,0,1,37.37,47Z"/></g></g></svg>