<?xml version="1.0" encoding="utf-8"?>
<!-- Generator: Adobe Illustrator 21.0.2, SVG Export Plug-In . SVG Version: 6.00 Build 0)  -->
<svg version="1.1" id="Layer_1" xmlns="http://www.w3.org/2000/svg" xmlns:xlink="http://www.w3.org/1999/xlink" x="0px" y="0px"
	 viewBox="0 0 300 300" style="enable-background:new 0 0 300 300;" xml:space="preserve">
<style type="text/css">
	.st0{fill:#4596BA;}
</style>
<g>
	<path color-rendering="auto" shape-rendering="auto" image-rendering="auto" class="st0" d="M149.8,128.4
		c-5.9,0.1-10.6,5-10.5,10.9v75c-0.1,5.9,4.6,10.8,10.6,10.9c5.9,0.1,10.8-4.6,10.9-10.6c0-0.1,0-0.2,0-0.3v-75
		c0.1-5.9-4.6-10.8-10.6-10.9C150,128.4,149.9,128.4,149.8,128.4L149.8,128.4z"/>
	<circle class="st0" cx="150" cy="85.7" r="10.7"/>
	<path color-rendering="auto" shape-rendering="auto" image-rendering="auto" class="st0" d="M150,0C67.3,0,0,67.3,0,150
		s67.3,150,150,150s150-67.3,150-150S232.7,0,150,0z M150,21.4c71.1,0,128.6,57.4,128.6,128.6S221.1,278.6,150,278.6
		S21.4,221.1,21.4,150S78.9,21.4,150,21.4z"/>
</g>
</svg>
