<?xml version="1.0" encoding="UTF-8"?>
<svg width="41px" height="43px" viewBox="0 0 41 43" version="1.1" xmlns="http://www.w3.org/2000/svg" xmlns:xlink="http://www.w3.org/1999/xlink">
    <!-- Generator: Sketch 50.2 (55047) - http://www.bohemiancoding.com/sketch -->
    <title>Insomnia</title>
    <desc>Created with Sketch.</desc>
    <defs></defs>
    <g id="Page-1" stroke="none" stroke-width="1" fill="none" fill-rule="evenodd">
        <g id="Recommender-treat-unselected" transform="translate(-679.000000, -252.000000)" fill="#3F97BE">
            <g id="Body" transform="translate(115.000000, 140.000000)">
                <g id="insomnia" transform="translate(484.000000, 76.000000)">
                    <g id="Copy" transform="translate(19.000000, 36.000000)">
                        <g id="Insomnia" transform="translate(61.000000, 0.000000)">
                            <path d="M14.0113279,7.84445417 C7.72385735,10.2297597 3.31635735,16.3148569 3.31635735,23.1966486 C3.31635735,32.2523292 10.7542397,39.6202597 19.8972397,39.6202597 C26.4023721,39.6202597 32.2611515,35.7741486 34.9388132,30.0987458 C33.0684897,30.8076486 31.0817985,31.1737458 29.0559162,31.1737458 C19.9135191,31.1737458 12.4750338,23.8064125 12.4750338,14.7501347 C12.4750338,12.3546764 13.0080338,9.9926625 14.0113279,7.84445417 M19.8972397,42.6063708 C9.09193088,42.6063708 0.301651471,33.8994681 0.301651471,23.1966486 C0.301651471,13.6416903 7.49232794,5.38688472 17.0278426,3.9941625 C17.6446515,3.90637083 18.2463868,4.19602361 18.5550926,4.72695417 C18.8631956,5.25907917 18.8125485,5.92319028 18.4260632,6.40275972 C16.5050926,8.78687083 15.4897397,11.6732458 15.4897397,14.7501347 C15.4897397,22.1598708 21.575225,28.1876347 29.0559162,28.1876347 C31.7866368,28.1876347 34.4341515,27.3712319 36.7102544,25.8256208 C37.2209456,25.4786347 37.8926221,25.4774403 38.405725,25.8202458 C38.918225,26.1624542 39.1678426,26.7805792 39.0345926,27.3789958 C37.0708132,36.2023569 29.0221515,42.6063708 19.8972397,42.6063708" id="Fill-1"></path>
                            <path d="M29.6857485,23.4218611 L23.2023221,23.4218611 C22.6283221,23.4218611 22.1049691,23.0999583 21.8505279,22.5905278 C21.5966897,22.0816944 21.6563809,21.4737222 22.0042779,21.0222222 L26.6613956,14.9843056 L23.2143809,14.9843056 C22.3817191,14.9843056 21.7070279,14.3160139 21.7070279,13.49125 C21.7070279,12.6664861 22.3817191,11.9981944 23.2143809,11.9981944 L29.7104691,11.9981944 C30.2838662,11.9981944 30.8072191,12.3200972 31.0616603,12.8295278 C31.3154985,13.3383611 31.2558074,13.9463333 30.9079103,14.3978333 L26.2507926,20.43575 L29.6857485,20.43575 C30.5184103,20.43575 31.1931015,21.1040417 31.1931015,21.9288056 C31.1931015,22.7535694 30.5184103,23.4218611 29.6857485,23.4218611" id="Fill-3"></path>
                            <path d="M39.3313,16.6570056 L34.5945941,16.6570056 C34.0205941,16.6570056 33.4972412,16.3351028 33.2428,15.8256722 C32.9889618,15.3168389 33.0486529,14.7088667 33.39655,14.2573667 L36.3003147,10.493075 L34.6030353,10.493075 C33.7703735,10.493075 33.0956824,9.82478333 33.0956824,9.00001944 C33.0956824,8.17525556 33.7703735,7.50696389 34.6030353,7.50696389 L39.3487853,7.50696389 C39.9221824,7.50696389 40.4461382,7.82886667 40.7005794,8.3377 C40.9544176,8.84713056 40.8947265,9.45450556 40.5468294,9.90600556 L37.6430647,13.6708944 L39.3313,13.6708944 C40.1639618,13.6708944 40.8386529,14.3391861 40.8386529,15.16395 C40.8386529,15.9887139 40.1639618,16.6570056 39.3313,16.6570056" id="Fill-5"></path>
                            <path d="M28.9585412,8.13315139 L25.0032471,8.13315139 C24.42985,8.13315139 23.9064971,7.81124861 23.6520559,7.30181806 C23.3976147,6.79298472 23.4573059,6.1850125 23.8058059,5.7335125 L25.9245412,2.98629028 L25.0104824,2.98629028 C24.1778206,2.98629028 23.5031294,2.31799861 23.5031294,1.49323472 C23.5031294,0.668470833 24.1778206,0.000179166667 25.0104824,0.000179166667 L28.9730118,0.000179166667 C29.5470118,0.000179166667 30.0703647,0.322081944 30.3248059,0.830915278 C30.5786441,1.34034583 30.5189529,1.94831806 30.1710559,2.39922083 L28.0517176,5.14704028 L28.9585412,5.14704028 C29.7912029,5.14704028 30.4658941,5.81533194 30.4658941,6.64009583 C30.4658941,7.46485972 29.7912029,8.13315139 28.9585412,8.13315139" id="Fill-7"></path>
                        </g>
                    </g>
                </g>
            </g>
        </g>
    </g>
</svg>