<svg xmlns="http://www.w3.org/2000/svg" width="30" height="30" viewBox="0 0 30 30">
    <path fill="#FFF" fill-rule="evenodd" d="M15 30C6.716 30 0 23.284 0 15 0 6.716 6.716 0 15 0c8.284 0 15 6.716 15 15 0 8.284-6.716 15-15 15zm4.45-18.544a.8.8 0 0 0-.799-.809.8.8 0 0 0-.813.81.8.8 0 0 0 .805.801.799.799 0 0 0 .806-.802zm-4.403 5.794c-1.213-.002-2.2-1.005-2.2-2.233a2.222 2.222 0 0 1 2.232-2.217c1.227 0 2.217.998 2.217 2.233s-1 2.218-2.249 2.217zm.023-5.665a3.438 3.438 0 0 0-3.44 3.445 3.439 3.439 0 0 0 3.432 3.436 3.44 3.44 0 0 0 3.45-3.436 3.439 3.439 0 0 0-3.442-3.445zm5.364 6.806c-.178 1.171-.957 1.897-2.135 2.026-1.082.118-5.916.183-6.92-.097-.96-.268-1.51-.929-1.669-1.896-.153-.923-.19-5.537-.002-6.771.177-1.163.954-1.887 2.126-2.019 1.188-.133 5.467-.147 6.605.028 1.17.178 1.895.958 2.023 2.139.12 1.102.154 5.406-.028 6.59zm1.236-6.706c-.09-.884-.429-1.664-1.085-2.29-.69-.659-1.535-.95-2.46-.999-1.578-.086-5.322-.141-6.638.074C9.985 8.714 9 9.592 8.584 11.075c-.319 1.142-.256 6.404-.069 7.534.254 1.543 1.166 2.532 2.695 2.926 1.06.273 6.261.238 7.43.049 1.542-.25 2.537-1.157 2.937-2.683.308-1.172.2-6.16.093-7.216z"/>
</svg>
