<?xml version="1.0" encoding="UTF-8"?>
<svg width="34px" height="35px" viewBox="0 0 34 35" version="1.1" xmlns="http://www.w3.org/2000/svg" xmlns:xlink="http://www.w3.org/1999/xlink">
    <!-- Generator: Sketch 50 (54983) - http://www.bohemiancoding.com/sketch -->
    <title>Stroke-Icon-Joint</title>
    <desc>Created with Sketch.</desc>
    <defs></defs>
    <g id="Page-1" stroke="none" stroke-width="1" fill="none" fill-rule="evenodd">
        <g id="Review-Consumption" transform="translate(-773.000000, -730.000000)" fill="#FFFFFF" fill-rule="nonzero">
            <g id="Form" transform="translate(758.000000, 133.000000)">
                <g id="Method" transform="translate(1.000000, 474.000000)">
                    <g id="Joint" transform="translate(0.000000, 113.000000)">
                        <g id="Stroke-Icon-Joint" transform="translate(14.000000, 10.000000)">
                            <path d="M29.7925119,23.0118887 L1.30806742,25.2003394 C0.570181985,25.2578767 0.000300576678,25.8816834 1.18637894e-05,26.6321704 L1.18637894e-05,29.9842831 C-0.00297123082,30.7298387 0.556954879,31.3538084 1.28917853,31.4209028 L29.7169563,34.0547056 C29.8365859,34.0547056 29.9546415,34.0547056 30.071123,34.0547056 C31.1135134,34.0559784 32.1135711,33.6366218 32.8506529,32.8891585 C33.5877348,32.1416952 34.001267,31.1275522 34.0000119,30.0704803 L34.0000119,26.9673817 C34.0019619,25.862559 33.5487177,24.8071358 32.7497475,24.0560197 C31.9507774,23.3049037 30.8787241,22.9263866 29.7925119,23.0118887 Z M2.8333452,27.963438 L24.7916785,26.2778042 L24.7916785,30.7025929 L2.8333452,28.6721704 L2.8333452,27.963438 Z M31.1666785,30.0704803 C31.1669339,30.3816939 31.0384566,30.6787478 30.8125119,30.8893535 C30.5855726,31.1019748 30.2792005,31.2049554 29.9719563,31.1718887 L27.6108452,30.9563958 L27.6108452,26.0575225 L29.9719563,25.8755507 C30.2773412,25.8413822 30.5825737,25.9411452 30.8108073,26.1497229 C31.0390409,26.3583007 31.1685317,26.655822 31.1666785,26.9673817 L31.1666785,30.0704803 Z" id="Shape"></path>
                            <path d="M18.6527778,17.2394366 L23.8472222,17.2394366 C24.6296256,17.2394366 25.2638889,17.8826332 25.2638889,18.6760563 C25.2638889,19.4694795 25.8981522,20.1126761 26.6805556,20.1126761 C27.462959,20.1126761 28.0972222,19.4694795 28.0972222,18.6760563 C28.0972222,16.2957869 26.1944324,14.3661972 23.8472222,14.3661972 L18.6527778,14.3661972 C16.8271699,14.3661971 15.3472223,12.8654052 15.3472223,11.0140845 C15.3472223,9.16276382 16.8271699,7.66197187 18.6527778,7.66197183 L19.3611111,7.66197183 C20.1435145,7.66197181 20.7777777,7.01877526 20.7777777,6.22535211 C20.7777777,5.43192896 20.1435145,4.78873241 19.3611111,4.78873239 L18.6527778,4.78873239 C15.2623631,4.78873239 12.5138889,7.57591747 12.5138889,11.0140845 C12.5138889,14.4522515 15.2623631,17.2394366 18.6527778,17.2394366 Z" id="Shape"></path>
                            <path d="M29.9294444,9.68760563 C30.7347965,8.62674501 31.1699736,7.3247227 31.1666667,5.98591549 C31.2113689,2.73218679 28.6517226,0.0551059101 25.4433333,0 L24.5555556,0 C23.7731522,1.18229263e-08 23.1388889,0.643196565 23.1388889,1.43661972 C23.1388889,2.23004287 23.7731522,2.87323942 24.5555556,2.87323944 L25.4622222,2.87323944 C27.0984343,2.93818754 28.3785625,4.32602112 28.3333333,5.98591549 C28.378385,7.6530139 27.0870099,9.04389009 25.4433333,9.09859155 L24.0833333,9.09859155 C23.30093,9.09859157 22.6666667,9.74178812 22.6666667,10.5352113 C22.6666667,11.3286344 23.30093,11.971831 24.0833333,11.971831 L27.2,11.971831 C29.4026916,11.9876481 31.1771368,13.8085073 31.1666667,16.0422535 L31.1666667,18.6760563 C31.1666667,19.4694795 31.8009299,20.1126761 32.5833333,20.1126761 C33.3657367,20.1126761 34,19.4694795 34,18.6760563 L34,16.0422535 C34.0005098,13.2944827 32.405277,10.8041241 29.9294444,9.68760563 Z" id="Shape"></path>
                        </g>
                    </g>
                </g>
            </g>
        </g>
    </g>
</svg>