<?xml version="1.0" encoding="utf-8"?>
<!-- Generator: Adobe Illustrator 21.0.2, SVG Export Plug-In . SVG Version: 6.00 Build 0)  -->
<svg version="1.1" id="Layer_1" xmlns="http://www.w3.org/2000/svg" xmlns:xlink="http://www.w3.org/1999/xlink" x="0px" y="0px"
	 viewBox="0 0 50 50" style="enable-background:new 0 0 50 50;" xml:space="preserve">
<style type="text/css">
	.st0{fill:#F2CE08;}
</style>
<g>
	<g>
		<g>
			<g>
				<g>
					<path class="st0" d="M17,5.5c-0.7-0.3-1.3-1-1.5-1.7c0.7-0.3,1.5-0.3,2.3,0c0.7,0.3,1.3,1,1.5,1.7C18.6,5.8,17.8,5.8,17,5.5z"
						/>
					<path class="st0" d="M17.2,2.3c-0.3,0.7-1,1.3-1.7,1.5c-0.3-0.7-0.3-1.5,0-2.3c0.3-0.7,1-1.3,1.7-1.5
						C17.6,0.7,17.6,1.5,17.2,2.3z"/>
				</g>
				<g>
					<path class="st0" d="M14,7c-0.8-0.2-1.4-0.8-1.8-1.4c0.6-0.4,1.4-0.6,2.2-0.4c0.8,0.2,1.4,0.8,1.8,1.4C15.6,7.1,14.8,7.2,14,7z
						"/>
					<path class="st0" d="M13.7,3.8c-0.2,0.8-0.8,1.4-1.4,1.8c-0.4-0.6-0.6-1.4-0.4-2.2c0.2-0.8,0.8-1.4,1.4-1.8
						C13.8,2.2,13.9,3,13.7,3.8z"/>
				</g>
				<g>
					<path class="st0" d="M11.4,9c-0.8-0.1-1.5-0.5-2-1.1c0.6-0.5,1.3-0.8,2.1-0.7c0.8,0.1,1.5,0.5,2,1.1C13,8.8,12.2,9.1,11.4,9z"
						/>
					<path class="st0" d="M10.5,5.9c-0.1,0.8-0.5,1.5-1.1,2C8.9,7.3,8.6,6.6,8.6,5.7c0.1-0.8,0.5-1.5,1.1-2
						C10.3,4.3,10.6,5.1,10.5,5.9z"/>
				</g>
				<g>
					<path class="st0" d="M9.1,11.4c-0.8,0.1-1.6-0.2-2.1-0.7c0.5-0.6,1.2-1,2-1.1c0.8-0.1,1.6,0.2,2.1,0.7
						C10.6,10.9,9.9,11.4,9.1,11.4z"/>
					<path class="st0" d="M7.7,8.5c0.1,0.8-0.2,1.6-0.7,2.1c-0.6-0.5-1-1.2-1.1-2C5.8,7.9,6.1,7.1,6.6,6.5C7.2,7,7.6,7.7,7.7,8.5z"
						/>
				</g>
				<g>
					<path class="st0" d="M7.3,14.2c-0.8,0.2-1.6,0.1-2.2-0.4c0.3-0.7,1-1.2,1.8-1.4c0.8-0.2,1.6-0.1,2.2,0.4
						C8.7,13.5,8.1,14,7.3,14.2z"/>
					<path class="st0" d="M5.4,11.6c0.2,0.8,0.1,1.6-0.4,2.2c-0.7-0.3-1.2-1-1.4-1.8C3.4,11.3,3.5,10.5,4,9.9
						C4.6,10.2,5.2,10.8,5.4,11.6z"/>
				</g>
				<g>
					<path class="st0" d="M6,17.3c-0.7,0.3-1.6,0.3-2.3,0c0.2-0.7,0.7-1.4,1.5-1.7c0.7-0.3,1.6-0.3,2.3,0C7.2,16.3,6.7,17,6,17.3z"
						/>
					<path class="st0" d="M3.7,15.1c0.3,0.7,0.3,1.6,0,2.3C3,17.1,2.3,16.6,2,15.8c-0.3-0.7-0.3-1.6,0-2.3
						C2.7,13.8,3.3,14.3,3.7,15.1z"/>
				</g>
				<g>
					<path class="st0" d="M5.2,20.6C4.5,21,3.7,21.2,3,21c0.1-0.8,0.5-1.5,1.2-2c0.7-0.5,1.5-0.6,2.2-0.4
						C6.3,19.4,5.9,20.1,5.2,20.6z"/>
					<path class="st0" d="M2.5,18.8C3,19.4,3.2,20.2,3,21c-0.8-0.1-1.5-0.5-2-1.2c-0.5-0.7-0.6-1.5-0.4-2.2
						C1.4,17.7,2.1,18.1,2.5,18.8z"/>
				</g>
				<g>
					<path class="st0" d="M5,23.9c-0.6,0.6-1.4,0.9-2.1,0.8c0-0.8,0.2-1.5,0.8-2.1c0.6-0.6,1.4-0.9,2.1-0.8
						C5.9,22.5,5.6,23.3,5,23.9z"/>
					<path class="st0" d="M2.1,22.6c0.6,0.6,0.9,1.4,0.8,2.1c-0.8,0-1.5-0.2-2.1-0.8c-0.6-0.6-0.9-1.4-0.8-2.1
						C0.7,21.7,1.5,22,2.1,22.6z"/>
				</g>
				<g>
					<path class="st0" d="M5.4,27.2c-0.5,0.7-1.2,1.1-2,1.2c-0.2-0.7,0-1.6,0.4-2.2s1.2-1.1,2-1.2C6,25.7,5.9,26.5,5.4,27.2z"/>
					<path class="st0" d="M2.3,26.4c0.7,0.5,1.1,1.2,1.2,2c-0.7,0.2-1.6,0-2.2-0.4s-1.1-1.2-1.2-2C0.8,25.8,1.6,25.9,2.3,26.4z"/>
				</g>
				<g>
					<path class="st0" d="M6.4,30.4c-0.3,0.7-1,1.3-1.7,1.5c-0.3-0.7-0.3-1.5,0-2.3c0.3-0.7,1-1.3,1.7-1.5
						C6.7,28.8,6.7,29.6,6.4,30.4z"/>
					<path class="st0" d="M3.2,30.1c0.7,0.3,1.3,1,1.5,1.7c-0.7,0.3-1.5,0.3-2.3,0c-0.7-0.3-1.3-1-1.5-1.7
						C1.6,29.8,2.4,29.8,3.2,30.1z"/>
				</g>
				<g>
					<path class="st0" d="M7.9,33.3c-0.2,0.8-0.8,1.4-1.4,1.8c-0.4-0.6-0.6-1.4-0.4-2.2c0.2-0.8,0.8-1.4,1.4-1.8
						C8,31.7,8.1,32.5,7.9,33.3z"/>
					<path class="st0" d="M4.7,33.7c0.8,0.2,1.4,0.8,1.8,1.4c-0.6,0.4-1.4,0.6-2.2,0.4c-0.8-0.2-1.4-0.8-1.8-1.4
						C3.1,33.6,3.9,33.5,4.7,33.7z"/>
				</g>
				<g>
					<path class="st0" d="M9.9,36c-0.1,0.8-0.5,1.5-1.1,2C8.3,37.4,8,36.7,8,35.8c0.1-0.8,0.5-1.5,1.1-2C9.7,34.4,10,35.2,9.9,36z"
						/>
					<path class="st0" d="M6.8,36.9c0.8,0.1,1.5,0.5,2,1.1c-0.6,0.5-1.3,0.8-2.1,0.7c-0.8-0.1-1.5-0.5-2-1.1
						C5.2,37.1,6,36.8,6.8,36.9z"/>
				</g>
				<g>
					<path class="st0" d="M12.3,38.3c0.1,0.8-0.2,1.6-0.7,2.1c-0.6-0.5-1-1.2-1.1-2c-0.1-0.8,0.2-1.6,0.7-2.1
						C11.8,36.7,12.3,37.4,12.3,38.3z"/>
					<path class="st0" d="M9.4,39.7c0.8-0.1,1.6,0.2,2.1,0.7c-0.5,0.6-1.2,1-2,1.1c-0.8,0.1-1.6-0.2-2.1-0.7
						C7.9,40.2,8.6,39.7,9.4,39.7z"/>
				</g>
				<g>
					<path class="st0" d="M15.1,40.1c0.2,0.8,0.1,1.6-0.4,2.2c-0.7-0.3-1.2-1-1.4-1.8c-0.2-0.8-0.1-1.6,0.4-2.2
						C14.4,38.7,14.9,39.3,15.1,40.1z"/>
					<path class="st0" d="M12.5,42c0.8-0.2,1.6-0.1,2.2,0.4c-0.3,0.7-1,1.2-1.8,1.4c-0.8,0.2-1.6,0.1-2.2-0.4
						C11.1,42.7,11.7,42.2,12.5,42z"/>
				</g>
				<g>
					<path class="st0" d="M18.2,41.4c0.3,0.7,0.3,1.6,0,2.3c-0.7-0.2-1.4-0.7-1.7-1.5c-0.3-0.7-0.3-1.6,0-2.3
						C17.2,40.1,17.9,40.6,18.2,41.4z"/>
					<path class="st0" d="M16,43.7c0.7-0.3,1.6-0.3,2.3,0c-0.2,0.7-0.7,1.4-1.5,1.7s-1.6,0.3-2.3,0C14.7,44.7,15.2,44.1,16,43.7z"/>
				</g>
			</g>
			<path class="st0" d="M20.9,2.8C20.1,3,19.3,3,18.6,2.6c0.3-0.7,0.9-1.3,1.6-1.6c0.8-0.3,1.6-0.2,2.3,0.2
				C22.3,1.9,21.7,2.5,20.9,2.8z"/>
		</g>
		<path class="st0" d="M28.1,50c-3.8-3.8-7.3-5.2-9.9-6.1c-0.3-0.1-0.5-0.2-0.7-0.2C8.6,40.5,2.7,32.3,2.7,23.2
			C2.7,13,10.2,4,20.6,2l0.1,0.3C10.4,4.3,3,13.1,3,23.2c0,9,5.9,17,14.6,20.1c0.2,0.1,0.4,0.2,0.7,0.2c2.6,0.9,7.3,2.4,11.2,6.2
			L28.1,50z"/>
	</g>
	<g>
		<g>
			<g>
				<g>
					<path class="st0" d="M33,5.5c0.7-0.3,1.3-1,1.5-1.7c-0.7-0.3-1.5-0.3-2.3,0c-0.7,0.3-1.3,1-1.5,1.7C31.4,5.8,32.2,5.8,33,5.5z"
						/>
					<path class="st0" d="M32.8,2.3c0.3,0.7,1,1.3,1.7,1.5c0.3-0.7,0.3-1.5,0-2.3c-0.3-0.7-1-1.3-1.7-1.5
						C32.4,0.7,32.4,1.5,32.8,2.3z"/>
				</g>
				<g>
					<path class="st0" d="M36,7c0.8-0.2,1.4-0.8,1.8-1.4c-0.6-0.4-1.4-0.6-2.2-0.4c-0.8,0.2-1.4,0.8-1.8,1.4C34.4,7.1,35.2,7.2,36,7
						z"/>
					<path class="st0" d="M36.3,3.8c0.2,0.8,0.8,1.4,1.4,1.8c0.4-0.6,0.6-1.4,0.4-2.2c-0.2-0.8-0.8-1.4-1.4-1.8
						C36.2,2.2,36.1,3,36.3,3.8z"/>
				</g>
				<g>
					<path class="st0" d="M38.6,9c0.8-0.1,1.5-0.5,2-1.1c-0.6-0.5-1.3-0.8-2.1-0.7c-0.8,0.1-1.5,0.5-2,1.1C37,8.8,37.8,9.1,38.6,9z"
						/>
					<path class="st0" d="M39.5,5.9c0.1,0.8,0.5,1.5,1.1,2c0.5-0.6,0.8-1.3,0.7-2.1c-0.1-0.8-0.5-1.5-1.1-2
						C39.7,4.3,39.4,5.1,39.5,5.9z"/>
				</g>
				<g>
					<path class="st0" d="M40.9,11.4c0.8,0.1,1.6-0.2,2.1-0.7c-0.5-0.6-1.2-1-2-1.1c-0.8-0.1-1.6,0.2-2.1,0.7
						C39.4,10.9,40.1,11.4,40.9,11.4z"/>
					<path class="st0" d="M42.3,8.5c-0.1,0.8,0.2,1.6,0.7,2.1c0.6-0.5,1-1.2,1.1-2c0.1-0.8-0.2-1.6-0.7-2.1
						C42.8,7,42.4,7.7,42.3,8.5z"/>
				</g>
				<g>
					<path class="st0" d="M42.7,14.2c0.8,0.2,1.6,0.1,2.2-0.4c-0.3-0.7-1-1.2-1.8-1.4c-0.8-0.2-1.6-0.1-2.2,0.4
						C41.3,13.5,41.9,14,42.7,14.2z"/>
					<path class="st0" d="M44.6,11.6c-0.2,0.8-0.1,1.6,0.4,2.2c0.7-0.3,1.2-1,1.4-1.8c0.2-0.8,0.1-1.6-0.4-2.2
						C45.4,10.2,44.8,10.8,44.6,11.6z"/>
				</g>
				<g>
					<path class="st0" d="M44,17.3c0.7,0.3,1.6,0.3,2.3,0c-0.2-0.7-0.7-1.4-1.5-1.7c-0.7-0.3-1.6-0.3-2.3,0
						C42.8,16.3,43.3,17,44,17.3z"/>
					<path class="st0" d="M46.3,15.1c-0.3,0.7-0.3,1.6,0,2.3c0.7-0.2,1.4-0.7,1.7-1.5c0.3-0.7,0.3-1.6,0-2.3
						C47.3,13.8,46.7,14.3,46.3,15.1z"/>
				</g>
				<g>
					<path class="st0" d="M44.8,20.6c0.7,0.5,1.5,0.6,2.2,0.4c-0.1-0.8-0.5-1.5-1.2-2c-0.7-0.5-1.5-0.6-2.2-0.4
						C43.7,19.4,44.1,20.1,44.8,20.6z"/>
					<path class="st0" d="M47.5,18.8C47,19.4,46.8,20.2,47,21c0.8-0.1,1.5-0.5,2-1.2c0.5-0.7,0.6-1.5,0.4-2.2
						C48.6,17.7,47.9,18.1,47.5,18.8z"/>
				</g>
				<g>
					<path class="st0" d="M45,23.9c0.6,0.6,1.4,0.9,2.1,0.8c0-0.8-0.2-1.5-0.8-2.1c-0.6-0.6-1.4-0.9-2.1-0.8
						C44.1,22.5,44.4,23.3,45,23.9z"/>
					<path class="st0" d="M47.9,22.6c-0.6,0.6-0.9,1.4-0.8,2.1c0.8,0,1.5-0.2,2.1-0.8c0.6-0.6,0.9-1.4,0.8-2.1
						C49.3,21.7,48.5,22,47.9,22.6z"/>
				</g>
				<g>
					<path class="st0" d="M44.6,27.2c0.5,0.7,1.2,1.1,2,1.2c0.2-0.7,0-1.6-0.4-2.2c-0.5-0.7-1.2-1.1-2-1.2
						C44,25.7,44.1,26.5,44.6,27.2z"/>
					<path class="st0" d="M47.7,26.4c-0.7,0.5-1.1,1.2-1.2,2c0.7,0.2,1.6,0,2.2-0.4c0.7-0.5,1.1-1.2,1.2-2
						C49.2,25.8,48.4,25.9,47.7,26.4z"/>
				</g>
				<g>
					<path class="st0" d="M43.6,30.4c0.3,0.7,1,1.3,1.7,1.5c0.3-0.7,0.3-1.5,0-2.3c-0.3-0.7-1-1.3-1.7-1.5
						C43.3,28.8,43.3,29.6,43.6,30.4z"/>
					<path class="st0" d="M46.8,30.1c-0.7,0.3-1.3,1-1.5,1.7c0.7,0.3,1.5,0.3,2.3,0c0.7-0.3,1.3-1,1.5-1.7
						C48.4,29.8,47.6,29.8,46.8,30.1z"/>
				</g>
				<g>
					<path class="st0" d="M42.1,33.3c0.2,0.8,0.8,1.4,1.4,1.8c0.4-0.6,0.6-1.4,0.4-2.2c-0.2-0.8-0.8-1.4-1.4-1.8
						C42,31.7,41.9,32.5,42.1,33.3z"/>
					<path class="st0" d="M45.3,33.7c-0.8,0.2-1.4,0.8-1.8,1.4c0.6,0.4,1.4,0.6,2.2,0.4c0.8-0.2,1.4-0.8,1.8-1.4
						C46.9,33.6,46.1,33.5,45.3,33.7z"/>
				</g>
				<g>
					<path class="st0" d="M40.1,36c0.1,0.8,0.5,1.5,1.1,2c0.5-0.6,0.8-1.3,0.7-2.1c-0.1-0.8-0.5-1.5-1.1-2
						C40.3,34.4,40,35.2,40.1,36z"/>
					<path class="st0" d="M43.2,36.9c-0.8,0.1-1.5,0.5-2,1.1c0.6,0.5,1.3,0.8,2.1,0.7c0.8-0.1,1.5-0.5,2-1.1
						C44.8,37.1,44,36.8,43.2,36.9z"/>
				</g>
				<g>
					<path class="st0" d="M37.7,38.3c-0.1,0.8,0.2,1.6,0.7,2.1c0.6-0.5,1-1.2,1.1-2c0.1-0.8-0.2-1.6-0.7-2.1
						C38.2,36.7,37.7,37.4,37.7,38.3z"/>
					<path class="st0" d="M40.6,39.7c-0.8-0.1-1.6,0.2-2.1,0.7c0.5,0.6,1.2,1,2,1.1c0.8,0.1,1.6-0.2,2.1-0.7
						C42.1,40.2,41.4,39.7,40.6,39.7z"/>
				</g>
				<g>
					<path class="st0" d="M34.9,40.1c-0.2,0.8-0.1,1.6,0.4,2.2c0.7-0.3,1.2-1,1.4-1.8c0.2-0.8,0.1-1.6-0.4-2.2
						C35.6,38.7,35.1,39.3,34.9,40.1z"/>
					<path class="st0" d="M37.5,42c-0.8-0.2-1.6-0.1-2.2,0.4c0.3,0.7,1,1.2,1.8,1.4c0.8,0.2,1.6,0.1,2.2-0.4
						C38.9,42.7,38.3,42.2,37.5,42z"/>
				</g>
				<g>
					<path class="st0" d="M31.8,41.4c-0.3,0.7-0.3,1.6,0,2.3c0.7-0.2,1.4-0.7,1.7-1.5c0.3-0.7,0.3-1.6,0-2.3
						C32.8,40.1,32.1,40.6,31.8,41.4z"/>
					<path class="st0" d="M34,43.7c-0.7-0.3-1.6-0.3-2.3,0c0.2,0.7,0.7,1.4,1.5,1.7c0.7,0.3,1.6,0.3,2.3,0
						C35.3,44.7,34.8,44.1,34,43.7z"/>
				</g>
			</g>
			<path class="st0" d="M29.1,2.8C29.9,3,30.7,3,31.4,2.6c-0.3-0.7-0.9-1.3-1.6-1.6c-0.8-0.3-1.6-0.2-2.3,0.2
				C27.7,1.9,28.3,2.5,29.1,2.8z"/>
		</g>
		<path class="st0" d="M21.9,50l-1.4-0.2c3.8-3.8,8.5-5.3,11.2-6.2c0.3-0.1,0.5-0.2,0.7-0.2C41.1,40.3,47,32.2,47,23.2
			c0-10.1-7.4-18.9-17.6-20.9L29.4,2C39.8,4,47.3,13,47.3,23.2c0,9.1-6,17.3-14.8,20.4c-0.2,0.1-0.4,0.2-0.7,0.2
			C29.2,44.8,25.7,46.2,21.9,50z"/>
	</g>
</g>
</svg>
