<?xml version="1.0" encoding="utf-8"?>
<!-- Generator: Adobe Illustrator 21.0.2, SVG Export Plug-In . SVG Version: 6.00 Build 0)  -->
<svg version="1.1" id="Layer_1" xmlns="http://www.w3.org/2000/svg" xmlns:xlink="http://www.w3.org/1999/xlink" x="0px" y="0px"
	 viewBox="0 0 300 300" style="enable-background:new 0 0 300 300;" xml:space="preserve">
<style type="text/css">
	.st0{fill:#4596BA;}
</style>
<path class="st0" d="M299.7,96.5L299.7,96.5c0.1-0.4,0.1-0.7,0.1-1.1c0-0.1,0-0.1,0-0.2c0-0.3,0-0.6,0-0.8c0-0.1-0.1-0.2-0.1-0.4
	c0-0.2-0.1-0.4-0.1-0.7c0-0.1-0.1-0.3-0.1-0.4c-0.1-0.2-0.1-0.4-0.2-0.6c0,0,0,0,0-0.1c-0.1-0.1-0.1-0.2-0.2-0.3
	c-0.1-0.2-0.2-0.4-0.3-0.6c-0.1-0.1-0.2-0.3-0.3-0.4c-0.1-0.1-0.2-0.3-0.3-0.4l-40-48.5l0,0l-0.1-0.1c-0.2-0.2-0.4-0.4-0.6-0.6
	c-0.1-0.1-0.1-0.1-0.2-0.2c-0.2-0.2-0.4-0.3-0.6-0.5c-0.1,0-0.1-0.1-0.2-0.1c-0.3-0.2-0.5-0.3-0.8-0.5c-0.1,0-0.1-0.1-0.2-0.1
	c-0.2-0.1-0.5-0.2-0.7-0.3c-0.1,0-0.2-0.1-0.3-0.1c-0.3-0.1-0.6-0.2-0.9-0.2c0,0,0,0-0.1,0c-0.3,0-0.5-0.1-0.8-0.1
	c-0.1,0-0.1,0-0.2,0h-0.1H150H47.6h-0.1c-0.1,0-0.1,0-0.2,0c-0.3,0-0.5,0-0.8,0.1c0,0,0,0-0.1,0c-0.3,0-0.6,0.1-0.9,0.2
	c-0.1,0-0.2,0.1-0.3,0.1c-0.2,0.1-0.5,0.2-0.7,0.3c-0.1,0-0.1,0.1-0.2,0.1c-0.3,0.1-0.6,0.3-0.8,0.5c-0.1,0-0.1,0.1-0.2,0.1
	c-0.2,0.1-0.4,0.3-0.6,0.5c-0.1,0.1-0.1,0.1-0.2,0.2c-0.2,0.2-0.4,0.4-0.6,0.6L41.8,42l0,0L1.9,90.6c-0.1,0.1-0.2,0.3-0.3,0.4
	s-0.2,0.3-0.3,0.4C1.2,91.6,1.1,91.8,1,92c-0.1,0.1-0.1,0.2-0.2,0.3c0,0,0,0,0,0.1c-0.1,0.2-0.2,0.4-0.2,0.6c0,0.1-0.1,0.2-0.1,0.4
	c-0.1,0.2-0.1,0.4-0.1,0.7c0,0.1-0.1,0.2-0.1,0.4c0,0.3,0,0.6,0,0.8c0,0.1,0,0.1,0,0.2c0,0.4,0,0.7,0.1,1.1l0,0
	c0.1,0.3,0.1,0.7,0.2,1c0.1,0.2,0.2,0.5,0.3,0.7c0,0.1,0.1,0.2,0.1,0.3l0,0c0,0.1,0,0.2,0.1,0.3c0.1,0.2,0.2,0.4,0.3,0.5
	c0,0.1,0.1,0.1,0.1,0.1c0.2,0.2,0.3,0.5,0.5,0.7l0,0l142.3,158c0,0,0.1,0,0.1,0.1c0.1,0.1,0.2,0.2,0.2,0.2l0.1,0.1l0,0l0.1,0.1
	c0.2,0.2,0.4,0.3,0.6,0.5l0,0c0,0,0,0,0.1,0c0.1,0.1,0.3,0.2,0.5,0.3l0,0c0.1,0.1,0.2,0.1,0.3,0.2c0.1,0,0.2,0.1,0.2,0.1
	c0.1,0,0.2,0.1,0.3,0.1s0.1,0.1,0.2,0.1c0.1,0.1,0.3,0.1,0.4,0.2c0,0,0,0,0.1,0s0.1,0,0.2,0.1c0.1,0,0.2,0.1,0.3,0.1
	c0.2,0,0.3,0.1,0.5,0.1c0.1,0,0.1,0,0.2,0c0.1,0,0.1,0,0.2,0c0.3,0,0.6,0.1,0.9,0.1l0,0l0,0l0,0l0,0l0,0l0,0c0.3,0,0.6,0,0.9-0.1
	c0.1,0,0.1,0,0.2,0c0.1,0,0.1,0,0.2,0c0.2,0,0.3-0.1,0.5-0.1c0.1,0,0.2-0.1,0.3-0.1s0.1,0,0.2-0.1c0,0,0,0,0.1,0s0.3-0.1,0.4-0.2
	c0.1,0,0.1,0,0.2-0.1c0.1,0,0.2-0.1,0.3-0.1s0.2-0.1,0.2-0.1c0.1-0.1,0.2-0.1,0.3-0.2l0,0c0.2-0.1,0.3-0.2,0.5-0.3c0,0,0,0,0.1,0
	l0,0c0.2-0.1,0.4-0.3,0.6-0.5l0.1-0.1c0,0,0,0,0.1,0l0.1-0.1c0.1-0.1,0.2-0.2,0.2-0.3c0,0,0,0,0.1-0.1l142.3-158l0,0
	c0.2-0.2,0.4-0.5,0.5-0.7c0-0.1,0.1-0.1,0.1-0.2c0.1-0.1,0.2-0.3,0.3-0.4c0.1-0.2,0.2-0.3,0.3-0.5l0,0c0,0,0,0,0-0.1
	c0.1-0.3,0.3-0.6,0.4-0.9C299.6,97.2,299.7,96.9,299.7,96.5z M150,56.7l35.6,31.1h-71.2L150,56.7z M94.8,84.9L65.2,54.2h64.1
	C121.8,60.8,110.8,70.5,94.8,84.9z M105,102.8h90l-45,127.8L106.5,107L105,102.8z M252,58l24.5,29.8h-53.3L252,58z M234.8,54.2
	l-24.7,25.6l-5,5.2L170,54.2H234.8z M48,58l12.2,12.7l16.6,17.2H23.5L48,58z M89.1,102.8l30.2,86l11.1,31.6l-106-117.6
	C24.4,102.8,89.1,102.8,89.1,102.8z M169.5,220.4l28.7-81.5l12.7-36.1h64.6L169.5,220.4z"/>
</svg>
