<svg width="30px" height="30px" viewBox="0 0 30 30" version="1.1" xmlns="http://www.w3.org/2000/svg" xmlns:xlink="http://www.w3.org/1999/xlink">
    <!-- Generator: Sketch 42 (36781) - http://www.bohemiancoding.com/sketch -->
    <desc>Created with Sketch.</desc>
    <defs></defs>
    <g id="link" stroke="none" stroke-width="1" fill="none" fill-rule="evenodd">
        <circle id="Circle_Button" fill="#11B4E4" fill-rule="nonzero" cx="15" cy="15" r="15"></circle>
        <g id="_" transform="translate(8.000000, 9.000000)" fill-rule="nonzero" fill="#FFFFFF">
            <path d="M12.6,8.8 C12.6,9.4 12.4,9.9 12,10.3 L10.9,11.4 C10.5,11.8 10,12 9.4,12 C8.8,12 8.3,11.8 7.9,11.4 L6.4,9.9 C6,9.5 5.8,9 5.8,8.4 C5.8,7.8 6,7.3 6.4,6.9 L5.8,6.3 C5.4,6.7 4.9,6.9 4.3,6.9 C3.7,6.9 3.2,6.7 2.8,6.3 L1.3,4.8 C0.9,4.4 0.7,3.9 0.7,3.3 C0.7,2.7 0.9,2.2 1.3,1.8 L2.4,0.7 C2.8,0.3 3.3,0.1 3.9,0.1 C4.5,0.1 5,0.3 5.4,0.7 L6.9,2.2 C7.3,2.6 7.5,3.1 7.5,3.7 C7.5,4.3 7.3,4.8 6.9,5.2 L7.5,5.8 C7.9,5.4 8.4,5.2 9,5.2 C9.6,5.2 10.1,5.4 10.5,5.8 L12,7.3 C12.4,7.7 12.6,8.2 12.6,8.8 Z M6.1,3.7 C6.1,3.5 6,3.3 5.9,3.2 L4.4,1.7 C4.3,1.6 4.1,1.5 3.9,1.5 C3.7,1.5 3.5,1.6 3.4,1.7 L2.3,2.8 C2.2,2.9 2.1,3.1 2.1,3.3 C2.1,3.5 2.2,3.7 2.3,3.8 L3.8,5.3 C3.9,5.4 4.1,5.5 4.3,5.5 C4.5,5.5 4.7,5.4 4.8,5.3 L4.7,5.2 C4.6,5.1 4.6,5.1 4.5,5 L4.4,4.9 C4.4,4.9 4.3,4.8 4.3,4.7 L4.3,4.5 C4.3,4.3 4.4,4.1 4.5,4 C4.6,3.9 4.8,3.8 5,3.8 L5.2,3.8 C5.3,3.8 5.3,3.8 5.4,3.9 C5.5,3.9 5.5,4 5.5,4 C5.5,4 5.6,4.1 5.7,4.2 L5.8,4.3 C6.1,4 6.1,3.9 6.1,3.7 Z M11.2,8.8 C11.2,8.6 11.1,8.4 11,8.3 L9.5,6.8 C9.4,6.7 9.2,6.6 9,6.6 C8.8,6.6 8.6,6.7 8.5,6.8 L8.6,6.9 C8.7,7 8.7,7 8.8,7.1 L8.9,7.2 C8.9,7.3 9,7.3 9,7.4 L9,7.6 C9,7.8 8.9,8 8.8,8.1 C8.7,8.2 8.5,8.3 8.3,8.3 L8.1,8.3 C8,8.3 8,8.3 7.9,8.2 C7.8,8.1 7.8,8.1 7.8,8.1 C7.8,8.1 7.7,8 7.6,7.9 L7.5,7.8 C7.3,7.9 7.3,8.1 7.3,8.3 C7.3,8.5 7.4,8.7 7.5,8.8 L9,10.3 C9.1,10.4 9.3,10.5 9.5,10.5 C9.7,10.5 9.9,10.4 10,10.3 L11.1,9.2 C11.2,9.1 11.2,9 11.2,8.8 Z" id="Shape"></path>
        </g>
    </g>
</svg>
