<svg width="27px" height="27px" viewBox="0 0 27 27" version="1.1" xmlns="http://www.w3.org/2000/svg" xmlns:xlink="http://www.w3.org/1999/xlink">
    <!-- Generator: Sketch 50.2 (55047) - http://www.bohemiancoding.com/sketch -->
    <desc>Created with Sketch.</desc>
    <defs>
        <polygon id="path-1" points="0 0.0001125 26.999475 0.0001125 26.999475 27 0 27"></polygon>
    </defs>
    <g id="Categories" stroke="none" stroke-width="1" fill="none" fill-rule="evenodd">
        <g id="Magazine_Post" transform="translate(-325.000000, -1417.000000)">
            <g id="Group-2" transform="translate(286.000000, 521.000000)">
                <g id="Group">
                    <g id="Header">
                        <g id="Copy" transform="translate(0.000000, 663.000000)">
                            <g id="social" transform="translate(0.000000, 233.000000)">
                                <g id="Page-1-Copy-2" transform="translate(39.000000, 0.000000)">
                                    <mask id="mask-2" fill="white">
                                        <use xlink:href="#path-1"></use>
                                    </mask>
                                    <g id="Clip-2"></g>
                                    <path d="M21.00585,20.0266125 L18.0561,20.0266125 L18.0561,15.0001125 C18.0561,13.6212375 17.532225,12.8517375 16.4421,12.8517375 C15.255975,12.8517375 14.6361,13.6534875 14.6361,15.0001125 L14.6361,20.0266125 L11.793225,20.0266125 L11.793225,10.4506125 L14.6361,10.4506125 L14.6361,11.7402375 C14.6361,11.7402375 15.4911,10.1584875 17.521725,10.1584875 C19.55235,10.1584875 21.00585,11.3982375 21.00585,13.9632375 L21.00585,20.0266125 Z M8.401725,9.1966125 C7.43385,9.1966125 6.648975,8.4053625 6.648975,7.4296125 C6.648975,6.4538625 7.43385,5.6626125 8.401725,5.6626125 C9.369975,5.6626125 10.154475,6.4538625 10.154475,7.4296125 C10.154475,8.4053625 9.369975,9.1966125 8.401725,9.1966125 Z M6.933975,20.0266125 L9.897975,20.0266125 L9.897975,10.4506125 L6.933975,10.4506125 L6.933975,20.0266125 Z M13.499475,0.0001125 C6.0441,0.0001125 -0.00015,6.0439875 -0.00015,13.5001125 C-0.00015,20.9562375 6.0441,27.0001125 13.499475,27.0001125 C20.9556,27.0001125 26.999475,20.9562375 26.999475,13.5001125 C26.999475,6.0439875 20.9556,0.0001125 13.499475,0.0001125 Z" id="Fill-1" fill="#4397BC" mask="url(#mask-2)"></path>
                                </g>
                            </g>
                        </g>
                    </g>
                </g>
            </g>
        </g>
    </g>
</svg>
