<svg xmlns="http://www.w3.org/2000/svg" width="30" height="30" viewBox="0 0 30 30">
    <path fill="#FFF" fill-rule="evenodd" d="M15 30C6.716 30 0 23.284 0 15 0 6.716 6.716 0 15 0c8.284 0 15 6.716 15 15 0 8.284-6.716 15-15 15zm-6.585-8.509h2.823v-9.068H8.415v9.068zm1.412-10.305c.902 0 1.635-.735 1.635-1.635a1.636 1.636 0 0 0-3.271 0c0 .9.731 1.635 1.636 1.635zm11.971 10.305v-4.973c0-2.442-.527-4.321-3.381-4.321-1.372 0-2.293.753-2.669 1.467h-.037v-1.241h-2.704v9.068h2.817v-4.485c0-1.184.224-2.328 1.691-2.328 1.444 0 1.465 1.352 1.465 2.404v4.409h2.818z"/>
</svg>
