<?xml version="1.0" encoding="utf-8"?>
<!-- Generator: Adobe Illustrator 22.1.0, SVG Export Plug-In . SVG Version: 6.00 Build 0)  -->
<svg version="1.1" id="Layer_1" xmlns="http://www.w3.org/2000/svg" xmlns:xlink="http://www.w3.org/1999/xlink" x="0px" y="0px"
	 viewBox="0 0 432 143" style="enable-background:new 0 0 432 143;" xml:space="preserve">
<style type="text/css">
	.st0{fill:#FFFFFF;}
</style>
<g>
	<path class="st0" d="M280.3,91.9c0,20.4,17,37,37.9,37c5.7,0,11.2-1.2,16-3.5v-23c-3.5,4.8-9.4,8-16,8c-10.7,0-19.5-8.3-19.5-18.5
		s8.7-18.5,19.5-18.5c6.6,0,12.5,3.2,16,8v-23c-4.9-2.2-10.3-3.5-16-3.5C297.3,54.9,280.3,71.5,280.3,91.9z"/>
	<path class="st0" d="M376.2,54.9c-20.9,0-37.9,16.6-37.9,37s17,37,37.9,37s37.9-16.6,37.9-37S397.1,54.9,376.2,54.9z M376.2,110.4
		c-10.7,0-19.5-8.3-19.5-18.5s8.7-18.5,19.5-18.5c10.7,0,19.5,8.3,19.5,18.5C395.6,102.1,386.9,110.4,376.2,110.4z"/>
	<path class="st0" d="M281.5,66.9l-19.9-18.2c-6.2,13.1-15.3,17.1-22.5,17.1c-0.7,0-1.4,0-2.1-0.1c7.4-4.6,13.6-11.4,15.3-22.5
		c1.3-8.4-1.1-17-6.7-23.5c-5.9-6.9-14.7-10.9-23.9-10.9c-8.6,0-16.6,3.2-22.6,9.1c-6.1,6-9.4,14.3-9.4,23.2l0,0l0,0l0,0l0,0
		c0,5.3,0.7,10.3,2.1,15.1c-1.1,0.6-2.1,1.2-3.1,1.9c-8.9,6-14.4,14.2-16.4,24.4c-2.4,12.1,0.8,24.2,8.9,34.2
		c9.3,11.4,24.4,18.4,39.3,18.4c26.9,0,48.8-19.8,48.8-44.1h-18.8C263.5,87.8,274.7,78.9,281.5,66.9z M239.1,85.4
		c-12.3,0-23.6-5.1-31.6-14.4l-0.4-0.5l-0.6,0.2c-6.8,2.9-13.4,6.8-15.1,15.6c-1.6,8,1.7,14.2,4.8,17.9c5.6,6.9,15.1,11.3,24.2,11.3
		c13,0,24.4-7.2,28-17.6h13c-3.7,17.5-20.8,30.2-41,30.2c-12.9,0-25.9-6.1-33.9-15.9c-6.8-8.3-9.4-18.3-7.4-28.3
		c2.8-14.2,13.1-20.4,20.6-23.9l0.7-0.3L200,59c-2.3-5.6-3.5-11.6-3.5-17.8c0-14.4,10.8-25.3,25-25.3c7.2,0,14,3.1,18.6,8.5
		c4.3,5,6.1,11.4,5.1,17.8c-2,12.7-10.9,18.4-23.8,23.2l-1.5,0.5l1.2,0.9c5.1,4,11.3,6.1,17.8,6.1c9.4,0,18.3-5,24-13.4l9.3,8.5
		C264.3,79.1,252.2,85.4,239.1,85.4z M242.5,92.3c-0.8,9.1-10.4,16.2-22.1,16.2c-7,0-14.4-3.4-18.8-8.7c-3.1-3.7-4.2-7.8-3.3-12.1
		c0.7-3.4,1.8-5.8,7.2-8.6c8.8,8.3,20.5,13.3,33.6,13.3C240.2,92.5,241.4,92.4,242.5,92.3z"/>
	<path class="st0" d="M232.9,40.2c0.6-3.6-0.9-6.2-2.2-7.7c-2.2-2.6-5.6-4.1-9-4.1c-7.3,0-12.4,5.3-12.4,12.8
		c0,4.7,0.9,9.2,2.7,13.3l0.3,0.7l0.8-0.3C224.5,51,231.7,48,232.9,40.2z M225.9,39.1c-0.4,2.8-2.9,4.5-9.3,7
		c-0.3-1.6-0.4-3.3-0.4-5c0-3.6,2-5.8,5.4-5.8c1.7,0,3,0.8,3.7,1.6C226,37.9,226,38.6,225.9,39.1z"/>
	<polygon class="st0" points="38.7,34.2 17.9,34.2 17.9,127.4 58.6,127.4 67,109.5 38.7,109.5 	"/>
	<polygon class="st0" points="67,109.5 67,127.4 86.5,127.4 86.5,54.9 67,54.9 	"/>
	<path class="st0" d="M76.7,22.5c-6.4,0-11.7,5.3-11.7,11.7s5.3,11.7,11.7,11.7c6.4,0,11.7-5.3,11.7-11.7
		C88.4,27.7,83.1,22.5,76.7,22.5z"/>
	<path class="st0" d="M156.1,34.2h-19.5v20.7h-7.7H119v-8.1c0-5.8,0.5-9.4,2.1-12c1.9-2.9,4.5-3.5,7-3.5c2.9,0,5.8,0.8,8.5,2.9V16.4
		c-3.4-1.6-6.6-2.4-10.9-2.4c-7.2,0-13,2.2-17.1,5.8c-8.6,7.2-9.1,18.1-9.1,24.5V55H92v16.7h7.4v55.9h19.5v-56h9.9h7.7v55.9H156
		V71.6h13.5V54.9H156V34.2H156.1z"/>
</g>
</svg>
