<?xml version="1.0" encoding="utf-8"?>
<!-- Generator: Adobe Illustrator 19.1.0, SVG Export Plug-In . SVG Version: 6.00 Build 0)  -->
<svg version="1.2" baseProfile="tiny" id="Layer_1" xmlns="http://www.w3.org/2000/svg" xmlns:xlink="http://www.w3.org/1999/xlink"
	 x="0px" y="0px" viewBox="0 0 63.4 39.4" xml:space="preserve">
<rect x="12.9" y="13.1" fill="currentColor" width="4.9" height="25.8"/>
<rect x="12.9" y="0.6" fill="currentColor" width="4.9" height="5.1"/>
<g>
	<path fill="currentColor" d="M27,9c0-0.5,0.1-1,0.2-1.5c0.1-0.5,0.3-1,0.5-1.4c0.2-0.5,0.6-0.8,1-1.2c0.3-0.2,0.6-0.4,1.1-0.5
		c0.5-0.2,1-0.3,1.8-0.3c0.7,0,1.4,0.1,2,0.2c0.6,0.1,1.2,0.3,1.8,0.5V0.9c-1.2-0.4-2.1-0.7-2.9-0.8C31.6,0.1,30.9,0,30.3,0
		c-1.8,0-3.4,0.4-4.8,1.3c-1.4,0.9-2.3,2.2-2.9,3.9c-0.3,0.9-0.5,1.8-0.5,2.9S22,10.5,22,12.4v26.5h5V17.7h7.6v-4.6H27v-2.6V9z"/>
	<ellipse fill="currentColor" cx="47.9" cy="24.4" rx="1.3" ry="1.3"/>
	<ellipse fill="currentColor" cx="55.3" cy="24.4" rx="1.3" ry="1.3"/>
	<path fill="currentColor" d="M63.4,28l-4.6-0.2c-0.2,0.9-0.5,1.8-0.9,2.7c-0.4,0.9-1,1.7-1.7,2.3c-0.7,0.6-1.5,1.1-2.4,1.5
		c-0.9,0.3-1.9,0.5-3,0.4c-2-0.2-3.7-0.9-5.1-2.3c-1.3-1.3-2.1-3-2.2-5c-0.1-1.2-0.1-2.5-0.1-4c0.1-1.4,0.1-4.4,0.1-5.8h15.4
		L58.6,13c-1.1,0-10.8,0-11.9,0c-1.2,0-2.3,0-3.3,0V0.6h-4.6V22c0,1.1,0,2.2-0.1,3.3c0,1.1,0,2.1,0.1,3.1c0.2,1.6,0.6,3,1.2,4.2
		c0.7,1.2,1.4,2.3,2.3,3.2c0.9,0.9,1.9,1.7,3.1,2.4c1.2,0.7,2.6,1.1,4.2,1.2c2.4,0.2,4.4-0.1,6.1-0.8c1.7-0.7,3.1-1.7,4.3-2.9
		c1-1,1.7-2.2,2.3-3.5C63,30.9,63.3,29.7,63.4,28L63.4,28z"/>
	<path fill="currentColor" d="M8.2,38.9l0.7-3.8C8.1,35,7.5,34.8,7,34.7C6.4,34.5,6,34.3,5.7,34c-0.3-0.3-0.5-0.7-0.7-1.2
		c-0.1-0.5-0.2-1.1-0.2-1.9V0L0,0.6v31.1c0,2.4,0.6,4.2,1.9,5.4C3.1,38.2,5.2,38.8,8.2,38.9z"/>
</g>
</svg>
