<?xml version="1.0" encoding="UTF-8"?>
<svg width="40px" height="40px" viewBox="0 0 40 40" version="1.1" xmlns="http://www.w3.org/2000/svg" xmlns:xlink="http://www.w3.org/1999/xlink">
    <!-- Generator: Sketch 50.2 (55047) - http://www.bohemiancoding.com/sketch -->
    <title>Shape</title>
    <desc>Created with Sketch.</desc>
    <defs></defs>
    <g id="Page-1" stroke="none" stroke-width="1" fill="none" fill-rule="evenodd">
        <g id="Recommender-gender" transform="translate(-323.000000, -252.000000)" fill="#4296BC" fill-rule="nonzero">
            <g id="Group" transform="translate(185.000000, 140.000000)">
                <g id="Male" transform="translate(0.000000, 76.000000)">
                    <g id="Copy" transform="translate(42.000000, 36.000000)">
                        <g id="Male" transform="translate(96.000000, 0.000000)">
                            <path d="M39.464,2.4 C39.464,2.4 39.464,2.4 39.464,2.4 C39.464,2.4 39.464,2.304 39.464,2.256 C39.464,2.208 39.464,2.192 39.464,2.16 C39.464,2.128 39.464,2.104 39.464,2.072 C39.4658333,2.03735757 39.4658333,2.00264243 39.464,1.968 L39.464,1.896 L39.464,1.8 L39.464,1.72 L39.464,1.632 L39.464,1.552 L39.416,1.472 L39.368,1.4 L39.304,1.312 L39.264,1.256 C39.185389,1.15908684 39.0969132,1.07061103 39,0.992 L38.944,0.944 L38.856,0.88 L38.56,0.8 L38.48,0.8 L38.4,0.8 L38.312,0.8 L38.232,0.8 L38.136,0.8 L38.056,0.8 L37.96,0.8 L37.872,0.8 L37.776,0.8 L30.816,0.8 C30.122372,0.75448563 29.4610432,1.09871011 29.100419,1.69296731 C28.7397948,2.28722451 28.7397948,3.03277549 29.100419,3.62703269 C29.4610432,4.22128989 30.122372,4.56551437 30.816,4.52 L33.096,4.52 L27.864,9.752 C20.8995936,4.1844792 10.79891,5.02736944 4.85360927,11.6721902 C-1.09169148,18.317011 -0.810439327,28.4488998 5.49433046,34.7536695 C11.7991002,41.0584393 21.930989,41.3396915 28.5758098,35.3943907 C35.2206306,29.44909 36.0635208,19.3484064 30.496,12.384 L35.728,7.152 L35.728,9.432 C35.6824856,10.125628 36.0267101,10.7869568 36.6209673,11.147581 C37.2152245,11.5082052 37.9607755,11.5082052 38.5550327,11.147581 C39.1492899,10.7869568 39.4935144,10.125628 39.448,9.432 L39.448,2.4 L39.464,2.4 Z M26.664,31.888 C22.2475567,36.3080029 15.3237243,36.9923692 10.1274302,33.5225095 C4.93113622,30.0526499 2.90988619,23.3951458 5.29996762,17.6220264 C7.69004906,11.8489069 13.8256689,8.56836106 19.9540061,9.78691829 C26.0823432,11.0054755 30.4962573,16.3836884 30.496,22.632 C30.4992697,26.1125901 29.107528,29.4493126 26.632,31.896 L26.664,31.888 Z" id="Shape"></path>
                        </g>
                    </g>
                </g>
            </g>
        </g>
    </g>
</svg>