<?xml version="1.0" encoding="utf-8"?>
<!-- Generator: Adobe Illustrator 21.0.2, SVG Export Plug-In . SVG Version: 6.00 Build 0)  -->
<svg version="1.1" id="Layer_1" xmlns="http://www.w3.org/2000/svg" xmlns:xlink="http://www.w3.org/1999/xlink" x="0px" y="0px"
	 viewBox="0 0 300 300" style="enable-background:new 0 0 300 300;" xml:space="preserve">
<style type="text/css">
	.st0{fill:#4596BA;}
</style>
<g>
	<path class="st0" d="M182.1,16l72.5,71.6v190.1c0,4-3.4,7.4-7.4,7.4H52.8c-4,0-7.4-3.4-7.4-7.4V23.4c0-4,3.4-7.4,7.4-7.4H182.1
		 M188.3,1H52.8C40.5,1,30.4,11.1,30.4,23.4v254.3c0,12.3,10.1,22.4,22.4,22.4h194.5c12.3,0,22.4-10.1,22.4-22.4V81.3L188.3,1
		L188.3,1z"/>
</g>
<g>
	<path class="st0" d="M118.3,199.6c-1.3,0-2.6-0.3-3.8-1c-2.3-1.4-3.8-3.9-3.7-6.6l1.3-83.7c0-2.6,1.5-5.1,3.8-6.4s5.1-1.3,7.4,0
		l71.5,40.7c2.3,1.3,3.8,3.8,3.8,6.5c0,2.7-1.4,5.2-3.7,6.5l-72.8,43C120.9,199.3,119.6,199.6,118.3,199.6z M126.9,121.2l-0.9,57.7
		l50.1-29.6L126.9,121.2z"/>
</g>
</svg>
