<?xml version="1.0" encoding="UTF-8"?>
<svg width="35px" height="34px" viewBox="0 0 35 34" version="1.1" xmlns="http://www.w3.org/2000/svg" xmlns:xlink="http://www.w3.org/1999/xlink">
    <!-- Generator: Sketch 50 (54983) - http://www.bohemiancoding.com/sketch -->
    <title>Stroke-Icon-Morning</title>
    <desc>Created with Sketch.</desc>
    <defs></defs>
    <g id="Page-1" stroke="none" stroke-width="1" fill="none" fill-rule="evenodd">
        <g id="Review-Consumption" transform="translate(-772.000000, -858.000000)" fill="#4596BA" fill-rule="nonzero">
            <g id="Form" transform="translate(758.000000, 133.000000)">
                <g id="Time" transform="translate(1.000000, 683.000000)">
                    <g id="Vaporizer" transform="translate(0.000000, 31.000000)">
                        <g id="Stroke-Icon-Morning" transform="translate(13.000000, 11.000000)">
                            <path d="M16.7808219,6.36285714 C16.9054558,6.39934872 17.034653,6.41734536 17.1643836,6.41628571 C17.8121593,6.41538547 18.3794195,5.97593243 18.55,5.34285714 L19.5089041,1.836 C19.6941057,1.07071622 19.2452473,0.29491588 18.4956489,0.0847043548 C17.7460504,-0.125507171 16.96729,0.30602937 16.7376712,1.05885714 L15.7787671,4.56085714 C15.6742973,4.93446925 15.7213512,5.33487063 15.9094851,5.67319281 C16.0976191,6.01151499 16.4112694,6.25976968 16.7808219,6.36285714 Z" id="Shape"></path>
                            <path d="M5.37945205,13.1628571 C6.09812628,13.161666 6.70564367,12.6232675 6.80236849,11.9018297 C6.8990933,11.1803919 6.45533842,10.497341 5.7630137,10.302 L2.30136986,9.33057143 C1.80548033,9.19174822 1.27415306,9.3314796 0.907533902,9.69713012 C0.540914744,10.0627806 0.39470187,10.5987993 0.523972255,11.103273 C0.653242639,11.6077467 1.03835704,12.0040339 1.53424658,12.1428571 L4.99109589,13.1142857 C5.11799037,13.1470978 5.24849041,13.1634194 5.37945205,13.1628571 Z" id="Shape"></path>
                            <path d="M23.6321918,10.5934286 C23.8795156,10.5944623 24.1226957,10.5291025 24.3369863,10.404 L26.7678082,9.01485714 C27.2354751,8.76973885 27.5335527,8.28533198 27.5448852,7.75202712 C27.5562176,7.21872226 27.2789933,6.72176911 26.8221721,6.45648942 C26.365351,6.19120973 25.8019566,6.20000892 25.3534247,6.47942857 L22.9226027,7.86857143 C22.3542975,8.19485144 22.0743849,8.86812006 22.2410141,9.50798415 C22.4076432,10.1478482 22.9789675,10.593615 23.6321918,10.5934286 Z" id="Shape"></path>
                            <path d="M8.24657534,5.87228571 C8.63714659,6.57376621 9.51509778,6.82167252 10.2075342,6.42599996 C10.8999707,6.03032739 11.1446808,5.1409091 10.7541096,4.43942857 L9.37808219,1.97685714 C9.14759342,1.48519139 8.66582915,1.16465116 8.12887727,1.14570287 C7.59192538,1.12675457 7.08931228,1.41255746 6.82561172,1.88678394 C6.56191117,2.36101043 6.58109016,2.94459236 6.87534247,3.4 L8.24657534,5.87228571 Z" id="Shape"></path>
                            <path d="M6.82260274,18.7534286 C6.63525552,18.4163401 6.32328388,18.1685573 5.95544595,18.0646912 C5.58760801,17.9608252 5.19409759,18.0094016 4.86164384,18.1997143 L2.43082192,19.5937143 C1.94549513,19.8272135 1.62908757,20.3152702 1.61038357,20.8592354 C1.59167957,21.4032005 1.87379765,21.9123783 2.34191002,22.1795231 C2.81002238,22.446668 3.38608029,22.4272385 3.83561644,22.1291429 L6.26643836,20.74 C6.60082042,20.551854 6.84745814,20.2365308 6.95182476,19.8637421 C7.05619139,19.4909535 7.00969058,19.0914049 6.82260274,18.7534286 Z" id="Shape"></path>
                            <path d="M28.9684932,18.1705714 C27.4048041,14.915739 24.1512308,12.8439242 20.5780822,12.8277143 C20.1254118,12.8294839 19.6734919,12.8652005 19.2260274,12.9345714 C18.6265133,10.8380042 16.7271061,9.39854647 14.5725034,9.40791784 C12.4179006,9.41728921 10.5307642,10.8732164 9.94904251,12.9749213 C9.36732084,15.0766263 10.2321276,17.3142791 12.0678082,18.4571429 C11.8310333,19.0006654 11.6432818,19.564774 11.5068493,20.1425714 C8.27856565,20.8906028 6.05196099,23.88626 6.2344116,27.2360695 C6.4168622,30.5858791 8.95528226,33.3151808 12.2452055,33.6988571 L27.3287671,33.6988571 L27.4438356,33.7571429 L27.8465753,33.7231429 C31.6269061,33.3468346 34.5909477,30.2682072 34.867976,26.4303045 C35.1450043,22.5924018 32.6545735,19.1097065 28.9684932,18.1802857 L28.9684932,18.1705714 Z M12.719863,13.7991429 C12.9543206,12.9362064 13.7330373,12.3414481 14.61648,12.3505689 C15.4999226,12.3596897 16.2665127,12.9704021 16.4835616,13.838 C15.4020357,14.3725896 14.4344696,15.1168184 13.6356164,16.0285714 C13.3277662,15.8568004 13.0736263,15.6010238 12.9020548,15.2902857 C12.6397591,14.8314873 12.5739405,14.2840238 12.719863,13.7748571 L12.719863,13.7991429 Z M18.439726,16.1257143 C19.1258004,15.8761693 19.8491281,15.7480158 20.5780822,15.7468571 C23.2577504,15.7572497 25.6540212,17.43936 26.6047945,19.9774286 L26.9116438,20.7982857 L27.769863,20.9051429 C30.20024,21.2302967 32.0253075,23.3155361 32.0530129,25.7988757 C32.0807182,28.2822152 30.3026389,30.4087101 27.880137,30.7894286 L12.4657534,30.7894286 C10.4753789,30.4950525 9.02751672,28.7229358 9.11403141,26.6870751 C9.2005461,24.6512145 10.7933864,23.0117111 12.8013699,22.8917143 L14.0479452,22.8285714 L14.1773973,21.5948571 C14.3050174,20.4931867 14.7058207,19.4421659 15.3424658,18.5397143 C16.1067183,17.4195736 17.1982837,16.5702475 18.4636986,16.1111429 L18.439726,16.1257143 Z" id="Shape"></path>
                        </g>
                    </g>
                </g>
            </g>
        </g>
    </g>
</svg>