<?xml version="1.0" encoding="utf-8"?>
<!-- Generator: Adobe Illustrator 21.0.2, SVG Export Plug-In . SVG Version: 6.00 Build 0)  -->
<svg version="1.1" id="Layer_1" xmlns="http://www.w3.org/2000/svg" xmlns:xlink="http://www.w3.org/1999/xlink" x="0px" y="0px"
	 viewBox="0 0 150 150" style="enable-background:new 0 0 150 150;" xml:space="preserve">
<style type="text/css">
	.st0{fill:#4495B9;}
	.st1{clip-path:url(#SVGID_2_);}
	.st2{fill:#F1F2F7;}
	.st3{fill:#FFFFFF;}
	.st4{fill:#E3E8EF;}
</style>
<ellipse class="st0" cx="75.7" cy="75" rx="75" ry="75"/>
<g>
	<g>
		<defs>
			<circle id="SVGID_1_" cx="75.7" cy="75" r="75"/>
		</defs>
		<clipPath id="SVGID_2_">
			<use xlink:href="#SVGID_1_"  style="overflow:visible;"/>
		</clipPath>
		<g id="XMLID_1_" class="st1">
			<circle id="XMLID_259_" class="st2" cx="75.6" cy="126.4" r="34.6"/>
			<g id="XMLID_111_">
				<g id="XMLID_113_">
					<path id="XMLID_121_" class="st3" d="M110.2,130.4l8.8-8.3l-10.3-6.4l4.7-11.2l-12-1.6l-0.3-12.1l-11.6,3.4l-5.2-11l-9.2,7.9
						l-9.2-7.9l-5.2,10.9l-11.6-3.5l-0.3,12.1l-12,1.5l4.6,11.2L31,121.7l8.8,8.4l-6.9,10l11.4,4.1L42,156.1l12.1-0.9l2.8,11.8
						l10.7-5.8l7.3,9.7l7.4-9.6l10.6,5.8l2.9-11.8l12.1,1l-2.2-11.9l11.5-4L110.2,130.4z M75,160.3c-18.5,0-33.5-15-33.5-33.5
						s15-33.5,33.5-33.5s33.5,15,33.5,33.5S93.5,160.3,75,160.3z"/>
					<g id="XMLID_117_">
						<path id="XMLID_118_" class="st3" d="M75,162.2c-19.5,0-35.4-15.9-35.4-35.4S55.5,91.4,75,91.4s35.4,15.9,35.4,35.4
							S94.5,162.2,75,162.2z M75,95.1c-17.5,0-31.7,14.2-31.7,31.7s14.2,31.7,31.7,31.7s31.7-14.2,31.7-31.7S92.4,95.1,75,95.1z"/>
					</g>
					<g id="XMLID_115_">
						
							<ellipse id="XMLID_116_" transform="matrix(3.546824e-03 -1 1 3.546824e-03 -52.0498 201.3157)" class="st4" cx="75" cy="126.8" rx="22.8" ry="22.8"/>
					</g>
				</g>
			</g>
		</g>
	</g>
</g>
<path id="XMLID_195_" class="st3" d="M45.2,45.5c-0.9,0-1.8,0.1-2.7,0.4c-3-4.7-8.2-7.9-14.2-7.9c-5.9,0-11.1,3.1-14.1,7.7l0,0l0,0
	c-0.6-0.1-1.3-0.2-1.9-0.2c-5.4,0-9.8,4.4-9.8,9.8h9.1H22h13.4H45h10C55,49.8,50.6,45.5,45.2,45.5z"/>
<path id="XMLID_2_" class="st3" d="M96.9,19.2c-0.6,0-1.1,0.1-1.7,0.2c-1.8-2.9-5-4.9-8.7-4.9c-3.6,0-6.8,1.9-8.7,4.7l0,0l0,0
	c-0.4-0.1-0.8-0.1-1.2-0.1c-3.3,0-6,2.7-6,6h5.6h6.4h8.3h5.9h6.1C102.9,21.9,100.2,19.2,96.9,19.2z"/>
<path id="XMLID_3_" class="st3" d="M140.9,46.2c-0.9,0-1.7,0.1-2.5,0.4c-2.7-4.4-7.6-7.3-13.2-7.3c-5.5,0-10.3,2.9-13.1,7.2l0,0l0,0
	c-0.6-0.1-1.2-0.2-1.8-0.2c-5,0-9.1,4.1-9.1,9.1h8.4h9.7h12.4h8.9h9.2C150,50.2,145.9,46.2,140.9,46.2z"/>
</svg>
