<svg xmlns="http://www.w3.org/2000/svg" width="118" height="118" viewBox="0 0 118 118">
    <g fill="none" fill-rule="nonzero" transform="translate(1 1)">
        <circle cx="58" cy="58" r="58" stroke="#FFF" stroke-width="2" opacity=".75"/>
        <path fill="#FFF" d="M78 39.6v24.8a7.632 7.632 0 0 1-8 7.2 7.632 7.632 0 0 1-8-7.2 7.632 7.632 0 0 1 8-7.2 8.51 8.51 0 0 1 4.8 1.472V41.87l-19.2 6.857V70.804a7.632 7.632 0 0 1-8 7.196 7.632 7.632 0 0 1-8-7.2 7.632 7.632 0 0 1 8-7.2 8.51 8.51 0 0 1 4.8 1.472V47.6a1.6 1.6 0 0 1 1.063-1.507l22.4-8A1.6 1.6 0 0 1 78 39.6z"/>
    </g>
</svg>
