<?xml version="1.0" encoding="utf-8"?>
<!-- Generator: Adobe Illustrator 21.0.2, SVG Export Plug-In . SVG Version: 6.00 Build 0)  -->
<svg version="1.1" id="Layer_1" xmlns="http://www.w3.org/2000/svg" xmlns:xlink="http://www.w3.org/1999/xlink" x="0px" y="0px"
	 viewBox="0 0 300 300" style="enable-background:new 0 0 300 300;" xml:space="preserve">
<style type="text/css">
	.st0{fill:#4596BA;}
</style>
<g>
	<path class="st0" d="M256.1,43.9C226.8,14.6,188.4,0,150,0S73.2,14.6,43.9,43.9c-58.6,58.6-58.6,153.6,0,212.1
		c29.3,29.4,67.7,44,106.1,44s76.8-14.6,106.1-43.9C314.6,197.5,314.6,102.5,256.1,43.9z M245.5,245.5C220,271,186.1,285,150,285
		s-70-14-95.5-39.5S15,186.1,15,150s14-70,39.5-95.5S113.9,15,150,15s70,14,95.5,39.5S285,113.9,285,150S271,220,245.5,245.5z"/>
	<path class="st0" d="M210.8,79.9l-97.2,28.7h-0.1c-0.1,0-0.1,0.1-0.2,0.1c-0.2,0.1-0.3,0.1-0.5,0.2c-0.1,0-0.1,0-0.2,0.1
		c-0.2,0.1-0.3,0.1-0.4,0.2c0,0,0,0-0.1,0l0,0c-0.1,0-0.1,0.1-0.2,0.1c-0.1,0.1-0.2,0.1-0.3,0.2c-0.2,0.1-0.4,0.3-0.6,0.4l0,0
		c-0.2,0.2-0.4,0.3-0.6,0.5c-0.1,0.1-0.1,0.1-0.2,0.2s-0.2,0.2-0.3,0.3l0,0l-0.1,0.1c-0.1,0.1-0.2,0.2-0.2,0.3l-0.1,0.1
		c0,0,0,0,0,0.1c-0.1,0.1-0.2,0.3-0.2,0.4s-0.1,0.1-0.1,0.2c0,0,0,0,0,0.1c-0.1,0.1-0.1,0.3-0.2,0.4c0,0.1-0.1,0.1-0.1,0.2
		c-0.1,0.1-0.1,0.3-0.2,0.4c0,0.1-0.1,0.2-0.1,0.3v0.1l-28.7,97.2c-0.8,2.6-0.1,5.5,1.9,7.4c1.4,1.4,3.3,2.2,5.3,2.2
		c0.7,0,1.4-0.1,2.1-0.3l97.2-28.7c0.1,0,0.1,0,0.2-0.1c0.1,0,0.1,0,0.2-0.1c0.1,0,0.3-0.1,0.4-0.1h0.1c0.2-0.1,0.3-0.1,0.5-0.2l0,0
		c0,0,0,0,0.1,0c0.1-0.1,0.2-0.1,0.4-0.2c0.1-0.1,0.2-0.1,0.3-0.2c0.1-0.1,0.2-0.1,0.2-0.2l0.1-0.1c0.3-0.2,0.6-0.4,0.8-0.7
		c0,0,0-0.1,0.1-0.1c0.1-0.1,0.3-0.3,0.4-0.4c0.1-0.1,0.1-0.2,0.2-0.3l0,0c0-0.1,0.1-0.1,0.1-0.2l0.1-0.1c0.1-0.1,0.2-0.3,0.2-0.4
		c0-0.1,0.1-0.1,0.1-0.2c0-0.1,0.1-0.1,0.1-0.2c0-0.1,0-0.1,0.1-0.2c0,0,0,0,0-0.1s0.1-0.1,0.1-0.2c0.1-0.1,0.1-0.3,0.2-0.4
		c0-0.1,0.1-0.2,0.1-0.3v-0.1l28.7-97.2c0.8-2.6,0.1-5.5-1.9-7.4S213.4,79.1,210.8,79.9z M119.4,130l50.6,50.6l-71.9,21.2L119.4,130
		z M180.6,170L130,119.4l71.9-21.2L180.6,170z"/>
</g>
</svg>
