<?xml version="1.0" encoding="UTF-8"?>
<svg width="53px" height="41px" viewBox="0 0 53 41" version="1.1" xmlns="http://www.w3.org/2000/svg" xmlns:xlink="http://www.w3.org/1999/xlink">
    <!-- Generator: Sketch 50.2 (55047) - http://www.bohemiancoding.com/sketch -->
    <title>New</title>
    <desc>Created with Sketch.</desc>
    <defs></defs>
    <g id="Page-1" stroke="none" stroke-width="1" fill="none" fill-rule="evenodd">
        <g id="Recommender-familiarity" transform="translate(-316.000000, -252.000000)" fill="#4296BC" fill-rule="nonzero">
            <g id="Group-9" transform="translate(186.000000, 140.000000)">
                <g id="Group-3">
                    <g id="New" transform="translate(0.000000, 76.000000)">
                        <g id="Copy" transform="translate(42.000000, 36.000000)">
                            <g id="New" transform="translate(88.000000, 0.000000)">
                                <path d="M52.1272258,11.492 C37.9201063,-2.96376524 14.8884098,-2.96376524 0.681290323,11.492 L-7.10542736e-15,12.1853333 L8.19251613,20.5226667 L8.87380645,19.8293333 C9.29109677,19.4046667 9.72541935,19.0146667 10.1512258,18.6246667 L8.99303226,17.0386667 C8.72903226,17.2726667 8.45651613,17.5153333 8.20103226,17.758 L2.73367742,12.2026667 C4.4515235,10.5436639 6.33207752,9.06838555 8.34580645,7.8 L9.94683871,10.634 L11.6500645,9.65466667 L10.0405161,6.82066667 C12.1172202,5.67005217 14.3064016,4.74346365 16.5723871,4.056 L17.424,7.21933333 L19.2890323,6.708 L18.4374194,3.54466667 C20.7330653,2.98759162 23.0787029,2.67105391 25.4376774,2.6 L25.4376774,5.89333333 L27.3708387,5.89333333 L27.3708387,2.6 C29.7346172,2.66164827 32.085979,2.96947616 34.388129,3.51866667 L33.5365161,6.682 L35.4015484,7.19333333 L36.2531613,4.03 C38.5190634,4.7177022 40.7082207,5.64428058 42.7850323,6.79466667 L38.9187097,13.6413333 C30.4313333,9.08345379 20.1954389,9.50012707 12.0929032,14.7333333 L13.2510968,16.3193333 C23.037666,10.098332 35.747782,11.5714608 43.9091613,19.8726667 L44.5904516,20.566 L52.8,12.1853333 L52.1272258,11.492 Z M44.5989677,17.7666667 C43.3646944,16.5951151 42.0245629,15.544683 40.5963871,14.6293333 L44.4541935,7.8 C46.4671035,9.06297217 48.3476237,10.5324159 50.0663226,12.1853333 L44.5989677,17.7666667 Z M29.6020645,37.2666667 C29.3998797,35.6246413 28.0261172,34.3939145 26.4,34.398 L26.0252903,34.398 C25.7929975,34.4275821 25.5645567,34.4827959 25.344,34.5626667 L9.36774194,12.5926667 L7.81780645,13.7626667 L23.8025806,35.7586667 C23.0903674,36.7465116 22.9810794,38.0568346 23.5194993,39.1527093 C24.0579191,40.2485841 25.1535424,40.945802 26.3574194,40.9586667 L26.7236129,40.9586667 C27.5926881,40.8723725 28.3900299,40.4304844 28.932769,39.7343488 C29.4755081,39.0382131 29.7170742,38.1475626 29.6020645,37.2666667 Z M26.5447742,39 L26.4,39 C25.7413466,38.967232 25.2137988,38.432735 25.1786786,37.7625908 C25.1435583,37.0924465 25.6122498,36.5038776 26.2637419,36.4 L26.4,36.4 C27.0586534,36.432768 27.5862012,36.967265 27.6213214,37.6374092 C27.6564417,38.3075535 27.1877502,38.8961224 26.5362581,39 L26.5447742,39 Z" id="Shape"></path>
                            </g>
                        </g>
                    </g>
                </g>
            </g>
        </g>
    </g>
</svg>