<?xml version="1.0" encoding="utf-8"?>
<!-- Generator: Adobe Illustrator 21.0.2, SVG Export Plug-In . SVG Version: 6.00 Build 0)  -->
<svg version="1.1" id="Layer_1" xmlns="http://www.w3.org/2000/svg" xmlns:xlink="http://www.w3.org/1999/xlink" x="0px" y="0px"
	 viewBox="0 0 150 150" style="enable-background:new 0 0 150 150;" xml:space="preserve">
<style type="text/css">
	.st0{fill:#4596BA;}
	.st1{fill:#F1F2F7;}
	.st2{fill:#FFFFFF;}
	.st3{fill:#717171;}
	.st4{fill:#E3E8EF;}
	.st5{fill:#848A99;}
	.st6{fill:#474747;}
	.st7{fill:#A1A8BD;}
	.st8{fill:#333333;}
	.st9{fill:#050000;}
</style>
<ellipse class="st0" cx="75" cy="75" rx="75" ry="75"/>
<g>
	<g>
		<g>
			<g>
				<rect x="37.7" y="30.3" class="st1" width="69.5" height="88.6"/>
			</g>
		</g>
		<g>
			<g>
				<rect x="42.8" y="30.3" class="st2" width="69.5" height="88.6"/>
			</g>
		</g>
		<g>
			<g>
				<rect x="46.7" y="108.8" class="st3" width="26.7" height="6.9"/>
			</g>
		</g>
		<g>
			<g>
				<rect x="95.7" y="69.5" class="st4" width="13.3" height="3.1"/>
			</g>
		</g>
		<g>
			<g>
				<rect x="89.1" y="94" class="st4" width="19.9" height="3.1"/>
			</g>
		</g>
		<g>
			<g>
				<rect x="95.7" y="73.9" class="st2" width="13.3" height="1.5"/>
			</g>
		</g>
		<g>
			<g>
				<rect x="95.7" y="76.9" class="st2" width="8.3" height="1.5"/>
			</g>
		</g>
		<g>
			<g>
				<rect x="46.7" y="68" class="st4" width="14.5" height="1.6"/>
			</g>
		</g>
		<g>
			<g>
				<rect x="46.7" y="82.9" class="st4" width="15.8" height="4.7"/>
			</g>
		</g>
		<g>
			<g>
				<ellipse class="st4" cx="103.2" cy="85.2" rx="7.5" ry="2.8"/>
			</g>
		</g>
		<g>
			<g>
				<rect x="46.7" y="70.5" class="st4" width="13" height="1.5"/>
			</g>
		</g>
		<g>
			<g>
				<rect x="46.7" y="72.6" class="st2" width="13" height="1.5"/>
			</g>
		</g>
		<g>
			<g>
				<rect x="46.7" y="74.7" class="st2" width="13" height="1.5"/>
			</g>
		</g>
		<g>
			<g>
				<rect x="95.9" y="98.1" class="st2" width="13" height="1.5"/>
			</g>
		</g>
		<g>
			<g>
				<rect x="95.9" y="100.2" class="st2" width="13" height="1.5"/>
			</g>
		</g>
		<g>
			<g>
				<rect x="95.9" y="102.3" class="st2" width="13" height="1.5"/>
			</g>
		</g>
		<g>
			<g>
				<circle class="st2" cx="54.6" cy="97" r="6.8"/>
			</g>
		</g>
		<g>
			<g>
				<g>
					<path class="st5" d="M101,119.7c-2.8-1.9-6.7-3.4-10.9-4.7c-5.7-1.6-7.8-5-7.8-8.5c0-1.4,0-5.7,0-5.7H70.4c0,0,0,4.3,0,5.7
						c0,3.4-2.1,6.8-7.8,8.5c-4.3,1.3-8.2,2.7-10.9,4.7"/>
					<path class="st6" d="M67.5,87.1c0,0-5.5-2.7-6.5-8.3c-1-5.6,3.4-10.3,7.7-9.5c0,0,6.6-11.2,18.3-1.5
						c11.7,9.7,0.4,17.4-1.6,19.2L67.5,87.1L67.5,87.1z"/>
					
						<ellipse transform="matrix(0.9955 -9.492854e-02 9.492854e-02 0.9955 -8.1462 6.6295)" class="st5" cx="65.6" cy="88.9" rx="1.9" ry="3.1"/>
					<path class="st5" d="M85.3,88.8c-0.1,1.7,0.5,3.1,1.6,3.3c1,0.1,2-1.2,2.2-2.9c0.1-1.7-0.5-3.1-1.6-3.3
						C86.4,85.8,85.4,87.1,85.3,88.8z"/>
					<path class="st7" d="M65.9,73.6v21c0,5.8,4.7,10.5,10.5,10.5s10.5-4.7,10.5-10.5v-21H65.9z"/>
					<path class="st6" d="M69.6,72.4c0,0,0,7.3,10,8.2c5.2,0.4,6.5,2.3,7.3,3.7c0,0,4.6-8.8,1.1-11.8C84.5,69.4,74.7,68.1,69.6,72.4
						z"/>
					<path class="st6" d="M73.6,76.1c0,0-5.1,1-7.7,6.6c0,0-4.3-4.9-2.2-7.4C65.8,72.7,70.8,72.1,73.6,76.1z"/>
					<path class="st8" d="M101,119.7c-2.8-1.9-6.7-3.4-10.9-4.7c-1.7-0.5-3.1-1.2-4.3-1.9c-1.3,3.3-5,5.7-9.4,5.7
						c-4.4,0-8.2-2.4-9.4-5.7c-1.1,0.8-2.5,1.4-4.3,1.9c-4.3,1.3-8.2,2.7-10.9,4.7"/>
				</g>
			</g>
		</g>
	</g>
</g>
<g>
	<g>
		<path class="st9" d="M89.6,50.6c-0.4,0.6-1.1,0.9-1.8,0.9c-1.2,0-2.2-1-2.2-2.1c0-1.2,1-2.1,2.2-2.1c0.8,0,1.4,0.4,1.8,0.9v-2.7
			c-0.6-0.3-1.2-0.4-1.8-0.4c-2.4,0-4.4,1.9-4.4,4.3c0,2.3,2,4.3,4.4,4.3c0.7,0,1.3-0.1,1.8-0.4V50.6z"/>
		<g>
			<path class="st9" d="M94.4,53.7c-2.4,0-4.4-1.9-4.4-4.3c0-2.3,2-4.3,4.4-4.3c2.4,0,4.4,1.9,4.4,4.3
				C98.8,51.8,96.8,53.7,94.4,53.7z M94.4,47.3c-1.2,0-2.2,1-2.2,2.1c0,1.2,1,2.1,2.2,2.1c1.2,0,2.2-1,2.2-2.1
				C96.6,48.3,95.6,47.3,94.4,47.3z"/>
		</g>
	</g>
	<g>
		<path class="st9" d="M83.5,46.6l-2.3-2.1c-0.7,1.5-1.8,2-2.6,2c-0.1,0-0.2,0-0.2,0c0.8-0.5,1.6-1.3,1.8-2.6c0.2-1-0.1-2-0.8-2.7
			c-0.7-0.8-1.7-1.3-2.8-1.3c-1,0-1.9,0.4-2.6,1.1c-0.7,0.7-1.1,1.6-1.1,2.7h0v0v0h0c0,0.6,0.1,1.2,0.2,1.7
			c-0.1,0.1-0.2,0.1-0.4,0.2c-1,0.7-1.7,1.6-1.9,2.8c-0.3,1.4,0.1,2.8,1,3.9c1.1,1.3,2.8,2.1,4.5,2.1c3.1,0,5.6-2.3,5.6-5.1h-2.2
			C81.4,49,82.7,47.9,83.5,46.6z M76.5,51.4c-0.8,0-1.7-0.4-2.2-1c-0.4-0.4-0.5-0.9-0.4-1.4c0.1-0.4,0.2-0.7,0.8-1
			c1,1,2.4,1.5,3.9,1.5c0.1,0,0.3,0,0.4,0C78.9,50.5,77.8,51.4,76.5,51.4z M78.6,48.7c-1.4,0-2.7-0.6-3.6-1.7l0-0.1l-0.1,0
			c-0.8,0.3-1.5,0.8-1.7,1.8c-0.2,0.9,0.2,1.6,0.6,2.1c0.6,0.8,1.7,1.3,2.8,1.3c1.5,0,2.8-0.8,3.2-2h1.5c-0.4,2-2.4,3.5-4.7,3.5
			c-1.5,0-3-0.7-3.9-1.8c-0.8-1-1.1-2.1-0.9-3.3c0.3-1.6,1.5-2.4,2.4-2.7l0.1,0l0-0.1c-0.3-0.6-0.4-1.3-0.4-2c0-1.7,1.2-2.9,2.9-2.9
			c0.8,0,1.6,0.4,2.1,1c0.5,0.6,0.7,1.3,0.6,2.1c-0.2,1.5-1.3,2.1-2.7,2.7l-0.2,0.1l0.1,0.1c0.6,0.5,1.3,0.7,2.1,0.7
			c1.1,0,2.1-0.6,2.8-1.5l1.1,1C81.5,48,80.1,48.7,78.6,48.7z"/>
		<path class="st9" d="M77.9,43.5c0.1-0.4-0.1-0.7-0.3-0.9c-0.3-0.3-0.6-0.5-1-0.5c-0.8,0-1.4,0.6-1.4,1.5c0,0.5,0.1,1.1,0.3,1.5
			l0,0.1l0.1,0C76.9,44.7,77.8,44.4,77.9,43.5z M76.6,42.9c0.2,0,0.3,0.1,0.4,0.2c0.1,0.1,0.1,0.2,0.1,0.2c0,0.3-0.3,0.5-1.1,0.8
			c0-0.2,0-0.4-0.1-0.6C76,43.2,76.2,42.9,76.6,42.9z"/>
	</g>
	<g>
		<path class="st9" d="M55.5,42.8v8.7h3.3l-1,2.1h-4.7V42.8H55.5z"/>
		<path class="st9" d="M59.9,41.4c0.7,0,1.3,0.6,1.3,1.3c0,0.7-0.6,1.3-1.3,1.3s-1.3-0.6-1.3-1.3C58.6,42,59.2,41.4,59.9,41.4z
			 M61,45.2v8.4h-2.2v-8.4H61z"/>
		<path class="st9" d="M64.8,47.1v6.4h-2.2v-6.4h-0.8v-1.9h0.8v-1.2c0-0.7,0.1-2,1.1-2.8c0.5-0.4,1.1-0.7,2-0.7
			c0.5,0,0.9,0.1,1.3,0.3v2c-0.3-0.2-0.6-0.3-1-0.3c-0.3,0-0.6,0.1-0.8,0.4c-0.2,0.3-0.2,0.7-0.2,1.4v0.9h2.1v1.9H64.8z"/>
		<path class="st9" d="M69.1,47.1v6.4h-2.2v-6.4h-0.9v-1.9h0.9v-2.4h2.2v2.4h1.5v1.9H69.1z"/>
	</g>
</g>
</svg>
