<?xml version="1.0" encoding="UTF-8"?>
<svg width="16px" height="18px" viewBox="0 0 16 18" version="1.1" xmlns="http://www.w3.org/2000/svg" xmlns:xlink="http://www.w3.org/1999/xlink">
    <!-- Generator: Sketch 51.3 (57544) - http://www.bohemiancoding.com/sketch -->
    <title>Budicon-Solid/Interface/notification-a</title>
    <desc>Created with Sketch.</desc>
    <defs></defs>
    <g id="Symbols" stroke="none" stroke-width="1" fill="none" fill-rule="evenodd" opacity="0.5">
        <g id="Header-Login" transform="translate(-1472.000000, -41.000000)" fill="#14293D" fill-rule="nonzero">
            <g id="Notivication-non-active" transform="translate(1471.000000, 41.000000)">
                <path d="M16.5540544,12.8375002 L2.46113436,16.5644362 L2.20078236,15.6057562 C2.12565004,15.3289181 2.16506604,15.0334928 2.31015036,14.7860362 L2.81307036,13.9261402 C3.00647014,13.5962854 3.05899149,13.2024791 2.95879836,12.8334682 L1.63435836,7.97649223 C1.23877529,6.49345411 1.45224392,4.91382834 2.22728039,3.58898626 C3.00231686,2.26414419 4.27464706,1.30395551 5.76125436,0.922004231 C8.85770276,0.0891301578 12.0469868,1.90663972 12.9086944,4.99518823 L14.2331344,9.85202023 C14.3343394,10.2223393 14.5790104,10.5370275 14.9129584,10.7263882 L15.7841584,11.2228282 C16.0345071,11.3648847 16.2179501,11.6008214 16.2939184,11.8784602 L16.5540544,12.8375002 Z M6.47405436,16.1828362 C6.90501977,16.8759729 7.66671454,17.2936765 8.48285436,17.2844362 C9.7117966,17.3293632 10.745434,16.3715259 10.7940544,15.1427242 C10.7940544,15.1363882 10.7921104,15.1307722 10.7921104,15.1244362 L6.47405436,16.1828362 Z" id="Shape"></path>
            </g>
        </g>
    </g>
</svg>