<?xml version="1.0" encoding="UTF-8"?>
<svg width="16px" height="18px" viewBox="0 0 16 18" version="1.1" xmlns="http://www.w3.org/2000/svg" xmlns:xlink="http://www.w3.org/1999/xlink">
    <!-- Generator: Sketch 51.3 (57544) - http://www.bohemiancoding.com/sketch -->
    <title>Budicon-Solid/Interface/notification-a</title>
    <desc>Created with Sketch.</desc>
    <defs></defs>
    <g id="Symbols" stroke="none" stroke-width="1" fill="none" fill-rule="evenodd" opacity="0.5">
        <g id="Header-Login" transform="translate(-1472.000000, -41.000000)">
            <g id="Notification-active" transform="translate(1471.000000, 41.000000)">
                <g id="Group" transform="translate(1.440000, 0.720000)">
                    <path d="M9.60180368,1.37292878 C9.00247289,2.06688244 8.64,2.97111118 8.64,3.96 C8.64,6.10085102 10.338844,7.84491577 12.4619773,7.91763968 L12.7931344,9.13202023 C12.8943394,9.50233933 13.1390104,9.81702751 13.4729584,10.0063882 L14.3441584,10.5028282 C14.5945071,10.6448847 14.7779501,10.8808214 14.8539184,11.1584602 L15.1140544,12.1175002 L1.02113436,15.8444362 L0.760782357,14.8857562 C0.685650043,14.6089181 0.725066036,14.3134928 0.870150357,14.0660362 L1.37307036,13.2061402 C1.56647014,12.8762854 1.61899149,12.4824791 1.51879836,12.1134682 L0.194358357,7.25649223 C-0.201224715,5.77345411 0.0122439231,4.19382834 0.78728039,2.86898626 C1.56231686,1.54414419 2.83464706,0.583955513 4.32125436,0.202004231 C6.23696052,-0.313277083 8.18820073,0.185910747 9.60180368,1.37292878 Z M5.03405436,15.4628362 C5.46501977,16.1559729 6.22671454,16.5736765 7.04285436,16.5644362 C8.2717966,16.6093632 9.30543399,15.6515259 9.35405436,14.4227242 C9.35405436,14.4163882 9.35211036,14.4107722 9.35211036,14.4044362 L5.03405436,15.4628362 Z" id="Shape" fill="#14293D" fill-rule="nonzero"></path>
                    <circle id="Oval-2" fill="#FF7373" cx="12.6" cy="3.96" r="2.52"></circle>
                </g>
            </g>
        </g>
    </g>
</svg>