<?xml version="1.0" encoding="UTF-8"?>
<svg width="32px" height="43px" viewBox="0 0 32 43" version="1.1" xmlns="http://www.w3.org/2000/svg" xmlns:xlink="http://www.w3.org/1999/xlink">
    <!-- Generator: Sketch 50.2 (55047) - http://www.bohemiancoding.com/sketch -->
    <title>Other</title>
    <desc>Created with Sketch.</desc>
    <defs></defs>
    <g id="Page-1" stroke="none" stroke-width="1" fill="none" fill-rule="evenodd">
        <g id="Recommender-gender" transform="translate(-1042.000000, -249.000000)" fill="#4296BC" fill-rule="nonzero">
            <g id="Group" transform="translate(185.000000, 140.000000)">
                <g id="Other" transform="translate(715.000000, 76.000000)">
                    <g transform="translate(142.000000, 33.000000)" id="Shape">
                        <path d="M31.8052174,1.6985 C31.8052174,1.6985 31.8052174,1.6985 31.8052174,1.6985 C31.8052174,1.6985 31.8052174,1.61966667 31.8052174,1.57666667 C31.8052174,1.53366667 31.8052174,1.5265 31.8052174,1.49783333 C31.8052174,1.46916667 31.8052174,1.44766667 31.8052174,1.42616667 L31.8052174,1.34016667 L31.8052174,1.27566667 L31.8052174,1.19683333 L31.8052174,1.13233333 L31.8052174,1.06066667 L31.8052174,0.996166667 L31.7634783,0.9245 L31.7286957,0.86 L31.6730435,0.788333333 L31.4643478,0.716666667 C31.402333,0.635460175 31.3324024,0.561015639 31.2556522,0.4945 L31.2069565,0.458666667 L31.1373913,0.4085 L31.0747826,0.372666667 L31.0121739,0.329666667 L30.9495652,0.329666667 L30.88,0.329666667 L30.8173913,0.329666667 L30.7408696,0.329666667 L30.6782609,0.329666667 L30.5947826,0.329666667 L30.5252174,0.329666667 L30.4486957,0.329666667 L24.786087,0.329666667 C24.2210413,0.290172913 23.6817172,0.578330386 23.387543,1.07689986 C23.0933688,1.57546934 23.0933688,2.20136399 23.387543,2.69993347 C23.6817172,3.19850295 24.2210413,3.48666042 24.786087,3.44716667 L26.6434783,3.44716667 L22.3930435,7.826 C16.7262185,3.15946811 8.50787392,3.86634385 3.67063559,9.43635059 C-1.16660275,15.0063573 -0.937651352,23.4991469 4.19221525,28.7839782 C9.32208185,34.0688096 17.5658412,34.3046772 22.9725212,29.321314 C28.3792011,24.3379507 29.0653495,15.8713436 24.5356522,10.0333333 L28.786087,5.6545 L28.786087,7.56083333 C28.786087,8.42170719 29.4634996,9.11958333 30.2991304,9.11958333 C31.1347613,9.11958333 31.8121739,8.42170719 31.8121739,7.56083333 L31.8121739,1.6985 L31.8052174,1.6985 Z M21.3704348,26.3805 C17.775443,30.0692815 12.1518823,30.6285197 7.93837893,27.7162585 C3.72487556,24.8039973 2.09471551,19.2311807 4.04468918,14.4054066 C5.99466285,9.57963253 10.9817834,6.84467895 15.9565872,7.87288194 C20.931391,8.90108494 24.5086015,13.4061326 24.5008696,18.6333333 C24.5071802,21.5407054 23.3850898,24.3300398 21.3843478,26.3805 L21.3704348,26.3805 Z"></path>
                        <path d="M12.6052174,32.25 C12.6052174,32.25 12.6052174,32.25 12.6052174,32.25 L12.6052174,35.604 L9.35652174,35.604 C8.66496518,35.604 8.10434783,36.1815527 8.10434783,36.894 C8.10434783,37.6064473 8.66496518,38.184 9.35652174,38.184 L12.6121739,38.184 L12.6121739,41.5666667 C12.6121739,42.0275393 12.8508369,42.4534032 13.2382608,42.6838395 C13.6256848,42.9142758 14.1030108,42.9142758 14.4904348,42.6838395 C14.8778588,42.4534032 15.1165218,42.0275393 15.1165217,41.5666667 L15.1165217,38.2198333 L18.3652174,38.2198333 C19.0567739,38.2198333 19.6173913,37.6422807 19.6173913,36.9298333 C19.6173913,36.217386 19.0567739,35.6398333 18.3652174,35.6398333 L15.1095652,35.6398333 L15.1095652,32.293 C15.1095652,32.293 15.1095652,32.293 15.1095652,32.293 L12.6052174,32.25 Z"></path>
                    </g>
                </g>
            </g>
        </g>
    </g>
</svg>