<?xml version="1.0" encoding="UTF-8"?>
<svg width="43px" height="43px" viewBox="0 0 43 43" version="1.1" xmlns="http://www.w3.org/2000/svg" xmlns:xlink="http://www.w3.org/1999/xlink">
    <!-- Generator: Sketch 50.2 (55047) - http://www.bohemiancoding.com/sketch -->
    <title>Pain</title>
    <desc>Created with Sketch.</desc>
    <defs></defs>
    <g id="Page-1" stroke="none" stroke-width="1" fill="none" fill-rule="evenodd">
        <g id="Recommender-treat-unselected" transform="translate(-194.000000, -255.000000)" fill="#3F97BE">
            <g id="Body" transform="translate(115.000000, 140.000000)">
                <g id="pain" transform="translate(0.000000, 76.000000)">
                    <g id="Copy" transform="translate(9.000000, 39.000000)">
                        <g id="Pain" transform="translate(70.000000, 0.000000)">
                            <path d="M3.14885417,16.4621917 L15.5000069,16.4621917 C16.7906042,16.4621917 17.9044236,17.3383167 18.2096042,18.5924833 L18.2436458,18.7955389 C18.4968681,21.30865 18.7620347,23.2239417 18.9740486,24.7623861 C19.5850069,29.1764556 19.7898542,30.6569694 18.1080764,34.6541778 C17.6225347,35.8062194 17.7431736,37.0675528 18.4389375,38.1144833 C19.1358958,39.1638028 20.2538958,39.7658028 21.5062708,39.7658028 L35.7476319,39.7658028 C37.0657014,39.7658028 38.1383125,38.6931917 38.1383125,37.3751222 C38.1383125,36.5563306 37.7417569,35.8271222 37.0501736,35.3732333 C36.3842708,34.9378583 35.6037014,34.8620111 34.9097292,35.1630111 L34.1387153,35.4980528 L27.7812847,31.0045528 L27.7812847,13.208525 C27.7812847,7.60717778 23.2238819,3.049775 17.6225347,3.049775 L3.14885417,3.049775 L3.14885417,16.4621917 Z M35.7476319,42.7519139 L21.5062708,42.7519139 C19.2690764,42.7519139 17.1925347,41.6351083 15.9515069,39.7664 C14.7110764,37.8994833 14.4883125,35.5553861 15.3548819,33.4955667 C16.7201319,30.2544417 16.5988958,29.3819 16.0189931,25.1911917 C15.8099653,23.6820111 15.5555486,21.8431639 15.3088958,19.4483028 L2.94997917,19.4483028 C1.41332639,19.4483028 0.162743056,18.1977194 0.162743056,16.6610667 L0.162743056,2.85149722 C0.162743056,1.31424722 1.41332639,0.0636638889 2.94997917,0.0636638889 L17.6225347,0.0636638889 C24.8704236,0.0636638889 30.7673958,5.96063611 30.7673958,13.208525 L30.7673958,29.4589417 L34.5633403,32.1416639 C35.9512847,31.8042333 37.4425486,32.0604417 38.6871597,32.8762472 C40.2136597,33.8765944 41.1244236,35.5589694 41.1244236,37.3751222 C41.1244236,40.3391361 38.7122431,42.7519139 35.7476319,42.7519139 Z" id="Fill-33"></path>
                            <path d="M35.8111764,0.221748611 C35.0437458,0.221748611 34.4214403,0.844054167 34.4214403,1.61148472 L34.4214403,3.00181806 L33.0311069,3.00181806 C32.2636764,3.00181806 31.6413708,3.62412361 31.6413708,4.39155417 L31.6413708,7.17281806 C31.6413708,7.94024861 32.2636764,8.56255417 33.0311069,8.56255417 C33.7991347,8.56255417 34.4214403,7.94024861 34.4214403,7.17281806 L34.4214403,5.78248472 L35.8111764,5.78248472 C36.5792042,5.78248472 37.2015097,5.16017917 37.2015097,4.39155417 L37.2015097,1.61148472 C37.2015097,0.844054167 36.5792042,0.221748611 35.8111764,0.221748611" id="Fill-35"></path>
                            <path d="M42.5234764,7.98677222 C41.9806014,7.44389722 41.1002958,7.44389722 40.5574208,7.98677222 L39.5749903,8.9698 L38.5913653,7.98677222 C38.0490875,7.44389722 37.1687819,7.44389722 36.6259069,7.98677222 L34.6598514,9.95223056 C34.1169764,10.4951056 34.1169764,11.3754111 34.6598514,11.9182861 C35.2021292,12.4611611 36.0830319,12.4611611 36.6259069,11.9182861 L37.6089347,10.9352583 L38.5919625,11.9182861 C39.1342403,12.4611611 40.0145458,12.4611611 40.5574208,11.9182861 L42.5234764,9.95223056 C43.0663514,9.40995278 43.0663514,8.52905 42.5234764,7.98677222" id="Fill-37"></path>
                            <path d="M41.3716139,16.9031208 L39.9818778,16.9031208 L39.9818778,15.5127875 C39.9818778,14.7453569 39.3595722,14.1230514 38.5915444,14.1230514 L35.8108778,14.1230514 C35.0434472,14.1230514 34.4211417,14.7453569 34.4211417,15.5127875 C34.4211417,16.2808153 35.0434472,16.9031208 35.8108778,16.9031208 L37.2018083,16.9031208 L37.2018083,18.2928569 C37.2018083,19.0608847 37.8241139,19.6831903 38.5915444,19.6831903 L41.3716139,19.6831903 C42.1396417,19.6831903 42.7619472,19.0608847 42.7619472,18.2928569 C42.7619472,17.5254264 42.1396417,16.9031208 41.3716139,16.9031208" id="Fill-39"></path>
                        </g>
                    </g>
                </g>
            </g>
        </g>
    </g>
</svg>