<?xml version="1.0" encoding="utf-8"?>
<!-- Generator: Adobe Illustrator 21.0.2, SVG Export Plug-In . SVG Version: 6.00 Build 0)  -->
<svg version="1.1" id="Layer_1" xmlns="http://www.w3.org/2000/svg" xmlns:xlink="http://www.w3.org/1999/xlink" x="0px" y="0px"
	 viewBox="0 0 150 150" style="enable-background:new 0 0 150 150;" xml:space="preserve">
<style type="text/css">
	.st0{fill:#4596BA;}
	.st1{fill:#333333;}
	.st2{fill:#FFFFFF;}
	.st3{fill:#2B2C2B;}
</style>
<ellipse class="st0" cx="75" cy="75" rx="75" ry="75"/>
<g>
	<defs>
		<ellipse id="SVGID_1_" cx="75" cy="75" rx="75" ry="75"/>
	</defs>
	<clipPath id="SVGID_2_">
		<use xlink:href="#SVGID_1_"  style="overflow:visible;"/>
	</clipPath>
</g>
<g>
	<g>
		<path class="st1" d="M69.6,106.6c-9.8,0-18.7-5.3-23.4-13.9l3.5-1.9c4,7.3,11.6,11.8,19.9,11.8c12.5,0,22.7-10.2,22.7-22.7
			c0-5.8-2.2-11.3-6.1-15.5l2.9-2.7c4.6,5,7.2,11.4,7.2,18.2C96.3,94.6,84.4,106.6,69.6,106.6z"/>
	</g>
	<g>
		<path class="st2" d="M63.7,76.3L61,73.6c-0.4-0.4-0.4-1.1,0-1.5l2.8-2.8c0.4-0.4,1.1-0.4,1.5,0l2.7,2.7c0.4,0.4,0.4,1.1,0,1.5
			l-2.8,2.8C64.8,76.7,64.1,76.7,63.7,76.3z"/>
		<path class="st1" d="M67.8,75.6l-6.2-6.2c-0.4-0.4-0.4-1.1,0-1.5l37.7-37.7c0.4-0.4,1.1-0.4,1.5,0l6.2,6.2c0.4,0.4,0.4,1.1,0,1.5
			L69.3,75.6C68.9,76,68.2,76,67.8,75.6z"/>
		<path class="st2" d="M71.3,72.1L65.1,66c-1.3-1.3-1.3-3.3,0-4.6L86.5,40c1.3-1.3,3.3-1.3,4.6,0l6.2,6.2c1.3,1.3,1.3,3.3,0,4.6
			L75.9,72.1C74.6,73.4,72.5,73.4,71.3,72.1z"/>
		<ellipse transform="matrix(0.7071 -0.7071 0.7071 0.7071 -18.0946 79.2103)" class="st3" cx="86.6" cy="61.4" rx="6.1" ry="6.1"/>
	</g>
	<path class="st2" d="M67.5,93.1h-24c-0.4,0-0.8-0.4-0.8-0.8v-3.7c0-0.4,0.4-0.8,0.8-0.8h24c0.4,0,0.8,0.4,0.8,0.8v3.7
		C68.3,92.8,68,93.1,67.5,93.1z"/>
	<path class="st2" d="M60.1,115.3c0-6.1,5-11.1,11.1-11.1c6.1,0,11.1,5,11.1,11.1H60.1z"/>
	<path class="st1" d="M90.4,120.1H51.9c-0.7,0-1-0.5-0.6-1.1l3.1-4.5c0.4-0.6,1.3-1.1,2.1-1.1h28.6c0.7,0,1.7,0.5,2.1,1l3.6,4.6
		C91.3,119.6,91.1,120.1,90.4,120.1z"/>
</g>
</svg>
