<?xml version="1.0" encoding="UTF-8"?>
<svg width="70px" height="70px" viewBox="0 0 70 70" version="1.1" xmlns="http://www.w3.org/2000/svg" xmlns:xlink="http://www.w3.org/1999/xlink">
    <!-- Generator: sketchtool 49.1 (51147) - http://www.bohemiancoding.com/sketch -->
    <title>FE503D4D-3DEA-490A-9D92-15BD38DA5AF5</title>
    <desc>Created with sketchtool.</desc>
    <defs>
        <polygon id="path-1" points="0.111376621 0.0167808219 34.9831233 0.0167808219 34.9831233 38.2631267 0.111376621 38.2631267"></polygon>
    </defs>
    <g id="Homepage-V1" stroke="none" stroke-width="1" fill="none" fill-rule="evenodd">
        <g id="Homepage-Lato" transform="translate(-665.000000, -797.000000)">
            <g id="Reviews" transform="translate(665.000000, 797.000000)">
                <g id="Page-1">
                    <g id="Group-3" transform="translate(34.760274, 0.222945)">
                        <mask id="mask-2" fill="white">
                            <use xlink:href="#path-1"></use>
                        </mask>
                        <g id="Clip-2"></g>
                        <path d="M6.29846575,34.8885034 C5.36808904,34.8885034 4.61103425,34.1314486 4.61103425,33.2010719 C4.61103425,32.2709349 5.36808904,31.5138801 6.29846575,31.5138801 L6.86086301,31.5138801 L7.98565753,31.5138801 L7.98565753,29.2640514 L6.86086301,29.2640514 L6.29846575,29.2640514 L5.17367123,29.2640514 C4.24329452,29.2640514 3.48623973,28.5069966 3.48623973,27.5768596 C3.48623973,26.6464829 4.24329452,25.8894281 5.17367123,25.8894281 L5.73582877,25.8894281 L6.86086301,25.8894281 L6.86086301,23.6395993 L5.73582877,23.6395993 L5.17367123,23.6395993 L4.04863699,23.6395993 C3.11826027,23.6395993 2.36120548,22.8825445 2.36120548,21.9521678 C2.36120548,21.0220308 3.11826027,20.264976 4.04863699,20.264976 L5.73582877,20.264976 L5.73582877,18.0151473 L4.04863699,18.0151473 C3.11826027,18.0151473 2.36120548,17.2580925 2.36120548,16.3277158 C2.36120548,15.3975788 3.11826027,14.640524 4.04863699,14.640524 L13.6101096,14.640524 C14.2324384,14.640524 14.7349041,14.1375788 14.7349041,13.5154897 L14.7349041,6.76600342 C14.7349041,4.67391438 16.1706233,2.90881164 18.1100068,2.40946233 L18.1100068,9.01607192 C18.1100068,9.31525 18.2279521,9.59980479 18.4393904,9.81124315 L22.9390479,14.3109007 C23.1492877,14.5211404 23.4350411,14.640524 23.7342192,14.640524 L28.2338767,14.640524 L28.2338767,34.8885034 L6.29846575,34.8885034 Z M34.9831233,12.3906952 C34.9831233,11.7693253 34.4796986,11.265661 33.8583288,11.265661 L29.3586712,11.265661 C28.7368219,11.265661 28.2338767,11.7686062 28.2338767,12.3906952 L24.2000068,12.3906952 L20.3595959,8.55028425 L20.3595959,1.1417911 C20.3595959,0.523297945 19.8595274,0.0174760274 19.241274,0.0167568493 C15.5159315,0.0131609589 12.4853151,3.04161986 12.4853151,6.76600342 L12.4853151,12.3906952 L4.15531507,12.3906952 C1.98867123,12.3906952 0.11089726,14.1620308 0.111376712,16.3286747 C0.111616438,17.4306952 0.569493151,18.424839 1.30161644,19.1399418 C0.569493151,19.855524 0.111376712,20.8499075 0.111376712,21.9521678 C0.111376712,23.3627158 0.864116438,24.5934692 1.98219863,25.2886747 C1.51760959,25.9354555 1.23641096,26.7217568 1.23641096,27.5768596 C1.23641096,28.9874075 1.98891096,30.2179212 3.10699315,30.9131267 C2.5354863,31.7090171 2.24134247,32.7158664 2.40723288,33.8020651 C2.70305479,35.7407295 4.43171918,37.1383322 6.39315753,37.1383322 L28.2338767,37.1383322 C28.2338767,37.7601815 28.7368219,38.2631267 29.3586712,38.2631267 L33.8583288,38.2631267 C34.4796986,38.2631267 34.9831233,37.7597021 34.9831233,37.1383322 C34.9831233,36.5169623 34.4796986,36.0132979 33.8583288,36.0132979 L30.4837055,36.0132979 L30.4837055,13.5154897 L33.8583288,13.5154897 C34.4796986,13.5154897 34.9831233,13.0118253 34.9831233,12.3906952 Z" id="Fill-1" fill="#4397BC" mask="url(#mask-2)"></path>
                    </g>
                    <path d="M30.9345342,55.3596199 L21.3730616,55.3596199 C20.7509726,55.3596199 20.2482671,55.8625651 20.2482671,56.4844144 L20.2482671,63.2339007 C20.2482671,65.3259897 18.8127877,67.0913322 16.8734041,67.5906815 L16.8734041,60.9840719 C16.8734041,60.6848938 16.7542603,60.3989007 16.5440205,60.1889007 L12.0441233,55.6892432 C11.8326849,55.4775651 11.5481301,55.3596199 11.2489521,55.3596199 L6.74929452,55.3596199 L6.74929452,35.1114007 L28.6847055,35.1114007 C29.6150822,35.1114007 30.372137,35.8684555 30.372137,36.7988322 C30.372137,37.7289692 29.6150822,38.486024 28.6847055,38.486024 L28.1225479,38.486024 L26.9975137,38.486024 L26.9975137,40.7358527 L28.1225479,40.7358527 L28.6847055,40.7358527 L29.8097397,40.7358527 C30.7398767,40.7358527 31.4971712,41.4929075 31.4971712,42.4232842 C31.4971712,43.353661 30.7398767,44.110476 29.8097397,44.110476 L29.2473425,44.110476 L28.1225479,44.110476 L28.1225479,46.3605445 L29.2473425,46.3605445 L29.8097397,46.3605445 L30.9345342,46.3605445 C31.864911,46.3605445 32.6219658,47.1173596 32.6219658,48.0477363 C32.6219658,48.978113 31.864911,49.7351678 30.9345342,49.7351678 L29.2473425,49.7351678 L29.2473425,51.9849966 L30.9345342,51.9849966 C31.864911,51.9849966 32.6219658,52.7418116 32.6219658,53.6721884 C32.6219658,54.6025651 31.864911,55.3596199 30.9345342,55.3596199 M34.8717945,53.6714692 C34.8715548,52.5692089 34.4139178,51.5753048 33.6815548,50.8599623 C34.4139178,50.1446199 34.8717945,49.1502363 34.8717945,48.0477363 C34.8717945,46.6371884 34.1190548,45.4064349 32.999774,44.7112295 C33.4646027,44.0644486 33.7467603,43.278387 33.7467603,42.4232842 C33.7467603,41.0124966 32.9942603,39.7822226 31.8749795,39.0867774 C32.4464863,38.2913664 32.7420685,37.2849966 32.5761781,36.1995171 C32.2791575,34.2591747 30.5478562,32.8615719 28.5852192,32.8615719 L6.74929452,32.8615719 C6.74929452,32.2397226 6.24658904,31.7367774 5.6245,31.7367774 L1.12484247,31.7367774 C0.503712329,31.7367774 4.79452055e-05,32.2404418 4.79452055e-05,32.8615719 C4.79452055e-05,33.4829418 0.503712329,33.9866062 1.12484247,33.9866062 L4.49970548,33.9866062 L4.49970548,56.4844144 L1.12484247,56.4844144 C0.503712329,56.4844144 4.79452055e-05,56.9880788 4.79452055e-05,57.6094486 C4.79452055e-05,58.2308185 0.503712329,58.7342432 1.12484247,58.7342432 L5.6245,58.7342432 C6.24658904,58.7342432 6.74929452,58.2312979 6.74929452,57.6094486 L10.7831644,57.6094486 L14.6235753,61.4496199 L14.6235753,68.8583527 C14.6235753,69.4766062 15.1236438,69.9826678 15.7418973,69.9831473 C19.4672397,69.9869829 22.4980959,66.9582842 22.4980959,63.2339007 L22.4980959,57.6094486 L30.8280959,57.6094486 C32.9945,57.6094486 34.872274,55.8378733 34.8717945,53.6714692" id="Fill-4" fill="#4397BC"></path>
                    <path d="M34.8717466,11.4887021 L34.8825342,11.4887021 C35.4760959,11.4889418 35.9682534,11.0303459 35.9946233,10.437024 L35.9965411,10.3878801 C36.0241096,9.76651027 35.5317123,9.23983219 34.9101027,9.23887329 L34.8717466,9.23887329 C22.7641438,9.23887329 12.3382192,17.6043527 9.65664384,29.2885993 C9.51688356,29.8972637 9.91938356,30.498976 10.5333219,30.6116473 L10.5817466,30.6205171 C11.1630822,30.7271952 11.7199658,30.3539418 11.8525342,29.7778801 C14.305411,19.1191815 23.8213356,11.4887021 34.8717466,11.4887021" id="Fill-6" fill="#4397BC"></path>
                    <path d="M34.8717466,58.7342911 L34.8609589,58.7342911 C34.2673973,58.7340514 33.7752397,59.1926473 33.7488699,59.7859692 L33.7469521,59.835113 C33.7193836,60.4564829 34.2117808,60.983161 34.8333904,60.9841199 L34.8717466,60.9841199 C46.9781507,60.9841199 57.405274,52.6184007 60.0868493,40.9341541 C60.2266096,40.3257295 59.8241096,39.7240171 59.2101712,39.6113459 L59.1617466,39.602476 C58.580411,39.4957979 58.0235274,39.8690514 57.8909589,40.445113 C55.4380822,51.1038116 45.9221575,58.7342911 34.8717466,58.7342911" id="Fill-8" fill="#4397BC"></path>
                </g>
            </g>
        </g>
    </g>
</svg>