<?xml version="1.0" encoding="utf-8"?>
<!-- Generator: Adobe Illustrator 21.0.2, SVG Export Plug-In . SVG Version: 6.00 Build 0)  -->
<svg version="1.1" id="Layer_1" xmlns="http://www.w3.org/2000/svg" xmlns:xlink="http://www.w3.org/1999/xlink" x="0px" y="0px"
	 viewBox="0 0 150 150" style="enable-background:new 0 0 150 150;" xml:space="preserve">
<style type="text/css">
	.st0{fill:#F2CE14;}
	.st1{fill:#922370;}
	.st2{fill:#EC6A23;}
	.st3{fill:#FFFFFF;}
</style>
<g>
	<g>
		<g>
			<path class="st0" d="M37.4,88.6c0.4-0.7,0.9-0.7,1.3,0l3.6,7.2c0.4,0.7,1.3,1.4,2.1,1.5l8,1.2c0.8,0.1,1,0.7,0.4,1.2l-5.8,5.6
				c-0.6,0.6-0.9,1.7-0.8,2.5l1.4,7.9c0.1,0.8-0.3,1.1-1.1,0.8l-7.1-3.8c-0.7-0.4-1.9-0.4-2.6,0l-7.1,3.8c-0.7,0.4-1.2,0-1.1-0.8
				l1.4-7.9c0.1-0.8-0.2-1.9-0.8-2.5l-5.8-5.6c-0.6-0.6-0.4-1.1,0.4-1.2l8-1.2c0.8-0.1,1.7-0.8,2.1-1.5L37.4,88.6z"/>
		</g>
		<g>
			<path class="st0" d="M74.4,88.6c0.4-0.7,0.9-0.7,1.3,0l3.6,7.2c0.4,0.7,1.3,1.4,2.1,1.5l8,1.2c0.8,0.1,1,0.7,0.4,1.2l-5.8,5.6
				c-0.6,0.6-0.9,1.7-0.8,2.5l1.4,7.9c0.1,0.8-0.3,1.1-1.1,0.8l-7.1-3.8c-0.7-0.4-1.9-0.4-2.6,0l-7.1,3.8c-0.7,0.4-1.2,0-1.1-0.8
				l1.4-7.9c0.1-0.8-0.2-1.9-0.8-2.5l-5.8-5.6c-0.6-0.6-0.4-1.1,0.4-1.2l8-1.2c0.8-0.1,1.7-0.8,2.1-1.5L74.4,88.6z"/>
		</g>
		<g>
			<path class="st0" d="M111.3,88.6c0.4-0.7,0.9-0.7,1.3,0l3.6,7.2c0.4,0.7,1.3,1.4,2.1,1.5l8,1.2c0.8,0.1,1,0.7,0.4,1.2l-5.8,5.6
				c-0.6,0.6-0.9,1.7-0.8,2.5l1.4,7.9c0.1,0.8-0.3,1.1-1.1,0.8l-7.1-3.8c-0.7-0.4-1.9-0.4-2.6,0l-7.1,3.8c-0.7,0.4-1.2,0-1.1-0.8
				l1.4-7.9c0.1-0.8-0.2-1.9-0.8-2.5l-5.8-5.6c-0.6-0.6-0.4-1.1,0.4-1.2l8-1.2c0.8-0.1,1.7-0.8,2.1-1.5L111.3,88.6z"/>
		</g>
	</g>
</g>
<g>
	<g>
		<circle class="st1" cx="75.3" cy="69.6" r="32.9"/>
		<path class="st2" d="M75.3,36.7c18.1,0,32.9,14.7,32.9,32.9s-14.7,32.9-32.9,32.9"/>
		<g>
			<path class="st3" d="M90.6,88l-3.7-0.3c-0.3,0-4-0.3-7.3-2.4c-1.5-1.2-3.1-2.4-3.7-3.7c-0.9,1.2-2.1,2.7-3.7,3.7
				c-3.4,2.1-7,2.4-7.3,2.4L61.3,88l1.5-3.4c0,0,1.2-2.4,3.4-4c-4.9-1.5-8.2-4-8.2-4l-2.7-2.4l3.7-1.5c0,0,1.5-0.6,4-0.9
				c-2.4-3.4-3.4-6.7-3.4-6.7l-1.2-3.7l3.7,0.9c0.3,0,4.6,0.9,8.2,4.6c0-0.6,0-1.2,0-1.5c0-7.3,3.4-12.8,3.7-12.8l1.8-3.4l1.5,3.4
				c0,0.3,3.7,6.1,3.7,12.8c0,0.6,0,1.2,0,1.5c3.7-3.7,7.9-4.6,7.9-4.6l3.7-0.9l-0.9,3.7c0,0-0.9,3.7-3.7,7c2.4,0.3,4,0.6,4,0.9
				l3.7,1.2L93,76.7c0,0-3.4,3.1-7.6,4c2.1,2.1,3.4,4,3.4,4L90.6,88z"/>
		</g>
	</g>
	<g>
		<g>
			<g>
				<path class="st0" d="M37.7,88.6c0.4-0.7,0.9-0.7,1.3,0l3.6,7.2c0.4,0.7,1.3,1.4,2.1,1.5l8,1.2c0.8,0.1,1,0.7,0.4,1.2l-5.8,5.6
					c-0.6,0.6-0.9,1.7-0.8,2.5l1.4,7.9c0.1,0.8-0.3,1.1-1.1,0.8l-7.1-3.8c-0.7-0.4-1.9-0.4-2.6,0l-7.1,3.8c-0.7,0.4-1.2,0-1.1-0.8
					l1.4-7.9c0.1-0.8-0.2-1.9-0.8-2.5l-5.8-5.6c-0.6-0.6-0.4-1.1,0.4-1.2l8-1.2c0.8-0.1,1.7-0.8,2.1-1.5L37.7,88.6z"/>
			</g>
			<g>
				<path class="st0" d="M74.7,88.6c0.4-0.7,0.9-0.7,1.3,0l3.6,7.2c0.4,0.7,1.3,1.4,2.1,1.5l8,1.2c0.8,0.1,1,0.7,0.4,1.2l-5.8,5.6
					c-0.6,0.6-0.9,1.7-0.8,2.5l1.4,7.9c0.1,0.8-0.3,1.1-1.1,0.8l-7.1-3.8c-0.7-0.4-1.9-0.4-2.6,0l-7.1,3.8c-0.7,0.4-1.2,0-1.1-0.8
					l1.4-7.9c0.1-0.8-0.2-1.9-0.8-2.5l-5.8-5.6c-0.6-0.6-0.4-1.1,0.4-1.2l8-1.2c0.8-0.1,1.7-0.8,2.1-1.5L74.7,88.6z"/>
			</g>
			<g>
				<path class="st0" d="M111.6,88.6c0.4-0.7,0.9-0.7,1.3,0l3.6,7.2c0.4,0.7,1.3,1.4,2.1,1.5l8,1.2c0.8,0.1,1,0.7,0.4,1.2l-5.8,5.6
					c-0.6,0.6-0.9,1.7-0.8,2.5l1.4,7.9c0.1,0.8-0.3,1.1-1.1,0.8l-7.1-3.8c-0.7-0.4-1.9-0.4-2.6,0l-7.1,3.8c-0.7,0.4-1.2,0-1.1-0.8
					l1.4-7.9c0.1-0.8-0.2-1.9-0.8-2.5l-5.8-5.6c-0.6-0.6-0.4-1.1,0.4-1.2l8-1.2c0.8-0.1,1.7-0.8,2.1-1.5L111.6,88.6z"/>
			</g>
		</g>
	</g>
</g>
</svg>
