<?xml version="1.0" encoding="utf-8"?>
<!-- Generator: Adobe Illustrator 21.0.2, SVG Export Plug-In . SVG Version: 6.00 Build 0)  -->
<svg version="1.1" id="Layer_1" xmlns="http://www.w3.org/2000/svg" xmlns:xlink="http://www.w3.org/1999/xlink" x="0px" y="0px"
	 viewBox="0 0 150 150" style="enable-background:new 0 0 150 150;" xml:space="preserve">
<style type="text/css">
	.st0{fill:#4596BA;}
	.st1{fill:#F1F2F7;}
	.st2{fill:#333333;}
</style>
<ellipse class="st0" cx="75" cy="75" rx="75" ry="75"/>
<g>
	<defs>
		<ellipse id="SVGID_1_" cx="75" cy="75" rx="75" ry="75"/>
	</defs>
	<clipPath id="SVGID_2_">
		<use xlink:href="#SVGID_1_"  style="overflow:visible;"/>
	</clipPath>
</g>
<path class="st1" d="M75.2,38.5c20.2,0,36.5,16.4,36.5,36.5c0,7.2-2.1,13.9-5.6,19.5c-1.8,13.1,7.2,18.6,7.2,18.6
	C95.1,114.2,91,108,91,108c-4.8,2.3-10.2,3.6-15.8,3.6c-20.2,0-36.5-16.4-36.5-36.5S55,38.5,75.2,38.5z"/>
<g>
	<path class="st2" d="M79.5,68.1l-3,25.2h-7.4l3-25.2H79.5z M80.9,61.2c0,0.6-0.1,1.2-0.4,1.7c-0.3,0.5-0.6,1-1,1.4
		c-0.4,0.4-0.9,0.7-1.4,0.9c-0.5,0.2-1.1,0.4-1.7,0.4s-1.1-0.1-1.6-0.4c-0.5-0.2-1-0.5-1.4-0.9s-0.7-0.9-1-1.4
		c-0.2-0.5-0.4-1.1-0.4-1.7s0.1-1.2,0.4-1.7c0.2-0.5,0.6-1,1-1.4c0.4-0.4,0.9-0.7,1.4-1c0.5-0.2,1.1-0.4,1.6-0.4
		c0.6,0,1.1,0.1,1.7,0.3s1,0.5,1.4,0.9c0.4,0.4,0.7,0.9,1,1.4C80.8,60,80.9,60.6,80.9,61.2z"/>
</g>
</svg>
