<svg id="Layer_1" data-name="Layer 1" xmlns="http://www.w3.org/2000/svg" viewBox="0 0 70 70"><defs><style>.cls-1{fill:#040000;}</style></defs><title>Icons</title><path class="cls-1" d="M49.9,9.22A30.14,30.14,0,0,1,60.78,20.1a28.92,28.92,0,0,1,4,14.9,28.91,28.91,0,0,1-4,14.9A30.11,30.11,0,0,1,49.9,60.78a28.88,28.88,0,0,1-14.9,4,28.87,28.87,0,0,1-14.9-4A30.08,30.08,0,0,1,9.22,49.9a28.87,28.87,0,0,1-4-14.9,28.88,28.88,0,0,1,4-14.9A30.11,30.11,0,0,1,20.1,9.22a28.91,28.91,0,0,1,14.9-4A28.92,28.92,0,0,1,49.9,9.22ZM47,55.79A24.23,24.23,0,0,0,55.79,47a23.88,23.88,0,0,0,0-24A24.26,24.26,0,0,0,47,14.21a23.88,23.88,0,0,0-24,0A24.23,24.23,0,0,0,14.21,23a23.88,23.88,0,0,0,0,24A24.2,24.2,0,0,0,23,55.79a23.88,23.88,0,0,0,24,0ZM46.12,23a12.54,12.54,0,0,0-4.63-3.85,12.8,12.8,0,0,0-5.77-1.44,14,14,0,0,0-7,1.62,16,16,0,0,0-5.17,4.87,1.93,1.93,0,0,0-.18,1.08,1.3,1.3,0,0,0,.54,1l3.37,2.52a1.19,1.19,0,0,0,1,.24,1.78,1.78,0,0,0,.9-.48,12.66,12.66,0,0,1,2.64-2.76,5.81,5.81,0,0,1,3.19-.84,6.14,6.14,0,0,1,3.37,1,2.82,2.82,0,0,1,1.5,2.4,2.65,2.65,0,0,1-.84,1.92,22,22,0,0,1-2.52,1.68l-.24.12a17.83,17.83,0,0,0-3.61,2.52,6.38,6.38,0,0,0-1.92,4.69v1.08a1.44,1.44,0,0,0,1.44,1.44h5.53a1.44,1.44,0,0,0,1.44-1.44v-.72A1.74,1.74,0,0,1,40,38.12,10.68,10.68,0,0,1,42,36.8a16.39,16.39,0,0,0,4-2.88,8.3,8.3,0,0,0,1.92-5.53A9,9,0,0,0,46.12,23ZM38.55,44.92A4.93,4.93,0,1,0,40,48.46,4.86,4.86,0,0,0,38.55,44.92Z"/></svg>