<?xml version="1.0" encoding="UTF-8"?>
<svg width="50px" height="70px" viewBox="0 0 50 70" version="1.1" xmlns="http://www.w3.org/2000/svg" xmlns:xlink="http://www.w3.org/1999/xlink">
    <!-- Generator: sketchtool 49.1 (51147) - http://www.bohemiancoding.com/sketch -->
    <title>7921E7A9-8AE2-4EFE-87A7-3D463E9D8F12</title>
    <desc>Created with sketchtool.</desc>
    <defs></defs>
    <g id="Homepage-V1" stroke="none" stroke-width="1" fill="none" fill-rule="evenodd">
        <g id="Homepage-Lato" transform="translate(-1079.000000, -797.000000)" fill="#4397BC">
            <g id="Recommend" transform="translate(1079.000000, 797.000000)">
                <g id="Page-1">
                    <path d="M11.2115035,13.1634266 L38.0276224,13.1634266 L38.0276224,2.4358042 L11.2115035,2.4358042 L11.2115035,13.1634266 Z M28.2594406,28.526958 C29.4408741,28.7682867 30.5811888,28.0234965 31.686014,27.3031818 C31.9662587,27.1208392 32.3480769,26.8724126 32.6696853,26.6944755 L32.9462587,26.5407692 L33.0253147,26.8474476 C33.1129371,27.1891259 33.1941958,27.6201399 33.2426573,27.8778671 C33.4825175,29.1412937 33.7297203,30.4424126 34.7067832,31.1052098 C35.6882517,31.7702098 36.9861888,31.5137063 38.241049,31.2655245 C38.4909441,31.2155944 38.908986,31.1326224 39.2511538,31.0858741 L39.5676224,31.0427972 L39.526993,31.3595105 C39.481958,31.708042 39.3992308,32.129021 39.3444056,32.4077972 C39.0967133,33.6739161 38.8406993,34.9836014 39.5005594,35.9684965 C40.1618881,36.9551049 41.4681469,37.2108741 42.7313287,37.4583217 C43.0717832,37.5244056 43.4611888,37.601993 43.783042,37.6871678 L44.0875175,37.7676923 L43.9340559,38.043042 C43.7678671,38.3411538 43.5348601,38.7004545 43.3647552,38.9633217 L43.3275524,39.0208392 C42.6096853,40.1202797 41.8678322,41.2564336 42.105,42.4285664 C42.1796503,42.7986364 42.3776573,43.7798601 44.7618182,45.7729021 L44.9862587,45.9606294 L44.7618182,46.1483566 C42.3487762,48.1683217 42.1397552,49.1882168 42.070979,49.5232867 C41.8318531,50.7003147 42.571993,51.8457692 43.2874126,52.9537762 L43.3167832,52.9993007 C43.4925175,53.2724476 43.7333566,53.6459441 43.9024825,53.9565385 L44.0527622,54.2323776 L43.7485315,54.3109441 C43.4266783,54.3936713 43.0287063,54.4697902 42.7379371,54.5255944 C41.4600699,54.7701049 40.1611538,55.0182867 39.5032517,55.9995105 C38.8419231,56.9787762 39.0962238,58.2784266 39.341958,59.535 L39.3490559,59.5707343 C39.4043706,59.8534266 39.4804895,60.2403846 39.5225874,60.5646853 L39.5637063,60.8809091 L39.2474825,60.8388112 C38.907028,60.793042 38.489965,60.7108042 38.2141259,60.6564685 C36.9426224,60.4063287 35.6407692,60.1500699 34.6580769,60.8145804 C33.6778322,61.4766434 33.4237762,62.7841259 33.1782867,64.0487762 L33.1697203,64.0916084 C33.1126923,64.3843357 33.0346154,64.7852448 32.948951,65.1080769 L32.8676923,65.4132867 L32.5923427,65.2586014 C32.2971678,65.0926573 31.9447203,64.8616084 31.6872378,64.692972 L31.6326573,64.6572378 C30.5373776,63.9364336 29.4056294,63.1904196 28.2286014,63.4285664 C27.0552448,63.6662238 26.3009091,64.7940559 25.5715385,65.8846853 C25.3808741,66.1683566 25.1282867,66.5445455 24.9055594,66.8304196 L24.7129371,67.0778671 L24.5198252,66.8309091 C24.2868182,66.5335315 24.0183217,66.1328671 23.8403846,65.8677972 C23.1066084,64.7705594 22.3481119,63.6361189 21.1708392,63.3938112 C21.0159091,63.3622378 20.8626923,63.3468182 20.7031119,63.3468182 C19.6959441,63.3468182 18.7059091,63.9912587 17.7484266,64.6148951 L17.7224825,64.6317832 C17.4495804,64.8094755 17.0758392,65.0527622 16.7605944,65.2267832 L16.484021,65.3792657 L16.4052098,65.0733217 C16.3232168,64.7536713 16.2490559,64.3593706 16.1947203,64.0717832 L16.1893357,64.0424126 C15.9494755,62.7794755 15.7025175,61.4783566 14.7252098,60.816049 C13.7452098,60.1515385 12.4467832,60.4077972 11.1906993,60.6557343 C10.9586713,60.7017483 10.5261888,60.7879021 10.1793706,60.8351399 L9.86167832,60.8784615 L9.90377622,60.5605245 C9.94538462,60.246014 10.0153846,59.8796154 10.0716783,59.5854196 L10.0858741,59.511993 C10.3343007,58.2431818 10.5903147,56.9364336 9.93143357,55.9525175 C9.26986014,54.9659091 7.96384615,54.7101399 6.70115385,54.4626923 C6.41723776,54.4071329 5.98940559,54.3236713 5.64846154,54.2331119 L5.3456993,54.1525874 L5.4972028,53.8782168 C5.67195804,53.5617483 5.91793706,53.1845804 6.09758741,52.9092308 C6.82181818,51.8004895 7.56293706,50.6655594 7.32699301,49.4912238 C7.08958042,48.3168881 5.96713287,47.5596154 4.88164336,46.8273077 C4.56566434,46.6136364 4.20538462,46.3681469 3.92881119,46.1500699 L3.6865035,45.9591608 L3.92783217,45.7665385 C4.21248252,45.5394056 4.59552448,45.2804545 4.87552448,45.0915035 L4.90024476,45.0746154 C5.9920979,44.3374126 7.1213986,43.5747552 7.36125874,42.396993 C7.59965035,41.2233916 6.86146853,40.0796503 6.14800699,38.9736014 C5.9827972,38.7185664 5.71283217,38.301014 5.52951049,37.9644755 L5.37947552,37.6888811 L5.68321678,37.6103147 C6.00825175,37.5263636 6.40867133,37.4497552 6.70115385,37.393951 C7.97020979,37.1509091 9.26937063,36.9024825 9.93020979,35.9202797 C10.5886014,34.9415035 10.3343007,33.6433217 10.0885664,32.3877273 C10.0234615,32.0558392 9.9515035,31.6798951 9.90793706,31.3573077 L9.86534965,31.0396154 L10.183042,31.0822028 C10.5242308,31.127972 10.9408042,31.2102098 11.2163986,31.2647902 C12.4808042,31.5137063 13.7885315,31.7714336 14.7712238,31.1069231 C15.7546503,30.4429021 16.008951,29.1324825 16.2549301,27.8651399 C16.3166084,27.5479371 16.3956643,27.1418881 16.4813287,26.8136713 L16.5613636,26.5072378 L16.8376923,26.6619231 C17.1416783,26.8322727 17.5017133,27.068951 17.7643357,27.2417483 L17.7993357,27.2645105 C18.9036713,27.989965 20.0273427,28.7286364 21.2021678,28.4924476 C22.3730769,28.2552797 23.1271678,27.1298951 23.8565385,26.0414685 L23.8849301,25.9991259 C24.0640909,25.7323427 24.3093357,25.3669231 24.524965,25.0903497 L24.7175874,24.8431469 L24.9106993,25.0901049 C25.1468881,25.3916434 25.4244406,25.8067483 25.5901399,26.0546853 C26.3256294,27.1516783 27.0853497,28.2851399 28.2594406,28.526958 Z M2.4358042,13.1634266 L8.77545455,13.1634266 L8.77545455,2.4358042 L2.4358042,2.4358042 L2.4358042,13.1634266 Z M40.4634266,13.1634266 L46.8275524,13.1634266 L46.8275524,2.4358042 L40.4634266,2.4358042 L40.4634266,13.1634266 Z M49.2631119,15.5992308 L49.2631119,0 L0,0 L0,15.5992308 L23.4015385,15.5992308 L23.4015385,22.4420979 L23.3026573,22.5155245 C22.6352098,23.0101748 22.0940559,23.8186014 21.6162937,24.5315734 C21.3798601,24.8842657 21.033042,25.4014336 20.7806993,25.6816783 L20.6590559,25.817028 L20.4943357,25.7391958 C20.1506993,25.5771678 19.6293706,25.2342657 19.2845105,25.0076224 C18.1025874,24.2283217 16.7627972,23.3452448 15.4538462,23.8993706 C14.1664336,24.4444406 13.8670979,25.9883566 13.6032517,27.3506643 L13.5981119,27.3783217 C13.5249301,27.7515734 13.4147902,28.3157343 13.300979,28.6581469 L13.2412587,28.8377972 L13.0523077,28.8250699 C12.6849301,28.8005944 12.1163636,28.6882517 11.7401748,28.6140909 C10.382028,28.3446154 8.84325175,28.0394056 7.85297203,29.0336014 C6.87101399,30.0175175 7.17157343,31.5496853 7.43688811,32.9014685 C7.50982517,33.2732517 7.61972028,33.8334965 7.64517483,34.1994056 L7.65863636,34.3905594 L7.47653846,34.4493007 C7.13216783,34.5604196 6.57706294,34.6668881 6.20968531,34.7371329 C4.85423077,34.9960839 3.32475524,35.2883217 2.78017483,36.5715734 C2.22433566,37.8817483 3.10104895,39.2372028 3.87447552,40.4333217 C4.15692308,40.8694755 4.47094406,41.3626573 4.61804196,41.6933217 L4.68951049,41.8533916 L4.56101399,41.9725874 C4.2770979,42.2359441 3.72003497,42.6113986 3.38716783,42.8358392 C2.20548951,43.6352098 0.870104895,44.5383566 0.870104895,45.9608741 C0.870104895,47.3777622 2.19814685,48.2747902 3.37027972,49.0658392 C3.7193007,49.3017832 4.24185315,49.6544755 4.52111888,49.9102448 L4.6527972,50.0306643 L4.57814685,50.1931818 C4.41979021,50.5377972 4.07321678,51.0681818 3.84388112,51.4191608 C3.06898601,52.606958 2.19227273,53.9506643 2.74052448,55.2556993 C3.2829021,56.5467832 4.82265734,56.8483217 6.18129371,57.1143706 C6.55895105,57.188042 7.12972028,57.2994056 7.48020979,57.4166434 L7.65912587,57.4763636 L7.64688811,57.6645804 C7.62314685,58.0317133 7.5108042,58.6066434 7.43664336,58.9872378 C7.16888112,60.3544406 6.86660839,61.8981119 7.8515035,62.8864336 C8.83321678,63.873042 10.3631818,63.5722378 11.713007,63.3064336 C12.0916434,63.232028 12.6391608,63.1245804 12.9947902,63.0979021 L13.1869231,63.0837063 L13.2459091,63.267028 C13.3584965,63.6167832 13.4637413,64.1753147 13.5334965,64.5448951 C13.790979,65.9013287 14.0817483,67.4347203 15.3588811,67.9812587 C16.6734615,68.5432168 18.025,67.6603846 19.2176923,66.8818182 C19.5740559,66.650035 20.1112937,66.3002797 20.4595804,66.1404545 L20.6218531,66.066049 L20.7422727,66.1977273 C21.000979,66.4809091 21.3575874,67.013986 21.5935315,67.3669231 C22.3909441,68.5576573 23.2909091,69.9011189 24.7151399,69.9011189 C26.133007,69.9011189 27.0270979,68.5662238 27.8154545,67.3884615 C28.0310839,67.0658741 28.3923427,66.5254545 28.6498252,66.2390909 L28.7712238,66.103986 L28.9356993,66.1813287 C29.2859441,66.346049 29.8253846,66.7016783 30.1477273,66.9141259 C31.3323427,67.6926923 32.6718881,68.5738112 33.9781469,68.0213986 C35.2655594,67.4765734 35.5648951,65.9316783 35.8287413,64.5688811 L35.8343706,64.5395105 C35.9073077,64.166993 36.0174476,63.6045455 36.1307692,63.2628671 L36.1904895,63.082972 L36.3796853,63.0954545 C36.7482867,63.1206643 37.3153846,63.2327622 37.6905944,63.3069231 C39.0497203,63.5756643 40.5904545,63.8806294 41.5802448,62.8864336 C42.5607343,61.9012937 42.2601748,60.3708392 41.9948601,59.0205245 C41.9221678,58.648986 41.812028,58.0875175 41.7865734,57.7213636 L41.7733566,57.5306993 L41.9552098,57.4717133 C42.3005594,57.3596154 42.8576224,57.2531469 43.225979,57.1826573 C44.5758042,56.9249301 46.1055245,56.6331818 46.6505944,55.3506643 C47.2061888,54.0426923 46.3314336,52.686993 45.5594755,51.4906294 C45.2997902,51.0892308 44.915035,50.4937413 44.7796853,50.1488811 L44.7336713,50.0313986 L44.8024476,49.9259091 C45.0946853,49.4772727 46.0320979,48.5114685 47.7123427,47.2666434 C48.1257343,46.959965 48.3717133,46.4702098 48.3704895,45.956958 C48.3695105,45.4446853 48.123042,44.9576224 47.7116084,44.6538811 C45.930035,43.3331818 45.0503846,42.3779021 44.8345105,42.0567832 L44.7632867,41.9512937 L44.8088112,41.8320979 C44.9321678,41.5124476 45.2765385,40.9756993 45.5895804,40.4976923 C46.363007,39.3113636 47.2377622,37.9688811 46.6914685,36.6640909 C46.1490909,35.3737413 44.6093357,35.0724476 43.2506993,34.8066434 C42.8732867,34.732972 42.3022727,34.6216084 41.9503147,34.5043706 L41.7713986,34.4446503 L41.7836364,34.2561888 C41.8068881,33.8988462 41.9121329,33.3586713 41.988986,32.9643706 L41.9963287,32.9269231 C42.2623776,31.5616783 42.5626923,30.0214336 41.5802448,29.0343357 C40.5982867,28.046993 39.0697902,28.3482867 37.7216783,28.6138462 C37.3408392,28.6887413 36.7928322,28.7964336 36.4354895,28.8228671 L36.2423776,28.8373077 L36.1841259,28.6527622 C36.0783916,28.3194056 35.9787762,27.8002797 35.9060839,27.4213986 L35.897028,27.3751399 C35.6412587,26.0211538 35.3517133,24.4875175 34.0731119,23.9395105 C32.761958,23.3802448 31.406993,24.2613636 30.2120979,25.0394406 L30.1785664,25.0614685 C29.8116783,25.2996154 29.3091958,25.6258741 28.9704545,25.7805594 L28.8074476,25.8552098 L28.6872727,25.7223077 C28.4273427,25.4352098 28.0712238,24.9028671 27.8357692,24.5506643 C27.3097902,23.7654895 26.7140559,22.8755594 25.9511538,22.3929021 L25.8373427,22.3209441 L25.8373427,15.5992308 L49.2631119,15.5992308 Z" id="Fill-1"></path>
                    <path d="M25.6161329,41.0321888 C26.485993,39.7932378 27.9053287,39.0535874 29.413021,39.0535874 C31.9721818,39.0535874 34.0543147,41.1357203 34.0543147,43.6948811 C34.0543147,46.0247063 26.9801538,53.6897063 24.7739301,55.4578182 L24.6219371,55.579951 L24.468965,55.459042 C22.0111329,53.5181329 15.1849091,45.9228881 15.1849091,43.6948811 C15.1849091,41.1357203 17.267042,39.0535874 19.8262028,39.0535874 C21.3338951,39.0535874 22.7532308,39.7932378 23.6228462,41.0324336 L24.6197343,42.4505455 L25.6161329,41.0321888 Z M19.8262028,36.618028 C15.9238252,36.618028 12.7493497,39.7927483 12.7493497,43.6948811 C12.7493497,45.3668042 14.562007,48.4203706 17.7225315,52.0721189 C20.3947692,55.159951 23.2464126,57.7413846 24.1341399,58.1271189 L24.6136154,58.3356503 L25.0952937,58.1312797 C25.9835105,57.7543566 28.8371119,55.1854056 31.5115524,52.101 C34.6755035,48.4524336 36.4898741,45.3885874 36.4898741,43.6948811 C36.4898741,39.7927483 33.3151538,36.618028 29.413021,36.618028 C27.7149091,36.618028 26.0696643,37.2335874 24.780049,38.3513846 L24.6197343,38.4901608 L24.4591748,38.3513846 C23.1695594,37.2335874 21.5240699,36.618028 19.8262028,36.618028 Z" id="Fill-3"></path>
                </g>
            </g>
        </g>
    </g>
</svg>