<?xml version="1.0" encoding="utf-8"?>
<!-- Generator: Adobe Illustrator 21.0.2, SVG Export Plug-In . SVG Version: 6.00 Build 0)  -->
<svg version="1.1" id="Layer_1" xmlns="http://www.w3.org/2000/svg" xmlns:xlink="http://www.w3.org/1999/xlink" x="0px" y="0px"
	 viewBox="0 0 150 150" style="enable-background:new 0 0 150 150;" xml:space="preserve">
<style type="text/css">
	.st0{fill:#4596BA;}
	.st1{fill:#333333;}
	.st2{opacity:0.4;fill:#333333;}
	.st3{opacity:0.3;fill:#333333;}
	.st4{fill:#FFFFFF;}
</style>
<ellipse class="st0" cx="75" cy="75" rx="75" ry="75"/>
<g>
	<defs>
		<ellipse id="SVGID_1_" cx="75" cy="75" rx="75" ry="75"/>
	</defs>
	<clipPath id="SVGID_2_">
		<use xlink:href="#SVGID_1_"  style="overflow:visible;"/>
	</clipPath>
</g>
<g>
	<g>
		<g>
			<rect x="31.6" y="108.9" class="st1" width="18.3" height="3"/>
			<rect x="31.6" y="108.7" class="st1" width="18.3" height="2.7"/>
			<path class="st2" d="M33.7,112h-0.7v-3.2h0.7V112z M35.7,108.7H34v3.2h1.7V108.7z"/>
			<path class="st3" d="M48.5,108.7h0.7v3.2h-0.7V108.7z M44.4,112H48v-3.2h-3.6V112z"/>
		</g>
		<g>
			<rect x="31.6" y="105.7" class="st1" width="18.3" height="3"/>
			<rect x="31.6" y="105.5" class="st1" width="18.3" height="2.7"/>
			<path class="st2" d="M33.7,108.7h-0.7v-3.2h0.7V108.7z M35.7,105.5H34v3.2h1.7V105.5z"/>
			<path class="st3" d="M48.5,105.5h0.7v3.2h-0.7V105.5z M44.4,108.7H48v-3.2h-3.6V108.7z"/>
		</g>
		<g>
			<rect x="100.1" y="108.9" class="st1" width="18.3" height="3"/>
			<rect x="100.1" y="108.7" class="st1" width="18.3" height="2.7"/>
			<path class="st2" d="M102.1,112h-0.7v-3.2h0.7V112z M104.2,108.7h-1.7v3.2h1.7V108.7z"/>
			<path class="st3" d="M116.9,108.7h0.7v3.2h-0.7V108.7z M112.9,112h3.6v-3.2h-3.6V112z"/>
		</g>
		<g>
			<rect x="100.1" y="105.7" class="st1" width="18.3" height="3"/>
			<rect x="100.1" y="105.5" class="st1" width="18.3" height="2.7"/>
			<path class="st2" d="M102.1,108.7h-0.7v-3.2h0.7V108.7z M104.2,105.5h-1.7v3.2h1.7V105.5z"/>
			<path class="st3" d="M116.9,105.5h0.7v3.2h-0.7V105.5z M112.9,108.7h3.6v-3.2h-3.6V108.7z"/>
		</g>
		<g>
			<rect x="100.1" y="102.5" class="st1" width="18.3" height="3"/>
			<rect x="100.1" y="102.2" class="st1" width="18.3" height="2.7"/>
			<path class="st2" d="M102.1,105.5h-0.7v-3.2h0.7V105.5z M104.2,102.2h-1.7v3.2h1.7V102.2z"/>
			<path class="st3" d="M116.9,102.2h0.7v3.2h-0.7V102.2z M112.9,105.5h3.6v-3.2h-3.6V105.5z"/>
		</g>
		<g>
			<rect x="100.1" y="99.2" class="st1" width="18.3" height="3"/>
			<rect x="100.1" y="99" class="st1" width="18.3" height="2.7"/>
			<path class="st2" d="M102.1,102.2h-0.7V99h0.7V102.2z M104.2,99h-1.7v3.2h1.7V99z"/>
			<path class="st3" d="M116.9,99h0.7v3.2h-0.7V99z M112.9,102.2h3.6V99h-3.6V102.2z"/>
		</g>
		<g>
			<rect x="100.1" y="96" class="st1" width="18.3" height="3"/>
			<rect x="100.1" y="95.8" class="st1" width="18.3" height="2.7"/>
			<path class="st2" d="M102.1,99h-0.7v-3.2h0.7V99z M104.2,95.8h-1.7V99h1.7V95.8z"/>
			<path class="st3" d="M116.9,95.8h0.7V99h-0.7V95.8z M112.9,99h3.6v-3.2h-3.6V99z"/>
		</g>
		<g>
			<rect x="100.1" y="92.7" class="st1" width="18.3" height="3"/>
			<rect x="100.1" y="92.5" class="st1" width="18.3" height="2.7"/>
			<path class="st2" d="M102.1,95.8h-0.7v-3.2h0.7V95.8z M104.2,92.5h-1.7v3.2h1.7V92.5z"/>
			<path class="st3" d="M116.9,92.5h0.7v3.2h-0.7V92.5z M112.9,95.8h3.6v-3.2h-3.6V95.8z"/>
		</g>
		<g>
			<rect x="100.1" y="89.5" class="st1" width="18.3" height="3"/>
			<rect x="100.1" y="89.3" class="st1" width="18.3" height="2.7"/>
			<path class="st2" d="M102.1,92.5h-0.7v-3.2h0.7V92.5z M104.2,89.3h-1.7v3.2h1.7V89.3z"/>
			<path class="st3" d="M116.9,89.3h0.7v3.2h-0.7V89.3z M112.9,92.5h3.6v-3.2h-3.6V92.5z"/>
		</g>
		<g>
			<rect x="100.1" y="86.3" class="st1" width="18.3" height="3"/>
			<rect x="100.1" y="86.1" class="st1" width="18.3" height="2.7"/>
			<path class="st2" d="M102.1,89.3h-0.7v-3.2h0.7V89.3z M104.2,86.1h-1.7v3.2h1.7V86.1z"/>
			<path class="st3" d="M116.9,86.1h0.7v3.2h-0.7V86.1z M112.9,89.3h3.6v-3.2h-3.6V89.3z"/>
		</g>
		<g>
			<rect x="100.1" y="83" class="st1" width="18.3" height="3"/>
			<rect x="100.1" y="82.8" class="st1" width="18.3" height="2.7"/>
			<path class="st2" d="M102.1,86.1h-0.7v-3.2h0.7V86.1z M104.2,82.8h-1.7v3.2h1.7V82.8z"/>
			<path class="st3" d="M116.9,82.8h0.7v3.2h-0.7V82.8z M112.9,86.1h3.6v-3.2h-3.6V86.1z"/>
		</g>
		<g>
			<rect x="100.1" y="79.8" class="st1" width="18.3" height="3"/>
			<rect x="100.1" y="79.6" class="st1" width="18.3" height="2.7"/>
			<path class="st2" d="M102.1,82.8h-0.7v-3.2h0.7V82.8z M104.2,79.6h-1.7v3.2h1.7V79.6z"/>
			<path class="st3" d="M116.9,79.6h0.7v3.2h-0.7V79.6z M112.9,82.8h3.6v-3.2h-3.6V82.8z"/>
		</g>
		<g>
			<rect x="100.1" y="76.6" class="st1" width="18.3" height="3"/>
			<rect x="100.1" y="76.3" class="st1" width="18.3" height="2.7"/>
			<path class="st2" d="M102.1,79.6h-0.7v-3.2h0.7V79.6z M104.2,76.3h-1.7v3.2h1.7V76.3z"/>
			<path class="st3" d="M116.9,76.3h0.7v3.2h-0.7V76.3z M112.9,79.6h3.6v-3.2h-3.6V79.6z"/>
		</g>
		<g>
			<rect x="100.1" y="73.3" class="st1" width="18.3" height="3"/>
			<rect x="100.1" y="73.1" class="st1" width="18.3" height="2.7"/>
			<path class="st2" d="M102.1,76.3h-0.7v-3.2h0.7V76.3z M104.2,73.1h-1.7v3.2h1.7V73.1z"/>
			<path class="st3" d="M116.9,73.1h0.7v3.2h-0.7V73.1z M112.9,76.3h3.6v-3.2h-3.6V76.3z"/>
		</g>
		<g>
			<rect x="100.1" y="70.1" class="st1" width="18.3" height="3"/>
			<rect x="100.1" y="69.9" class="st1" width="18.3" height="2.7"/>
			<path class="st2" d="M102.1,73.1h-0.7v-3.2h0.7V73.1z M104.2,69.9h-1.7v3.2h1.7V69.9z"/>
			<path class="st3" d="M116.9,69.9h0.7v3.2h-0.7V69.9z M112.9,73.1h3.6v-3.2h-3.6V73.1z"/>
		</g>
		<g>
			<rect x="100.1" y="66.8" class="st1" width="18.3" height="3"/>
			<rect x="100.1" y="66.6" class="st1" width="18.3" height="2.7"/>
			<path class="st2" d="M102.1,69.9h-0.7v-3.2h0.7V69.9z M104.2,66.6h-1.7v3.2h1.7V66.6z"/>
			<path class="st3" d="M116.9,66.6h0.7v3.2h-0.7V66.6z M112.9,69.9h3.6v-3.2h-3.6V69.9z"/>
		</g>
		<g>
			<rect x="54.4" y="108.9" class="st1" width="18.3" height="3"/>
			<rect x="54.4" y="108.7" class="st1" width="18.3" height="2.7"/>
			<path class="st2" d="M56.5,112h-0.7v-3.2h0.7V112z M58.5,108.7h-1.7v3.2h1.7V108.7z"/>
			<path class="st3" d="M71.3,108.7H72v3.2h-0.7V108.7z M67.2,112h3.6v-3.2h-3.6V112z"/>
		</g>
		<g>
			<rect x="54.4" y="105.7" class="st1" width="18.3" height="3"/>
			<rect x="54.4" y="105.5" class="st1" width="18.3" height="2.7"/>
			<path class="st2" d="M56.5,108.7h-0.7v-3.2h0.7V108.7z M58.5,105.5h-1.7v3.2h1.7V105.5z"/>
			<path class="st3" d="M71.3,105.5H72v3.2h-0.7V105.5z M67.2,108.7h3.6v-3.2h-3.6V108.7z"/>
		</g>
		<g>
			<rect x="54.4" y="102.5" class="st1" width="18.3" height="3"/>
			<rect x="54.4" y="102.2" class="st1" width="18.3" height="2.7"/>
			<path class="st2" d="M56.5,105.5h-0.7v-3.2h0.7V105.5z M58.5,102.2h-1.7v3.2h1.7V102.2z"/>
			<path class="st3" d="M71.3,102.2H72v3.2h-0.7V102.2z M67.2,105.5h3.6v-3.2h-3.6V105.5z"/>
		</g>
		<g>
			<rect x="54.4" y="99.2" class="st1" width="18.3" height="3"/>
			<rect x="54.4" y="99" class="st1" width="18.3" height="2.7"/>
			<path class="st2" d="M56.5,102.2h-0.7V99h0.7V102.2z M58.5,99h-1.7v3.2h1.7V99z"/>
			<path class="st3" d="M71.3,99H72v3.2h-0.7V99z M67.2,102.2h3.6V99h-3.6V102.2z"/>
		</g>
		<g>
			<rect x="54.4" y="96" class="st1" width="18.3" height="3"/>
			<rect x="54.4" y="95.8" class="st1" width="18.3" height="2.7"/>
			<path class="st2" d="M56.5,99h-0.7v-3.2h0.7V99z M58.5,95.8h-1.7V99h1.7V95.8z"/>
			<path class="st3" d="M71.3,95.8H72V99h-0.7V95.8z M67.2,99h3.6v-3.2h-3.6V99z"/>
		</g>
		<g>
			<rect x="54.4" y="92.8" class="st1" width="18.3" height="3"/>
			<rect x="54.4" y="92.5" class="st1" width="18.3" height="2.7"/>
			<path class="st2" d="M56.5,95.8h-0.7v-3.2h0.7V95.8z M58.5,92.5h-1.7v3.2h1.7V92.5z"/>
			<path class="st3" d="M71.3,92.5H72v3.2h-0.7V92.5z M67.2,95.8h3.6v-3.2h-3.6V95.8z"/>
		</g>
		<g>
			<rect x="77.3" y="108.9" class="st1" width="18.3" height="3"/>
			<rect x="77.3" y="108.7" class="st1" width="18.3" height="2.7"/>
			<path class="st2" d="M79.3,112h-0.7v-3.2h0.7V112z M81.3,108.7h-1.7v3.2h1.7V108.7z"/>
			<path class="st3" d="M94.1,108.7h0.7v3.2h-0.7V108.7z M90,112h3.6v-3.2H90V112z"/>
		</g>
		<g>
			<rect x="77.3" y="105.7" class="st1" width="18.3" height="3"/>
			<rect x="77.3" y="105.5" class="st1" width="18.3" height="2.7"/>
			<path class="st2" d="M79.3,108.7h-0.7v-3.2h0.7V108.7z M81.3,105.5h-1.7v3.2h1.7V105.5z"/>
			<path class="st3" d="M94.1,105.5h0.7v3.2h-0.7V105.5z M90,108.7h3.6v-3.2H90V108.7z"/>
		</g>
		<g>
			<rect x="77.3" y="102.5" class="st1" width="18.3" height="3"/>
			<rect x="77.3" y="102.2" class="st1" width="18.3" height="2.7"/>
			<path class="st2" d="M79.3,105.5h-0.7v-3.2h0.7V105.5z M81.3,102.2h-1.7v3.2h1.7V102.2z"/>
			<path class="st3" d="M94.1,102.2h0.7v3.2h-0.7V102.2z M90,105.5h3.6v-3.2H90V105.5z"/>
		</g>
		<g>
			<rect x="77.3" y="99.2" class="st1" width="18.3" height="3"/>
			<rect x="77.3" y="99" class="st1" width="18.3" height="2.7"/>
			<path class="st2" d="M79.3,102.2h-0.7V99h0.7V102.2z M81.3,99h-1.7v3.2h1.7V99z"/>
			<path class="st3" d="M94.1,99h0.7v3.2h-0.7V99z M90,102.2h3.6V99H90V102.2z"/>
		</g>
		<g>
			<rect x="77.3" y="96" class="st1" width="18.3" height="3"/>
			<rect x="77.3" y="95.8" class="st1" width="18.3" height="2.7"/>
			<path class="st2" d="M79.3,99h-0.7v-3.2h0.7V99z M81.3,95.8h-1.7V99h1.7V95.8z"/>
			<path class="st3" d="M94.1,95.8h0.7V99h-0.7V95.8z M90,99h3.6v-3.2H90V99z"/>
		</g>
		<g>
			<rect x="77.3" y="92.8" class="st1" width="18.3" height="3"/>
			<rect x="77.3" y="92.5" class="st1" width="18.3" height="2.7"/>
			<path class="st2" d="M79.3,95.8h-0.7v-3.2h0.7V95.8z M81.3,92.5h-1.7v3.2h1.7V92.5z"/>
			<path class="st3" d="M94.1,92.5h0.7v3.2h-0.7V92.5z M90,95.8h3.6v-3.2H90V95.8z"/>
		</g>
		<g>
			<rect x="77.3" y="89.5" class="st1" width="18.3" height="3"/>
			<rect x="77.3" y="89.3" class="st1" width="18.3" height="2.7"/>
			<path class="st2" d="M79.3,92.5h-0.7v-3.2h0.7V92.5z M81.3,89.3h-1.7v3.2h1.7V89.3z"/>
			<path class="st3" d="M94.1,89.3h0.7v3.2h-0.7V89.3z M90,92.5h3.6v-3.2H90V92.5z"/>
		</g>
		<g>
			<rect x="77.3" y="86.3" class="st1" width="18.3" height="3"/>
			<rect x="77.3" y="86.1" class="st1" width="18.3" height="2.7"/>
			<path class="st2" d="M79.3,89.3h-0.7v-3.2h0.7V89.3z M81.3,86.1h-1.7v3.2h1.7V86.1z"/>
			<path class="st3" d="M94.1,86.1h0.7v3.2h-0.7V86.1z M90,89.3h3.6v-3.2H90V89.3z"/>
		</g>
		<g>
			<rect x="77.3" y="83" class="st1" width="18.3" height="3"/>
			<rect x="77.3" y="82.8" class="st1" width="18.3" height="2.7"/>
			<path class="st2" d="M79.3,86.1h-0.7v-3.2h0.7V86.1z M81.3,82.8h-1.7v3.2h1.7V82.8z"/>
			<path class="st3" d="M94.1,82.8h0.7v3.2h-0.7V82.8z M90,86.1h3.6v-3.2H90V86.1z"/>
		</g>
		<g>
			<rect x="77.3" y="79.8" class="st1" width="18.3" height="3"/>
			<rect x="77.3" y="79.6" class="st1" width="18.3" height="2.7"/>
			<path class="st2" d="M79.3,82.8h-0.7v-3.2h0.7V82.8z M81.3,79.6h-1.7v3.2h1.7V79.6z"/>
			<path class="st3" d="M94.1,79.6h0.7v3.2h-0.7V79.6z M90,82.8h3.6v-3.2H90V82.8z"/>
		</g>
	</g>
	<g>
		<path class="st4" d="M31.6,95.2c-1,0-1.9-0.7-2.1-1.7c-0.2-1.2,0.6-2.3,1.7-2.5c18.1-3.4,37.6-12.2,55.1-24.8
			C97.5,58.1,107.2,49,115.3,39c0.4-0.5,1-0.8,1.7-0.8c0.5,0,1,0.2,1.3,0.5c0.4,0.4,0.7,0.9,0.8,1.4c0.1,0.6-0.1,1.1-0.5,1.6
			c-8.3,10.2-18.3,19.6-29.7,27.9c-18,13-38.1,22.1-56.8,25.6C31.9,95.2,31.8,95.2,31.6,95.2z"/>
		<path class="st4" d="M118.4,56.4c-1.1,0-2-0.8-2.1-1.9L115,42.7l-11.8,1.2c-0.1,0-0.1,0-0.2,0c-1.1,0-2-0.8-2.1-1.9
			c-0.1-0.6,0.1-1.1,0.5-1.6c0.4-0.4,0.9-0.7,1.4-0.8l16-1.7l1.7,16c0.1,1.2-0.7,2.2-1.9,2.3C118.5,56.4,118.4,56.4,118.4,56.4z"/>
	</g>
</g>
</svg>
