<?xml version="1.0" encoding="utf-8"?>
<!-- Generator: Adobe Illustrator 21.0.2, SVG Export Plug-In . SVG Version: 6.00 Build 0)  -->
<svg version="1.1" id="Layer_1" xmlns="http://www.w3.org/2000/svg" xmlns:xlink="http://www.w3.org/1999/xlink" x="0px" y="0px"
	 viewBox="0 0 300 300" style="enable-background:new 0 0 300 300;" xml:space="preserve">
<style type="text/css">
	.st0{fill:#4596BA;}
</style>
<g>
	<path class="st0" d="M182.5,246.3h-65c-3.7,0-6.7-3-6.7-6.7v-50.3H60.4c-3.7,0-6.7-3-6.7-6.7v-65.1c0-3.7,3-6.7,6.7-6.7h50.3V60.4
		c0-3.7,3-6.7,6.7-6.7h65c3.7,0,6.7,3,6.7,6.7v50.3h50.3c3.7,0,6.7,3,6.7,6.7v65.1c0,3.7-3,6.7-6.7,6.7h-50.3v50.3
		C189.2,243.3,186.2,246.3,182.5,246.3z M124.2,232.8h51.6v-50.3c0-3.7,3-6.7,6.7-6.7h50.3v-51.7h-50.3c-3.7,0-6.7-3-6.7-6.7V67.2
		h-51.6v50.3c0,3.7-3,6.7-6.7,6.7H67.2v51.7h50.3c3.7,0,6.7,3,6.7,6.7V232.8L124.2,232.8z"/>
</g>
<g>
	<path class="st0" d="M150,300C67.3,300,0,232.7,0,150S67.3,0,150,0s150,67.3,150,150S232.7,300,150,300z M150,13.4
		C74.7,13.4,13.4,74.7,13.4,150S74.7,286.6,150,286.6S286.6,225.3,286.6,150S225.3,13.4,150,13.4z"/>
</g>
</svg>
