<svg width="20px" height="18px" viewBox="0 0 20 18" version="1.1" xmlns="http://www.w3.org/2000/svg" xmlns:xlink="http://www.w3.org/1999/xlink">
    <!-- Generator: Sketch 51.1 (57501) - http://www.bohemiancoding.com/sketch -->
    <desc>Created with Sketch.</desc>
    <defs></defs>
    <g id="Page-1" stroke="none" stroke-width="1" fill="none" fill-rule="evenodd" opacity="0.4">
        <g id="Recommender-familiarity" transform="translate(-1267.000000, -23.000000)" fill="#000000" fill-rule="nonzero">
            <g id="Top-nav">
                <g id="Group" transform="translate(1265.000000, 20.000000)">
                    <g id="noun_174816_cc" transform="translate(12.799038, 12.616025) scale(-1, 1) rotate(-330.000000) translate(-12.799038, -12.616025) translate(3.299038, 4.116025)">
                        <path d="M8.98090435,15.5094573 C4.74660816,15.5094573 1.35154184,11.9321548 1.84745041,7.684108 C2.22891853,4.47944115 4.89919541,1.87099139 8.17982129,1.53561928 C10.8500982,1.23751074 13.2533474,2.39268135 14.7029262,4.29312331 C14.7792199,4.40491402 14.741073,4.55396829 14.6266326,4.59123186 L13.4059346,5.11292181 C13.2533474,5.18744895 13.2533474,5.41103035 13.4059346,5.48555749 L16.6484137,6.78978237 C16.7628541,6.82704594 16.8772945,6.78978237 16.9154414,6.67799167 L18.2505798,3.51058839 C18.3268734,3.36153411 18.1361394,3.17521627 17.9835521,3.24974341 L16.4958264,3.8459605 C16.4195328,3.88322407 16.3050924,3.8459605 16.2669455,3.77143336 C14.4740454,1.27477431 11.4604472,-0.29029555 8.10352766,0.0450765619 C4.05996553,0.45497581 0.779339655,3.58511552 0.321577905,7.53505373 C-0.250624283,12.6401625 3.83108466,17 8.98090435,17 C12.3759707,17 15.3132752,15.099558 16.7628541,12.3047904 C16.8391477,12.1929997 16.7247073,12.0439455 16.6102669,12.0439455 L15.351422,12.0439455 C15.2369816,12.0439455 15.160688,12.081209 15.0843944,12.1929997 C13.8255495,14.1679688 11.5748876,15.5094573 8.98090435,15.5094573 Z" id="Shape"></path>
                    </g>
                </g>
            </g>
        </g>
    </g>
</svg>
