<?xml version="1.0" encoding="utf-8"?>
<!-- Generator: Adobe Illustrator 21.0.2, SVG Export Plug-In . SVG Version: 6.00 Build 0)  -->
<svg version="1.1" id="Layer_1" xmlns="http://www.w3.org/2000/svg" xmlns:xlink="http://www.w3.org/1999/xlink" x="0px" y="0px"
	 viewBox="0 0 150 150" style="enable-background:new 0 0 150 150;" xml:space="preserve">
<style type="text/css">
	.st0{fill:#4596BA;}
	.st1{fill:#FFFFFF;}
	.st2{fill:#333333;}
</style>
<ellipse class="st0" cx="75" cy="75" rx="75" ry="75"/>
<g>
	<defs>
		<ellipse id="SVGID_1_" cx="75" cy="75" rx="75" ry="75"/>
	</defs>
	<clipPath id="SVGID_2_">
		<use xlink:href="#SVGID_1_"  style="overflow:visible;"/>
	</clipPath>
</g>
<g>
	<g>
		<g>
			<path class="st1" d="M37.4,61.2c0.4-0.7,0.9-0.7,1.3,0l3.6,7.2c0.4,0.7,1.3,1.4,2.1,1.5l8,1.2c0.8,0.1,1,0.7,0.4,1.2L47,78
				c-0.6,0.6-0.9,1.7-0.8,2.5l1.4,7.9c0.1,0.8-0.3,1.1-1.1,0.8l-7.1-3.8c-0.7-0.4-1.9-0.4-2.6,0l-7.1,3.8c-0.7,0.4-1.2,0-1.1-0.8
				l1.4-7.9c0.1-0.8-0.2-1.9-0.8-2.5l-5.8-5.6c-0.6-0.6-0.4-1.1,0.4-1.2l8-1.2c0.8-0.1,1.7-0.8,2.1-1.5L37.4,61.2z"/>
		</g>
		<g>
			<path class="st1" d="M74.4,61.2c0.4-0.7,0.9-0.7,1.3,0l3.6,7.2c0.4,0.7,1.3,1.4,2.1,1.5l8,1.2c0.8,0.1,1,0.7,0.4,1.2L83.9,78
				c-0.6,0.6-0.9,1.7-0.8,2.5l1.4,7.9c0.1,0.8-0.3,1.1-1.1,0.8l-7.1-3.8c-0.7-0.4-1.9-0.4-2.6,0l-7.1,3.8c-0.7,0.4-1.2,0-1.1-0.8
				l1.4-7.9c0.1-0.8-0.2-1.9-0.8-2.5l-5.8-5.6c-0.6-0.6-0.4-1.1,0.4-1.2l8-1.2c0.8-0.1,1.7-0.8,2.1-1.5L74.4,61.2z"/>
		</g>
		<g>
			<path class="st1" d="M111.3,61.2c0.4-0.7,0.9-0.7,1.3,0l3.6,7.2c0.4,0.7,1.3,1.4,2.1,1.5l8,1.2c0.8,0.1,1,0.7,0.4,1.2l-5.8,5.6
				c-0.6,0.6-0.9,1.7-0.8,2.5l1.4,7.9c0.1,0.8-0.3,1.1-1.1,0.8l-7.1-3.8c-0.7-0.4-1.9-0.4-2.6,0l-7.1,3.8c-0.7,0.4-1.2,0-1.1-0.8
				l1.4-7.9c0.1-0.8-0.2-1.9-0.8-2.5l-5.8-5.6c-0.6-0.6-0.4-1.1,0.4-1.2l8-1.2c0.8-0.1,1.7-0.8,2.1-1.5L111.3,61.2z"/>
		</g>
	</g>
</g>
<g>
	<polygon class="st2" points="91.2,117 78.6,81.7 113.7,94.7 99.9,103.2 	"/>
	<rect x="102.5" y="96.5" transform="matrix(0.707 -0.7072 0.7072 0.707 -45.8684 105.94)" class="st2" width="4.8" height="23.6"/>
</g>
</svg>
