<?xml version="1.0" encoding="utf-8"?>
<!-- Generator: Adobe Illustrator 21.0.2, SVG Export Plug-In . SVG Version: 6.00 Build 0)  -->
<svg version="1.1" id="Layer_1" xmlns="http://www.w3.org/2000/svg" xmlns:xlink="http://www.w3.org/1999/xlink" x="0px" y="0px"
	 viewBox="0 0 300 300" style="enable-background:new 0 0 300 300;" xml:space="preserve">
<style type="text/css">
	.st0{fill:#4596BA;}
</style>
<g>
	<g>
		<g>
			<g>
				<path class="st0" d="M235.2,293.2c-2.7,0-5.5-0.8-8.4-2.3L159,255.4c-4.7-2.5-13.3-2.5-18,0L73.2,291c-5.7,3-11.4,3-15.6,0
					c-4.1-3-5.9-8.4-4.8-14.8l12.9-75.5c0.9-5.3-1.8-13.5-5.6-17.2L5.4,130.1c-4.6-4.5-6.4-9.9-4.8-14.8s6.2-8.2,12.6-9.1l75.8-11
					c5.3-0.8,12.2-5.8,14.6-10.6l33.9-68.7c2.9-5.8,7.4-9.1,12.6-9.1l0,0c5.1,0,9.7,3.3,12.6,9.1l33.9,68.7
					c2.4,4.8,9.3,9.8,14.6,10.6l75.8,11c6.4,0.9,11,4.3,12.6,9.1c1.6,4.9-0.2,10.3-4.8,14.8L240,183.5c-3.8,3.7-6.5,11.9-5.6,17.2
					l12.9,75.5c1.1,6.4-0.6,11.8-4.8,14.8C240.3,292.5,237.8,293.2,235.2,293.2z M150,239.2c5.6,0,11.2,1.2,15.7,3.5l67.3,35.4
					l-12.9-74.9c-1.7-10,2.5-22.8,9.7-29.8l54.5-53.1l-75.3-11c-10-1.5-20.9-9.4-25.4-18.4L150,22.7l-33.7,68.2
					c-4.4,9-15.3,17-25.3,18.4l-75.3,10.9l54.5,53.1c7.2,7,11.4,19.9,9.7,29.8l-12.8,75l67.3-35.4
					C138.8,240.4,144.4,239.2,150,239.2z M143.8,19.1L143.8,19.1L143.8,19.1z"/>
			</g>
		</g>
	</g>
</g>
</svg>
