<?xml version="1.0" encoding="utf-8"?>
<!-- Generator: Adobe Illustrator 21.0.2, SVG Export Plug-In . SVG Version: 6.00 Build 0)  -->
<svg version="1.1" id="Layer_1" xmlns="http://www.w3.org/2000/svg" xmlns:xlink="http://www.w3.org/1999/xlink" x="0px" y="0px"
	 viewBox="0 0 150 150" style="enable-background:new 0 0 150 150;" xml:space="preserve">
<style type="text/css">
	.st0{fill:#4596BA;}
	.st1{fill:#A1A8BD;}
	.st2{fill:#333333;}
	.st3{fill:#E3E8EF;}
	.st4{fill:#FFFFFF;}
</style>
<ellipse class="st0" cx="75" cy="75" rx="75" ry="75"/>
<g>
	<defs>
		<ellipse id="SVGID_1_" cx="75" cy="75" rx="75" ry="75"/>
	</defs>
	<clipPath id="SVGID_2_">
		<use xlink:href="#SVGID_1_"  style="overflow:visible;"/>
	</clipPath>
</g>
<g>
	<g>
		<path class="st1" d="M94.7,113.9H55.3v-9.7c0-0.6,0.5-1.1,1.1-1.1h37.3c0.6,0,1.1,0.5,1.1,1.1V113.9z"/>
		<path class="st2" d="M98.3,115c0-0.6-0.5-1.1-1.1-1.1H52.8c-0.6,0-1.1,0.5-1.1,1.1v3.2h46.6V115z"/>
		<path class="st3" d="M87.2,100.3H62.8v2.4c0,0.2,0.2,0.4,0.4,0.4h23.5c0.2,0,0.4-0.2,0.4-0.4V100.3z"/>
		<path class="st4" d="M78,83v-0.3h-6V83c0,6.9-3.4,13.4-9.2,17.3h11.8h0.8h11.8C81.5,96.4,78,89.9,78,83z"/>
		<path class="st3" d="M106.4,46.2c0-1-0.8-1.7-1.7-1.7H97c-0.1,1.2-0.2,2.3-0.3,3.5h5.8c0.1,0,0.2,0.1,0.3,0.1
			c0.1,0.1,0.1,0.2,0.1,0.3c-0.7,7.2-4.6,13.4-10.3,17.2c-0.7,1.9-1.5,3.6-2.3,5.2C99.8,66.7,106.4,57.2,106.4,46.2z"/>
		<path class="st3" d="M47.1,48.4c0-0.1,0-0.2,0.1-0.3c0.1-0.1,0.2-0.1,0.3-0.1h5.8c-0.1-1.1-0.2-2.3-0.3-3.5h-7.7
			c-1,0-1.7,0.8-1.7,1.7c0,11,6.7,20.5,16.2,24.6c-0.8-1.6-1.6-3.4-2.3-5.2C51.8,61.8,47.8,55.6,47.1,48.4z"/>
		<path class="st4" d="M96.6,47.9c0.1-1.1,0.2-2.3,0.3-3.5c0.1-1.9,0.2-3.8,0.2-5.8c0-0.2-0.1-0.5-0.3-0.6c-0.2-0.2-0.4-0.3-0.6-0.3
			H75H53.7c-0.2,0-0.5,0.1-0.6,0.3c-0.2,0.2-0.3,0.4-0.3,0.6c0,2,0.1,3.9,0.2,5.8c0.1,1.2,0.2,2.3,0.3,3.5
			c0.7,6.5,2.2,12.5,4.1,17.6c0.7,1.9,1.5,3.6,2.3,5.2c4,7.7,9.3,12.4,15.2,12.4c5.9,0,11.3-4.7,15.2-12.4c0.8-1.6,1.6-3.4,2.3-5.2
			C94.5,60.5,95.9,54.5,96.6,47.9z"/>
	</g>
	<polygon class="st0" points="75,46.8 78,52.9 84.7,53.9 79.9,58.7 81,65.4 75,62.2 69,65.4 70.1,58.7 65.3,53.9 72,52.9 	"/>
</g>
</svg>
