<svg id="Share_Button_copy_2" data-name="Share Button copy 2" xmlns="http://www.w3.org/2000/svg" width="30" height="30" viewBox="0 0 30 30">
  <metadata><?xpacket begin="﻿" id="W5M0MpCehiHzreSzNTczkc9d"?>
<x:xmpmeta xmlns:x="adobe:ns:meta/" x:xmptk="Adobe XMP Core 5.6-c138 79.159824, 2016/09/14-01:09:01        ">
   <rdf:RDF xmlns:rdf="http://www.w3.org/1999/02/22-rdf-syntax-ns#">
      <rdf:Description rdf:about=""/>
   </rdf:RDF>
</x:xmpmeta>
                                                                                                    
                                                                                                    
                                                                                                    
                                                                                                    
                                                                                                    
                                                                                                    
                                                                                                    
                                                                                                    
                                                                                                    
                                                                                                    
                                                                                                    
                                                                                                    
                                                                                                    
                                                                                                    
                                                                                                    
                                                                                                    
                                                                                                    
                                                                                                    
                                                                                                    
                                                                                                    
                           
<?xpacket end="w"?></metadata>
<defs>
    <style>
      .cls-1 {
        fill: #11b4e4;
      }

      .cls-2 {
        fill: #fff;
        fill-rule: evenodd;
      }
    </style>
  </defs>
  <circle id="Circle_Button" data-name="Circle Button" class="cls-1" cx="15" cy="15" r="15"/>
  <path id="Share_Icon" data-name="Share Icon" class="cls-2" d="M1190.06,1480a1.891,1.891,0,0,1-1.14-.39l-4.04,2.4c0,0.05-.01.08-0.01,0.12l3.92,2.37a1.872,1.872,0,0,1,1.27-.5,2,2,0,1,1-1.94,2,1.752,1.752,0,0,1,.04-0.4l-3.78-2.27a1.881,1.881,0,0,1-1.44.67,2,2,0,0,1,0-4,1.91,1.91,0,0,1,1.5.74l3.75-2.23a2.163,2.163,0,0,1-.07-0.51A1.941,1.941,0,1,1,1190.06,1480Z" transform="translate(-1172 -1467)"/>
</svg>
