<svg id="Layer_1" data-name="Layer 1" xmlns="http://www.w3.org/2000/svg" viewBox="0 0 70 70"><defs><style>.cls-1{fill:#f2ce08;}</style></defs><title>Icons</title><path class="cls-1" d="M64.7,28.63a2.57,2.57,0,0,1-.93,1.71L50.82,43l3.07,17.85a5.74,5.74,0,0,1,0,.71,2.09,2.09,0,0,1-.37,1.27,1.26,1.26,0,0,1-1.09.52A2.89,2.89,0,0,1,51,62.9L35,54.47,19,62.9a3,3,0,0,1-1.43.43,1.3,1.3,0,0,1-1.12-.52A2.09,2.09,0,0,1,16,61.54a5.9,5.9,0,0,1,.07-.71L19.18,43l-13-12.64a2.7,2.7,0,0,1-.89-1.71c0-.88.67-1.43,2-1.64l17.92-2.61,8-16.24Q33.93,6.67,35,6.67t1.75,1.46l8,16.24L62.7,27C64,27.2,64.7,27.75,64.7,28.63Z"/></svg>