<svg id="Layer_1" data-name="Layer 1" xmlns="http://www.w3.org/2000/svg" viewBox="0 0 70 70"><defs><style>.cls-1{fill:#f2ce08;}</style></defs><title>Icons</title><path class="cls-1" d="M64.7,28.63a2.58,2.58,0,0,1-.93,1.71L50.81,43l3.07,17.85a5.09,5.09,0,0,1,0,.71c0,1.19-.49,1.78-1.46,1.78A2.89,2.89,0,0,1,51,62.9L35,54.47,19,62.9a3,3,0,0,1-1.43.43,1.3,1.3,0,0,1-1.12-.52A2.09,2.09,0,0,1,16,61.54a5.72,5.72,0,0,1,.07-.71L19.18,43l-13-12.64a2.72,2.72,0,0,1-.89-1.71c0-.88.67-1.43,2-1.64l17.92-2.61,8-16.24c.45-1,1-1.46,1.75-1.46s1.3.49,1.75,1.46l8,16.24L62.7,27C64,27.2,64.7,27.75,64.7,28.63ZM45.89,41.37l10.93-10.6L41.75,28.55,35,14.92,28.25,28.55,13.19,30.77l10.92,10.6-2.61,15L35,49.3l13.46,7.1Z"/></svg>