<?xml version="1.0" encoding="utf-8"?>
<!-- Generator: Adobe Illustrator 21.0.2, SVG Export Plug-In . SVG Version: 6.00 Build 0)  -->
<svg version="1.1" id="Layer_1" xmlns="http://www.w3.org/2000/svg" xmlns:xlink="http://www.w3.org/1999/xlink" x="0px" y="0px"
	 viewBox="0 0 40 43.6" style="enable-background:new 0 0 40 43.6;" xml:space="preserve">
<style type="text/css">
	.st0{enable-background:new    ;}
	.st1{fill:#333333;}
</style>
<g id="_" class="st0">
	<path class="st1" d="M0.9,7.2V4.8c0-0.6,0.2-1.1,0.6-1.4C1.9,2.9,2.4,2.7,3,2.7h9.5l0.8-1.6c0.2-0.3,0.4-0.6,0.8-0.8
		C14.4,0.1,14.7,0,15.1,0h9.7c0.4,0,0.8,0.1,1.1,0.3c0.3,0.2,0.6,0.5,0.8,0.8l0.8,1.6H37c0.6,0,1.1,0.2,1.4,0.6
		c0.4,0.4,0.6,0.9,0.6,1.4v2.4c0,0.3-0.1,0.5-0.3,0.7c-0.2,0.2-0.4,0.3-0.7,0.3H1.9c-0.3,0-0.5-0.1-0.7-0.3C1,7.7,0.9,7.4,0.9,7.2z
		 M36.3,12l-1.7,27.8c-0.1,1.1-0.5,2-1.3,2.7c-0.8,0.7-1.7,1.1-2.8,1.1h-21c-1.1,0-2-0.4-2.8-1.1c-0.8-0.7-1.2-1.6-1.3-2.7L3.7,12
		c0-0.3,0.1-0.5,0.3-0.8c0.2-0.2,0.4-0.3,0.7-0.3h30.5c0.3,0,0.5,0.1,0.7,0.3C36.2,11.5,36.3,11.7,36.3,12z"/>
</g>
</svg>
