<svg xmlns="http://www.w3.org/2000/svg" width="30" height="30" viewBox="0 0 30 30">
    <path fill="#FFF" fill-rule="evenodd" d="M15 30C6.716 30 0 23.284 0 15 0 6.716 6.716 0 15 0c8.284 0 15 6.716 15 15 0 8.284-6.716 15-15 15zm-1.854-8.651a8.748 8.748 0 0 0 1.906-.2 7.837 7.837 0 0 0 4.04-2.25 8.488 8.488 0 0 0 1.589-2.318 8.663 8.663 0 0 0 .757-2.617 8.02 8.02 0 0 0 .055-1.305l.049-.094c.398-.293.757-.63 1.068-1.015.118-.143.226-.293.338-.442l-.011-.012a5.674 5.674 0 0 1-1.637.441 3.026 3.026 0 0 0 1.259-1.6l-.02.001-.039.02a5.937 5.937 0 0 1-1.71.658l-.157-.047c-.589-.571-1.273-.864-2.042-.864-.173 0-.35.015-.532.045-.857.138-1.526.595-1.994 1.328a2.858 2.858 0 0 0-.428 1.923c.011.102.03.205.047.32-2.457-.167-4.472-1.195-6.065-3.071a2.918 2.918 0 0 0-.314 2.131c.17.749.588 1.334 1.21 1.782a2.906 2.906 0 0 1-1.309-.357 2.85 2.85 0 0 0 .431 1.564c.444.714 1.082 1.157 1.909 1.349l-.042.019a3.01 3.01 0 0 1-.722.089c-.178 0-.358-.016-.538-.051.253.891 1.207 1.987 2.735 2.04a5.879 5.879 0 0 1-3.647 1.259c-.228 0-.459-.013-.691-.038l.069.046a8.287 8.287 0 0 0 4.436 1.266z"/>
</svg>
