<svg width="27px" height="27px" viewBox="0 0 27 27" version="1.1" xmlns="http://www.w3.org/2000/svg" xmlns:xlink="http://www.w3.org/1999/xlink">
    <!-- Generator: Sketch 50.2 (55047) - http://www.bohemiancoding.com/sketch -->
    <desc>Created with Sketch.</desc>
    <defs>
        <polygon id="path-1" points="0.0001875 0 27 0 27 26.9999625 0.0001875 26.9999625"></polygon>
    </defs>
    <g id="Categories" stroke="none" stroke-width="1" fill="none" fill-rule="evenodd">
        <g id="Magazine_Post" transform="translate(-364.000000, -1417.000000)">
            <g id="Group-2" transform="translate(286.000000, 521.000000)">
                <g id="Group">
                    <g id="Header">
                        <g id="Copy" transform="translate(0.000000, 663.000000)">
                            <g id="social" transform="translate(0.000000, 233.000000)">
                                <g id="Page-1-Copy" transform="translate(78.000000, 0.000000)">
                                    <mask id="mask-2" fill="white">
                                        <use xlink:href="#path-1"></use>
                                    </mask>
                                    <g id="Clip-2"></g>
                                    <path d="M20.2895625,11.1738375 C20.4871875,15.5778375 17.2033125,20.4880875 11.3896875,20.4880875 C9.6215625,20.4880875 7.9756875,19.9694625 6.5900625,19.0810875 C8.2509375,19.2768375 9.9091875,18.8163375 11.2254375,17.7843375 C9.8555625,17.7592125 8.6990625,16.8539625 8.3008125,15.6100875 C8.7913125,15.7038375 9.2739375,15.6764625 9.7145625,15.5568375 C8.2085625,15.2538375 7.1694375,13.8974625 7.2031875,12.4469625 C7.6254375,12.6813375 8.1084375,12.8223375 8.6218125,12.8380875 C7.2271875,11.9065875 6.8323125,10.0653375 7.6528125,8.6579625 C9.1966875,10.5524625 11.5036875,11.7989625 14.1061875,11.9298375 C13.6498125,9.9708375 15.1355625,8.0849625 17.1564375,8.0849625 C18.0571875,8.0849625 18.8709375,8.4648375 19.4416875,9.0734625 C20.1549375,8.9332125 20.8250625,8.6725875 21.4299375,8.3137125 C21.1963125,9.0449625 20.6998125,9.6588375 20.0533125,10.0458375 C20.6866875,9.9704625 21.2900625,9.8020875 21.8518125,9.5530875 C21.4321875,10.1812125 20.9011875,10.7324625 20.2895625,11.1738375 M13.5001875,-3.75e-05 C6.0444375,-3.75e-05 0.0001875,6.0438375 0.0001875,13.4999625 C0.0001875,20.9560875 6.0444375,26.9999625 13.5001875,26.9999625 C20.9559375,26.9999625 27.0001875,20.9560875 27.0001875,13.4999625 C27.0001875,6.0438375 20.9559375,-3.75e-05 13.5001875,-3.75e-05" id="Fill-1" fill="#4397BC" mask="url(#mask-2)"></path>
                                </g>
                            </g>
                        </g>
                    </g>
                </g>
            </g>
        </g>
    </g>
</svg>
