<svg width="66px" height="23px" viewBox="0 0 66 23" version="1.1" xmlns="http://www.w3.org/2000/svg" xmlns:xlink="http://www.w3.org/1999/xlink">
    <!-- Generator: Sketch 42 (36781) - http://www.bohemiancoding.com/sketch -->
    <desc>Created with Sketch.</desc>
    <defs></defs>
    <g id="Group-4">
        <path d="M56.2489714,23 C56.3823857,22.9985826 56.5143857,22.9886605 56.6454429,22.9688164 C57.5307857,23.0774864 58.4161286,22.7694307 59.0431286,22.1339476 L64.9873714,13.1053626 C65.5601571,12.5209072 65.8444286,11.7602173 65.8420714,11 L0,11 L0,18.9981101 C0,21.2074179 1.78624286,22.999055 3.99064286,23 L56.2489714,23 Z" id="Fill-2"></path>
        <path d="M64.9873714,9.08921611 L59.0431286,0.815504547 C58.4397,0.253356431 57.5934857,-0.0307492421 56.7378429,0.0407102642 C56.5766143,0.0138588133 56.4130286,0.000433087917 56.2489714,0 L3.99064286,0 L3.9897,0 C1.78624286,0.000433087917 0,1.6414032 0,3.66565613 L0,11 L65.8420714,11 C65.8392429,10.3092248 65.5549714,9.61974881 64.9873714,9.08921611" id="Fill-1" fill="currentColor"></path>
    </g>
</svg>