<?xml version="1.0" encoding="UTF-8"?>
<svg width="80px" height="80px" viewBox="0 0 80 80" version="1.1" xmlns="http://www.w3.org/2000/svg" xmlns:xlink="http://www.w3.org/1999/xlink">
    <!-- Generator: Sketch 52 (66869) - http://www.bohemiancoding.com/sketch -->
    <title>Budicon-Solid/Photo-Video/landscape</title>
    <desc>Created with Sketch.</desc>
    <g id="Symbols" stroke="none" stroke-width="1" fill="none" fill-rule="evenodd" opacity="0.25">
        <g id="Gallery-form" transform="translate(-345.000000, -148.000000)" fill="#14293D" fill-rule="nonzero">
            <g id="Group-6">
                <g id="Group" transform="translate(241.000000, 148.000000)">
                    <g id="image" transform="translate(104.000000, 0.000000)">
                        <path d="M72,22.4002189 L8,22.4002189 C7.1163444,22.4002189 6.4,23.1165633 6.4,24.0002189 L6.4,72.0002189 C6.4,72.8838745 7.1163444,73.6002189 8,73.6002189 L72,73.6002189 C72.8836556,73.6002189 73.6,72.8838745 73.6,72.0002189 L73.6,24.0002189 C73.6,23.1165633 72.8836556,22.4002189 72,22.4002189 Z M19.2,28.8002189 C22.7346224,28.8002189 25.6,31.6655965 25.6,35.2002189 C25.6,38.7348413 22.7346224,41.6002189 19.2,41.6002189 C15.6653776,41.6002189 12.8,38.7348413 12.8,35.2002189 C12.8,31.6655965 15.6653776,28.8002189 19.2,28.8002189 Z M9.6,70.4002189 L9.6,67.9042189 L27.0624,51.8965389 L42.92096,70.4002189 L9.6,70.4002189 Z M70.4,70.4002189 L47.136,70.4002189 L36.76384,58.2987789 L52.75328,42.3096589 L70.4,61.4235789 L70.4,70.4002189 Z M75.2,16.0002189 L55.11456,16.0002189 L41.18912,0.501658877 C40.8766274,0.180907194 40.4478094,6.24023402e-16 40,0 C39.5521906,-6.2406677e-16 39.1233726,0.180907194 38.81088,0.501658877 L24.88544,16.0002189 L4.8,16.0002189 C2.1490332,16.0002189 3.24649801e-16,18.1492521 0,20.8002189 L0,75.2002189 C5.03371281e-15,77.8511857 2.1490332,80.0002189 4.8,80.0002189 L75.2,80.0002189 C77.8509668,80.0002189 80,77.8511857 80,75.2002189 L80,20.8002189 C80,18.1492521 77.8509668,16.0002189 75.2,16.0002189 Z M40,3.96597888 L50.81088,16.0002189 L29.18912,16.0002189 L40,3.96597888 Z M76.8,75.2002189 C76.8,76.0838745 76.0836556,76.8002189 75.2,76.8002189 L4.8,76.8002189 C3.9163444,76.8002189 3.2,76.0838745 3.2,75.2002189 L3.2,20.8002189 C3.2,19.9165633 3.9163444,19.2002189 4.8,19.2002189 L75.2,19.2002189 C76.0836556,19.2002189 76.8,19.9165633 76.8,20.8002189 L76.8,75.2002189 Z" id="Shape"></path>
                    </g>
                </g>
            </g>
        </g>
    </g>
</svg>