<?xml version="1.0" encoding="UTF-8"?>
<svg width="70px" height="70px" viewBox="0 0 70 70" version="1.1" xmlns="http://www.w3.org/2000/svg" xmlns:xlink="http://www.w3.org/1999/xlink">
    <!-- Generator: sketchtool 49.1 (51147) - http://www.bohemiancoding.com/sketch -->
    <title>BD2779F2-6EA9-4F2D-A376-D037C9C9367F</title>
    <desc>Created with sketchtool.</desc>
    <defs>
        <polygon id="path-1" points="1.71232314e-05 0 69.9250704 0 69.9250704 69.9001021 1.71232314e-05 69.9001021"></polygon>
    </defs>
    <g id="Homepage-V1" stroke="none" stroke-width="1" fill="none" fill-rule="evenodd">
        <g id="Homepage-Lato" transform="translate(-266.000000, -797.000000)">
            <g id="User-Icon" transform="translate(266.000000, 797.000000)">
                <g id="Users-Icon">
                    <mask id="mask-2" fill="white">
                        <use xlink:href="#path-1"></use>
                    </mask>
                    <g id="Clip-2"></g>
                    <path d="M59.6891972,10.2248556 C46.0559577,-3.4083838 23.8726127,-3.4083838 10.2388803,10.2248556 C5.45595775,15.0077782 2.1839507,21.0171796 0.776802817,27.603588 C-0.593373239,34.0169683 -0.14478169,40.6610528 2.07402113,46.8176021 C2.29585211,47.4328134 2.9773662,47.752743 3.5933169,47.530912 C4.20852817,47.3093275 4.52845775,46.6278134 4.30662676,46.0118627 C2.23842254,40.2723556 1.82014789,34.0780951 3.09740141,28.0990106 C4.40719014,21.9643979 7.45711972,16.3636585 11.9174014,11.9021444 C24.6248662,-0.805073944 45.3022254,-0.805073944 58.0106761,11.9021444 C64.0634577,17.9549261 67.4510634,25.99975 67.5499014,34.5552782 C67.6497254,43.0940458 64.4674366,51.2029542 58.5889155,57.3878486 C58.5354296,57.4433063 58.4844085,57.4982711 58.4333873,57.5532359 L58.3840915,57.6057359 C58.2620845,57.7368627 58.1388451,57.8684824 58.0109225,57.9964049 C45.3019789,70.7041162 24.6246197,70.7038697 11.9174014,57.9966514 C11.8471549,57.9261585 11.7798662,57.8568979 11.7138099,57.785912 L11.6507113,57.7178838 L11.6482465,57.6249613 C11.6445493,57.4911232 11.6413451,57.3580246 11.6413451,57.2276373 C11.6413451,56.9353134 11.6467676,56.6454542 11.6573662,56.3555951 C11.659831,56.2964401 11.6630352,56.2380246 11.6667324,56.1793627 L11.6726479,56.0667218 C11.6822606,55.8747148 11.6918732,55.6817218 11.7056761,55.4904542 C11.7120845,55.4044331 11.7202183,55.3191514 11.7285986,55.2338697 L11.7446197,55.0561585 C11.7571901,54.9144331 11.7695141,54.7734472 11.7847958,54.6327077 C11.7931761,54.5538345 11.8040211,54.4744683 11.8146197,54.3948556 L11.8308873,54.2703838 C11.8525775,54.0941514 11.8718028,53.9376373 11.8942324,53.7830951 C11.9137042,53.6568979 11.9346549,53.5336585 11.9563451,53.4111585 C11.9805,53.2566162 12.0063803,53.0966514 12.0359577,52.9393979 C12.0574014,52.8198556 12.0827887,52.699081 12.1079296,52.5780599 L12.1160634,52.5378838 C12.1449014,52.3936937 12.1737394,52.249257 12.2057817,52.1060528 C12.225007,52.0207711 12.2454648,51.9362289 12.266169,51.8516866 L12.318669,51.6328134 C12.3467676,51.5162289 12.3748662,51.3998908 12.4049366,51.2837993 C12.4327887,51.1780599 12.4623662,51.0735528 12.4914507,50.9700317 L12.5077183,50.9130951 C12.5483873,50.7654542 12.5897958,50.6183063 12.6331761,50.470912 C12.6718732,50.3459472 12.7108169,50.2232007 12.7507465,50.1014401 L12.7731761,50.0307007 C12.8118732,49.9096796 12.8505704,49.787919 12.8917324,49.6678838 C12.9306761,49.5535176 12.9720845,49.4393979 13.013493,49.3245387 C13.0706761,49.1633415 13.1226831,49.0201373 13.1769085,48.8786585 C13.223,48.7581303 13.2703239,48.639081 13.3186338,48.5195387 C13.3814859,48.3645035 13.4347254,48.2321444 13.4906761,48.1007711 C13.5399718,47.9832007 13.5917324,47.8648908 13.6439859,47.7478134 C13.7048662,47.6105246 13.7677183,47.4724965 13.8310634,47.3366866 C13.8852887,47.2203486 13.940993,47.1045035 13.9974366,46.9889049 L14.0309577,46.9208768 C14.086169,46.8084824 14.1416268,46.6955951 14.1995493,46.5839401 C14.2569789,46.4715458 14.3158873,46.358412 14.3760282,46.2460176 C14.4467676,46.1131655 14.5187394,45.9795739 14.5931761,45.8472148 L14.6205352,45.7986585 C14.6740211,45.704257 14.7272606,45.6098556 14.7817324,45.5164401 C14.850993,45.395912 14.9232113,45.2753838 14.9949366,45.1551021 L15.0114507,45.127743 C15.0787394,45.0175669 15.1457817,44.9093627 15.2128239,44.8023908 C15.2924366,44.6744683 15.3752535,44.5470387 15.4578239,44.4205951 C15.5275775,44.3146092 15.5978239,44.2098556 15.6683169,44.1053486 C15.7538451,43.978412 15.8413451,43.8544331 15.9300775,43.7302077 L15.9727183,43.6700669 C16.0313803,43.5874965 16.0900423,43.5049261 16.1496901,43.4233415 C16.2411338,43.2998556 16.3330704,43.179081 16.4245141,43.0592923 C16.5009225,42.9592218 16.577331,42.8589049 16.6549718,42.7600669 C16.7520845,42.6392923 16.8487042,42.5199965 16.9465563,42.4026725 C17.0239507,42.3072852 17.1035634,42.210419 17.1853944,42.1145387 C17.2854648,41.9977077 17.388,41.8813697 17.4890563,41.7670035 L17.5533873,41.6940458 C17.6145141,41.6250317 17.6758873,41.5555246 17.738,41.487743 C17.8267324,41.3906303 17.9174366,41.2954894 18.0083873,41.2001021 L18.1274366,41.0751373 C18.1890563,41.0098204 18.251169,40.9445035 18.3145141,40.8801725 C18.408669,40.7850317 18.5050423,40.6908768 18.6009225,40.5972148 L18.6487394,40.5503838 C18.7458521,40.4545035 18.8284225,40.373412 18.9132113,40.2935528 C19.0290563,40.1843627 19.1471197,40.0773908 19.2649366,39.9711585 L19.3534225,39.8900669 C19.4128239,39.8358415 19.4722254,39.7813697 19.5331056,39.7278838 C19.6267676,39.6448204 19.7228944,39.5637289 19.8192676,39.4826373 L19.9703592,39.3549613 C20.0388803,39.2962993 20.1071549,39.2381303 20.1769085,39.1819331 C20.3045845,39.0776725 20.4357113,38.9746444 20.5670845,38.8730951 L20.6607465,38.7991514 C20.7201479,38.751581 20.7793028,38.7049965 20.8394437,38.6591514 C20.9483873,38.5763345 21.0602887,38.4959824 21.1716972,38.4158768 L21.3139155,38.3128486 C21.3834225,38.261581 21.4526831,38.2105599 21.5234225,38.1602782 C21.6412394,38.0774613 21.7612746,37.9973556 21.8810634,37.91725 L22.0932817,37.7740458 C22.1378944,37.7434824 22.182507,37.7131655 22.2273662,37.6838345 C22.434162,37.549257 22.644162,37.4193627 22.8556408,37.2919331 L22.9515211,37.2317923 C23.1982465,37.0846444 23.4457113,36.943412 23.6951479,36.8056303 C23.7493732,36.7760528 23.8035986,36.7474613 23.8575775,36.7193627 L24.0283873,36.6289049 C24.1706056,36.5529894 24.3133169,36.4770739 24.4582465,36.4043627 C24.5304648,36.3673908 24.6056408,36.3318979 24.6803239,36.2961585 L24.8296901,36.2244331 C24.9529296,36.1645387 25.076169,36.1046444 25.2003944,36.0467218 L25.3532113,35.9754894 L25.4749718,36.0918275 C28.0514155,38.5541514 31.4212746,39.9100317 34.964162,39.9100317 C38.5050775,39.9100317 41.8754296,38.5541514 44.454338,36.0918275 L44.5758521,35.9759824 L44.7279296,36.0464754 C49.8381761,38.4116866 54.0647958,42.7137289 56.3242676,47.8493627 C56.587507,48.4475669 57.288,48.7214049 57.8876831,48.4576725 C58.4861338,48.1934472 58.7592324,47.4914754 58.495993,46.8930246 C56.0792676,41.4004894 51.792507,36.9054542 46.4254296,34.2355951 L46.1722958,34.1096444 L46.3315211,33.8759824 C47.8917324,31.5864401 48.7164507,28.9173204 48.7164507,26.15725 C48.7164507,18.5738345 42.547331,12.4044683 34.964162,12.4044683 C34.3097606,12.4044683 33.7771197,12.9368627 33.7771197,13.5912641 C33.7771197,14.2456655 34.3097606,14.7783063 34.964162,14.7783063 C41.2392676,14.7783063 46.3440915,19.8828838 46.3440915,26.15725 C46.3440915,28.9631655 45.3014859,31.6648204 43.4080352,33.7643275 C41.2459225,36.1625669 38.1686338,37.5371796 34.964162,37.5371796 C31.7596901,37.5371796 28.6824014,36.1625669 26.5212746,33.7655599 C24.626838,31.663588 23.5842324,28.9619331 23.5842324,26.15725 C23.5842324,23.094257 24.7831056,20.2217923 26.960007,18.0685528 C27.1857817,17.845243 27.310993,17.547743 27.3127183,17.2305246 C27.3144437,16.9137993 27.1926831,16.6153134 26.9698662,16.3900317 C26.7379296,16.1556303 26.4315563,16.0383063 26.1251831,16.0383063 C25.8237394,16.0383063 25.5220493,16.1521796 25.2915915,16.380419 C22.6604296,18.9839754 21.2113803,22.4561232 21.2113803,26.15725 C21.2113803,28.9155951 22.0346197,31.582743 23.5921197,33.8700669 L23.7493732,34.1007711 L23.4681408,34.2444683 C23.3946901,34.2814401 23.3333169,34.3134824 23.2719437,34.3460176 L23.0878239,34.4416514 C22.9337746,34.5212641 22.7787394,34.6013697 22.6254296,34.685419 C22.533493,34.7354542 22.4435282,34.7869683 22.3533169,34.8384824 L22.1726479,34.9412641 C22.0526127,35.0090458 21.9325775,35.0768275 21.815007,35.1475669 C21.7225775,35.2020387 21.6331056,35.25725 21.5441268,35.3119683 L21.3466972,35.4339754 C21.238493,35.5012641 21.1302887,35.5683063 21.0235634,35.6368275 C20.9067324,35.7124965 20.7899014,35.7896444 20.6733169,35.8682711 C20.5325775,35.9621796 20.392331,36.0563345 20.2533169,36.1522148 C20.1645845,36.214081 20.0760986,36.2776725 19.9881056,36.3410176 L19.9082465,36.3982007 C19.7731761,36.4950669 19.639338,36.5931655 19.5064859,36.6924965 C19.3918732,36.7782711 19.2799718,36.8650317 19.1683169,36.9515458 C19.0379296,37.0528486 18.9085282,37.1546444 18.7813451,37.2574261 C18.6706761,37.3473908 18.5607465,37.4376021 18.4505704,37.5292923 C18.326838,37.6335528 18.2018732,37.7400317 18.0778944,37.8474965 C17.9701831,37.940419 17.8641972,38.0333415 17.7594437,38.1279894 C17.6366972,38.2381655 17.5169085,38.3488345 17.3978592,38.4607359 C17.2928592,38.5576021 17.1903239,38.6544683 17.0887746,38.7520739 C16.9712042,38.8657007 16.8543732,38.9820387 16.7390211,39.0976373 C16.6394437,39.1972148 16.5415915,39.2962993 16.4444789,39.3968627 C16.3301127,39.5156655 16.2169789,39.6357007 16.104831,39.7567218 L16.0777183,39.7862993 C15.9924366,39.8779894 15.9076479,39.9691866 15.824338,40.0621092 C15.7353592,40.1602077 15.6503239,40.2590458 15.5652887,40.3578838 L15.4925775,40.4421796 C15.3979296,40.5503838 15.311662,40.6492218 15.2273662,40.7490458 C15.1420845,40.8518275 15.0577887,40.9570739 14.973493,41.0623204 L14.804162,41.2730599 C14.7551127,41.3334472 14.7063099,41.393588 14.6592324,41.4547148 C14.5650775,41.575243 14.4748662,41.696757 14.3844085,41.8185176 L14.231838,42.0228486 C14.1924014,42.0751021 14.1529648,42.1271092 14.115007,42.1801021 C13.975007,42.3745739 13.8387042,42.5702782 13.7048662,42.7689401 L13.6592676,42.834257 C13.6383169,42.8643275 13.6173662,42.8943979 13.5971549,42.9244683 C13.432507,43.1694683 13.2681056,43.4243275 13.1081408,43.6823908 C13.071662,43.7415458 13.0359225,43.8024261 12.9999366,43.8630599 L12.9494085,43.9480951 C12.8431761,44.123588 12.7421197,44.2909472 12.6455,44.4615106 C12.5957113,44.5487641 12.5481408,44.636757 12.5003239,44.72475 L12.4668028,44.7866162 C12.3780704,44.9463345 12.2922958,45.1008768 12.2094789,45.2583768 C12.1574718,45.3572148 12.1074366,45.4577782 12.0574014,45.5580951 L12.0061338,45.6596444 C11.9371197,45.7954542 11.8681056,45.9312641 11.8020493,46.0695387 C11.7456056,46.1868627 11.6916268,46.3049261 11.6374014,46.4229894 C11.5590211,46.5918275 11.4887746,46.7436585 11.4217324,46.8972148 C11.3694789,47.0162641 11.3194437,47.1362993 11.2694085,47.256088 L11.2427887,47.3201725 C11.1848662,47.4596796 11.1276831,47.5982007 11.0719789,47.7391866 C11.0322958,47.8377782 10.9953239,47.9353838 10.9583521,48.0332359 L10.9070845,48.1687993 C10.854338,48.3105246 10.8013451,48.4524965 10.7508169,48.5952077 C10.7044789,48.7268275 10.6581408,48.8596796 10.6132817,48.9937641 C10.5612746,49.1495387 10.5090211,49.3070387 10.4594789,49.4642923 L10.3357465,49.8690106 C10.2884225,50.027743 10.2435634,50.1869683 10.1994437,50.3474261 C10.160993,50.4837289 10.1247606,50.6183063 10.090007,50.7538697 C10.0485986,50.9162993 10.0081761,51.0782359 9.96997183,51.2418979 L9.95542958,51.3035176 C9.92782394,51.4191162 9.90046479,51.5342218 9.87532394,51.6510528 C9.83810563,51.817919 9.80433803,51.9840458 9.77106338,52.1501725 L9.74937324,52.2598556 C9.72965493,52.3596796 9.70993662,52.4599965 9.69120423,52.5605599 C9.65990141,52.7301373 9.63229577,52.9009472 9.60469014,53.071757 L9.59458451,53.1326373 C9.57560563,53.2465106 9.55662676,53.3611232 9.54011268,53.4759824 C9.51472535,53.6524613 9.49278873,53.8291866 9.47085211,54.0071444 L9.45359859,54.1434472 C9.44226056,54.2294683 9.43116901,54.3157359 9.4220493,54.401757 C9.40405634,54.5619683 9.39074648,54.7214401 9.37719014,54.880912 L9.36067606,55.0652782 C9.35180282,55.1557359 9.34317606,55.2461937 9.33627465,55.3376373 C9.32173239,55.5456655 9.31138028,55.7549261 9.30201408,55.9649261 L9.29511268,56.0859472 C9.29116901,56.1507711 9.28747183,56.2151021 9.28451408,56.280419 C9.27317606,56.5939401 9.26726056,56.9131303 9.26726056,57.2276373 C9.26726056,57.5734472 9.27884507,57.8963345 9.29264789,58.2524965 C9.29535915,58.3158415 9.30423239,58.3836232 9.31926761,58.4578134 L9.32419718,58.4836937 C9.33479577,58.5283063 9.35402113,58.5879542 9.3823662,58.6586937 C9.41317606,58.7314049 9.44324648,58.7878486 9.47947887,58.8450317 L9.49476056,58.8672148 C9.52630986,58.9157711 9.56426761,58.964081 9.61060563,59.0146092 L9.85511268,59.2773556 C9.9808169,59.4111937 10.1060282,59.5447852 10.2369085,59.6744331 C16.8314507,66.2689754 25.612507,69.9001021 34.9629296,69.9001021 C44.3133521,69.9001021 53.094162,66.2689754 59.6879648,59.6751725 C59.8269789,59.5373908 59.9590915,59.3961585 60.0914507,59.2549261 L60.3063803,59.0254542 C66.6145141,52.3909824 70.0289859,43.6920035 69.9227535,34.5293979 C69.8157817,25.3483063 66.1814507,16.7168627 59.6891972,10.2248556" id="Fill-1" fill="#4397BC" mask="url(#mask-2)"></path>
                </g>
            </g>
        </g>
    </g>
</svg>