<?xml version="1.0" encoding="UTF-8"?>
<svg width="10px" height="35px" viewBox="0 0 10 35" version="1.1" xmlns="http://www.w3.org/2000/svg" xmlns:xlink="http://www.w3.org/1999/xlink">
    <!-- Generator: Sketch 50 (54983) - http://www.bohemiancoding.com/sketch -->
    <title>Stroke-Icon-Vape</title>
    <desc>Created with Sketch.</desc>
    <defs></defs>
    <g id="Page-1" stroke="none" stroke-width="1" fill="none" fill-rule="evenodd">
        <g id="Review-Consumption" transform="translate(-781.000000, -649.000000)" fill="#FFFFFF" fill-rule="nonzero">
            <g id="Form" transform="translate(758.000000, 133.000000)">
                <g id="Method" transform="translate(1.000000, 474.000000)">
                    <g id="Vaporizer" transform="translate(0.000000, 31.000000)">
                        <g id="Stroke-Icon-Vape" transform="translate(22.000000, 11.000000)">
                            <path d="M8.28181818,7.67123288 L8.63636364,2.53150685 L8.63636364,2.4260274 C8.61762243,1.88318693 8.39273138,1.3710949 8.01229504,1.00498128 C7.63185871,0.638867668 7.12783428,0.449486532 6.61363636,0.479452055 L3.40454545,0.479452055 C2.88730501,0.444121065 2.37852518,0.631087557 1.99406808,0.997774499 C1.60961098,1.36446144 1.38220503,1.87965317 1.36363636,2.4260274 L1.70454545,7.7 C0.746833333,7.7910323 0.0101230678,8.6323487 0,9.64657534 L0,33.0246575 C0.00249878221,34.1145154 0.839485359,34.9973643 1.87272727,35 L8.12727273,35 C9.16051464,34.9973643 9.99750122,34.1145154 10,33.0246575 L10,9.64657534 C10.0033314,8.61623853 9.25530528,7.75625517 8.28181818,7.67123288 Z M5.84090909,3.35616438 L5.55,7.67123288 L4.45454545,7.67123288 L4.17272727,3.35616438 L5.84090909,3.35616438 Z M7.27272727,32.1232877 L2.72727273,32.1232877 L2.72727273,10.5479452 L7.27272727,10.5479452 L7.27272727,32.1232877 Z" id="Shape"></path>
                            <ellipse id="Oval" cx="5.00909091" cy="16.0616438" rx="1.35454545" ry="1.42876712"></ellipse>
                        </g>
                    </g>
                </g>
            </g>
        </g>
    </g>
</svg>