<svg xmlns="http://www.w3.org/2000/svg" width="118" height="118" viewBox="0 0 118 118">
    <g fill="none" fill-rule="nonzero" transform="translate(1 1)">
        <circle cx="58" cy="58" r="58" stroke="#FFF" stroke-width="2" opacity=".75"/>
        <path fill="#FFF" d="M64.4 49.201h-4.608a6.38 6.38 0 1 0-10.33-6.512 4.787 4.787 0 0 0-7.016 6.512H40.4a2.4 2.4 0 0 0-2.4 2.4v16a2.4 2.4 0 0 0 2.4 2.4h6.818l-2.761 6.903a.8.8 0 1 0 1.486.594l2.999-7.497h6.916l3 7.497a.8.8 0 1 0 1.485-.594l-2.761-6.903H64.4a2.4 2.4 0 0 0 2.4-2.4v-16a2.4 2.4 0 0 0-2.4-2.4zm-16 6.4h-4.8a.8.8 0 1 1 0-1.6h4.8a.8.8 0 1 1 0 1.6zm-2.4-6.4a3.2 3.2 0 1 1 0-6.4 3.2 3.2 0 0 1 0 6.4zm3.554 0c.317-.35.58-.744.782-1.17.307.433.668.826 1.072 1.17h-1.854zm6.046 0a4.8 4.8 0 1 1 0-9.6 4.8 4.8 0 0 1 0 9.6zm20.8 1.602v17.595A1.602 1.602 0 0 1 74.794 70a1.58 1.58 0 0 1-.924-.3l-5.47-3.908V53.409l5.47-3.907c.269-.195.592-.3.924-.301a1.601 1.601 0 0 1 1.606 1.602z"/>
    </g>
</svg>
