<svg xmlns="http://www.w3.org/2000/svg" width="118" height="118" viewBox="0 0 118 118">
    <g fill="none" fill-rule="nonzero" transform="translate(1 1)">
        <circle cx="58" cy="58" r="58" stroke="#FFF" stroke-width="2" opacity=".75"/>
        <path fill="#FFF" d="M75.6 38H48.4a2.403 2.403 0 0 0-2.4 2.4v15.2h-5.6A2.403 2.403 0 0 0 38 58v15.2a4.8 4.8 0 0 0 4.8 4.8h28a7.208 7.208 0 0 0 7.2-7.2V40.4a2.403 2.403 0 0 0-2.4-2.4zM46 72.4v.8a3.2 3.2 0 1 1-6.4 0V58a.8.8 0 0 1 .8-.8H46v15.2zm20-.8H53.2a.8.8 0 1 1 0-1.6H66a.8.8 0 1 1 0 1.6zm4.8-6.4H53.2a.8.8 0 1 1 0-1.6h17.6a.8.8 0 1 1 0 1.6zm0-6.4H53.2a.8.8 0 1 1 0-1.6h17.6a.8.8 0 1 1 0 1.6zm.8-8a1.6 1.6 0 0 1-1.6 1.6H54a1.6 1.6 0 0 1-1.6-1.6V46a1.6 1.6 0 0 1 1.6-1.6h16a1.6 1.6 0 0 1 1.6 1.6v4.8z"/>
    </g>
</svg>
