<?xml version="1.0" encoding="UTF-8"?>
<svg width="3220px" height="305px" viewBox="0 0 3220 305" version="1.1" xmlns="http://www.w3.org/2000/svg" xmlns:xlink="http://www.w3.org/1999/xlink">
    <!-- Generator: Sketch 51.3 (57544) - http://www.bohemiancoding.com/sketch -->
    <title>RTO-Desktop</title>
    <desc>Created with Sketch.</desc>
    <defs>
        <polygon id="path-1" points="8.15223967e-05 0.223677582 597.609291 0.223677582 597.609291 591.050513 8.15223967e-05 591.050513"></polygon>
        <polygon id="path-3" points="8.15223967e-05 0.223677582 597.609291 0.223677582 597.609291 591.050513 8.15223967e-05 591.050513"></polygon>
        <polygon id="path-5" points="1.47179739 0.495822472 20.8865696 0.495822472 20.8865696 17.0859456 1.47179739 17.0859456"></polygon>
    </defs>
    <g id="RTO-Desktop" stroke="none" stroke-width="1" fill="none" fill-rule="evenodd">
        <rect fill="#19AA9C" x="0" y="0" width="3220" height="305"></rect>
        <g id="seeds" transform="translate(-0.391000, 328.609000) rotate(-225.000000) translate(0.391000, -328.609000) translate(-327.391000, 14.109000)">
            <g id="Group-3">
                <mask id="mask-2" fill="white">
                    <use xlink:href="#path-1"></use>
                </mask>
                <g id="Clip-2"></g>
            </g>
            <path d="M92.8040157,225.035032 C92.5776841,224.21139 93.5004208,223.037962 94.5624386,221.703093 C95.4867581,220.550592 102.55527,217.710447 102.55527,226.310108 C102.55527,233.108519 92.26905,248.173247 91.4286156,247.551405 C81.346569,253.390146 80.6992288,250.446858 80.6992288,241.884568 C80.6992288,232.413431 93.657112,228.126306 92.8040157,225.035032" id="Fill-4" fill="#000002"></path>
            <path d="M89.2831672,208.786889 C83.2451271,202.847494 82.4863968,192.583198 86.785869,187.573716 C92.0651786,181.433061 109.620473,187.244648 109.275183,194.896962 C108.834483,204.763144 110.513988,211.842526 98.518173,211.842526 C90.5583189,211.842526 93.1843438,212.62994 89.2831672,208.788358 L89.2831672,208.786889 Z" id="Fill-6" fill="#000002"></path>
            <path d="M118.402282,217.066059 C113.226344,218.316576 107.142645,233.772727 121.881775,233.772727 C132.383656,233.771266 134.16361,220.135376 126.111291,216.88491 C117.298123,213.323275 119.803358,216.724213 118.402282,217.066059" id="Fill-8" fill="#000002"></path>
            <path d="M137.980242,210.139835 C138.214607,212.343166 145.24987,216.313306 150.38577,210.783522 C154.795569,206.023202 157.477107,201.074956 155.898379,193.950013 C154.621593,188.196789 136.216035,193.618552 137.980242,210.139835" id="Fill-10" fill="#000002"></path>
            <path d="M170.877711,259 C126.79868,259 186.616967,216.955339 186.616967,249.475826 C186.616967,256.815205 176.252521,259 170.876241,259 L170.877711,259 Z" id="Fill-12" fill="#000002"></path>
            <path d="M105.513647,247.915384 C104.426022,254.634773 97.1952369,258.438059 110.351991,265.253848 C115.143556,267.731633 129.265975,260.292255 107.869333,247.413802 C107.129213,246.967952 105.595511,247.395727 105.513647,247.916891 L105.513647,247.915384 Z" id="Fill-14" fill="#000002"></path>
            <path d="M131.30892,276.060008 C135.215966,279.907487 132.590067,279.114192 140.549539,279.114192 C152.544777,279.114192 150.863839,272.042118 151.306032,262.170009 C151.651305,254.516186 134.096855,248.706038 128.816285,254.846725 C124.518534,259.856233 125.275713,270.120583 131.30892,276.061477 L131.30892,276.060008 Z" id="Fill-16" fill="#000002"></path>
            <path d="M103.628354,306.090909 C59.5493228,306.090909 119.367609,264.045997 119.367609,296.567025 C119.369079,303.904647 109.003164,306.090909 103.626883,306.090909 L103.628354,306.090909 Z" id="Fill-18" fill="#000002"></path>
            <path d="M80.7184778,271.595882 C80.2278637,274.582853 67.9653472,273.598527 64.3268623,281.807388 C61.0428674,289.22029 60.4359806,292.007564 70.9430628,290.604013 C71.3911381,291.44671 85.6061853,282.124639 88.2152313,276.235673 C91.5219136,268.787363 84.6391367,268.679725 83.4395427,269.35105 C82.052778,270.120099 80.8503481,270.799922 80.7184778,271.595882" id="Fill-20" fill="#000002"></path>
            <path d="M47.1948689,267.324028 C47.4292349,269.527321 54.4645271,273.492953 59.5946972,267.966223 C64.0102669,263.207465 66.6903782,258.259304 65.1116431,251.130045 C63.8348518,245.381359 45.430654,250.79711 47.1934311,267.324028 L47.1948689,267.324028 Z" id="Fill-22" fill="#000002"></path>
            <path d="M136.298857,312.73155 C136.534715,314.933367 143.571608,318.904924 148.702946,313.373747 C153.118082,308.614981 155.797365,303.665333 154.215394,296.541982 C152.944065,290.788847 134.535679,296.203127 136.298857,312.73155" id="Fill-24" fill="#000002"></path>
            <path d="M222.190359,270.777714 C190.874235,302.789115 203.273135,231.494008 226.548531,253.042723 C231.798939,257.901241 226.004706,266.877047 222.188844,270.777714 L222.190359,270.777714 Z" id="Fill-26" fill="#000002"></path>
            <path d="M171.661121,294.555944 C175.567704,298.402675 172.940602,297.61541 180.89913,297.61541 C192.889918,297.613941 191.215235,290.531491 191.655861,280.667173 C191.993523,273.016305 174.447211,267.207286 169.168781,273.345312 C164.863969,278.355316 165.628629,288.616203 171.661121,294.555944" id="Fill-28" fill="#000002"></path>
            <path d="M174.968615,327.867004 C175.201544,330.070218 182.244082,334.041626 187.371417,328.509177 C191.782708,323.74911 194.464278,318.802606 192.885531,311.678043 C191.614481,305.925124 173.204386,311.34068 174.967177,327.867004 L174.968615,327.867004 Z" id="Fill-30" fill="#000002"></path>
            <path d="M199.098324,223.788116 C193.926223,225.038914 187.843127,240.5 202.578357,240.5 C213.081867,240.5 214.862097,226.862507 206.814716,223.612771 C197.995541,220.050335 200.501164,223.452037 199.098324,223.788116" id="Fill-32" fill="#000002"></path>
            <path d="M59.5342794,369.922564 C44.8127721,383.487069 41.7095503,352.69463 42.0559908,350.884821 C42.54543,333.582863 83.9870776,347.36944 59.5328052,369.922564 L59.5342794,369.922564 Z" id="Fill-34" fill="#000002"></path>
            <path d="M89.4406713,362.943793 C90.2952884,366.033355 77.3399262,370.32018 77.3367609,379.795137 C77.3367609,388.353839 77.9856369,391.301404 88.0669535,385.458588 C88.9057443,386.080387 99.1943847,371.015219 99.1928021,364.218779 C99.1928021,355.619721 92.1232195,358.459667 91.2005495,359.612087 C90.1386086,360.945367 89.2111908,362.124693 89.4406713,362.943793" id="Fill-36" fill="#000002"></path>
            <path d="M84.235153,348.378595 C88.1432986,352.224433 85.5161647,351.432643 93.4747905,351.432643 C105.464212,351.432643 103.789509,344.35354 104.231655,334.487748 C104.570835,326.834267 87.0212777,321.024379 81.7442969,327.164792 C77.4394314,332.174076 78.2056157,342.437967 84.235153,348.378595" id="Fill-38" fill="#000002"></path>
            <path d="M115.036051,353.292014 C109.864602,354.541278 103.780727,370 118.518737,370 C129.020922,370 130.800927,356.360381 122.749922,353.110834 C113.93186,349.55299 116.441806,352.948649 115.034504,353.292014 L115.036051,353.292014 Z" id="Fill-40" fill="#000002"></path>
            <path d="M134.619034,349.731235 C134.851964,351.933069 141.888745,355.906138 147.018953,350.371957 C151.433116,345.614633 154.114685,340.664944 152.535938,333.541536 C151.259138,327.786875 132.854807,333.210077 134.617596,349.731235 L134.619034,349.731235 Z" id="Fill-42" fill="#000002"></path>
            <path d="M167.516681,398.590909 C123.434912,398.590909 183.254499,356.546248 183.254499,389.066735 C183.254499,396.406114 172.892004,398.590909 167.516681,398.590909" id="Fill-44" fill="#000002"></path>
            <path d="M97.1091935,384.141117 L97.107523,384.141117 C97.1893798,383.621455 98.7229428,383.193674 99.4629955,383.644049 C120.859373,396.518131 106.738232,403.962113 101.94543,401.479781 C88.7915354,394.663914 96.0166552,390.859078 97.1091935,384.141117" id="Fill-46" fill="#000002"></path>
            <path d="M124.585232,415.651164 C128.491772,419.493473 125.866214,418.706211 133.824654,418.706211 C145.812283,418.706211 144.139133,411.628195 144.581269,401.758043 C144.920441,394.107205 127.372806,388.298209 122.092919,394.436211 C117.791182,399.446194 118.552806,409.707041 124.585232,415.652633 L124.585232,415.651164 Z" id="Fill-48" fill="#000002"></path>
            <path d="M96.9019179,443.996934 L96.9019179,444 C102.278209,444 112.644144,441.812321 112.642674,434.475087 C112.642674,401.957314 52.8257441,443.996934 96.9019179,443.996934" id="Fill-50" fill="#000002"></path>
            <path d="M75.6709382,409.505587 C75.8013743,408.709649 77.0107436,408.029844 78.3959181,407.259399 C79.5939452,406.589508 86.4772842,406.697144 83.1724308,414.143838 C80.558038,420.038312 66.3490115,429.354469 65.9009919,428.513211 C55.3966337,429.916725 55.9949384,427.128109 59.285614,419.716821 C62.9236465,411.508179 75.1860562,412.492479 75.6695204,409.505587 L75.6709382,409.505587 Z" id="Fill-52" fill="#000002"></path>
            <path d="M42.149732,406.913882 C40.3867935,390.386281 58.7941146,384.970306 60.0652709,390.723669 C61.6499024,397.848783 58.9681077,402.795669 54.5521337,407.556104 C49.4214938,413.086021 42.3855574,409.115786 42.149732,406.913882" id="Fill-54" fill="#000002"></path>
            <path d="M129.573865,448.957645 C129.813977,451.16103 136.849109,455.132746 141.979163,449.599867 C146.388881,444.840911 149.071807,439.892543 147.49167,432.768905 C146.219221,427.01406 127.811128,432.437436 129.573865,448.957645" id="Fill-56" fill="#000002"></path>
            <path d="M217.146619,410.36819 C185.834625,442.380267 198.224002,371.086602 221.504638,392.632824 C226.754861,397.49734 220.962347,406.467441 217.145104,410.36819 L217.146619,410.36819 Z" id="Fill-58" fill="#000002"></path>
            <path d="M164.93694,432.470884 C168.837598,436.311595 166.210408,435.524359 174.173746,435.524359 C186.164938,435.524359 184.484142,428.448052 184.93084,418.578234 C185.271542,410.924719 167.72161,405.115919 162.444517,411.255181 C158.139559,416.266464 158.902731,426.525494 164.935426,432.472353 L164.93694,432.470884 Z" id="Fill-60" fill="#000002"></path>
            <path d="M169.924942,464.093739 C170.160738,466.301406 177.194368,470.26692 182.330125,464.735915 C186.739802,459.975818 189.421266,455.029283 187.841143,447.904674 C186.564393,442.151718 168.160784,447.571748 169.923504,464.093739 L169.924942,464.093739 Z" id="Fill-62" fill="#000002"></path>
            <path d="M195.737651,361.698459 C190.562577,362.949382 184.48117,378.409091 199.216055,378.409091 C209.71932,378.409091 211.501055,364.771696 203.449222,361.521635 C194.633346,357.958843 197.140458,361.362347 195.737651,361.698459" id="Fill-64" fill="#000002"></path>
            <path d="M27.0184543,302.643215 C25.256853,286.114654 43.6637888,280.70033 44.9335797,286.447593 C46.5197399,293.576922 43.8363538,298.526612 39.4215653,303.285417 C34.29207,308.810721 27.2528551,304.84505 27.0184543,302.643215" id="Fill-66" fill="#000002"></path>
            <path d="M58.0680995,334.389706 C59.9401464,335.662974 67.9172901,332.807408 67.2044195,325.161861 C66.5936052,318.581579 64.6210252,313.228508 57.9965078,309.750423 C52.6530248,306.939429 44.0254628,324.843915 58.0665762,334.391192 L58.0680995,334.389706 Z" id="Fill-68" fill="#000002"></path>
            <path d="M246.174997,328.065833 C240.998359,329.316366 234.918478,344.772727 249.654959,344.772727 C260.158259,344.772727 261.936907,331.135191 253.885047,327.88322 C245.070689,324.321536 247.576262,327.729825 246.174997,328.065833" id="Fill-248" fill="#000002"></path>
            <path d="M269.11646,321.138481 C269.350835,323.346187 276.39215,327.313253 281.521079,321.780669 C285.932505,317.020486 288.614158,312.073862 287.033924,304.950605 C285.764273,299.196066 267.352177,304.619153 269.11646,321.138481" id="Fill-250" fill="#000002"></path>
            <path d="M300.331224,369.996934 C256.25505,369.996934 316.071979,327.956208 316.071979,360.47637 C316.071979,367.812263 305.707514,370 300.331224,370 L300.331224,369.996934 Z" id="Fill-252" fill="#000002"></path>
            <path d="M257.406764,388.737758 C261.307614,392.584494 258.681809,391.797228 266.64554,391.797228 C278.637322,391.795759 276.954929,384.720643 277.39862,374.850437 C277.742368,367.19809 260.188543,361.389062 254.909675,367.527096 C250.609049,372.538576 251.36923,382.799478 257.406764,388.737758" id="Fill-254" fill="#000002"></path>
            <path d="M109.015941,137.9169 C140.32597,169.92008 127.931943,98.6363856 104.654322,120.176647 C99.4049268,125.040482 105.196684,134.016697 109.015941,137.9169" id="Fill-288" fill="#000002"></path>
            <path d="M161.226192,166.740596 C157.319362,170.589295 159.945115,169.796051 151.981541,169.796051 C139.993023,169.796051 141.669326,162.722965 141.228672,152.850024 C140.883417,145.196695 158.438411,139.388391 163.717175,145.528682 C168.017717,150.537867 167.257551,160.801554 161.226192,166.742065 L161.226192,166.740596 Z" id="Fill-290" fill="#000002"></path>
            <path d="M79.5881486,471.624515 C81.3193257,466.498486 86.7100992,457.265137 93.610532,459.470865 C124.189099,469.237191 65.3958336,513.680986 79.5866313,471.624515 L79.5881486,471.624515 Z" id="Fill-318" fill="#000002"></path>
            <path d="M103.406248,504.940514 C85.3532451,514.95894 114.352111,527.483096 116.230405,527.712388 C133.246627,532.596464 133.407801,488.299587 103.404698,504.940514 L103.406248,504.940514 Z" id="Fill-324" fill="#000002"></path>
            <path d="M131.347578,486.382255 C128.865839,481.52047 128.818596,484.229731 131.242757,476.791171 C134.889333,465.592393 141.137233,469.39578 150.695102,472.105041 C158.110791,474.203975 158.318956,492.428969 150.847165,495.418089 C144.757235,497.856424 135.187555,493.899711 131.347578,486.382255" id="Fill-326" fill="#000002"></path>
            <path d="M64.5744795,230.327943 C89.0335946,207.779492 47.587386,193.989642 47.0994713,211.296833 C46.7545408,213.103851 49.86039,243.901736 64.5744795,230.327943" id="Fill-359" fill="#000002"></path>
        </g>
        <g id="seeds" transform="translate(3191.609000, -102.391000) rotate(-225.000000) translate(-3191.609000, 102.391000) translate(2864.609000, -416.891000)">
            <g id="Group-3">
                <mask id="mask-4" fill="white">
                    <use xlink:href="#path-3"></use>
                </mask>
                <g id="Clip-2"></g>
            </g>
            <path d="M584.382395,299.285357 C599.09755,312.851556 602.199202,282.060213 601.857194,280.248868 C601.370719,262.946677 559.921509,276.731929 584.382395,299.286868 L584.382395,299.285357 Z" id="Fill-70" fill="#000002"></path>
            <path d="M557.831569,293.98782 L557.831569,293.990809 C556.977199,297.080578 569.938303,301.367687 569.938303,310.837296 C569.938303,319.399557 569.284869,322.348813 559.204889,316.501124 C558.366341,317.127448 548.082262,302.062773 548.082262,295.264386 C548.082262,286.664755 555.15138,289.504891 556.073783,290.658882 C557.136998,291.992251 558.059401,293.165675 557.831569,293.98782" id="Fill-72" fill="#000002"></path>
            <path d="M561.358122,277.741891 C557.452547,281.58929 560.078474,280.796012 552.118916,280.796012 C540.125061,280.796012 541.802989,273.716739 541.362306,263.850709 C541.018543,256.198513 558.57167,250.388485 563.850784,256.527577 C568.151611,261.532574 567.391394,271.801119 561.358122,277.741891" id="Fill-74" fill="#000002"></path>
            <path d="M530.55585,286.021716 C535.732556,287.270798 541.810972,302.727273 527.074294,302.727273 C516.573947,302.727273 514.792182,289.091097 522.84415,285.839101 C531.660173,282.277392 529.153019,285.679862 530.55585,286.021716" id="Fill-76" fill="#000002"></path>
            <path d="M505.932569,282.45744 C505.698207,284.665065 498.661582,288.630505 493.527176,283.099604 C489.118862,278.339597 486.434477,273.391675 488.014626,266.26868 C489.285647,260.514353 507.69532,265.93724 505.932569,282.45744" id="Fill-78" fill="#000002"></path>
            <path d="M476.398541,331.318182 C520.47531,331.318182 460.658098,289.272665 460.658098,321.795 C460.659568,329.134796 471.023827,331.318182 476.398541,331.318182" id="Fill-80" fill="#000002"></path>
            <path d="M546.805424,318.550836 C546.720234,318.032695 545.190143,317.604928 544.446812,318.049264 C523.053934,330.925959 537.175539,338.371216 541.966261,335.888962 C555.120701,329.074812 547.896199,325.268588 546.805424,318.550836" id="Fill-82" fill="#000002"></path>
            <path d="M519.327146,350.057004 C515.420352,353.903869 518.046081,353.115107 510.088639,353.115107 C498.095691,353.115107 499.773492,346.039754 499.331328,336.169218 C498.992134,328.515146 516.540906,322.707392 521.818105,328.845632 C526.12315,333.85728 525.358448,344.118525 519.327146,350.057004" id="Fill-84" fill="#000002"></path>
            <path d="M543.647898,378.409091 C538.273184,378.409091 527.907455,376.222829 527.907455,368.885207 C527.907455,336.364179 587.724667,378.409091 543.647898,378.409091" id="Fill-86" fill="#000002"></path>
            <path d="M564.876259,342.229916 C564.750079,341.435335 563.54074,340.75548 562.155601,339.984978 C560.954768,339.319286 554.07302,339.422681 557.37779,346.869928 C559.994953,352.759173 574.200787,362.081687 574.650213,361.240367 C585.155724,362.643984 584.553182,359.856578 581.265424,352.441907 C577.627483,344.232656 565.363964,345.219862 564.876259,342.231332 L564.876259,342.229916 Z" id="Fill-88" fill="#000002"></path>
            <path d="M598.400392,337.961897 C600.163154,321.433997 581.760547,316.018409 580.482329,321.765442 C578.902169,328.895966 581.588009,333.843979 585.999229,338.602594 C591.129356,344.129157 598.167465,340.163644 598.400392,337.961897" id="Fill-90" fill="#000002"></path>
            <path d="M589.423937,440.558166 C604.144989,454.124044 607.245476,423.333429 606.900486,421.522127 C606.418385,404.218835 564.966499,418.005272 589.423937,440.558166" id="Fill-102" fill="#000002"></path>
            <path d="M563.042035,415.649786 C559.133475,419.498362 561.760887,418.705144 553.799903,418.705144 C541.809209,418.705144 543.484089,411.626408 543.043411,401.761127 C542.704195,394.108042 560.252586,388.296986 565.533155,394.437081 C569.83242,399.449043 569.072212,409.709465 563.040521,415.649786 L563.042035,415.649786 Z" id="Fill-106" fill="#000002"></path>
            <path d="M621.937677,376.643715 C623.700543,360.115815 605.293973,354.700227 604.021431,360.447261 C602.438302,367.571866 605.119987,372.527277 609.534343,377.284412 C614.666212,382.810975 621.701861,378.845463 621.936239,376.643715 L621.937677,376.643715 Z" id="Fill-134" fill="#000002"></path>
            <path d="M589.208553,405.026566 L589.20703,405.026566 C603.250013,395.481041 594.622825,377.577052 589.277107,380.386482 C582.650184,383.867442 580.680388,389.218879 580.071016,395.798977 C579.355004,403.444312 587.334733,406.298312 589.208553,405.026566" id="Fill-136" fill="#000002"></path>
            <path d="M439.795744,193.329432 C454.511028,206.899596 457.615656,176.103496 457.270697,174.293738 C456.784217,156.992269 415.336117,170.778457 439.795744,193.329432" id="Fill-170" fill="#000002"></path>
            <path d="M439.578356,157.798871 C453.620774,148.252632 444.99241,130.353248 439.642337,133.158431 C433.01568,136.636679 431.052057,141.990002 430.441186,148.570592 C429.725202,156.215013 437.706135,159.072198 439.578356,157.798871" id="Fill-182" fill="#000002"></path>
            <path d="M581.018181,156.329571 C595.738724,169.89922 598.84058,139.10429 598.494127,137.29309 C598.012042,119.992278 556.561586,133.779452 581.016707,156.329571 L581.018181,156.329571 Z" id="Fill-294" fill="#000002"></path>
            <path d="M552.790861,156.080089 L552.789279,156.080089 C551.939533,159.171102 564.896184,163.456371 564.894602,172.932688 C564.894602,181.491267 564.250567,184.437296 554.165963,178.594563 C553.324129,179.216353 543.03856,164.157379 543.03856,157.355057 C543.03856,148.756122 550.108702,151.596027 551.029656,152.748431 C552.091443,154.081692 553.021891,155.261001 552.790861,156.080089" id="Fill-296" fill="#000002"></path>
            <path d="M554.633462,134.783248 C550.728399,138.629941 553.350954,137.842683 545.392439,137.842683 C533.4047,137.842683 535.077866,130.764709 534.63724,120.894615 C534.298065,113.242355 551.845862,107.434862 557.124283,113.572827 C561.429088,118.582781 560.664428,128.845035 554.631947,134.784717 L554.633462,134.783248 Z" id="Fill-298" fill="#000002"></path>
            <path d="M525.5126,144.743772 C530.68581,145.994596 536.768392,161.454545 522.034409,161.454545 C511.527148,161.454545 509.751708,147.818227 517.796862,144.566962 C526.618384,141.004452 524.111426,144.407686 525.5126,144.743772" id="Fill-300" fill="#000002"></path>
            <path d="M502.5715,139.506396 C502.335708,141.711264 495.29932,145.675587 490.169399,140.14418 C485.758357,135.389656 483.072625,130.436842 484.651284,123.311715 C485.930888,117.562781 504.332754,122.980245 502.570062,139.507876 L502.5715,139.506396 Z" id="Fill-302" fill="#000002"></path>
            <path d="M540.077912,173.913691 C539.996048,173.394042 538.46403,172.967779 537.722246,173.415129 C516.330793,186.294889 530.448082,193.735658 535.239607,191.251887 C548.396253,184.437709 541.17221,180.63147 540.077912,173.913691" id="Fill-304" fill="#000002"></path>
            <path d="M514.284266,207.105651 C510.377608,210.948032 513.009302,210.160755 505.043051,210.160755 C493.056575,210.160755 494.729775,203.082607 494.287627,193.212269 C493.948444,185.55982 511.495094,179.755121 516.775139,185.888831 C521.07852,190.900377 520.315359,201.167291 514.284266,207.105651 Z" id="Fill-306" fill="#000002"></path>
            <path d="M540.284305,237.13483 L540.282835,237.136364 C534.906031,237.136364 524.544987,234.949892 524.544987,227.616165 C524.544987,195.088946 584.363217,237.13483 540.284305,237.13483" id="Fill-308" fill="#000002"></path>
            <path d="M558.151134,197.593036 C558.022088,196.801322 556.812452,196.117247 555.424136,195.348195 C554.231518,194.683948 547.346664,194.784506 550.653663,202.232845 C553.265795,208.126084 567.475113,217.442527 567.923231,216.601243 C578.429902,218.011881 577.830047,215.221764 574.538647,207.808832 C570.901232,199.599937 558.640377,200.581436 558.151134,197.593036" id="Fill-310" fill="#000002"></path>
            <path d="M593.35799,193.32152 L593.356552,193.32152 C595.120651,176.795789 576.711907,171.378947 575.438075,177.133139 C573.859443,184.257447 576.543692,189.203773 580.951784,193.96219 C586.081619,199.494441 593.117888,195.529094 593.35799,193.32152" id="Fill-312" fill="#000002"></path>
            <path d="M505.933602,238.733121 C505.697795,240.937923 498.660968,244.903608 493.533603,239.370886 C489.11941,234.616504 486.433511,229.663837 488.015143,222.538922 C489.291952,216.790159 507.697841,222.207462 505.932164,238.734601 L505.933602,238.733121 Z" id="Fill-314" fill="#000002"></path>
            <path d="M615.213486,233.685613 C614.977693,235.887323 607.941292,239.860166 602.807048,234.327778 C598.39456,229.569244 595.716011,224.621315 597.294672,217.496831 C598.568529,211.742496 616.97043,217.159472 615.213486,233.685613" id="Fill-316" fill="#000002"></path>
            <path d="M446.24578,261.359919 C443.488069,265.558229 426.70976,266.189922 431.134891,253.130597 C434.285286,243.823934 448.008395,246.445895 448.735753,254.581473 C449.534507,263.488639 446.996937,260.223447 446.24578,261.359919" id="Fill-342" fill="#000002"></path>
            <path d="M526.949723,72.9961701 C524.188772,77.1950143 507.41183,77.8253458 511.832922,64.7686855 C514.983619,55.4608387 528.705069,58.0816907 529.435472,66.2139764 C530.232815,75.1294887 527.695002,71.8581116 526.949723,72.9961701 Z" id="Fill-344" fill="#000002"></path>
            <g id="Group-350" transform="translate(632.143959, 296.000000)">
                <mask id="mask-6" fill="white">
                    <use xlink:href="#path-5"></use>
                </mask>
                <g id="Clip-349"></g>
                <path d="M18.1127257,14.4368308 C15.2121169,18.5779846 -2.39136313,19.2012923 2.24523988,6.32102308 C5.55486897,-2.86351538 19.9611224,-0.273515385 20.7260838,7.75121538 C21.562858,16.5415615 18.9011044,13.3154462 18.1127257,14.4368308" id="Fill-348" fill="#000002" mask="url(#mask-6)"></path>
            </g>
            <path d="M642.951671,263.042103 C640.186553,267.239618 623.414379,267.871409 627.839461,254.81584 C630.989821,245.5063 644.709804,248.12578 645.440128,256.26117 C646.238874,265.174037 643.701332,261.904014 642.948696,263.042103 L642.951671,263.042103 Z" id="Fill-351" fill="#000002"></path>
            <path d="M650.520084,343.007604 C650.284286,345.209653 643.249174,349.175711 638.119136,343.645429 C633.705117,338.890599 631.022199,333.940427 632.599456,326.811883 C633.87909,321.06258 652.281378,326.480392 650.518646,343.007604 L650.520084,343.007604 Z" id="Fill-357" fill="#000002"></path>
        </g>
    </g>
</svg>