<?xml version="1.0" encoding="UTF-8"?>
<svg width="640px" height="478px" viewBox="0 0 640 478" version="1.1" xmlns="http://www.w3.org/2000/svg" xmlns:xlink="http://www.w3.org/1999/xlink">
    <!-- Generator: Sketch 51.3 (57544) - http://www.bohemiancoding.com/sketch -->
    <title>RTO-Mobile</title>
    <desc>Created with Sketch.</desc>
    <defs>
        <polygon id="path-1" points="4.07611983e-05 0.112016595 298.804646 0.112016595 298.804646 295.99509 4.07611983e-05 295.99509"></polygon>
        <polygon id="path-3" points="0.735898695 0.248305372 10.4432848 0.248305372 10.4432848 8.55655464 0.735898695 8.55655464"></polygon>
        <polygon id="path-5" points="4.07611983e-05 0.112016595 298.804646 0.112016595 298.804646 295.99509 4.07611983e-05 295.99509"></polygon>
    </defs>
    <g id="RTO-Mobile" stroke="none" stroke-width="1" fill="none" fill-rule="evenodd">
        <rect fill="#19AA9C" x="0" y="0" width="640" height="478"></rect>
        <g id="seeds" transform="translate(153.981277, -111.018723) rotate(-225.000000) translate(-153.981277, 111.018723) translate(-9.518723, -268.518723)">
            <g id="Group-3">
                <mask id="mask-2" fill="white">
                    <use xlink:href="#path-1"></use>
                </mask>
                <g id="Clip-2"></g>
            </g>
            <path d="M292.191198,149.880584 C299.548775,156.674468 301.099601,141.254319 300.928597,140.347207 C300.685359,131.682358 279.960754,138.585942 292.191198,149.881341 L292.191198,149.880584 Z" id="Fill-70" fill="#000002"></path>
            <path d="M216.535261,26.9120877 C223.892646,33.7077648 225.443432,18.2849139 225.27317,17.3793783 C225.029201,8.71437932 204.305874,15.6182366 216.535261,26.9120877" id="Fill-138" fill="#000002"></path>
            <path d="M203.262376,24.2595943 L203.262376,24.2603429 C202.834214,25.8082879 209.314416,27.9550512 209.313625,32.7006856 C209.313625,36.9852299 208.990723,38.4620653 203.947751,35.5353413 C203.529878,35.8467268 198.386396,28.3031143 198.385604,24.8988328 C198.385604,20.5925813 201.920907,22.0147746 202.382309,22.5918856 C202.914148,23.2595679 203.37555,23.8479068 203.262376,24.2595943" id="Fill-140" fill="#000002"></path>
            <path d="M204.181492,16.1238646 C202.230959,18.0505571 203.543177,17.6533009 199.561091,17.6533009 C193.565624,17.6533009 194.40611,14.1111 194.185009,9.16746756 C194.013126,5.33468111 202.789769,2.42514744 205.429349,5.50020451 C207.579782,8.00953937 207.19967,13.1495929 204.181492,16.1246003 L204.181492,16.1238646 Z" id="Fill-142" fill="#000002"></path>
            <path d="M189.622374,19.4263289 C192.210644,20.0526691 195.249755,27.7941176 187.882425,27.7941176 C182.630873,27.7933859 181.740792,20.9658381 185.766647,19.3355973 C190.174518,17.5546251 188.920981,19.2551097 189.622374,19.4263289" id="Fill-144" fill="#000002"></path>
            <path d="M178.99199,17.6428892 C178.874094,18.7485843 175.354488,20.7346854 172.789546,17.964519 C170.585478,15.5834209 169.243341,13.1030177 170.032664,9.53470541 C170.669587,6.65559984 179.873329,9.36870292 178.99199,17.6428892" id="Fill-146" fill="#000002"></path>
            <path d="M198.589291,36.5600591 L198.588455,36.5608135 C198.543355,36.2998137 197.780817,36.0863371 197.409153,36.3111287 C186.712751,42.7606888 193.771024,46.4871013 196.169717,45.2432037 C202.74608,41.8305944 199.131335,39.9243911 198.589291,36.5600591" id="Fill-150" fill="#000002"></path>
            <path d="M207.623025,45.8914196 C207.557801,45.4963372 206.955185,45.153034 206.262531,44.7678818 C205.66275,44.4352182 202.221458,44.4855788 203.874044,48.2165186 C205.17924,51.1672238 212.285856,55.8330265 212.510596,55.4116998 C217.76399,56.1174574 217.460555,54.7187097 215.818604,51.0062118 C213.997285,46.8972129 207.866907,47.3887606 207.623025,45.8921289 L207.623025,45.8914196 Z" id="Fill-156" fill="#000002"></path>
            <path d="M225.225817,46.281264 C226.107929,38.003835 216.905061,35.2906407 216.266662,38.1728075 C215.47729,41.7412399 216.818791,44.2195031 219.025869,46.6021636 C221.590249,49.3701998 225.108633,47.384773 225.225817,46.281264" id="Fill-158" fill="#000002"></path>
            <path d="M234.472697,63.9682748 C235.35403,55.6909736 226.152508,52.9785623 225.513433,55.8592024 C224.724115,59.4275796 226.065525,61.9065457 228.272452,64.2899104 C230.837377,67.0571629 234.355521,65.0717667 234.472697,63.9682748" id="Fill-180" fill="#000002"></path>
            <path d="M290.50909,78.2890541 C297.869362,85.0846653 299.42029,69.6627205 299.247064,68.7556808 C299.006021,60.0915224 278.280793,66.9960691 290.508353,78.2890541 L290.50909,78.2890541 Z" id="Fill-294" fill="#000002"></path>
            <path d="M276.395431,78.1641146 L276.39464,78.1641146 C275.969766,79.7120783 282.448092,81.8581189 282.447301,86.6038104 C282.447301,90.8899033 282.125283,92.3652595 277.082981,89.4392488 C276.662064,89.750638 271.51928,82.2091803 271.51928,78.8026122 C271.51928,74.4963089 275.054351,75.9185193 275.514828,76.4956373 C276.045721,77.1633276 276.510946,77.7539192 276.395431,78.1641146" id="Fill-296" fill="#000002"></path>
            <path d="M277.316731,67.4987648 C275.3642,69.4251691 276.675477,69.0309145 272.69622,69.0309145 C266.70235,69.0309145 267.538933,65.4863012 267.31862,60.5434083 C267.149032,56.7111952 275.922931,53.8028323 278.562141,56.8766938 C280.714544,59.3856533 280.332214,64.524938 277.315974,67.4995003 L277.316731,67.4987648 Z" id="Fill-298" fill="#000002"></path>
            <path d="M262.7563,72.4869448 C265.342905,73.113351 268.384196,80.855615 261.017205,80.855615 C255.763574,80.855615 254.875854,74.0266162 258.898431,72.3983991 C263.309192,70.6143122 262.055713,72.3186347 262.7563,72.4869448" id="Fill-300" fill="#000002"></path>
            <path d="M251.28575,69.8640935 C251.167854,70.9682802 247.64966,72.953593 245.0847,70.1834925 C242.879179,67.8024511 241.536313,65.3221069 242.325642,61.7538796 C242.965444,58.8748426 252.166377,61.5878811 251.285031,69.8648346 L251.28575,69.8640935 Z" id="Fill-302" fill="#000002"></path>
            <path d="M270.038956,87.0950916 C269.998024,86.8348541 269.232015,86.621384 268.861123,86.8454145 C258.165396,93.2955326 265.224041,97.0218317 267.619804,95.7779719 C274.198126,92.3654665 270.586105,90.4593212 270.038956,87.0950916" id="Fill-304" fill="#000002"></path>
            <path d="M257.142133,103.717456 C255.188804,105.641701 256.504651,105.247437 252.521525,105.247437 C246.528287,105.247437 247.364888,101.702736 247.143813,96.7597214 C246.974222,92.9274136 255.747547,90.0204501 258.38757,93.0921808 C260.53926,95.6019378 260.157679,100.743556 257.142133,103.717456 Z" id="Fill-306" fill="#000002"></path>
            <path d="M270.142153,118.755917 L270.141417,118.756684 C267.453015,118.756684 262.272494,117.661711 262.272494,113.989017 C262.272494,97.6995515 292.181609,118.755917 270.142153,118.755917" id="Fill-308" fill="#000002"></path>
            <path d="M279.075567,98.9535869 C279.011044,98.5571008 278.406226,98.2145198 277.712068,97.8293821 C277.115759,97.4967309 273.673332,97.5470896 275.326831,101.27718 C276.632897,104.228484 283.737557,108.894111 283.961616,108.472801 C289.214951,109.179241 288.915024,107.781964 287.269324,104.069606 C285.450616,99.9586332 279.320189,100.450163 279.075567,98.9535869" id="Fill-310" fill="#000002"></path>
            <path d="M296.678995,96.8144336 L296.678276,96.8144336 C297.560326,88.5384315 288.355954,85.8257048 287.719038,88.7073749 C286.929722,92.2751921 288.271846,94.7522872 290.475892,97.1352779 C293.040809,99.9058009 296.558944,97.9199753 296.678995,96.8144336" id="Fill-312" fill="#000002"></path>
            <path d="M307.606743,117.028566 C307.488847,118.131171 303.970646,120.120751 301.403524,117.350159 C299.19728,114.967109 297.858006,112.489212 298.647336,108.921306 C299.284264,106.039565 308.485215,108.752359 307.606743,117.028566" id="Fill-316" fill="#000002"></path>
            <path d="M263.474862,36.5561106 C262.094386,38.6588704 253.705915,38.9745372 255.916461,32.4358282 C257.49181,27.7745059 264.352535,29.0870152 264.717736,33.1596225 C265.116408,37.6244657 263.847501,35.9861767 263.474862,36.5561106 Z" id="Fill-344" fill="#000002"></path>
            <g id="Group-350" transform="translate(316.071979, 148.235294)">
                <mask id="mask-4" fill="white">
                    <use xlink:href="#path-3"></use>
                </mask>
                <g id="Clip-349"></g>
                <path d="M9.05636287,7.2298914 C7.60605843,9.30376018 -1.19568156,9.6159095 1.12261994,3.1655362 C2.77743448,-1.43403394 9.98056118,-0.136975113 10.3630419,3.88176923 C10.781429,8.28392986 9.45055219,6.66830769 9.05636287,7.2298914" id="Fill-348" fill="#000002" mask="url(#mask-4)"></path>
            </g>
            <path d="M321.475835,131.730147 C320.093276,133.832241 311.70719,134.148639 313.91973,127.610476 C315.49491,122.948306 322.354902,124.260128 322.720064,128.33429 C323.119437,132.797809 321.850666,131.160198 321.474348,131.730147 L321.475835,131.730147 Z" id="Fill-351" fill="#000002"></path>
        </g>
        <g id="seeds" transform="translate(524.981277, 489.981277) rotate(-225.000000) translate(-524.981277, -489.981277) translate(361.481277, 332.481277)">
            <g id="Group-3">
                <mask id="mask-6" fill="white">
                    <use xlink:href="#path-5"></use>
                </mask>
                <g id="Clip-2"></g>
            </g>
            <path d="M46.4020079,112.696399 C46.288842,112.283924 46.7502104,111.696277 47.2812193,111.027781 C47.7433791,110.450615 51.277635,109.028284 51.277635,113.334951 C51.277635,116.73956 46.134525,124.2839 45.7143078,123.972484 C40.6732845,126.896496 40.3496144,125.422512 40.3496144,121.134561 C40.3496144,116.391464 46.828556,114.244494 46.4020079,112.696399" id="Fill-4" fill="#000002"></path>
            <path d="M44.6415836,104.559412 C41.6225636,101.584993 41.2431984,96.4446859 43.3929345,93.9359629 C46.0325893,90.860754 54.8102367,93.771167 54.6375915,97.6034069 C54.4172416,102.544341 55.2569941,106.089659 49.2590865,106.089659 C45.2791594,106.089659 46.5921719,106.483992 44.6415836,104.560147 L44.6415836,104.559412 Z" id="Fill-6" fill="#000002"></path>
            <path d="M59.2011411,108.705578 C56.613172,109.331831 53.5713224,117.072193 60.9408873,117.072193 C66.191828,117.071461 67.0818048,110.242677 63.0556455,108.614859 C58.6490617,106.831211 59.9016789,108.534383 59.2011411,108.705578" id="Fill-8" fill="#000002"></path>
            <path d="M68.9901212,105.23696 C69.1073036,106.340377 72.6249349,108.328603 75.1928848,105.559315 C77.3977847,103.175371 78.7385536,100.697315 77.9491894,97.1291799 C77.3107964,94.2479944 68.1080174,96.9631857 68.9901212,105.23696" id="Fill-10" fill="#000002"></path>
            <path d="M85.4388554,129.705882 C63.3993401,129.705882 93.3084833,108.65013 93.3084833,124.936224 C93.3084833,128.611748 88.1262606,129.705882 85.4381204,129.705882 L85.4388554,129.705882 Z" id="Fill-12" fill="#000002"></path>
            <path d="M52.7568236,124.154763 C52.2130111,127.519799 48.5976185,129.424465 55.1759957,132.837778 C57.571778,134.07864 64.6329873,130.353037 53.9346664,123.903574 C53.5646065,123.680294 52.7977557,123.894522 52.7568236,124.155518 L52.7568236,124.154763 Z" id="Fill-14" fill="#000002"></path>
            <path d="M65.6544599,138.249448 C67.6079831,140.176245 66.2950337,139.778967 70.2747694,139.778967 C76.2723886,139.778967 75.4319193,136.237309 75.6530158,131.293407 C75.8256527,127.460411 67.0484274,124.550718 64.4081423,127.625943 C62.2592668,130.134679 62.6378565,135.275014 65.6544599,138.250183 L65.6544599,138.249448 Z" id="Fill-16" fill="#000002"></path>
            <path d="M51.8141768,153.28877 C29.7746614,153.28877 59.6838046,132.232892 59.6838046,148.519257 C59.6845397,152.193901 54.5015819,153.28877 51.8134417,153.28877 L51.8141768,153.28877 Z" id="Fill-18" fill="#000002"></path>
            <path d="M40.3592389,136.013836 C40.1139318,137.509696 33.9826736,137.01675 32.1634312,141.127706 C30.5214337,144.84005 30.2179903,146.235903 35.4715314,145.533011 C35.6955691,145.95503 42.8030926,141.286584 44.1076157,138.33742 C45.7609568,134.607344 42.3195683,134.553439 41.7197713,134.889635 C41.026389,135.274772 40.425174,135.615223 40.3592389,136.013836" id="Fill-20" fill="#000002"></path>
            <path d="M23.5974345,133.874513 C23.7146174,134.977911 27.2322635,136.963879 29.7973486,134.196121 C32.0051334,131.81296 33.3451891,129.334946 32.5558215,125.764649 C31.9174259,122.885736 22.715327,125.597917 23.5967155,133.874513 L23.5974345,133.874513 Z" id="Fill-22" fill="#000002"></path>
            <path d="M68.1494286,156.614369 C68.2673573,157.717028 71.7858039,159.705963 74.3514728,156.935978 C76.559041,154.552813 77.8986825,152.074054 77.1076972,148.506716 C76.4720326,145.625575 67.2678395,148.337019 68.1494286,156.614369" id="Fill-24" fill="#000002"></path>
            <path d="M111.095179,135.604102 C95.4371173,151.635248 101.636568,115.931022 113.274265,126.722508 C115.899469,129.155629 113.002353,133.650668 111.094422,135.604102 L111.095179,135.604102 Z" id="Fill-26" fill="#000002"></path>
            <path d="M85.8305603,147.512118 C87.7838519,149.438542 86.4703011,149.044283 90.4495649,149.044283 C96.4449588,149.043548 95.6076175,145.496692 95.8279306,140.556692 C95.9967616,136.725177 87.2236055,133.816049 84.5843905,136.889942 C82.4319843,139.398926 82.8143147,144.537526 85.8305603,147.512118" id="Fill-28" fill="#000002"></path>
            <path d="M87.4843073,164.194128 C87.6007722,165.297486 91.1220408,167.286347 93.6857084,164.515724 C95.8913539,162.131907 97.2321391,159.654723 96.4427653,156.086778 C95.8072403,153.205746 86.6021928,155.917829 87.4835883,164.194128 L87.4843073,164.194128 Z" id="Fill-30" fill="#000002"></path>
            <path d="M99.5491622,112.07195 C96.9631115,112.698343 93.9215634,120.441176 101.289178,120.441176 C106.540934,120.441176 107.431049,113.611589 103.407358,111.984138 C98.9977704,110.200088 100.250582,111.903643 99.5491622,112.07195" id="Fill-32" fill="#000002"></path>
            <path d="M29.7671397,185.255338 C22.4063861,192.048373 20.8547752,176.627676 21.0279954,175.721333 C21.272715,167.056601 41.9935388,173.960848 29.7664026,185.255338 L29.7671397,185.255338 Z" id="Fill-34" fill="#000002"></path>
            <path d="M44.7203357,181.760405 C45.1476442,183.307642 38.6699631,185.454462 38.6683805,190.199473 C38.6683805,194.485627 38.9928184,195.961752 44.0334767,193.0357 C44.4528722,193.347094 49.5971923,185.802534 49.596401,182.398912 C49.596401,178.092547 46.0616097,179.514778 45.6002748,180.091904 C45.0693043,180.759604 44.6055954,181.350204 44.7203357,181.760405" id="Fill-36" fill="#000002"></path>
            <path d="M42.1175765,174.466228 C44.0716493,176.392204 42.7580823,175.99568 46.7373952,175.99568 C52.732106,175.99568 51.8947543,172.450501 52.1158273,167.509762 C52.2854175,163.676938 43.5106389,160.767376 40.8721485,163.842463 C38.7197157,166.351087 39.1028079,171.491192 42.1175765,174.466228" id="Fill-38" fill="#000002"></path>
            <path d="M57.5180253,176.926843 C54.9323011,177.552468 51.8903635,185.294118 59.2593683,185.294118 C64.5104608,185.294118 65.4004633,178.463466 61.3749608,176.836109 C56.9659299,175.054359 58.2209031,176.754888 57.5172521,176.926843 L57.5180253,176.926843 Z" id="Fill-40" fill="#000002"></path>
            <path d="M67.3095172,175.143623 C67.4259821,176.246291 70.9443726,178.235983 73.5094763,175.464493 C75.7165582,173.08205 77.0573425,170.603271 76.2679692,167.035904 C75.629569,164.154 66.4274033,166.869911 67.3087982,175.143623 L67.3095172,175.143623 Z" id="Fill-42" fill="#000002"></path>
            <path d="M83.7583404,199.612299 C61.7174558,199.612299 91.6272494,178.556547 91.6272494,194.842641 C91.6272494,198.518165 86.4460021,199.612299 83.7583404,199.612299" id="Fill-44" fill="#000002"></path>
            <path d="M48.5545968,192.375917 L48.5537615,192.375917 C48.5946899,192.115673 49.3614714,191.901443 49.7314978,192.126988 C60.4296866,198.574263 53.3691158,202.302171 50.9727149,201.059032 C44.3957677,197.64568 48.0083276,195.740238 48.5545968,192.375917" id="Fill-46" fill="#000002"></path>
            <path d="M62.2926158,208.155988 C64.2458861,210.080197 62.9331068,209.68594 66.9123272,209.68594 C72.9061416,209.68594 72.0695665,206.141306 72.2906343,201.198384 C72.4602206,197.366883 63.6864029,194.457768 61.0464596,197.531648 C58.895591,200.040622 59.276403,205.179202 62.2926158,208.156724 L62.2926158,208.155988 Z" id="Fill-48" fill="#000002"></path>
            <path d="M48.450959,222.351406 L48.450959,222.352941 C51.1391043,222.352941 56.3220718,221.257363 56.3213368,217.582913 C56.3213368,201.298178 26.412872,222.351406 48.450959,222.351406" id="Fill-50" fill="#000002"></path>
            <path d="M37.8354691,205.078315 C37.9006871,204.679713 38.5053718,204.33927 39.1979591,203.953435 C39.7969726,203.617957 43.2386421,203.671861 41.5862154,207.401127 C40.279019,210.35305 33.1745057,215.018534 32.950496,214.597236 C27.6983169,215.300108 27.9974692,213.903584 29.642807,210.192049 C31.4618232,206.081202 37.5930281,206.574135 37.8347602,205.078315 L37.8354691,205.078315 Z" id="Fill-52" fill="#000002"></path>
            <path d="M21.074866,203.780402 C20.1933968,195.503463 29.3970573,192.791171 30.0326354,195.672426 C30.8249512,199.240647 29.4840538,201.718022 27.2760668,204.102023 C24.7107469,206.871378 21.1927787,204.883104 21.074866,203.780402" id="Fill-54" fill="#000002"></path>
            <path d="M64.7869327,224.835705 C64.9069886,225.939149 68.4245547,227.928164 70.9895814,225.157326 C73.1944404,222.774065 74.5359034,220.295947 73.7458349,216.728466 C73.1096105,213.846469 63.9055642,216.562468 64.7869327,224.835705" id="Fill-56" fill="#000002"></path>
            <path d="M108.573309,205.510302 C92.9173127,221.541787 99.1120008,185.838282 110.752319,196.628521 C113.377431,199.064645 110.481173,203.556827 108.572552,205.510302 L108.573309,205.510302 Z" id="Fill-58" fill="#000002"></path>
            <path d="M82.4684701,216.579219 C84.418799,218.502627 83.105204,218.108383 87.0868732,218.108383 C93.082469,218.108383 92.2420711,214.564605 92.4654201,209.62185 C92.635771,205.789009 83.8608051,202.879991 81.2222583,205.954503 C79.0697796,208.464127 79.4513657,213.601797 82.467713,216.579954 L82.4684701,216.579219 Z" id="Fill-60" fill="#000002"></path>
            <path d="M84.9624711,232.415783 C85.0803692,233.521372 88.5971839,235.507281 91.1650625,232.737382 C93.3699011,230.35355 94.7106328,227.87635 93.9205716,224.308382 C93.2821964,221.427331 84.0803919,224.141654 84.9617522,232.415783 L84.9624711,232.415783 Z" id="Fill-62" fill="#000002"></path>
            <path d="M97.8688253,181.136748 C95.2812886,181.763204 92.2405848,189.505348 99.6080274,189.505348 C104.85966,189.505348 105.750527,182.675809 101.724611,181.048195 C97.3166731,179.263968 98.5702288,180.968425 97.8688253,181.136748" id="Fill-64" fill="#000002"></path>
            <path d="M13.5092272,151.562182 C12.6284265,143.284763 21.8318944,140.573297 22.4667899,143.451497 C23.25987,147.021829 21.9181769,149.500609 19.7107827,151.883794 C17.146035,154.650838 13.6264276,152.66485 13.5092272,151.562182" id="Fill-66" fill="#000002"></path>
            <path d="M29.0340497,167.460664 C29.9700732,168.09831 33.958645,166.668257 33.6022098,162.839406 C33.2968026,159.544034 32.3105126,156.863243 28.9982539,155.121436 C26.3265124,153.713704 22.0127314,162.68018 29.0332881,167.461408 L29.0340497,167.460664 Z" id="Fill-68" fill="#000002"></path>
            <path d="M258.850599,260.209834 C258.733418,261.315465 255.21511,263.301452 252.64719,260.531445 C250.443754,258.148261 249.101563,255.670224 249.891637,252.102858 C250.527866,249.220955 259.731973,251.936124 258.850599,260.210575 L258.850599,260.209834 Z" id="Fill-124" fill="#000002"></path>
            <path d="M215.908187,241.727341 C231.560981,257.757819 225.364389,222.054343 213.724006,232.84538 C211.101322,235.281351 213.998922,239.77325 215.908187,241.727341" id="Fill-126" fill="#000002"></path>
            <path d="M242.010443,254.48022 C240.057981,256.403139 241.371483,256.009581 237.390096,256.009581 C231.396438,256.009581 232.236019,252.464612 232.012686,247.521222 C231.843862,243.688625 240.616692,240.782912 243.256567,243.85414 C245.408893,246.363351 245.02582,251.504623 242.009686,254.48022 L242.010443,254.48022 Z" id="Fill-128" fill="#000002"></path>
            <path d="M239.516396,269.474978 C239.399223,270.578363 235.881159,272.566532 233.316293,269.797324 C231.110134,267.413449 229.767318,264.934722 230.557337,261.367431 C231.197115,258.485588 240.397709,261.201442 239.516396,269.474978" id="Fill-130" fill="#000002"></path>
            <path d="M171.070795,303.4064 C162.044596,308.423577 176.542464,314.693359 177.480885,314.810439 C185.993317,317.256359 186.069258,295.072708 171.070795,303.4064" id="Fill-184" fill="#000002"></path>
            <path d="M176.867153,290.678861 C175.583334,289.761508 171.809122,295.228298 167.501356,293.658869 C163.609848,292.238759 162.362505,291.439748 166.43854,287.601956 C166.276185,287.099199 174.572014,284.691842 177.662477,285.818081 C181.574727,287.242957 179.283879,290.141157 178.630884,290.39055 C177.873467,290.678861 177.209743,290.924283 176.867153,290.678861" id="Fill-186" fill="#000002"></path>
            <path d="M185.881795,294.112861 C184.641468,291.67831 184.617105,293.032743 185.830115,289.308611 C187.652952,283.703032 190.777394,285.604606 195.557819,286.961275 C199.262557,288.014557 199.367394,297.140768 195.633863,298.637577 C192.58768,299.858579 187.799871,297.877991 185.881795,294.112861" id="Fill-188" fill="#000002"></path>
            <path d="M186.136053,278.280374 C184.754546,280.383353 176.370329,280.699775 178.579402,274.159663 C180.156462,269.498579 187.015667,270.81267 187.380748,274.884256 C187.780032,279.348841 186.511543,277.710381 186.136053,278.281097 L186.136053,278.280374 Z" id="Fill-190" fill="#000002"></path>
            <path d="M192.550093,269.509042 C191.492025,269.043382 190.700605,264.915634 194.314316,263.242569 C197.42496,261.804214 200.339493,261.255804 203.619117,263.17035 C206.269327,264.715529 200.477468,273.004123 192.549318,269.509042 L192.550093,269.509042 Z" id="Fill-192" fill="#000002"></path>
            <path d="M175.132969,245.452247 C168.036361,266.512746 197.434102,244.257451 182.144606,239.365145 C178.693412,238.26129 175.997095,242.885949 175.13221,245.452986 L175.132969,245.452247 Z" id="Fill-194" fill="#000002"></path>
            <path d="M169.203068,281.305977 C165.762092,280.692198 162.85717,283.338375 161.431821,276.257224 C160.912034,273.680306 166.590188,268.514529 169.786377,280.32202 C169.8987,280.732002 169.466448,281.355334 169.203068,281.307569 L169.203068,281.305977 Z" id="Fill-196" fill="#000002"></path>
            <path d="M158.143833,263.793214 C156.899205,261.358651 156.878535,262.712346 158.087728,258.988195 C159.914068,253.380351 163.038185,255.284916 167.815162,256.641592 C171.523207,257.692643 171.626556,266.821137 167.894151,268.317208 C164.849022,269.536726 160.060972,267.558364 158.143094,263.79396 L158.143833,263.793214 Z" id="Fill-198" fill="#000002"></path>
            <path d="M140.667485,272.404243 C133.571568,293.464797 162.968827,271.208704 147.679188,266.317125 C144.22872,265.213267 141.533136,269.834241 140.666726,272.404243 L140.667485,272.404243 Z" id="Fill-200" fill="#000002"></path>
            <path d="M154.992393,288.278289 C153.335382,288.034976 151.732557,294.178258 146.779585,294.638658 C142.305654,295.053163 140.734242,294.900911 143.291223,289.997504 C142.922125,289.642734 150.289151,284.20098 153.84505,283.872435 C158.338613,283.455743 157.204621,286.831525 156.643907,287.30868 C155.999165,287.861597 155.432954,288.340938 154.992393,288.279017 L154.992393,288.278289 Z" id="Fill-202" fill="#000002"></path>
            <path d="M149.677225,305.72439 C148.620125,305.260263 147.829626,301.132776 151.445774,299.459064 C154.555073,298.0208 157.468296,297.472424 160.74887,299.38685 C163.396269,300.931931 157.603921,309.221508 149.677225,305.725142 L149.677225,305.72439 Z" id="Fill-204" fill="#000002"></path>
            <path d="M142.95351,256.032965 C141.894877,255.565148 141.105164,251.441297 144.718158,249.768591 C147.828185,248.327537 150.74059,247.779244 154.024214,249.696388 C156.670798,251.241234 150.879312,259.528048 142.952735,256.032965 L142.95351,256.032965 Z" id="Fill-206" fill="#000002"></path>
            <path d="M175.897091,221.122301 C178.314704,219.932772 183.426773,218.613435 184.931098,221.897354 C191.594366,236.441945 156.059625,230.884484 175.897091,221.122301" id="Fill-208" fill="#000002"></path>
            <path d="M156.460646,242.735695 C155.219735,240.300876 155.196113,241.655458 156.406758,237.930171 C158.230845,232.323975 161.354899,234.229485 166.133993,235.585558 C169.841962,236.634484 169.946048,245.763935 166.210766,247.260163 C163.165699,248.482045 158.379961,246.501239 156.459908,242.73644 L156.460646,242.735695 Z" id="Fill-210" fill="#000002"></path>
            <path d="M141.270863,234.97644 C140.215951,234.511518 139.421473,230.383642 143.038091,228.710524 C146.148569,227.272124 149.062946,226.723697 152.342395,228.638303 C154.990138,230.185787 149.200139,238.472384 141.270088,234.97644 L141.270863,234.97644 Z" id="Fill-212" fill="#000002"></path>
            <path d="M195.383848,237.85138 C194.001641,239.956162 185.617687,240.271807 187.825947,233.732824 C189.404445,229.070377 196.263435,230.384241 196.62776,234.458736 C197.026288,238.919661 195.758583,237.282207 195.383105,237.852102 L195.383848,237.85138 Z" id="Fill-214" fill="#000002"></path>
            <path d="M104.661971,284.877355 C95.6359973,289.893947 110.133503,296.166939 111.072675,296.28102 C119.584119,298.727022 119.660834,276.542638 104.661971,284.877355" id="Fill-216" fill="#000002"></path>
            <path d="M119.474022,274.743936 C118.232287,272.309047 118.208663,273.659941 119.420868,269.938273 C121.244345,264.328932 124.368616,266.234497 129.148043,267.59061 C132.855532,268.639566 132.957411,277.770028 129.224821,279.265554 C126.179542,280.487471 121.394209,278.505862 119.473284,274.743936 L119.474022,274.743936 Z" id="Fill-218" fill="#000002"></path>
            <path d="M118.889457,258.90799 C117.507734,261.013031 109.118488,261.326548 111.330881,254.788206 C112.9067,250.12663 119.766977,251.440655 120.131371,255.514929 C120.530718,259.976403 119.262031,258.338025 118.889457,258.908712 L118.889457,258.90799 Z" id="Fill-220" fill="#000002"></path>
            <path d="M124.458783,250.978182 C123.401685,250.513329 122.611186,246.386066 126.226555,244.712445 C129.336626,243.275011 132.249846,242.726665 135.530416,244.640234 C138.177812,246.18824 132.384696,254.476615 124.458783,250.978182" id="Fill-222" fill="#000002"></path>
            <path d="M128.136248,218.481274 C126.75375,220.584113 118.365801,220.899791 120.577501,214.359393 C122.153355,209.700786 129.013045,211.011177 129.378191,215.086104 C129.777546,219.54678 128.508087,217.912042 128.136248,218.481274" id="Fill-224" fill="#000002"></path>
            <path d="M129.503394,309.094563 C128.445508,308.62677 127.654225,304.500114 131.270411,302.826739 C134.380518,301.389516 137.293772,300.841251 140.57438,302.757547 C143.221031,304.302317 137.428623,312.589473 129.502619,309.094563 L129.503394,309.094563 Z" id="Fill-226" fill="#000002"></path>
            <path d="M120.237023,289.550831 C119.893946,288.486501 122.655316,285.24237 126.439535,286.761783 C129.694776,288.067736 132.105091,289.811725 132.796032,293.414586 C133.355327,296.325928 122.813291,297.526634 120.236225,289.551572 L120.237023,289.550831 Z" id="Fill-228" fill="#000002"></path>
            <path d="M123.087498,164.2937 C120.49918,164.919961 117.459239,172.660428 124.82748,172.660428 C130.07913,172.660428 130.968453,165.830819 126.942524,164.202248 C122.535344,162.418575 123.788131,164.125429 123.087498,164.2937" id="Fill-248" fill="#000002"></path>
            <path d="M134.55823,160.824517 C134.675417,161.930126 138.196075,163.916812 140.76054,161.146122 C142.966253,158.762247 144.307079,156.285002 143.516962,152.717711 C142.882137,149.835868 133.676089,152.551722 134.55823,160.824517" id="Fill-250" fill="#000002"></path>
            <path d="M150.165612,185.292582 C128.127525,185.292582 158.03599,164.238801 158.03599,180.524732 C158.03599,184.19851 152.853757,185.294118 150.165612,185.294118 L150.165612,185.292582 Z" id="Fill-252" fill="#000002"></path>
            <path d="M128.703382,194.677891 C130.653807,196.604318 129.340905,196.210059 133.32277,196.210059 C139.318661,196.209323 138.477464,192.666141 138.69931,187.723192 C138.871184,183.890935 130.094271,180.981804 127.454838,184.0557 C125.304524,186.565424 125.684615,191.704031 128.703382,194.677891" id="Fill-254" fill="#000002"></path>
            <path d="M132.037045,212.200999 C132.153542,213.307234 135.672917,215.293716 138.238019,212.523311 C140.446438,210.139681 141.784721,207.661951 140.995127,204.095028 C140.358705,201.213481 131.154684,203.926092 132.036326,212.20174 L132.037045,212.200999 Z" id="Fill-256" fill="#000002"></path>
            <path d="M174.981907,191.192264 C159.325242,207.223396 165.521851,171.520108 177.161326,182.31035 C179.786173,184.744095 176.889372,189.23966 174.98115,191.192264 L174.981907,191.192264 Z" id="Fill-258" fill="#000002"></path>
            <path d="M149.716179,203.103186 C151.669719,205.026713 150.356001,204.632445 154.33577,204.632445 C160.331926,204.632445 159.494479,201.089183 159.71482,196.144652 C159.883672,192.313781 151.109401,189.403848 148.469851,192.478549 C146.320957,194.987594 146.69955,200.126317 149.716179,203.103186" id="Fill-260" fill="#000002"></path>
            <path d="M153.052253,219.781827 C153.171596,220.886028 156.690057,222.874331 159.253774,220.104195 C161.459462,217.720158 162.800273,215.242746 162.010884,211.675213 C161.375347,208.793174 152.171559,211.50773 153.051534,219.783309 L153.052253,219.781827 Z" id="Fill-262" fill="#000002"></path>
            <path d="M165.957697,167.660812 C163.371898,168.286536 160.329873,176.029412 167.699091,176.029412 C172.951108,176.029412 173.838817,169.199874 169.815518,167.57226 C165.405586,165.788032 166.657502,167.492489 165.957697,167.660812" id="Fill-264" fill="#000002"></path>
            <path d="M195.385411,205.005927 C194.003596,207.107985 185.614536,207.423655 187.827077,200.883437 C189.402257,196.224236 196.265965,197.536036 196.627409,201.610128 C197.026782,206.071403 195.760242,204.435988 195.384668,205.005927 L195.385411,205.005927 Z" id="Fill-266" fill="#000002"></path>
            <path d="M80.6130961,83.502842 C78.6596809,85.4302509 79.9725577,85.0329987 75.9907707,85.0329987 C69.9965117,85.0329987 70.8346631,81.4908331 70.6143361,76.5465143 C70.4417087,72.7137661 79.2192057,69.8049971 81.8585876,72.8800235 C84.0088586,75.3885977 83.6287755,80.5286 80.6130961,83.5035777 L80.6130961,83.502842 Z" id="Fill-290" fill="#000002"></path>
            <path d="M39.7940743,236.187158 C40.6596629,233.620069 43.3550496,228.996055 46.805266,230.100672 C62.0945494,234.991598 32.6979168,257.248825 39.7933157,236.187158 L39.7940743,236.187158 Z" id="Fill-318" fill="#000002"></path>
            <path d="M102.032152,256.27003 C100.374469,256.029631 98.7748954,262.172916 93.8214778,262.633316 C89.3494243,263.047822 87.7749788,262.89557 90.3309988,257.991432 C89.9658531,257.63739 97.3300177,252.195633 100.884888,251.867087 C105.380499,251.450396 104.245014,254.826179 103.685909,255.301878 C103.042781,255.856252 102.472683,256.335593 102.032152,256.270758 L102.032152,256.27003 Z" id="Fill-320" fill="#000002"></path>
            <path d="M97.5581321,273.719634 C96.5040022,273.254701 95.7095293,269.127477 99.3261249,267.453566 C102.436583,266.015132 105.350167,265.467443 108.630371,267.381344 C111.278098,268.926608 105.487359,277.216415 97.5581321,273.719634" id="Fill-322" fill="#000002"></path>
            <path d="M51.7031241,252.871641 C42.6766226,257.888817 57.1760557,264.160851 58.1152024,264.275679 C66.6233135,266.7216 66.7039004,244.537949 51.7023492,252.871641 L51.7031241,252.871641 Z" id="Fill-324" fill="#000002"></path>
            <path d="M65.6737888,243.577759 C64.4329194,241.143002 64.4092978,242.499786 65.6213785,238.774593 C67.4446667,233.166302 70.5686164,235.071019 75.3475508,236.427803 C79.0553957,237.478938 79.1594781,246.605923 75.4235827,248.102858 C72.3786175,249.323964 67.5937777,247.342463 65.6737888,243.577759" id="Fill-326" fill="#000002"></path>
            <path d="M78.22599,277.930826 C77.1678502,277.463761 76.3771524,273.339895 79.9903315,271.666431 C83.1019601,270.226124 86.0159143,269.67783 89.29576,271.594228 C91.9445978,273.139079 86.1531236,281.427425 78.2252148,277.930826 L78.22599,277.930826 Z" id="Fill-328" fill="#000002"></path>
            <path d="M68.9594153,258.388202 C68.6163607,257.323849 71.3743598,254.079646 75.1591292,255.598351 C78.4141585,256.905075 80.8267096,258.649103 81.5184033,262.252043 C82.0776621,265.162709 71.5339201,266.363442 68.9586175,258.388202 L68.9594153,258.388202 Z" id="Fill-330" fill="#000002"></path>
            <path d="M114.683637,237.01097 C113.302864,239.113316 104.917849,239.429029 107.126936,232.890083 C108.704006,228.228077 115.564,229.542223 115.92834,233.616873 C116.327626,238.078037 115.058386,236.440953 114.683637,237.01097" id="Fill-332" fill="#000002"></path>
            <path d="M219.760761,306.07612 C218.379249,308.176072 209.995001,308.494641 212.204082,301.954233 C213.778917,297.292007 220.640379,298.606735 221.005461,302.680945 C221.404746,307.14235 220.135509,305.504719 219.760761,306.07612" id="Fill-334" fill="#000002"></path>
            <path d="M257.591856,283.334742 C256.209239,285.436655 247.822797,285.753026 250.031712,279.211813 C251.608447,274.553654 258.471704,275.864642 258.833163,279.938454 C259.232552,284.400145 257.963727,282.764841 257.591112,283.334742 L257.591856,283.334742 Z" id="Fill-336" fill="#000002"></path>
            <path d="M236.994539,299.795313 C236.876618,300.900997 233.357697,302.887078 230.792925,300.116939 C228.58551,297.735865 227.245243,295.254746 228.036173,291.68721 C228.671793,288.808133 237.876067,291.520468 236.994539,299.795313" id="Fill-353" fill="#000002"></path>
        </g>
    </g>
</svg>