<?xml version="1.0" encoding="UTF-8"?>
<svg width="1400px" height="437px" viewBox="0 0 1400 437" version="1.1" xmlns="http://www.w3.org/2000/svg" xmlns:xlink="http://www.w3.org/1999/xlink">
    <!-- Generator: Sketch 50.2 (55047) - http://www.bohemiancoding.com/sketch -->
    <title>Hero</title>
    <desc>Created with Sketch.</desc>
    <defs>
        <rect id="path-1" x="0" y="0" width="1400" height="437"></rect>
        <polygon id="path-3" points="5.48913409e-05 0.15 402.387279 0.15 402.387279 396.363266 5.48913409e-05 396.363266"></polygon>
        <polygon id="path-5" points="5.48913409e-05 0.15 402.387279 0.15 402.387279 396.363266 5.48913409e-05 396.363266"></polygon>
    </defs>
    <g id="Page-1" stroke="none" stroke-width="1" fill="none" fill-rule="evenodd">
        <g id="Homepage-Reco-Cards-A" transform="translate(0.000000, -147.000000)">
            <g id="Hero" transform="translate(0.000000, 147.000000)">
                <g id="Header-IMG">
                    <mask id="mask-2" fill="white">
                        <use xlink:href="#path-1"></use>
                    </mask>
                    <use id="Mask" fill="#ECE2D4" xlink:href="#path-1"></use>
                    <g id="Page-1" mask="url(#mask-2)">
                        <g transform="translate(1237.000000, -191.000000)">
                            <g id="Group-3" stroke-width="1" fill="none" transform="translate(0.000000, 0.850000)">
                                <mask id="mask-4" fill="white">
                                    <use xlink:href="#path-3"></use>
                                </mask>
                                <g id="Clip-2"></g>
                                <path d="M134.486,386.6555 C29.413,350.7835 -22.661,244.5665 9.382,138.5705 C29.841,70.8905 123.888,8.2475 188.959,1.5125 C264.935,-6.3525 320.912,19.6835 363.788,83.4105 C398.774,135.4155 417.349,257.1035 387.387,312.7765 C347.044,387.7475 208.806,412.0305 134.486,386.6555" id="Fill-1" fill="#05AA9C" mask="url(#mask-4)"></path>
                            </g>
                            <path d="M69.4054,205.8083 C39.4224,205.8083 80.1114,178.3843 80.1114,199.5963 C80.1124,204.3823 73.0614,205.8083 69.4044,205.8083 L69.4054,205.8083 Z" id="Fill-18" fill="#000002"></path>
                            <path d="M55.1266,181.402 C54.7806,183.511 46.1326,182.816 43.5666,188.612 C41.2506,193.846 40.8226,195.814 48.2326,194.823 C48.5486,195.418 58.5736,188.836 60.4136,184.678 C62.7456,179.419 57.8916,179.343 57.0456,179.817 C56.0676,180.36 55.2196,180.84 55.1266,181.402" id="Fill-20" fill="#000002"></path>
                            <path d="M91.0778,208.8815 C91.2418,210.3695 96.1348,213.0535 99.7028,209.3155 C102.7728,206.0995 104.6358,202.7545 103.5358,197.9405 C102.6518,194.0525 89.8518,197.7115 91.0778,208.8815" id="Fill-24" fill="#000002"></path>
                            <path d="M114.5211,198.5192 C117.1011,201.1382 115.3661,200.6022 120.6221,200.6022 C128.5411,200.6012 127.4351,195.7792 127.7261,189.0632 C127.9491,183.8542 116.3611,179.8992 112.8751,184.0782 C110.0321,187.4892 110.5371,194.4752 114.5211,198.5192" id="Fill-28" fill="#000002"></path>
                            <path d="M118.8253,220.736 C118.9873,222.225 123.8853,224.909 127.4513,221.17 C130.5193,217.953 132.3843,214.61 131.2863,209.795 C130.4023,205.907 117.5983,209.567 118.8243,220.736 L118.8253,220.736 Z" id="Fill-30" fill="#000002"></path>
                            <path d="M38.7204,247.9108 C28.7344,256.8898 26.6294,236.5068 26.8644,235.3088 C27.1964,223.8558 55.3074,232.9818 38.7194,247.9108 L38.7204,247.9108 Z" id="Fill-34" fill="#000002"></path>
                            <path d="M57.9655,244.3893 C58.5055,246.4563 50.3195,249.3243 50.3175,255.6633 C50.3175,261.3893 50.7275,263.3613 57.0975,259.4523 C57.6275,259.8683 64.1285,249.7893 64.1275,245.2423 C64.1275,239.4893 59.6605,241.3893 59.0775,242.1603 C58.4065,243.0523 57.8205,243.8413 57.9655,244.3893" id="Fill-36" fill="#000002"></path>
                            <path d="M56.5509,232.9606 C59.1319,235.5786 57.3969,235.0396 62.6529,235.0396 C70.5709,235.0396 69.4649,230.2206 69.7569,223.5046 C69.9809,218.2946 58.3909,214.3396 54.9059,218.5196 C52.0629,221.9296 52.5689,228.9166 56.5509,232.9606" id="Fill-38" fill="#000002"></path>
                            <path d="M75.9655,238.8493 C72.6215,239.7043 68.6875,250.2843 78.2175,250.2843 C85.0085,250.2843 86.1595,240.9493 80.9535,238.7253 C75.2515,236.2903 76.8745,238.6143 75.9645,238.8493 L75.9655,238.8493 Z" id="Fill-40" fill="#000002"></path>
                            <path d="M90.0202,235.402 C90.1822,236.89 95.0762,239.575 98.6442,235.835 C101.7142,232.62 103.5792,229.275 102.4812,224.461 C101.5932,220.572 88.7932,224.237 90.0192,235.402 L90.0202,235.402 Z" id="Fill-42" fill="#000002"></path>
                            <path d="M112.2394,266.8229 C82.2574,266.8229 122.9434,239.3999 122.9434,260.6109 C122.9434,265.3979 115.8954,266.8229 112.2394,266.8229" id="Fill-44" fill="#000002"></path>
                            <path d="M66.1183,259.1715 L66.1173,259.1715 C66.1663,258.8265 67.0843,258.5425 67.5273,258.8415 C80.3353,267.3885 71.8823,272.3305 69.0133,270.6825 C61.1393,266.1575 65.4643,263.6315 66.1183,259.1715" id="Fill-46" fill="#000002"></path>
                            <path d="M83.1427,280.0944 C85.7227,282.7104 83.9887,282.1744 89.2447,282.1744 C97.1617,282.1744 96.0567,277.3554 96.3487,270.6354 C96.5727,265.4264 84.9837,261.4714 81.4967,265.6504 C78.6557,269.0614 79.1587,276.0474 83.1427,280.0954 L83.1427,280.0944 Z" id="Fill-48" fill="#000002"></path>
                            <path d="M65.776,299.234 L65.776,299.236 C69.433,299.236 76.484,297.809 76.483,293.023 C76.483,271.812 35.795,299.234 65.776,299.234" id="Fill-50" fill="#000002"></path>
                            <path d="M51.4953,274.8298 C51.5873,274.2678 52.4403,273.7878 53.4173,273.2438 C54.2623,272.7708 59.1173,272.8468 56.7863,278.1048 C54.9423,282.2668 44.9203,288.8448 44.6043,288.2508 C37.1953,289.2418 37.6173,287.2728 39.9383,282.0398 C42.5043,276.2438 51.1533,276.9388 51.4943,274.8298 L51.4953,274.8298 Z" id="Fill-52" fill="#000002"></path>
                            <path d="M28.0299,273.0592 C26.8039,261.8902 39.6049,258.2302 40.4889,262.1182 C41.5909,266.9332 39.7259,270.2762 36.6549,273.4932 C33.0869,277.2302 28.1939,274.5472 28.0299,273.0592" id="Fill-54" fill="#000002"></path>
                            <path d="M87.4464,302.3083 C87.6134,303.7973 92.5064,306.4813 96.0744,302.7423 C99.1414,299.5263 101.0074,296.1823 99.9084,291.3683 C99.0234,287.4793 86.2204,291.1443 87.4464,302.3083" id="Fill-56" fill="#000002"></path>
                            <path d="M145.1076,276.3464 C124.4366,298.0694 132.6156,249.6904 147.9846,264.3114 C151.4506,267.6124 147.6266,273.6994 145.1066,276.3464 L145.1076,276.3464 Z" id="Fill-58" fill="#000002"></path>
                            <path d="M110.8937,291.9499 C113.4697,294.5649 111.7347,294.0289 116.9937,294.0289 C124.9127,294.0289 123.8027,289.2109 124.0977,282.4909 C124.3227,277.2799 112.7327,273.3249 109.2477,277.5049 C106.4047,280.9169 106.9087,287.9019 110.8927,291.9509 L110.8937,291.9499 Z" id="Fill-60" fill="#000002"></path>
                            <path d="M115.1969,314.1637 C115.3609,315.6557 120.2529,318.3357 123.8249,314.5977 C126.8919,311.3807 128.7569,308.0377 127.6579,303.2227 C126.7699,299.3347 113.9699,302.9977 115.1959,314.1637 L115.1969,314.1637 Z" id="Fill-62" fill="#000002"></path>
                            <path d="M132.3991,244.4919 C129.0531,245.3479 125.1211,255.9269 134.6481,255.9269 C141.4391,255.9269 142.5911,246.5949 137.3851,244.3709 C131.6851,241.9329 133.3061,244.2619 132.3991,244.4919" id="Fill-64" fill="#000002"></path>
                            <path d="M18.2043,204.1413 C16.9793,192.9713 29.7793,189.3123 30.6623,193.1963 C31.7653,198.0143 29.8993,201.3593 26.8293,204.5753 C23.2623,208.3093 18.3673,205.6293 18.2043,204.1413" id="Fill-66" fill="#000002"></path>
                            <path d="M39.63,223.8239 C40.859,224.6809 46.096,222.7589 45.628,217.6129 C45.227,213.1839 43.932,209.5809 39.583,207.2399 C36.075,205.3479 30.411,217.3989 39.629,223.8249 L39.63,223.8239 Z" id="Fill-68" fill="#000002"></path>
                            <path d="M140.1071,381.7038 C128.4591,388.3878 147.1681,396.7458 148.3801,396.8978 C159.3641,400.1568 159.4631,370.5988 140.1071,381.7038" id="Fill-216" fill="#000002"></path>
                            <path d="M159.8727,369.4255 C158.1907,366.1595 158.1587,367.9715 159.8007,362.9795 C162.2707,355.4555 166.5027,358.0115 172.9767,359.8305 C177.9987,361.2375 178.1367,373.4845 173.0807,375.4905 C168.9557,377.1295 162.4737,374.4715 159.8717,369.4255 L159.8727,369.4255 Z" id="Fill-218" fill="#000002"></path>
                            <path d="M160.3376,349.1413 C158.4796,352.0553 147.1986,352.4893 150.1736,343.4383 C152.2926,336.9853 161.5176,338.8043 162.0076,344.4443 C162.5446,350.6203 160.8386,348.3523 160.3376,349.1423 L160.3376,349.1413 Z" id="Fill-220" fill="#000002"></path>
                            <path d="M172.5797,293.7653 C170.7207,296.6763 159.4417,297.1133 162.4157,288.0593 C164.5347,281.6103 173.7587,283.4243 174.2497,289.0653 C174.7867,295.2403 173.0797,292.9773 172.5797,293.7653" id="Fill-224" fill="#000002"></path>
                            <path d="M166.446,220.2174 C163.099,221.0734 159.168,231.6534 168.696,231.6534 C175.487,231.6534 176.637,222.3184 171.431,220.0924 C165.732,217.6544 167.352,219.9874 166.446,220.2174" id="Fill-248" fill="#000002"></path>
                            <path d="M52.1774,316.6862 C53.3184,313.2142 56.8714,306.9602 61.4194,308.4542 C81.5734,315.0692 42.8234,345.1722 52.1764,316.6862 L52.1774,316.6862 Z" id="Fill-318" fill="#000002"></path>
                            <path d="M137.5915,344.8376 C135.4805,344.5076 133.4435,352.9406 127.1355,353.5726 C121.4405,354.1416 119.4355,353.9326 122.6905,347.2006 C122.2255,346.7146 131.6035,339.2446 136.1305,338.7936 C141.8555,338.2216 140.4095,342.8556 139.6975,343.5086 C138.8785,344.2696 138.1525,344.9276 137.5915,344.8386 L137.5915,344.8376 Z" id="Fill-320" fill="#000002"></path>
                            <path d="M131.9513,367.6872 C130.5913,367.0692 129.5663,361.5832 134.2323,359.3582 C138.2453,357.4462 142.0043,356.7182 146.2363,359.2622 C149.6523,361.3162 142.1813,372.3352 131.9513,367.6872" id="Fill-322" fill="#000002"></path>
                            <path d="M69.2848,339.6784 C57.6358,346.3634 76.3478,354.7204 77.5598,354.8734 C88.5398,358.1324 88.6438,328.5744 69.2838,339.6784 L69.2848,339.6784 Z" id="Fill-324" fill="#000002"></path>
                            <path d="M89.049,327.3971 C87.368,324.1311 87.336,325.9511 88.978,320.9541 C91.448,313.4311 95.68,315.9861 102.154,317.8061 C107.177,319.2161 107.318,331.4591 102.257,333.4671 C98.132,335.1051 91.65,332.4471 89.049,327.3971" id="Fill-326" fill="#000002"></path>
                            <path d="M104.4723,372.8258 C103.1073,372.2048 102.0873,366.7218 106.7483,364.4968 C110.7623,362.5818 114.5213,361.8528 118.7523,364.4008 C122.1693,366.4548 114.6983,377.4748 104.4713,372.8258 L104.4723,372.8258 Z" id="Fill-328" fill="#000002"></path>
                            <path d="M92.4538,346.3307 C92.0238,344.8947 95.4808,340.5177 100.2248,342.5667 C104.3048,344.3297 107.3288,346.6827 108.1958,351.5437 C108.8968,355.4707 95.6808,357.0907 92.4528,346.3307 L92.4538,346.3307 Z" id="Fill-330" fill="#000002"></path>
                            <path d="M153.5607,318.4284 C151.7037,321.3384 140.4267,321.7754 143.3977,312.7244 C145.5187,306.2714 154.7447,308.0904 155.2347,313.7304 C155.7717,319.9054 154.0647,317.6394 153.5607,318.4284" id="Fill-332" fill="#000002"></path>
                        </g>
                    </g>
                    <g id="Page-1" mask="url(#mask-2)">
                        <g transform="translate(-235.000000, 289.000000)">
                            <g id="Group-3" stroke-width="1" fill="none" transform="translate(0.000000, 0.850000)">
                                <mask id="mask-6" fill="white">
                                    <use xlink:href="#path-5"></use>
                                </mask>
                                <g id="Clip-2"></g>
                                <path d="M134.486,386.6555 C29.413,350.7835 -22.661,244.5665 9.382,138.5705 C29.841,70.8905 123.888,8.2475 188.959,1.5125 C264.935,-6.3525 320.912,19.6835 363.788,83.4105 C398.774,135.4155 417.349,257.1035 387.387,312.7765 C347.044,387.7475 208.806,412.0305 134.486,386.6555" id="Fill-1" fill="#05AA9C" mask="url(#mask-6)"></path>
                            </g>
                            <path d="M292.5661,35.8859 C302.5481,44.8689 304.6521,24.4819 304.4211,23.2849 C304.0901,11.8309 275.9741,20.9569 292.5661,35.8859" id="Fill-138" fill="#000002"></path>
                            <path d="M273.32,32.3634 L273.32,32.3644 C272.779,34.4324 280.967,37.3004 280.966,43.6404 C280.966,49.3644 280.558,51.3374 274.186,47.4274 C273.658,47.8434 267.159,37.7654 267.158,33.2174 C267.158,27.4644 271.625,29.3644 272.208,30.1354 C272.88,31.0274 273.463,31.8134 273.32,32.3634" id="Fill-140" fill="#000002"></path>
                            <path d="M274.7311,20.9352 C272.1551,23.5542 273.8881,23.0142 268.6291,23.0142 C260.7111,23.0142 261.8211,18.1992 261.5291,11.4792 C261.3021,6.2692 272.8931,2.3142 276.3791,6.4942 C279.2191,9.9052 278.7171,16.8922 274.7311,20.9362 L274.7311,20.9352 Z" id="Fill-142" fill="#000002"></path>
                            <path d="M255.318,26.8239 C258.665,27.6799 262.595,38.2599 253.068,38.2599 C246.277,38.2589 245.126,28.9279 250.332,26.6999 C256.032,24.2659 254.411,26.5899 255.318,26.8239" id="Fill-144" fill="#000002"></path>
                            <path d="M241.2668,23.3771 C241.1028,24.8691 236.2068,27.5491 232.6388,23.8111 C229.5728,20.5981 227.7058,17.2511 228.8038,12.4361 C229.6898,8.5511 242.4928,12.2121 241.2668,23.3771" id="Fill-146" fill="#000002"></path>
                            <path d="M265.1696,47.1466 L265.1686,47.1476 C265.1146,46.8016 264.2016,46.5186 263.7566,46.8166 C250.9496,55.3666 259.4006,60.3066 262.2726,58.6576 C270.1466,54.1336 265.8186,51.6066 265.1696,47.1466" id="Fill-150" fill="#000002"></path>
                            <path d="M248.1403,68.0705 C245.5643,70.6855 247.2973,70.1495 242.0383,70.1495 C234.1203,70.1495 235.2283,65.3305 234.9373,58.6115 C234.7113,53.4015 246.3023,49.4495 249.7883,53.6255 C252.6273,57.0365 252.1263,64.0265 248.1393,68.0705 L248.1403,68.0705 Z" id="Fill-152" fill="#000002"></path>
                            <path d="M265.5094,87.2096 L265.5094,87.2106 C261.8524,87.2106 254.8034,85.7856 254.8014,80.9986 C254.8014,59.7876 295.4904,87.2096 265.5094,87.2096" id="Fill-154" fill="#000002"></path>
                            <path d="M279.7878,62.8034 C279.6958,62.2464 278.8458,61.7624 277.8688,61.2194 C277.0228,60.7504 272.1688,60.8214 274.4998,66.0814 C276.3408,70.2414 286.3648,76.8194 286.6818,76.2254 C294.0918,77.2204 293.6638,75.2484 291.3478,70.0144 C288.7788,64.2214 280.1318,64.9144 279.7878,62.8044 L279.7878,62.8034 Z" id="Fill-156" fill="#000002"></path>
                            <path d="M303.2555,61.0343 C304.4825,49.8653 291.6815,46.2043 290.7935,50.0933 C289.6955,54.9083 291.5615,58.2523 294.6315,61.4673 C298.1985,65.2023 303.0925,62.5233 303.2555,61.0343" id="Fill-158" fill="#000002"></path>
                            <path d="M243.8366,90.2838 C243.6726,91.7768 238.7796,94.4558 235.2116,90.7188 C232.1416,87.5048 230.2756,84.1578 231.3766,79.3428 C232.2616,75.4578 245.0626,79.1188 243.8366,90.2838" id="Fill-160" fill="#000002"></path>
                            <path d="M296.195,129.3131 C306.177,138.2961 308.283,117.9101 308.049,116.7121 C307.719,105.2591 279.603,114.3851 296.195,129.3131" id="Fill-170" fill="#000002"></path>
                            <path d="M278.3629,114.3668 C275.7829,116.9818 277.5169,116.4458 272.2599,116.4458 C264.3439,116.4458 265.4489,111.6268 265.1569,104.9068 C264.9299,99.6978 276.5209,95.7418 280.0079,99.9218 C282.8469,103.3328 282.3449,110.3198 278.3629,114.3668" id="Fill-172" fill="#000002"></path>
                            <path d="M258.9499,120.2516 C262.2929,121.1076 266.2269,131.6866 256.6969,131.6866 C249.9069,131.6866 248.7539,122.3546 253.9599,120.1306 C259.6609,117.6926 258.0399,120.0216 258.9489,120.2516 L258.9499,120.2516 Z" id="Fill-174" fill="#000002"></path>
                            <path d="M244.8952,116.8073 C244.7312,118.2973 239.8382,120.9773 236.2672,117.2383 C233.2012,114.0253 231.3342,110.6783 232.4322,105.8633 C233.3212,101.9783 246.1212,105.6403 244.8952,116.8083 L244.8952,116.8073 Z" id="Fill-176" fill="#000002"></path>
                            <path d="M316.7096,85.5436 C317.9356,74.3746 305.1356,70.7146 304.2466,74.6016 C303.1486,79.4166 305.0146,82.7616 308.0846,85.9776 C311.6526,89.7116 316.5466,87.0326 316.7096,85.5436" id="Fill-180" fill="#000002"></path>
                            <path d="M295.2848,105.2267 C304.5028,98.8017 298.8388,86.7547 295.3268,88.6427 C290.9768,90.9837 289.6878,94.5867 289.2868,99.0157 C288.8168,104.1607 294.0558,106.0837 295.2848,105.2267" id="Fill-182" fill="#000002"></path>
                            <path d="M389.8288,106.1652 C399.8138,115.1482 401.9178,94.7622 401.6828,93.5632 C401.3558,82.1102 373.2398,91.2372 389.8278,106.1652 L389.8288,106.1652 Z" id="Fill-294" fill="#000002"></path>
                            <path d="M370.5827,102.6437 L370.5817,102.6437 C370.0447,104.7117 378.2327,107.5787 378.2317,113.9187 C378.2317,119.6447 377.8247,121.6157 371.4517,117.7067 C370.9197,118.1227 364.4197,108.0477 364.4197,103.4967 C364.4197,97.7437 368.8877,99.6437 369.4697,100.4147 C370.1407,101.3067 370.7287,102.0957 370.5827,102.6437" id="Fill-296" fill="#000002"></path>
                            <path d="M371.9967,91.2145 C369.4177,93.8335 371.1497,93.2975 365.8937,93.2975 C357.9767,93.2975 359.0817,88.4785 358.7907,81.7585 C358.5667,76.5485 370.1557,72.5945 373.6417,76.7735 C376.4847,80.1845 375.9797,87.1715 371.9957,91.2155 L371.9967,91.2145 Z" id="Fill-298" fill="#000002"></path>
                            <path d="M352.5827,97.1032 C355.9277,97.9592 359.8607,108.5392 350.3337,108.5392 C343.5397,108.5392 342.3917,99.2072 347.5937,96.9822 C353.2977,94.5442 351.6767,96.8732 352.5827,97.1032" id="Fill-300" fill="#000002"></path>
                            <path d="M338.529,93.6593 C338.365,95.1493 333.471,97.8283 329.903,94.0903 C326.835,90.8773 324.967,87.5303 326.065,82.7153 C326.955,78.8303 339.754,82.4913 338.528,93.6603 L338.529,93.6593 Z" id="Fill-302" fill="#000002"></path>
                            <path d="M362.4294,117.4259 C362.3804,117.0809 361.4634,116.7979 361.0194,117.0949 C348.2154,125.6459 356.6654,130.5859 359.5334,128.9369 C367.4084,124.4129 363.0844,121.8859 362.4294,117.4259" id="Fill-304" fill="#000002"></path>
                            <path d="M345.4049,138.3493 C342.8249,140.9653 344.5629,140.4293 339.3019,140.4293 C331.3859,140.4293 332.4909,135.6103 332.1989,128.8903 C331.9749,123.6803 343.5629,119.7283 347.0499,123.9043 C349.8919,127.3163 349.3879,134.3063 345.4049,138.3493 Z" id="Fill-306" fill="#000002"></path>
                            <path d="M362.7721,157.4889 L362.7711,157.4899 C359.1141,157.4899 352.0671,156.0639 352.0671,151.2809 C352.0671,130.0669 392.7521,157.4889 362.7721,157.4889" id="Fill-308" fill="#000002"></path>
                            <path d="M377.0524,133.0836 C376.9614,132.5246 376.1084,132.0416 375.1294,131.4986 C374.2884,131.0296 369.4334,131.1006 371.7654,136.3596 C373.6074,140.5206 383.6274,147.0986 383.9434,146.5046 C391.3524,147.5006 390.9294,145.5306 388.6084,140.2966 C386.0434,134.5006 377.3974,135.1936 377.0524,133.0836" id="Fill-310" fill="#000002"></path>
                            <path d="M400.5211,131.3136 L400.5201,131.3136 C401.7471,120.1446 388.9431,116.4836 388.0571,120.3726 C386.9591,125.1876 388.8261,128.5306 391.8921,131.7466 C395.4601,135.4856 400.3541,132.8056 400.5211,131.3136" id="Fill-312" fill="#000002"></path>
                            <path d="M413.9753,155.8229 C413.8113,157.3109 408.9173,159.9959 405.3463,156.2569 C402.2773,153.0409 400.4143,149.6969 401.5123,144.8819 C402.3983,140.9929 415.1973,144.6539 413.9753,155.8229" id="Fill-316" fill="#000002"></path>
                            <path d="M353.8971,50.6081 C352.0411,53.5191 340.7631,53.9561 343.7351,44.9041 C345.8531,38.4511 355.0771,40.2681 355.5681,45.9061 C356.1041,52.0871 354.3981,49.8191 353.8971,50.6081 Z" id="Fill-344" fill="#000002"></path>
                        </g>
                    </g>
                </g>
            </g>
        </g>
    </g>
</svg>