<?xml version="1.0" encoding="UTF-8"?>
<svg width="15px" height="14px" viewBox="0 0 15 14" version="1.1" xmlns="http://www.w3.org/2000/svg" xmlns:xlink="http://www.w3.org/1999/xlink">
    <!-- Generator: Sketch 50.2 (55047) - http://www.bohemiancoding.com/sketch -->
    <title>arrow</title>
    <desc>Created with Sketch.</desc>
    <defs></defs>
    <g id="Page-1" stroke="none" stroke-width="1" fill="none" fill-rule="evenodd">
        <g id="Homepage-Symptoms-A" transform="translate(-772.000000, -578.000000)" fill="#FFFFFF">
            <g id="Group-5" transform="translate(586.000000, 560.000000)">
                <g id="Primary-red-btn">
                    <g id="Group-6" transform="translate(28.000000, 13.000000)">
                        <path d="M172.635,12.907491 C172.660167,12.8815936 172.683,12.8553532 172.7045,12.8291128 C172.716,12.8152208 172.726667,12.8004713 172.7375,12.7858933 C172.742667,12.7786901 172.748333,12.7716584 172.753333,12.7646266 C172.907833,12.5505873 173,12.2866398 173,11.9998821 C173,11.7131243 172.908,11.4496914 172.754167,11.2358236 C172.7475,11.2260478 172.740333,11.2164434 172.733167,11.2071821 C172.724,11.1953482 172.715167,11.1835143 172.705667,11.1720234 C172.683833,11.144754 172.660333,11.1178276 172.633833,11.0905581 L167.081,5.37649819 C166.593,4.8745006 165.801333,4.8745006 165.313167,5.37649819 C164.825167,5.87883878 164.825167,6.69349151 165.313167,7.1956606 L168.732167,10.7132453 L159.249833,10.7135883 C158.559667,10.7135883 158,11.2891619 158,11.9995391 C158,12.7100878 158.5595,13.2858329 159.25,13.2858329 L168.732,13.2858329 L165.313,16.8042751 C164.825,17.3064442 164.825,18.1207539 165.313,18.623266 C165.801333,19.1256066 166.592833,19.1256066 167.081,18.6230945 L172.633,12.9100636 L172.635,12.907491 Z" id="arrow"></path>
                    </g>
                </g>
            </g>
        </g>
    </g>
</svg>